<svg width="242" height="56" viewBox="0 0 242 56" fill="none" xmlns="http://www.w3.org/2000/svg">
<g id="active">
<path id="Vector 48" opacity="0.1" d="M241.063 55.2009L217.545 10.3037L202.936 55.2009H241.063Z" fill="black"/>
<path id="Vector 46" d="M219.271 33.3594C220.244 40.6476 220.068 54.0123 232.211 55.1266H235.676C234.421 55.2278 233.269 55.2237 232.211 55.1266H219.271V33.3594Z" fill="white" stroke="none"/>
<path id="Rectangle 96" d="M17 20C17 8.9543 25.9543 0 37 0H200.194C211.24 0 220.194 8.95431 220.194 20V55.2012H17V20Z" fill="white" stroke="none"/>
<path id="Vector 47" d="M17.0137 33.3594C16.0407 40.6476 16.2172 54.0123 4.07456 55.1266H0.609377C1.86399 55.2278 3.01608 55.2237 4.07456 55.1266H17.0137V33.3594Z" fill="white" stroke="none"/>
</g>
</svg>
