<svg width="280" height="197" viewBox="0 0 280 197" fill="none" xmlns="http://www.w3.org/2000/svg">
<path d="M64.4474 7.25057C78.8126 -6.05191 98.5571 0.913173 113.01 12.3987C122.976 20.3218 138.751 38.5301 152.841 29.0818C158.947 24.9854 162.955 18.5984 168.329 13.7311C176.015 6.77155 187.501 4.21677 196.872 8.90788C211.061 16.0106 215.455 24.8202 219.623 39.2569C222.112 47.8738 222.915 56.8486 222.376 65.8013C221.577 79.0047 214.475 91.7731 216.941 105.081C218.257 112.195 222.095 117.007 227.265 121.88C231.989 126.334 239.681 129.065 240.843 135.777C243.282 149.839 236.146 165.509 222.326 170.327C211.595 174.071 197.478 171.593 187.732 166.33C172.866 158.302 162.305 145.963 144.108 153.76C133.267 158.407 130.294 170.553 121.958 178.002C116.341 183.018 109.261 188.15 101.574 188.249C92.5555 188.365 83.1513 184.538 76.1477 179.038C65.9836 171.054 60.4391 158.313 56.0178 146.53C53.2978 139.284 45.5399 130.111 28.664 125.134C12.5259 120.371 8.2918 97.8241 25.2833 87.4288C48.1937 73.4161 59.3379 62.8391 57.7632 45.0162C57.4713 41.7236 51.9874 18.8076 64.4529 7.26158L64.4474 7.25057Z" fill="#E3EBF7"/>
<path d="M163.742 18.433C164.733 22.4909 162.25 26.5819 158.198 27.5729C154.14 28.564 150.049 26.0808 149.058 22.0284C148.067 17.976 150.55 13.8795 154.602 12.8884C158.66 11.8974 162.751 14.3806 163.742 18.433Z" fill="#E3EBF7"/>
<path d="M144.295 14.8101C144.598 16.06 143.838 17.3154 142.588 17.6237C141.338 17.9265 140.083 17.1667 139.774 15.9169C139.472 14.667 140.231 13.4116 141.481 13.1033C142.731 12.8005 143.987 13.5603 144.295 14.8101Z" fill="#E3EBF7"/>
<path d="M179.489 163.494C180.117 166.066 178.542 168.664 175.971 169.292C173.4 169.92 170.801 168.345 170.173 165.774C169.545 163.202 171.12 160.604 173.691 159.976C176.263 159.348 178.861 160.923 179.489 163.494Z" fill="#E3EBF7"/>
<path d="M165.46 162.437C165.708 163.45 165.086 164.474 164.073 164.722C163.06 164.97 162.036 164.347 161.788 163.334C161.54 162.321 162.162 161.297 163.175 161.049C164.188 160.802 165.213 161.424 165.46 162.437Z" fill="#E3EBF7"/>
<path d="M45.6057 65.3058C45.8755 66.396 45.2038 67.4972 44.1136 67.767C43.0234 68.0368 41.9222 67.3651 41.6524 66.2749C41.3826 65.1847 42.0543 64.0835 43.1445 63.8137C44.2347 63.5439 45.3359 64.2156 45.6057 65.3058Z" fill="#E3EBF7"/>
<path d="M61.7561 47.6789C64.5001 43.1443 63.0487 37.2437 58.5141 34.4996C53.9795 31.7556 48.0789 33.2071 45.3348 37.7417C42.5907 42.2763 44.0422 48.1768 48.5768 50.9209C53.1114 53.665 59.012 52.2135 61.7561 47.6789Z" fill="#E3EBF7"/>
<path d="M82.6475 40.154C82.6475 40.5945 82.2896 40.9524 81.8491 40.9524C81.4087 40.9524 81.0508 40.5945 81.0508 40.154C81.0508 39.7135 81.4087 39.3557 81.8491 39.3557C82.2896 39.3557 82.6475 39.7135 82.6475 40.154Z" fill="white"/>
<path d="M79.7181 34.4223C79.7181 35.5235 78.8206 36.421 77.7194 36.421C76.6182 36.421 75.7207 35.5235 75.7207 34.4223C75.7207 33.3211 76.6182 32.4236 77.7194 32.4236C78.8206 32.4236 79.7181 33.3211 79.7181 34.4223Z" fill="white"/>
<path d="M86.1108 34.9563C86.1108 35.3252 85.8135 35.6225 85.4445 35.6225C85.0756 35.6225 84.7783 35.3252 84.7783 34.9563C84.7783 34.5874 85.0756 34.2901 85.4445 34.2901C85.8135 34.2901 86.1108 34.5874 86.1108 34.9563Z" fill="white"/>
<path d="M171.826 31.8349C171.826 32.1267 171.589 32.3689 171.292 32.3689C170.995 32.3689 170.758 32.1322 170.758 31.8349C170.758 31.5375 170.995 31.3008 171.292 31.3008C171.589 31.3008 171.826 31.5375 171.826 31.8349Z" fill="white"/>
<path d="M171.556 26.5052C171.556 27.6835 170.603 28.636 169.425 28.636C168.246 28.636 167.294 27.6835 167.294 26.5052C167.294 25.3269 168.246 24.3744 169.425 24.3744C170.603 24.3744 171.556 25.3269 171.556 26.5052Z" fill="white"/>
<path d="M230.808 99.4425C230.808 99.8114 230.511 100.109 230.142 100.109C229.773 100.109 229.476 99.8114 229.476 99.4425C229.476 99.0736 229.773 98.7762 230.142 98.7762C230.511 98.7762 230.808 99.0736 230.808 99.4425Z" fill="white"/>
<path d="M232.944 96.1113C233.826 96.1113 234.541 95.3964 234.541 94.5146C234.541 93.6327 233.826 92.9178 232.944 92.9178C232.063 92.9178 231.348 93.6327 231.348 94.5146C231.348 95.3964 232.063 96.1113 232.944 96.1113Z" fill="white"/>
<path d="M237.47 103.176C237.47 103.693 237.052 104.106 236.54 104.106C236.028 104.106 235.609 103.688 235.609 103.176C235.609 102.664 236.028 102.245 236.54 102.245C237.052 102.245 237.47 102.664 237.47 103.176Z" fill="white"/>
<path d="M230.01 148.077C230.01 148.369 229.773 148.611 229.475 148.611C229.178 148.611 228.941 148.374 228.941 148.077C228.941 147.78 229.178 147.543 229.475 147.543C229.773 147.543 230.01 147.78 230.01 148.077Z" fill="white"/>
<path d="M228.413 143.413C228.413 144.514 227.516 145.412 226.415 145.412C225.313 145.412 224.416 144.514 224.416 143.413C224.416 142.312 225.313 141.414 226.415 141.414C227.516 141.414 228.413 142.312 228.413 143.413Z" fill="white"/>
<path d="M20.0225 166.197C20.0225 166.638 19.6646 166.996 19.2242 166.996C18.7837 166.996 18.4258 166.638 18.4258 166.197C18.4258 165.757 18.7837 165.399 19.2242 165.399C19.6646 165.399 20.0225 165.757 20.0225 166.197Z" fill="white"/>
<path d="M16.5591 162.602C16.5591 163.852 15.546 164.865 14.2962 164.865C13.0463 164.865 12.0332 163.852 12.0332 162.602C12.0332 161.352 13.0463 160.339 14.2962 160.339C15.546 160.339 16.5591 161.352 16.5591 162.602Z" fill="white"/>
<path d="M23.7557 72.3972C23.7557 72.689 23.5189 72.9313 23.2216 72.9313C22.9243 72.9313 22.6875 72.6945 22.6875 72.3972C22.6875 72.0998 22.9243 71.8631 23.2216 71.8631C23.5189 71.8631 23.7557 72.0998 23.7557 72.3972Z" fill="white"/>
<path d="M22.957 66.2691C22.957 67.4473 22.0044 68.3999 20.8261 68.3999C19.6478 68.3999 18.6953 67.4473 18.6953 66.2691C18.6953 65.0908 19.6478 64.1382 20.8261 64.1382C22.0044 64.1382 22.957 65.0908 22.957 66.2691Z" fill="white"/>
<path d="M232.411 45.8803C232.411 46.2492 232.113 46.5465 231.744 46.5465C231.375 46.5465 231.078 46.2492 231.078 45.8803C231.078 45.5114 231.375 45.2141 231.744 45.2141C232.113 45.2141 232.411 45.5114 232.411 45.8803Z" fill="white"/>
<path d="M234.409 39.8895C235.367 39.8895 236.144 39.113 236.144 38.1551C236.144 37.1972 235.367 36.4207 234.409 36.4207C233.451 36.4207 232.675 37.1972 232.675 38.1551C232.675 39.113 233.451 39.8895 234.409 39.8895Z" fill="white"/>
<path d="M240.711 147.736C240.711 148.645 239.973 149.382 239.064 149.382C238.156 149.382 237.418 148.645 237.418 147.736C237.418 146.828 238.156 146.09 239.064 146.09C239.973 146.09 240.711 146.828 240.711 147.736Z" stroke="white" stroke-width="1.01" stroke-miterlimit="10"/>
<path d="M224.011 136.999C224.488 136.999 224.875 136.612 224.875 136.135C224.875 135.658 224.488 135.27 224.011 135.27C223.534 135.27 223.146 135.658 223.146 136.135C223.146 136.612 223.534 136.999 224.011 136.999Z" stroke="white" stroke-width="1.01" stroke-miterlimit="10"/>
<path d="M242.908 85.3255C242.908 86.8397 241.68 88.0675 240.166 88.0675C238.652 88.0675 237.424 86.8397 237.424 85.3255C237.424 83.8114 238.652 82.5836 240.166 82.5836C241.68 82.5836 242.908 83.8114 242.908 85.3255Z" stroke="white" stroke-width="1.01" stroke-miterlimit="10"/>
<path d="M238.591 77.7217C238.98 77.7217 239.295 77.4062 239.295 77.017C239.295 76.6277 238.98 76.3122 238.591 76.3122C238.201 76.3122 237.886 76.6277 237.886 77.017C237.886 77.4062 238.201 77.7217 238.591 77.7217Z" stroke="white" stroke-width="1.01" stroke-miterlimit="10"/>
<path d="M188.288 22.464C187.925 22.6071 187.517 22.4309 187.374 22.0675C187.231 21.7042 187.407 21.2967 187.77 21.1536C188.134 21.0104 188.541 21.1866 188.684 21.55C188.828 21.9134 188.651 22.3208 188.288 22.464Z" stroke="white" stroke-width="1.01" stroke-miterlimit="10"/>
<path d="M193.789 16.5667C192.825 16.9521 191.73 16.4786 191.344 15.515C190.959 14.5515 191.432 13.4558 192.396 13.0704C193.359 12.6849 194.455 13.1585 194.84 14.122C195.226 15.0856 194.752 16.1813 193.789 16.5667Z" stroke="white" stroke-width="1.01" stroke-miterlimit="10"/>
<path d="M95.1435 29.4236C95.7487 29.4236 96.2392 28.933 96.2392 28.3279C96.2392 27.7227 95.7487 27.2322 95.1435 27.2322C94.5384 27.2322 94.0479 27.7227 94.0479 28.3279C94.0479 28.933 94.5384 29.4236 95.1435 29.4236Z" stroke="white" stroke-width="1.01" stroke-miterlimit="10"/>
<path d="M88.244 22.9923C89.7158 22.9923 90.9089 21.7992 90.9089 20.3274C90.9089 18.8557 89.7158 17.6625 88.244 17.6625C86.7722 17.6625 85.5791 18.8557 85.5791 20.3274C85.5791 21.7992 86.7722 22.9923 88.244 22.9923Z" stroke="white" stroke-width="1.01" stroke-miterlimit="10"/>
<path d="M102.51 23.4659C102.51 23.9008 102.158 24.2477 101.728 24.2477C101.299 24.2477 100.946 23.8953 100.946 23.4659C100.946 23.0364 101.299 22.684 101.728 22.684C102.158 22.684 102.51 23.0364 102.51 23.4659Z" stroke="white" stroke-width="1.01" stroke-miterlimit="10"/>
<path d="M34.0323 60.0806C34.0323 60.6422 33.5753 61.0992 33.0137 61.0992C32.4521 61.0992 31.9951 60.6422 31.9951 60.0806C31.9951 59.519 32.4521 59.062 33.0137 59.062C33.5753 59.062 34.0323 59.519 34.0323 60.0806Z" stroke="white" stroke-width="1.01" stroke-miterlimit="10"/>
<path d="M27.7612 55.4557C29.0597 55.4557 30.1123 54.4031 30.1123 53.1046C30.1123 51.8061 29.0597 50.7535 27.7612 50.7535C26.4628 50.7535 25.4102 51.8061 25.4102 53.1046C25.4102 54.4031 26.4628 55.4557 27.7612 55.4557Z" stroke="white" stroke-width="1.01" stroke-miterlimit="10"/>
<path d="M15.2957 130.882C15.5998 130.882 15.8463 130.636 15.8463 130.332C15.8463 130.028 15.5998 129.781 15.2957 129.781C14.9916 129.781 14.7451 130.028 14.7451 130.332C14.7451 130.636 14.9916 130.882 15.2957 130.882Z" stroke="white" stroke-width="1.01" stroke-miterlimit="10"/>
<path d="M9.49212 124.925C10.3162 124.925 10.9842 124.257 10.9842 123.433C10.9842 122.609 10.3162 121.941 9.49212 121.941C8.66805 121.941 8 122.609 8 123.433C8 124.257 8.66805 124.925 9.49212 124.925Z" stroke="white" stroke-width="1.01" stroke-miterlimit="10"/>
<path d="M15.0588 187.803C15.0588 189.014 14.0732 190 12.8619 190C11.6506 190 10.665 189.014 10.665 187.803C10.665 186.592 11.6506 185.606 12.8619 185.606C14.0732 185.606 15.0588 186.592 15.0588 187.803Z" stroke="white" stroke-width="1.01" stroke-miterlimit="10"/>
<path d="M140 197C217.32 197 280 190.284 280 182C280 173.716 217.32 167 140 167C62.6801 167 0 173.716 0 182C0 190.284 62.6801 197 140 197Z" fill="#F3F7FC"/>
<path d="M206.873 64.5479H201.459V174.872H206.873V64.5479Z" fill="#3E61AA"/>
<path d="M206.368 64.5479H200.953V174.872H206.368V64.5479Z" fill="#829DD3"/>
<path d="M204.635 174.872H125.896V59.3058C149.595 49.6267 178.577 50.898 199.859 59.4628C200.857 60.1871 203.379 62.9981 204.524 64.553L204.63 174.877L204.635 174.872Z" fill="#F8F7F0"/>
<path d="M199.97 174.872H121.231V59.3059C147.63 48.5227 176.545 48.5227 199.97 59.3059V174.877V174.872Z" fill="#F2F0E0"/>
<g style="mix-blend-mode:multiply" opacity="0.24">
<path d="M126.018 57.4774C124.412 58.0497 122.817 58.6524 121.231 59.3007V174.872H199.97V165.821C131.62 176.442 119.55 102.54 126.023 57.4774H126.018Z" fill="#F8F7F0"/>
</g>
<path d="M75.2822 174.872H121.236V59.3059C106.234 40.6012 90.9885 40.8342 75.2822 38.4891V174.872Z" fill="#F8F7F0"/>
<path d="M71.1344 174.872H65.4668V41.6093L66.733 40.8039L71.1344 40.7736V174.872Z" fill="#3E61AA"/>
<path d="M72.4459 40.7736H66.7783V174.872H72.4459V40.7736Z" fill="#829DD3"/>
<path d="M75.2829 174.872H69.6152V40.7734C70.9929 40.2264 73.4696 39.2742 75.2829 38.4891V174.872Z" fill="#F5F2DF"/>
<path d="M115.068 67.3538C114.931 67.3538 114.795 67.298 114.693 67.1866C108.327 60.2832 96.6065 54.9903 85.5296 54.0078C85.246 53.9824 85.0383 53.7342 85.0636 53.4506C85.0889 53.167 85.327 52.9543 85.6208 52.9846C96.9357 53.9875 108.924 59.412 115.448 66.4877C115.64 66.6953 115.625 67.0195 115.418 67.2119C115.321 67.3031 115.195 67.3487 115.068 67.3487V67.3538Z" fill="#DBDBDB"/>
<path d="M115.068 80.3303C114.931 80.3303 114.795 80.2746 114.693 80.1632C108.327 73.2597 96.6065 67.9669 85.5296 66.9843C85.246 66.959 85.0383 66.7108 85.0636 66.4272C85.0889 66.1435 85.327 65.9308 85.6208 65.9612C96.9357 66.9641 108.924 72.3886 115.448 79.4642C115.64 79.6719 115.625 79.996 115.418 80.1885C115.321 80.2797 115.195 80.3253 115.068 80.3253V80.3303Z" fill="#DBDBDB"/>
<path d="M115.068 93.3114C114.931 93.3114 114.795 93.2557 114.693 93.1443C108.327 86.2408 96.6065 80.948 85.5296 79.9654C85.246 79.9401 85.0383 79.6919 85.0636 79.4082C85.0889 79.1246 85.327 78.917 85.6208 78.9423C96.9357 79.9451 108.924 85.3696 115.448 92.4453C115.64 92.653 115.625 92.9771 115.418 93.1696C115.321 93.2607 115.195 93.3063 115.068 93.3063V93.3114Z" fill="#DBDBDB"/>
<path d="M115.068 106.288C114.931 106.288 114.795 106.232 114.693 106.121C108.327 99.2173 96.6065 93.9245 85.5296 92.9419C85.246 92.9166 85.0383 92.6684 85.0636 92.3848C85.0889 92.1011 85.327 91.8935 85.6208 91.9188C96.9357 92.9216 108.924 98.3461 115.448 105.422C115.64 105.629 115.625 105.954 115.418 106.146C115.321 106.237 115.195 106.283 115.068 106.283V106.288Z" fill="#DBDBDB"/>
<path d="M115.068 119.264C114.931 119.264 114.795 119.208 114.693 119.097C108.327 112.194 96.6065 106.901 85.5296 105.918C85.246 105.893 85.0383 105.645 85.0636 105.361C85.0889 105.077 85.327 104.87 85.6208 104.895C96.9357 105.898 108.924 111.322 115.448 118.398C115.64 118.606 115.625 118.93 115.418 119.122C115.321 119.213 115.195 119.259 115.068 119.259V119.264Z" fill="#DBDBDB"/>
<path d="M115.067 132.24C114.956 132.24 114.84 132.205 114.743 132.124C108.746 127.262 97.3758 121.564 85.4935 119.796C85.215 119.755 85.0225 119.492 85.063 119.214C85.1035 118.935 85.3618 118.743 85.6455 118.783C97.7202 120.581 109.283 126.38 115.392 131.329C115.609 131.506 115.645 131.83 115.468 132.048C115.366 132.175 115.219 132.235 115.067 132.235V132.24Z" fill="#DBDBDB"/>
<path d="M115.067 145.222C114.966 145.222 114.87 145.191 114.779 145.136C107.855 140.451 96.0993 136.622 85.5187 135.609C85.2351 135.583 85.0325 135.33 85.0578 135.051C85.0831 134.773 85.3414 134.555 85.6149 134.59C96.3475 135.614 108.301 139.514 115.351 144.285C115.584 144.442 115.645 144.761 115.488 144.994C115.386 145.141 115.229 145.217 115.062 145.217L115.067 145.222Z" fill="#DBDBDB"/>
<path d="M115.068 158.198C115.027 158.198 114.982 158.198 114.941 158.183C102.836 155.124 93.2228 153.508 85.5494 153.245C85.2658 153.234 85.0429 152.996 85.0531 152.718C85.0632 152.434 85.2962 152.191 85.5798 152.221C93.324 152.485 103.008 154.111 115.184 157.19C115.458 157.261 115.625 157.54 115.554 157.813C115.493 158.046 115.285 158.198 115.058 158.198H115.068Z" fill="#DBDBDB"/>
<path d="M136.346 65.9657C136.548 66.0253 136.766 66.0266 136.95 65.9541C148.469 61.499 167.373 61.067 183.992 64.8702C184.418 64.9675 184.801 64.798 184.851 64.4898C184.902 64.1816 184.618 63.8549 184.175 63.7586C167.2 59.8727 147.859 60.3255 136.056 64.8925C135.708 65.0261 135.629 65.3724 135.876 65.6646C135.989 65.8021 136.161 65.9051 136.348 65.9603L136.346 65.9657Z" fill="#D5D5D5"/>
<path d="M136.346 80.9661C136.548 81.0258 136.766 81.0271 136.95 80.9545C148.469 76.4994 167.373 76.0675 183.992 79.8707C184.418 79.9679 184.801 79.7985 184.851 79.4903C184.902 79.1821 184.618 78.8554 184.175 78.759C167.2 74.8732 147.859 75.326 136.056 79.893C135.708 80.0266 135.629 80.3728 135.876 80.6651C135.989 80.8026 136.161 80.9056 136.348 80.9608L136.346 80.9661Z" fill="#D5D5D5"/>
<path d="M136.346 95.9661C136.548 96.0258 136.766 96.0271 136.95 95.9545C148.469 91.4994 167.373 91.0675 183.992 94.8707C184.418 94.9679 184.801 94.7985 184.851 94.4903C184.902 94.1821 184.618 93.8554 184.175 93.759C167.2 89.8732 147.859 90.326 136.056 94.893C135.708 95.0266 135.629 95.3728 135.876 95.6651C135.989 95.8026 136.161 95.9056 136.348 95.9608L136.346 95.9661Z" fill="#D5D5D5"/>
<path d="M136.346 110.966C136.548 111.026 136.766 111.027 136.95 110.955C148.469 106.499 167.373 106.067 183.992 109.871C184.418 109.968 184.801 109.799 184.851 109.49C184.902 109.182 184.618 108.855 184.175 108.759C167.2 104.873 147.859 105.326 136.056 109.893C135.708 110.027 135.629 110.373 135.876 110.665C135.989 110.803 136.161 110.906 136.348 110.961L136.346 110.966Z" fill="#D5D5D5"/>
<path d="M136.346 125.966C136.548 126.026 136.766 126.027 136.95 125.955C148.469 121.499 167.373 121.067 183.992 124.871C184.418 124.968 184.801 124.799 184.851 124.49C184.902 124.182 184.618 123.855 184.175 123.759C167.2 119.873 147.859 120.326 136.056 124.893C135.708 125.027 135.629 125.373 135.876 125.665C135.989 125.803 136.161 125.906 136.348 125.961L136.346 125.966Z" fill="#D5D5D5"/>
<path d="M136.346 140.966C136.548 141.026 136.766 141.027 136.95 140.955C148.469 136.499 167.373 136.067 183.992 139.871C184.418 139.968 184.801 139.799 184.851 139.49C184.902 139.182 184.618 138.855 184.175 138.759C167.2 134.873 147.859 135.326 136.056 139.893C135.708 140.027 135.629 140.373 135.876 140.665C135.989 140.803 136.161 140.906 136.348 140.961L136.346 140.966Z" fill="#D5D5D5"/>
<path d="M136.346 155.966C136.548 156.026 136.766 156.027 136.95 155.955C148.469 151.499 167.373 151.067 183.992 154.871C184.418 154.968 184.801 154.799 184.851 154.49C184.902 154.182 184.618 153.855 184.175 153.759C167.2 149.873 147.859 150.326 136.056 154.893C135.708 155.027 135.629 155.373 135.876 155.665C135.989 155.803 136.161 155.906 136.348 155.961L136.346 155.966Z" fill="#D5D5D5"/>
<path d="M163.386 167.705L164.485 179.575L249.308 171.718L248.209 159.848L163.386 167.705Z" fill="#53709B"/>
<path d="M164.195 176.441L164.485 179.575L249.308 171.718L249.018 168.584L164.195 176.441Z" fill="#405D7F"/>
<path d="M163.387 167.705L163.677 170.839L248.5 162.982L248.209 159.848L163.387 167.705Z" fill="#405D7F"/>
<path d="M249.805 159.7C249.805 159.7 255.772 158.281 256.571 162.234C257.37 166.187 257.911 169.69 254.955 171.195L250.904 171.57L249.805 159.7Z" fill="#D78098"/>
<path d="M245.697 160.081C245.697 160.081 249.483 164.878 246.797 171.95L250.904 171.57C250.904 171.57 253.16 166.162 249.805 159.7L245.697 160.081Z" fill="#FAEE51"/>
<path d="M147.55 175.158L164.479 179.575C164.479 179.575 166.694 176.071 163.379 167.706L147.55 175.158Z" fill="#EAAB8B"/>
<path d="M151.802 176.264C151.802 176.264 152.535 174.914 151.359 173.356L147.542 175.151L151.795 176.265L151.802 176.264Z" fill="black"/>
</svg>
