<svg width="393" height="12" viewBox="0 0 393 12" fill="none" xmlns="http://www.w3.org/2000/svg">
<path d="M25.264 11.154C22.632 11.154 21.022 9.684 21.022 6.8V2.194C21.022 1.592 21.498 1.116 22.1 1.116C22.702 1.116 23.178 1.592 23.178 2.194V6.744C23.178 8.34 23.976 9.166 25.292 9.166C26.608 9.166 27.406 8.368 27.406 6.814V2.194C27.406 1.592 27.882 1.116 28.484 1.116C29.086 1.116 29.562 1.592 29.562 2.194V6.73C29.562 9.698 27.896 11.154 25.264 11.154ZM31.534 10.02V4.476C31.534 3.888 32.01 3.412 32.598 3.412C33.186 3.412 33.662 3.888 33.662 4.476V4.56C34.152 3.93 34.782 3.356 35.86 3.356C37.47 3.356 38.408 4.42 38.408 6.142V10.02C38.408 10.608 37.932 11.084 37.344 11.084C36.756 11.084 36.28 10.608 36.28 10.02V6.814C36.28 5.806 35.804 5.288 34.992 5.288C34.18 5.288 33.662 5.806 33.662 6.814V10.02C33.662 10.608 33.186 11.084 32.598 11.084C32.01 11.084 31.534 10.608 31.534 10.02ZM40.2287 1.732V1.704C40.2287 1.088 40.7467 0.71 41.4187 0.71C42.0907 0.71 42.6087 1.088 42.6087 1.704V1.732C42.6087 2.348 42.0907 2.74 41.4187 2.74C40.7467 2.74 40.2287 2.348 40.2287 1.732ZM40.3547 10.02V4.476C40.3547 3.888 40.8307 3.412 41.4187 3.412C42.0067 3.412 42.4827 3.888 42.4827 4.476V10.02C42.4827 10.608 42.0067 11.084 41.4187 11.084C40.8307 11.084 40.3547 10.608 40.3547 10.02ZM47.0153 11.126C45.7133 11.126 44.8313 10.608 44.8313 8.872V5.316H44.7613C44.2573 5.316 43.8513 4.91 43.8513 4.406C43.8513 3.902 44.2573 3.496 44.7613 3.496H44.8313V2.558C44.8313 1.97 45.3073 1.494 45.8953 1.494C46.4833 1.494 46.9593 1.97 46.9593 2.558V3.496H47.8973C48.4013 3.496 48.8073 3.902 48.8073 4.406C48.8073 4.91 48.4013 5.316 47.8973 5.316H46.9593V8.522C46.9593 9.012 47.1693 9.25 47.6453 9.25C47.7153 9.25 47.8553 9.236 47.8973 9.236C48.3733 9.236 48.7793 9.628 48.7793 10.118C48.7793 10.496 48.5273 10.804 48.2333 10.916C47.8413 11.07 47.4773 11.126 47.0153 11.126ZM56.0291 10.02V3.244L55.2731 3.44C55.1611 3.468 55.0071 3.496 54.8951 3.496C54.3911 3.496 53.9571 3.076 53.9571 2.572C53.9571 2.138 54.2371 1.774 54.6711 1.648L56.0571 1.242C56.4631 1.13 56.7711 1.06 57.0651 1.06H57.0931C57.6811 1.06 58.1571 1.536 58.1571 2.124V10.02C58.1571 10.608 57.6811 11.084 57.0931 11.084C56.5051 11.084 56.0291 10.608 56.0291 10.02Z" fill="#333333"/>
<rect y="4" width="14" height="4" rx="2" fill="#3DBCBF"/>
<path d="M105.264 11.154C102.632 11.154 101.022 9.684 101.022 6.8V2.194C101.022 1.592 101.498 1.116 102.1 1.116C102.702 1.116 103.178 1.592 103.178 2.194V6.744C103.178 8.34 103.976 9.166 105.292 9.166C106.608 9.166 107.406 8.368 107.406 6.814V2.194C107.406 1.592 107.882 1.116 108.484 1.116C109.086 1.116 109.562 1.592 109.562 2.194V6.73C109.562 9.698 107.896 11.154 105.264 11.154ZM111.534 10.02V4.476C111.534 3.888 112.01 3.412 112.598 3.412C113.186 3.412 113.662 3.888 113.662 4.476V4.56C114.152 3.93 114.782 3.356 115.86 3.356C117.47 3.356 118.408 4.42 118.408 6.142V10.02C118.408 10.608 117.932 11.084 117.344 11.084C116.756 11.084 116.28 10.608 116.28 10.02V6.814C116.28 5.806 115.804 5.288 114.992 5.288C114.18 5.288 113.662 5.806 113.662 6.814V10.02C113.662 10.608 113.186 11.084 112.598 11.084C112.01 11.084 111.534 10.608 111.534 10.02ZM120.229 1.732V1.704C120.229 1.088 120.747 0.71 121.419 0.71C122.091 0.71 122.609 1.088 122.609 1.704V1.732C122.609 2.348 122.091 2.74 121.419 2.74C120.747 2.74 120.229 2.348 120.229 1.732ZM120.355 10.02V4.476C120.355 3.888 120.831 3.412 121.419 3.412C122.007 3.412 122.483 3.888 122.483 4.476V10.02C122.483 10.608 122.007 11.084 121.419 11.084C120.831 11.084 120.355 10.608 120.355 10.02ZM127.015 11.126C125.713 11.126 124.831 10.608 124.831 8.872V5.316H124.761C124.257 5.316 123.851 4.91 123.851 4.406C123.851 3.902 124.257 3.496 124.761 3.496H124.831V2.558C124.831 1.97 125.307 1.494 125.895 1.494C126.483 1.494 126.959 1.97 126.959 2.558V3.496H127.897C128.401 3.496 128.807 3.902 128.807 4.406C128.807 4.91 128.401 5.316 127.897 5.316H126.959V8.522C126.959 9.012 127.169 9.25 127.645 9.25C127.715 9.25 127.855 9.236 127.897 9.236C128.373 9.236 128.779 9.628 128.779 10.118C128.779 10.496 128.527 10.804 128.233 10.916C127.841 11.07 127.477 11.126 127.015 11.126ZM134.139 9.978C134.139 9.558 134.335 9.194 134.699 8.9L137.485 6.618C138.703 5.624 139.179 5.078 139.179 4.266C139.179 3.44 138.633 2.992 137.863 2.992C137.247 2.992 136.813 3.258 136.267 3.846C136.127 4 135.875 4.154 135.539 4.154C134.993 4.154 134.559 3.72 134.559 3.174C134.559 2.936 134.657 2.684 134.811 2.502C135.595 1.592 136.519 1.06 138.003 1.06C140.033 1.06 141.377 2.25 141.377 4.084V4.112C141.377 5.75 140.537 6.562 138.801 7.906L137.205 9.138H140.621C141.139 9.138 141.559 9.558 141.559 10.076C141.559 10.594 141.139 11 140.621 11H135.301C134.629 11 134.139 10.622 134.139 9.978Z" fill="#333333"/>
<rect x="80" y="4" width="14" height="4" rx="2" fill="#F77488"/>
<path d="M188.264 11.154C185.632 11.154 184.022 9.684 184.022 6.8V2.194C184.022 1.592 184.498 1.116 185.1 1.116C185.702 1.116 186.178 1.592 186.178 2.194V6.744C186.178 8.34 186.976 9.166 188.292 9.166C189.608 9.166 190.406 8.368 190.406 6.814V2.194C190.406 1.592 190.882 1.116 191.484 1.116C192.086 1.116 192.562 1.592 192.562 2.194V6.73C192.562 9.698 190.896 11.154 188.264 11.154ZM194.534 10.02V4.476C194.534 3.888 195.01 3.412 195.598 3.412C196.186 3.412 196.662 3.888 196.662 4.476V4.56C197.152 3.93 197.782 3.356 198.86 3.356C200.47 3.356 201.408 4.42 201.408 6.142V10.02C201.408 10.608 200.932 11.084 200.344 11.084C199.756 11.084 199.28 10.608 199.28 10.02V6.814C199.28 5.806 198.804 5.288 197.992 5.288C197.18 5.288 196.662 5.806 196.662 6.814V10.02C196.662 10.608 196.186 11.084 195.598 11.084C195.01 11.084 194.534 10.608 194.534 10.02ZM203.229 1.732V1.704C203.229 1.088 203.747 0.71 204.419 0.71C205.091 0.71 205.609 1.088 205.609 1.704V1.732C205.609 2.348 205.091 2.74 204.419 2.74C203.747 2.74 203.229 2.348 203.229 1.732ZM203.355 10.02V4.476C203.355 3.888 203.831 3.412 204.419 3.412C205.007 3.412 205.483 3.888 205.483 4.476V10.02C205.483 10.608 205.007 11.084 204.419 11.084C203.831 11.084 203.355 10.608 203.355 10.02ZM210.015 11.126C208.713 11.126 207.831 10.608 207.831 8.872V5.316H207.761C207.257 5.316 206.851 4.91 206.851 4.406C206.851 3.902 207.257 3.496 207.761 3.496H207.831V2.558C207.831 1.97 208.307 1.494 208.895 1.494C209.483 1.494 209.959 1.97 209.959 2.558V3.496H210.897C211.401 3.496 211.807 3.902 211.807 4.406C211.807 4.91 211.401 5.316 210.897 5.316H209.959V8.522C209.959 9.012 210.169 9.25 210.645 9.25C210.715 9.25 210.855 9.236 210.897 9.236C211.373 9.236 211.779 9.628 211.779 10.118C211.779 10.496 211.527 10.804 211.233 10.916C210.841 11.07 210.477 11.126 210.015 11.126ZM220.891 11.168C219.491 11.168 218.441 10.734 217.643 10.048C217.447 9.88 217.279 9.586 217.279 9.278C217.279 8.718 217.755 8.242 218.315 8.242C218.623 8.242 218.833 8.368 219.001 8.508C219.561 8.984 220.149 9.236 220.919 9.236C221.731 9.236 222.305 8.774 222.305 8.046V8.018C222.305 7.22 221.591 6.772 220.387 6.772H220.051C219.547 6.772 219.127 6.352 219.127 5.848C219.127 5.554 219.253 5.302 219.589 4.966L221.493 3.048H218.483C217.979 3.048 217.559 2.628 217.559 2.124C217.559 1.62 217.979 1.2 218.483 1.2H223.257C223.887 1.2 224.349 1.564 224.349 2.152C224.349 2.684 224.097 2.978 223.705 3.356L221.787 5.19C223.117 5.414 224.419 6.114 224.419 7.934V7.962C224.419 9.81 223.075 11.168 220.891 11.168Z" fill="#333333"/>
<rect x="163" y="4" width="14" height="4" rx="2" fill="#F9A77C"/>
<path d="M271.264 11.154C268.632 11.154 267.022 9.684 267.022 6.8V2.194C267.022 1.592 267.498 1.116 268.1 1.116C268.702 1.116 269.178 1.592 269.178 2.194V6.744C269.178 8.34 269.976 9.166 271.292 9.166C272.608 9.166 273.406 8.368 273.406 6.814V2.194C273.406 1.592 273.882 1.116 274.484 1.116C275.086 1.116 275.562 1.592 275.562 2.194V6.73C275.562 9.698 273.896 11.154 271.264 11.154ZM277.534 10.02V4.476C277.534 3.888 278.01 3.412 278.598 3.412C279.186 3.412 279.662 3.888 279.662 4.476V4.56C280.152 3.93 280.782 3.356 281.86 3.356C283.47 3.356 284.408 4.42 284.408 6.142V10.02C284.408 10.608 283.932 11.084 283.344 11.084C282.756 11.084 282.28 10.608 282.28 10.02V6.814C282.28 5.806 281.804 5.288 280.992 5.288C280.18 5.288 279.662 5.806 279.662 6.814V10.02C279.662 10.608 279.186 11.084 278.598 11.084C278.01 11.084 277.534 10.608 277.534 10.02ZM286.229 1.732V1.704C286.229 1.088 286.747 0.71 287.419 0.71C288.091 0.71 288.609 1.088 288.609 1.704V1.732C288.609 2.348 288.091 2.74 287.419 2.74C286.747 2.74 286.229 2.348 286.229 1.732ZM286.355 10.02V4.476C286.355 3.888 286.831 3.412 287.419 3.412C288.007 3.412 288.483 3.888 288.483 4.476V10.02C288.483 10.608 288.007 11.084 287.419 11.084C286.831 11.084 286.355 10.608 286.355 10.02ZM293.015 11.126C291.713 11.126 290.831 10.608 290.831 8.872V5.316H290.761C290.257 5.316 289.851 4.91 289.851 4.406C289.851 3.902 290.257 3.496 290.761 3.496H290.831V2.558C290.831 1.97 291.307 1.494 291.895 1.494C292.483 1.494 292.959 1.97 292.959 2.558V3.496H293.897C294.401 3.496 294.807 3.902 294.807 4.406C294.807 4.91 294.401 5.316 293.897 5.316H292.959V8.522C292.959 9.012 293.169 9.25 293.645 9.25C293.715 9.25 293.855 9.236 293.897 9.236C294.373 9.236 294.779 9.628 294.779 10.118C294.779 10.496 294.527 10.804 294.233 10.916C293.841 11.07 293.477 11.126 293.015 11.126ZM305.109 10.062V8.886H301.077C300.503 8.886 300.027 8.466 300.027 7.892C300.027 7.444 300.209 7.094 300.531 6.716L304.787 1.774C305.193 1.298 305.501 1.046 306.131 1.046C306.705 1.046 307.167 1.494 307.167 2.068V7.136H307.685C308.175 7.136 308.567 7.528 308.567 8.018C308.567 8.508 308.175 8.886 307.685 8.886H307.167V10.062C307.167 10.636 306.705 11.084 306.131 11.084C305.557 11.084 305.109 10.636 305.109 10.062ZM302.505 7.136H305.109V4.084L302.505 7.136Z" fill="#333333"/>
<rect x="246" y="4" width="14" height="4" rx="2" fill="#43D39A"/>
<path d="M355.264 11.154C352.632 11.154 351.022 9.684 351.022 6.8V2.194C351.022 1.592 351.498 1.116 352.1 1.116C352.702 1.116 353.178 1.592 353.178 2.194V6.744C353.178 8.34 353.976 9.166 355.292 9.166C356.608 9.166 357.406 8.368 357.406 6.814V2.194C357.406 1.592 357.882 1.116 358.484 1.116C359.086 1.116 359.562 1.592 359.562 2.194V6.73C359.562 9.698 357.896 11.154 355.264 11.154ZM361.534 10.02V4.476C361.534 3.888 362.01 3.412 362.598 3.412C363.186 3.412 363.662 3.888 363.662 4.476V4.56C364.152 3.93 364.782 3.356 365.86 3.356C367.47 3.356 368.408 4.42 368.408 6.142V10.02C368.408 10.608 367.932 11.084 367.344 11.084C366.756 11.084 366.28 10.608 366.28 10.02V6.814C366.28 5.806 365.804 5.288 364.992 5.288C364.18 5.288 363.662 5.806 363.662 6.814V10.02C363.662 10.608 363.186 11.084 362.598 11.084C362.01 11.084 361.534 10.608 361.534 10.02ZM370.229 1.732V1.704C370.229 1.088 370.747 0.71 371.419 0.71C372.091 0.71 372.609 1.088 372.609 1.704V1.732C372.609 2.348 372.091 2.74 371.419 2.74C370.747 2.74 370.229 2.348 370.229 1.732ZM370.355 10.02V4.476C370.355 3.888 370.831 3.412 371.419 3.412C372.007 3.412 372.483 3.888 372.483 4.476V10.02C372.483 10.608 372.007 11.084 371.419 11.084C370.831 11.084 370.355 10.608 370.355 10.02ZM377.015 11.126C375.713 11.126 374.831 10.608 374.831 8.872V5.316H374.761C374.257 5.316 373.851 4.91 373.851 4.406C373.851 3.902 374.257 3.496 374.761 3.496H374.831V2.558C374.831 1.97 375.307 1.494 375.895 1.494C376.483 1.494 376.959 1.97 376.959 2.558V3.496H377.897C378.401 3.496 378.807 3.902 378.807 4.406C378.807 4.91 378.401 5.316 377.897 5.316H376.959V8.522C376.959 9.012 377.169 9.25 377.645 9.25C377.715 9.25 377.855 9.236 377.897 9.236C378.373 9.236 378.779 9.628 378.779 10.118C378.779 10.496 378.527 10.804 378.233 10.916C377.841 11.07 377.477 11.126 377.015 11.126ZM387.877 11.168C386.519 11.168 385.581 10.804 384.797 10.244C384.545 10.062 384.363 9.782 384.363 9.418C384.363 8.858 384.825 8.382 385.385 8.382C385.637 8.382 385.805 8.452 385.973 8.578C386.575 9.012 387.149 9.208 387.835 9.208C388.745 9.208 389.417 8.718 389.417 7.85V7.822C389.417 6.982 388.703 6.492 387.681 6.492C386.855 6.492 386.491 6.744 386.197 6.744C385.889 6.744 385.651 6.618 385.217 6.31C384.923 6.1 384.797 5.806 384.825 5.442L385.021 2.124C385.049 1.606 385.455 1.2 385.973 1.2H390.229C390.747 1.2 391.181 1.634 391.181 2.152C391.181 2.67 390.747 3.09 390.229 3.09H386.925L386.813 4.784C387.205 4.686 387.555 4.616 388.101 4.616C390.033 4.616 391.531 5.54 391.531 7.752V7.78C391.531 9.852 390.033 11.168 387.877 11.168Z" fill="#333333"/>
<rect x="330" y="4" width="14" height="4" rx="2" fill="#5A91C8"/>
</svg>
