<svg width="413" height="60" viewBox="0 0 413 60" fill="none" xmlns="http://www.w3.org/2000/svg">
<rect width="128" height="30" fill="white"/>
<rect y="13" width="14" height="4" rx="2" fill="#588EE1"/>
<path d="M21.274 19.006V11.194C21.274 10.592 21.75 10.116 22.352 10.116C22.954 10.116 23.43 10.592 23.43 11.194V19.006C23.43 19.608 22.954 20.084 22.352 20.084C21.75 20.084 21.274 19.608 21.274 19.006ZM33.2011 10.76V19.02C33.2011 19.608 32.7251 20.084 32.1371 20.084C31.5491 20.084 31.0731 19.608 31.0731 19.02V18.922C30.5551 19.622 29.8411 20.14 28.7351 20.14C26.9851 20.14 25.3191 18.768 25.3191 16.262V16.234C25.3191 13.728 26.9571 12.356 28.7351 12.356C29.8691 12.356 30.5691 12.874 31.0731 13.476V10.76C31.0731 10.172 31.5491 9.696 32.1371 9.696C32.7251 9.696 33.2011 10.172 33.2011 10.76ZM29.2811 14.162C28.2871 14.162 27.4471 14.974 27.4471 16.234V16.262C27.4471 17.508 28.2871 18.334 29.2811 18.334C30.2751 18.334 31.1011 17.508 31.1011 16.262V16.234C31.1011 14.988 30.2751 14.162 29.2811 14.162ZM36.8244 15.66H40.0304C39.9044 14.708 39.3444 14.064 38.4484 14.064C37.5664 14.064 36.9924 14.694 36.8244 15.66ZM41.2624 19.258C40.6044 19.818 39.7504 20.168 38.6584 20.168C36.4044 20.168 34.7384 18.586 34.7384 16.29V16.262C34.7384 14.12 36.2644 12.356 38.4484 12.356C40.9544 12.356 42.0604 14.414 42.0604 15.968C42.0604 16.584 41.6264 16.99 41.0664 16.99H36.8524C37.0624 17.956 37.7344 18.46 38.6864 18.46C39.2744 18.46 39.7644 18.278 40.1984 17.956C40.3524 17.844 40.4924 17.788 40.7164 17.788C41.1924 17.788 41.5424 18.152 41.5424 18.628C41.5424 18.908 41.4164 19.118 41.2624 19.258ZM45.8163 20.14C44.4023 20.14 43.2403 19.328 43.2403 17.844V17.816C43.2403 16.178 44.4863 15.422 46.2643 15.422C47.0203 15.422 47.5663 15.548 48.0983 15.73V15.604C48.0983 14.722 47.5523 14.232 46.4883 14.232C45.9003 14.232 45.4243 14.316 45.0183 14.442C44.8923 14.484 44.8083 14.498 44.7103 14.498C44.2203 14.498 43.8283 14.12 43.8283 13.63C43.8283 13.252 44.0663 12.93 44.4023 12.804C45.0743 12.552 45.8023 12.412 46.7963 12.412C47.9583 12.412 48.7983 12.72 49.3303 13.252C49.8903 13.812 50.1423 14.638 50.1423 15.646V19.062C50.1423 19.636 49.6803 20.084 49.1063 20.084C48.4903 20.084 48.0843 19.65 48.0843 19.202V19.188C47.5663 19.762 46.8523 20.14 45.8163 20.14ZM46.4603 18.67C47.4543 18.67 48.1263 18.124 48.1263 17.354V16.976C47.7623 16.808 47.2863 16.696 46.7683 16.696C45.8583 16.696 45.2983 17.06 45.2983 17.732V17.76C45.2983 18.334 45.7743 18.67 46.4603 18.67ZM54.6055 20.14C53.6815 20.14 52.6875 19.874 51.7775 19.286C51.5535 19.146 51.3715 18.894 51.3715 18.558C51.3715 18.082 51.7355 17.718 52.2115 17.718C52.3655 17.718 52.5195 17.76 52.6315 17.83C53.3455 18.278 54.0595 18.502 54.6615 18.502C55.2775 18.502 55.5575 18.278 55.5575 17.942V17.914C55.5575 17.452 54.8295 17.298 54.0035 17.046C52.9535 16.738 51.7635 16.248 51.7635 14.792V14.764C51.7635 13.238 52.9955 12.384 54.5075 12.384C55.2915 12.384 56.1035 12.594 56.8315 12.958C57.1395 13.112 57.3355 13.392 57.3355 13.756C57.3355 14.232 56.9575 14.596 56.4815 14.596C56.3275 14.596 56.2295 14.568 56.0895 14.498C55.4875 14.204 54.9135 14.022 54.4655 14.022C53.9475 14.022 53.6815 14.246 53.6815 14.54V14.568C53.6815 14.988 54.3955 15.184 55.2075 15.464C56.2575 15.814 57.4755 16.318 57.4755 17.69V17.718C57.4755 19.384 56.2295 20.14 54.6055 20.14Z" fill="#333333"/>
<rect y="30" width="128" height="30" fill="white"/>
<rect y="43" width="14" height="4" rx="2" fill="#30C194"/>
<path d="M23.304 49.272L20.56 41.572C20.518 41.446 20.476 41.292 20.476 41.166C20.476 40.564 20.98 40.116 21.582 40.116C22.086 40.116 22.492 40.438 22.632 40.886L24.578 46.892L26.538 40.942C26.706 40.438 27.084 40.088 27.63 40.088H27.798C28.344 40.088 28.722 40.424 28.89 40.942L30.85 46.892L32.796 40.886C32.936 40.466 33.3 40.116 33.832 40.116C34.42 40.116 34.896 40.564 34.896 41.152C34.896 41.278 34.854 41.446 34.812 41.572L32.068 49.272C31.872 49.818 31.466 50.154 30.948 50.154H30.724C30.206 50.154 29.814 49.832 29.618 49.272L27.686 43.658L25.754 49.272C25.558 49.832 25.166 50.154 24.648 50.154H24.424C23.906 50.154 23.5 49.818 23.304 49.272ZM39.3723 50.168C37.0483 50.168 35.3263 48.446 35.3263 46.29V46.262C35.3263 44.106 37.0623 42.356 39.4003 42.356C41.7243 42.356 43.4463 44.078 43.4463 46.234V46.262C43.4463 48.418 41.7103 50.168 39.3723 50.168ZM39.4003 48.334C40.6183 48.334 41.3463 47.396 41.3463 46.29V46.262C41.3463 45.156 40.5483 44.19 39.3723 44.19C38.1543 44.19 37.4263 45.128 37.4263 46.234V46.262C37.4263 47.368 38.2243 48.334 39.4003 48.334ZM44.9872 49.02V43.476C44.9872 42.888 45.4632 42.412 46.0512 42.412C46.6392 42.412 47.1152 42.888 47.1152 43.476V43.812C47.4232 43.084 47.9272 42.412 48.5572 42.412C49.2152 42.412 49.5932 42.846 49.5932 43.448C49.5932 44.008 49.2292 44.344 48.7952 44.442C47.7172 44.694 47.1152 45.52 47.1152 47.032V49.02C47.1152 49.608 46.6392 50.084 46.0512 50.084C45.4632 50.084 44.9872 49.608 44.9872 49.02ZM58.248 40.76V49.02C58.248 49.608 57.772 50.084 57.184 50.084C56.596 50.084 56.12 49.608 56.12 49.02V48.922C55.602 49.622 54.888 50.14 53.782 50.14C52.032 50.14 50.366 48.768 50.366 46.262V46.234C50.366 43.728 52.004 42.356 53.782 42.356C54.916 42.356 55.616 42.874 56.12 43.476V40.76C56.12 40.172 56.596 39.696 57.184 39.696C57.772 39.696 58.248 40.172 58.248 40.76ZM54.328 44.162C53.334 44.162 52.494 44.974 52.494 46.234V46.262C52.494 47.508 53.334 48.334 54.328 48.334C55.322 48.334 56.148 47.508 56.148 46.262V46.234C56.148 44.988 55.322 44.162 54.328 44.162ZM69.1625 50.168C66.2785 50.168 64.1365 47.942 64.1365 45.128V45.1C64.1365 42.314 66.2365 40.032 69.2465 40.032C70.7165 40.032 71.7105 40.424 72.5225 41.026C72.7465 41.194 72.9425 41.502 72.9425 41.88C72.9425 42.468 72.4665 42.93 71.8785 42.93C71.5845 42.93 71.3885 42.818 71.2345 42.72C70.6325 42.272 70.0025 42.02 69.2325 42.02C67.5805 42.02 66.3905 43.392 66.3905 45.072V45.1C66.3905 46.78 67.5525 48.18 69.2325 48.18C70.1425 48.18 70.7445 47.9 71.3605 47.41C71.5285 47.27 71.7525 47.172 72.0045 47.172C72.5505 47.172 73.0125 47.62 73.0125 48.166C73.0125 48.502 72.8445 48.768 72.6485 48.936C71.7665 49.706 70.7305 50.168 69.1625 50.168ZM74.6825 49.02V40.76C74.6825 40.172 75.1585 39.696 75.7465 39.696C76.3345 39.696 76.8105 40.172 76.8105 40.76V43.56C77.3005 42.93 77.9305 42.356 79.0085 42.356C80.6185 42.356 81.5565 43.42 81.5565 45.142V49.02C81.5565 49.608 81.0805 50.084 80.4925 50.084C79.9045 50.084 79.4285 49.608 79.4285 49.02V45.814C79.4285 44.806 78.9525 44.288 78.1405 44.288C77.3285 44.288 76.8105 44.806 76.8105 45.814V49.02C76.8105 49.608 76.3345 50.084 75.7465 50.084C75.1585 50.084 74.6825 49.608 74.6825 49.02ZM87.0871 50.168C84.7631 50.168 83.0411 48.446 83.0411 46.29V46.262C83.0411 44.106 84.7771 42.356 87.1151 42.356C89.4391 42.356 91.1611 44.078 91.1611 46.234V46.262C91.1611 48.418 89.4251 50.168 87.0871 50.168ZM87.1151 48.334C88.3331 48.334 89.0611 47.396 89.0611 46.29V46.262C89.0611 45.156 88.2631 44.19 87.0871 44.19C85.8691 44.19 85.1411 45.128 85.1411 46.234V46.262C85.1411 47.368 85.9391 48.334 87.1151 48.334ZM92.674 40.732V40.704C92.674 40.088 93.192 39.71 93.864 39.71C94.536 39.71 95.054 40.088 95.054 40.704V40.732C95.054 41.348 94.536 41.74 93.864 41.74C93.192 41.74 92.674 41.348 92.674 40.732ZM92.8 49.02V43.476C92.8 42.888 93.276 42.412 93.864 42.412C94.452 42.412 94.928 42.888 94.928 43.476V49.02C94.928 49.608 94.452 50.084 93.864 50.084C93.276 50.084 92.8 49.608 92.8 49.02ZM100.469 50.168C98.2146 50.168 96.5626 48.432 96.5626 46.29V46.262C96.5626 44.12 98.2006 42.356 100.497 42.356C101.631 42.356 102.429 42.664 103.059 43.196C103.199 43.308 103.395 43.56 103.395 43.924C103.395 44.456 102.961 44.876 102.429 44.876C102.149 44.876 101.939 44.764 101.813 44.666C101.435 44.372 101.043 44.19 100.483 44.19C99.4186 44.19 98.6626 45.128 98.6626 46.234V46.262C98.6626 47.41 99.4046 48.334 100.567 48.334C101.127 48.334 101.561 48.138 101.967 47.816C102.079 47.732 102.289 47.62 102.541 47.62C103.045 47.62 103.437 48.026 103.437 48.53C103.437 48.81 103.311 49.034 103.129 49.202C102.499 49.776 101.701 50.168 100.469 50.168ZM106.442 45.66H109.648C109.522 44.708 108.962 44.064 108.066 44.064C107.184 44.064 106.61 44.694 106.442 45.66ZM110.88 49.258C110.222 49.818 109.368 50.168 108.276 50.168C106.022 50.168 104.356 48.586 104.356 46.29V46.262C104.356 44.12 105.882 42.356 108.066 42.356C110.572 42.356 111.678 44.414 111.678 45.968C111.678 46.584 111.244 46.99 110.684 46.99H106.47C106.68 47.956 107.352 48.46 108.304 48.46C108.892 48.46 109.382 48.278 109.816 47.956C109.97 47.844 110.11 47.788 110.334 47.788C110.81 47.788 111.16 48.152 111.16 48.628C111.16 48.908 111.034 49.118 110.88 49.258Z" fill="#333333"/>
<rect x="128" width="161" height="30" fill="white"/>
<rect x="128" y="13" width="14" height="4" rx="2" fill="#F6914D"/>
<path d="M153.936 20.168C150.912 20.168 148.742 17.914 148.742 15.128V15.1C148.742 12.314 150.94 10.032 153.964 10.032C156.988 10.032 159.158 12.286 159.158 15.072V15.1C159.158 17.886 156.96 20.168 153.936 20.168ZM153.964 18.18C155.7 18.18 156.904 16.808 156.904 15.128V15.1C156.904 13.42 155.672 12.02 153.936 12.02C152.2 12.02 150.996 13.392 150.996 15.072V15.1C150.996 16.78 152.228 18.18 153.964 18.18ZM160.847 19.02V13.476C160.847 12.888 161.323 12.412 161.911 12.412C162.499 12.412 162.975 12.888 162.975 13.476V13.812C163.283 13.084 163.787 12.412 164.417 12.412C165.075 12.412 165.453 12.846 165.453 13.448C165.453 14.008 165.089 14.344 164.655 14.442C163.577 14.694 162.975 15.52 162.975 17.032V19.02C162.975 19.608 162.499 20.084 161.911 20.084C161.323 20.084 160.847 19.608 160.847 19.02ZM169.921 22.268C168.927 22.268 168.059 22.1 167.177 21.75C166.813 21.61 166.575 21.316 166.575 20.924C166.575 20.448 166.967 20.056 167.443 20.056C167.583 20.056 167.695 20.084 167.793 20.126C168.409 20.406 169.067 20.574 169.865 20.574C171.321 20.574 172.007 19.874 172.007 18.53V18.166C171.377 18.922 170.691 19.384 169.557 19.384C167.807 19.384 166.225 18.11 166.225 15.884V15.856C166.225 13.616 167.835 12.356 169.557 12.356C170.719 12.356 171.405 12.846 171.979 13.476V13.462C171.979 12.888 172.455 12.412 173.043 12.412C173.631 12.412 174.107 12.888 174.107 13.476V18.306C174.107 19.65 173.785 20.63 173.155 21.26C172.455 21.96 171.377 22.268 169.921 22.268ZM170.173 17.62C171.209 17.62 172.007 16.906 172.007 15.884V15.856C172.007 14.834 171.209 14.12 170.173 14.12C169.137 14.12 168.353 14.834 168.353 15.856V15.884C168.353 16.92 169.137 17.62 170.173 17.62ZM178.137 20.14C176.723 20.14 175.561 19.328 175.561 17.844V17.816C175.561 16.178 176.807 15.422 178.585 15.422C179.341 15.422 179.887 15.548 180.419 15.73V15.604C180.419 14.722 179.873 14.232 178.809 14.232C178.221 14.232 177.745 14.316 177.339 14.442C177.213 14.484 177.129 14.498 177.031 14.498C176.541 14.498 176.149 14.12 176.149 13.63C176.149 13.252 176.387 12.93 176.723 12.804C177.395 12.552 178.123 12.412 179.117 12.412C180.279 12.412 181.119 12.72 181.651 13.252C182.211 13.812 182.463 14.638 182.463 15.646V19.062C182.463 19.636 182.001 20.084 181.427 20.084C180.811 20.084 180.405 19.65 180.405 19.202V19.188C179.887 19.762 179.173 20.14 178.137 20.14ZM178.781 18.67C179.775 18.67 180.447 18.124 180.447 17.354V16.976C180.083 16.808 179.607 16.696 179.089 16.696C178.179 16.696 177.619 17.06 177.619 17.732V17.76C177.619 18.334 178.095 18.67 178.781 18.67ZM184.294 19.02V13.476C184.294 12.888 184.77 12.412 185.358 12.412C185.946 12.412 186.422 12.888 186.422 13.476V13.56C186.912 12.93 187.542 12.356 188.62 12.356C190.23 12.356 191.168 13.42 191.168 15.142V19.02C191.168 19.608 190.692 20.084 190.104 20.084C189.516 20.084 189.04 19.608 189.04 19.02V15.814C189.04 14.806 188.564 14.288 187.752 14.288C186.94 14.288 186.422 14.806 186.422 15.814V19.02C186.422 19.608 185.946 20.084 185.358 20.084C184.77 20.084 184.294 19.608 184.294 19.02ZM192.988 10.732V10.704C192.988 10.088 193.506 9.71 194.178 9.71C194.85 9.71 195.368 10.088 195.368 10.704V10.732C195.368 11.348 194.85 11.74 194.178 11.74C193.506 11.74 192.988 11.348 192.988 10.732ZM193.114 19.02V13.476C193.114 12.888 193.59 12.412 194.178 12.412C194.766 12.412 195.242 12.888 195.242 13.476V19.02C195.242 19.608 194.766 20.084 194.178 20.084C193.59 20.084 193.114 19.608 193.114 19.02ZM197.941 20C197.339 20 196.905 19.65 196.905 19.146V19.104C196.905 18.698 197.045 18.432 197.381 18.068L200.867 14.218H197.899C197.423 14.218 197.031 13.84 197.031 13.364C197.031 12.888 197.423 12.496 197.899 12.496H202.561C203.163 12.496 203.597 12.846 203.597 13.35V13.392C203.597 13.798 203.457 14.064 203.121 14.428L199.621 18.278H202.729C203.205 18.278 203.597 18.67 203.597 19.146C203.597 19.622 203.205 20 202.729 20H197.941ZM207.258 20.14C205.844 20.14 204.682 19.328 204.682 17.844V17.816C204.682 16.178 205.928 15.422 207.706 15.422C208.462 15.422 209.008 15.548 209.54 15.73V15.604C209.54 14.722 208.994 14.232 207.93 14.232C207.342 14.232 206.866 14.316 206.46 14.442C206.334 14.484 206.25 14.498 206.152 14.498C205.662 14.498 205.27 14.12 205.27 13.63C205.27 13.252 205.508 12.93 205.844 12.804C206.516 12.552 207.244 12.412 208.238 12.412C209.4 12.412 210.24 12.72 210.772 13.252C211.332 13.812 211.584 14.638 211.584 15.646V19.062C211.584 19.636 211.122 20.084 210.548 20.084C209.932 20.084 209.526 19.65 209.526 19.202V19.188C209.008 19.762 208.294 20.14 207.258 20.14ZM207.902 18.67C208.896 18.67 209.568 18.124 209.568 17.354V16.976C209.204 16.808 208.728 16.696 208.21 16.696C207.3 16.696 206.74 17.06 206.74 17.732V17.76C206.74 18.334 207.216 18.67 207.902 18.67ZM215.881 20.126C214.579 20.126 213.697 19.608 213.697 17.872V14.316H213.627C213.123 14.316 212.717 13.91 212.717 13.406C212.717 12.902 213.123 12.496 213.627 12.496H213.697V11.558C213.697 10.97 214.173 10.494 214.761 10.494C215.349 10.494 215.825 10.97 215.825 11.558V12.496H216.763C217.267 12.496 217.673 12.902 217.673 13.406C217.673 13.91 217.267 14.316 216.763 14.316H215.825V17.522C215.825 18.012 216.035 18.25 216.511 18.25C216.581 18.25 216.721 18.236 216.763 18.236C217.239 18.236 217.645 18.628 217.645 19.118C217.645 19.496 217.393 19.804 217.099 19.916C216.707 20.07 216.343 20.126 215.881 20.126ZM219.129 10.732V10.704C219.129 10.088 219.647 9.71 220.319 9.71C220.991 9.71 221.509 10.088 221.509 10.704V10.732C221.509 11.348 220.991 11.74 220.319 11.74C219.647 11.74 219.129 11.348 219.129 10.732ZM219.255 19.02V13.476C219.255 12.888 219.731 12.412 220.319 12.412C220.907 12.412 221.383 12.888 221.383 13.476V19.02C221.383 19.608 220.907 20.084 220.319 20.084C219.731 20.084 219.255 19.608 219.255 19.02ZM227.064 20.168C224.74 20.168 223.018 18.446 223.018 16.29V16.262C223.018 14.106 224.754 12.356 227.092 12.356C229.416 12.356 231.138 14.078 231.138 16.234V16.262C231.138 18.418 229.402 20.168 227.064 20.168ZM227.092 18.334C228.31 18.334 229.038 17.396 229.038 16.29V16.262C229.038 15.156 228.24 14.19 227.064 14.19C225.846 14.19 225.118 15.128 225.118 16.234V16.262C225.118 17.368 225.916 18.334 227.092 18.334ZM232.679 19.02V13.476C232.679 12.888 233.155 12.412 233.743 12.412C234.331 12.412 234.807 12.888 234.807 13.476V13.56C235.297 12.93 235.927 12.356 237.005 12.356C238.615 12.356 239.553 13.42 239.553 15.142V19.02C239.553 19.608 239.077 20.084 238.489 20.084C237.901 20.084 237.425 19.608 237.425 19.02V15.814C237.425 14.806 236.949 14.288 236.137 14.288C235.325 14.288 234.807 14.806 234.807 15.814V19.02C234.807 19.608 234.331 20.084 233.743 20.084C233.155 20.084 232.679 19.608 232.679 19.02Z" fill="#333333"/>
<rect x="128" y="30" width="161" height="30" fill="white"/>
<path d="M152.662 50.14C151.374 50.14 150.072 49.748 148.98 48.964C148.742 48.796 148.574 48.488 148.574 48.152C148.574 47.592 149.022 47.158 149.582 47.158C149.862 47.158 150.058 47.256 150.198 47.354C150.94 47.9 151.752 48.236 152.704 48.236C153.586 48.236 154.118 47.886 154.118 47.312V47.284C154.118 46.738 153.782 46.458 152.144 46.038C150.17 45.534 148.896 44.988 148.896 43.042V43.014C148.896 41.236 150.324 40.06 152.326 40.06C153.516 40.06 154.552 40.368 155.434 40.928C155.672 41.068 155.91 41.362 155.91 41.782C155.91 42.342 155.462 42.776 154.902 42.776C154.692 42.776 154.524 42.72 154.356 42.622C153.642 42.202 152.97 41.964 152.298 41.964C151.472 41.964 151.038 42.342 151.038 42.818V42.846C151.038 43.49 151.458 43.7 153.152 44.134C155.14 44.652 156.26 45.366 156.26 47.074V47.102C156.26 49.048 154.776 50.14 152.662 50.14ZM159.629 45.66H162.835C162.709 44.708 162.149 44.064 161.253 44.064C160.371 44.064 159.797 44.694 159.629 45.66ZM164.067 49.258C163.409 49.818 162.555 50.168 161.463 50.168C159.209 50.168 157.543 48.586 157.543 46.29V46.262C157.543 44.12 159.069 42.356 161.253 42.356C163.759 42.356 164.865 44.414 164.865 45.968C164.865 46.584 164.431 46.99 163.871 46.99H159.657C159.867 47.956 160.539 48.46 161.491 48.46C162.079 48.46 162.569 48.278 163.003 47.956C163.157 47.844 163.297 47.788 163.521 47.788C163.997 47.788 164.347 48.152 164.347 48.628C164.347 48.908 164.221 49.118 164.067 49.258ZM166.493 49.02V43.476C166.493 42.888 166.969 42.412 167.557 42.412C168.145 42.412 168.621 42.888 168.621 43.476V43.56C169.111 42.93 169.741 42.356 170.819 42.356C172.429 42.356 173.367 43.42 173.367 45.142V49.02C173.367 49.608 172.891 50.084 172.303 50.084C171.715 50.084 171.239 49.608 171.239 49.02V45.814C171.239 44.806 170.763 44.288 169.951 44.288C169.139 44.288 168.621 44.806 168.621 45.814V49.02C168.621 49.608 168.145 50.084 167.557 50.084C166.969 50.084 166.493 49.608 166.493 49.02ZM177.75 50.126C176.448 50.126 175.566 49.608 175.566 47.872V44.316H175.496C174.992 44.316 174.586 43.91 174.586 43.406C174.586 42.902 174.992 42.496 175.496 42.496H175.566V41.558C175.566 40.97 176.042 40.494 176.63 40.494C177.218 40.494 177.694 40.97 177.694 41.558V42.496H178.632C179.136 42.496 179.542 42.902 179.542 43.406C179.542 43.91 179.136 44.316 178.632 44.316H177.694V47.522C177.694 48.012 177.904 48.25 178.38 48.25C178.45 48.25 178.59 48.236 178.632 48.236C179.108 48.236 179.514 48.628 179.514 49.118C179.514 49.496 179.262 49.804 178.968 49.916C178.576 50.07 178.212 50.126 177.75 50.126ZM182.543 45.66H185.749C185.623 44.708 185.063 44.064 184.167 44.064C183.285 44.064 182.711 44.694 182.543 45.66ZM186.981 49.258C186.323 49.818 185.469 50.168 184.377 50.168C182.123 50.168 180.457 48.586 180.457 46.29V46.262C180.457 44.12 181.983 42.356 184.167 42.356C186.673 42.356 187.779 44.414 187.779 45.968C187.779 46.584 187.345 46.99 186.785 46.99H182.571C182.781 47.956 183.453 48.46 184.405 48.46C184.993 48.46 185.483 48.278 185.917 47.956C186.071 47.844 186.211 47.788 186.435 47.788C186.911 47.788 187.261 48.152 187.261 48.628C187.261 48.908 187.135 49.118 186.981 49.258ZM189.407 49.02V43.476C189.407 42.888 189.883 42.412 190.471 42.412C191.059 42.412 191.535 42.888 191.535 43.476V43.56C192.025 42.93 192.655 42.356 193.733 42.356C195.343 42.356 196.281 43.42 196.281 45.142V49.02C196.281 49.608 195.805 50.084 195.217 50.084C194.629 50.084 194.153 49.608 194.153 49.02V45.814C194.153 44.806 193.677 44.288 192.865 44.288C192.053 44.288 191.535 44.806 191.535 45.814V49.02C191.535 49.608 191.059 50.084 190.471 50.084C189.883 50.084 189.407 49.608 189.407 49.02ZM201.672 50.168C199.418 50.168 197.766 48.432 197.766 46.29V46.262C197.766 44.12 199.404 42.356 201.7 42.356C202.834 42.356 203.632 42.664 204.262 43.196C204.402 43.308 204.598 43.56 204.598 43.924C204.598 44.456 204.164 44.876 203.632 44.876C203.352 44.876 203.142 44.764 203.016 44.666C202.638 44.372 202.246 44.19 201.686 44.19C200.622 44.19 199.866 45.128 199.866 46.234V46.262C199.866 47.41 200.608 48.334 201.77 48.334C202.33 48.334 202.764 48.138 203.17 47.816C203.282 47.732 203.492 47.62 203.744 47.62C204.248 47.62 204.64 48.026 204.64 48.53C204.64 48.81 204.514 49.034 204.332 49.202C203.702 49.776 202.904 50.168 201.672 50.168ZM207.645 45.66H210.851C210.725 44.708 210.165 44.064 209.269 44.064C208.387 44.064 207.813 44.694 207.645 45.66ZM212.083 49.258C211.425 49.818 210.571 50.168 209.479 50.168C207.225 50.168 205.559 48.586 205.559 46.29V46.262C205.559 44.12 207.085 42.356 209.269 42.356C211.775 42.356 212.881 44.414 212.881 45.968C212.881 46.584 212.447 46.99 211.887 46.99H207.673C207.883 47.956 208.555 48.46 209.507 48.46C210.095 48.46 210.585 48.278 211.019 47.956C211.173 47.844 211.313 47.788 211.537 47.788C212.013 47.788 212.363 48.152 212.363 48.628C212.363 48.908 212.237 49.118 212.083 49.258ZM218.93 49.006V41.278C218.93 40.676 219.406 40.2 220.008 40.2H225.496C226.042 40.2 226.476 40.634 226.476 41.18C226.476 41.726 226.042 42.16 225.496 42.16H221.086V44.246H224.866C225.412 44.246 225.846 44.68 225.846 45.226C225.846 45.772 225.412 46.206 224.866 46.206H221.086V49.006C221.086 49.608 220.61 50.084 220.008 50.084C219.406 50.084 218.93 49.608 218.93 49.006ZM227.991 49.02V40.76C227.991 40.172 228.467 39.696 229.055 39.696C229.643 39.696 230.119 40.172 230.119 40.76V49.02C230.119 49.608 229.643 50.084 229.055 50.084C228.467 50.084 227.991 49.608 227.991 49.02ZM238.936 43.476V49.02C238.936 49.608 238.46 50.084 237.872 50.084C237.284 50.084 236.808 49.608 236.808 49.02V48.936C236.318 49.566 235.688 50.14 234.61 50.14C233 50.14 232.062 49.076 232.062 47.354V43.476C232.062 42.888 232.538 42.412 233.126 42.412C233.714 42.412 234.19 42.888 234.19 43.476V46.682C234.19 47.69 234.666 48.208 235.478 48.208C236.29 48.208 236.808 47.69 236.808 46.682V43.476C236.808 42.888 237.284 42.412 237.872 42.412C238.46 42.412 238.936 42.888 238.936 43.476ZM242.563 45.66H245.769C245.643 44.708 245.083 44.064 244.187 44.064C243.305 44.064 242.731 44.694 242.563 45.66ZM247.001 49.258C246.343 49.818 245.489 50.168 244.397 50.168C242.143 50.168 240.477 48.586 240.477 46.29V46.262C240.477 44.12 242.003 42.356 244.187 42.356C246.693 42.356 247.799 44.414 247.799 45.968C247.799 46.584 247.365 46.99 246.805 46.99H242.591C242.801 47.956 243.473 48.46 244.425 48.46C245.013 48.46 245.503 48.278 245.937 47.956C246.091 47.844 246.231 47.788 246.455 47.788C246.931 47.788 247.281 48.152 247.281 48.628C247.281 48.908 247.155 49.118 247.001 49.258ZM249.427 49.02V43.476C249.427 42.888 249.903 42.412 250.491 42.412C251.079 42.412 251.555 42.888 251.555 43.476V43.56C252.045 42.93 252.675 42.356 253.753 42.356C255.363 42.356 256.301 43.42 256.301 45.142V49.02C256.301 49.608 255.825 50.084 255.237 50.084C254.649 50.084 254.173 49.608 254.173 49.02V45.814C254.173 44.806 253.697 44.288 252.885 44.288C252.073 44.288 251.555 44.806 251.555 45.814V49.02C251.555 49.608 251.079 50.084 250.491 50.084C249.903 50.084 249.427 49.608 249.427 49.02ZM261.691 50.168C259.437 50.168 257.785 48.432 257.785 46.29V46.262C257.785 44.12 259.423 42.356 261.719 42.356C262.853 42.356 263.651 42.664 264.281 43.196C264.421 43.308 264.617 43.56 264.617 43.924C264.617 44.456 264.183 44.876 263.651 44.876C263.371 44.876 263.161 44.764 263.035 44.666C262.657 44.372 262.265 44.19 261.705 44.19C260.641 44.19 259.885 45.128 259.885 46.234V46.262C259.885 47.41 260.627 48.334 261.789 48.334C262.349 48.334 262.783 48.138 263.189 47.816C263.301 47.732 263.511 47.62 263.763 47.62C264.267 47.62 264.659 48.026 264.659 48.53C264.659 48.81 264.533 49.034 264.351 49.202C263.721 49.776 262.923 50.168 261.691 50.168ZM267.701 52.282C267.225 52.282 266.889 52.212 266.539 52.086C266.231 51.974 265.867 51.722 265.867 51.204C265.867 50.686 266.273 50.336 266.707 50.336C266.875 50.336 266.973 50.364 267.057 50.392C267.239 50.448 267.351 50.476 267.505 50.476C267.883 50.476 268.065 50.406 268.261 50.028L268.331 49.86L265.769 43.924C265.713 43.784 265.657 43.574 265.657 43.434C265.657 42.832 266.119 42.412 266.707 42.412C267.239 42.412 267.547 42.706 267.729 43.21L269.353 47.578L270.921 43.224C271.089 42.776 271.397 42.412 271.943 42.412C272.489 42.412 272.951 42.832 272.951 43.392C272.951 43.56 272.895 43.798 272.853 43.896L270.235 50.182C269.605 51.708 268.975 52.282 267.701 52.282Z" fill="#333333"/>
<rect x="128" y="43" width="14" height="4" rx="2" fill="#6865CC"/>
<rect x="289" width="124" height="30" fill="white"/>
<path d="M314.012 20.154C313.424 20.154 313.018 19.832 312.794 19.3L309.616 11.698C309.546 11.53 309.49 11.362 309.49 11.18C309.49 10.578 309.966 10.116 310.568 10.116C311.128 10.116 311.492 10.438 311.66 10.872L314.11 17.214L316.588 10.802C316.728 10.452 317.106 10.116 317.624 10.116C318.212 10.116 318.688 10.564 318.688 11.152C318.688 11.32 318.632 11.502 318.576 11.628L315.37 19.3C315.146 19.832 314.74 20.154 314.152 20.154H314.012ZM323.095 20.168C320.771 20.168 319.049 18.446 319.049 16.29V16.262C319.049 14.106 320.785 12.356 323.123 12.356C325.447 12.356 327.169 14.078 327.169 16.234V16.262C327.169 18.418 325.433 20.168 323.095 20.168ZM323.123 18.334C324.341 18.334 325.069 17.396 325.069 16.29V16.262C325.069 15.156 324.271 14.19 323.095 14.19C321.877 14.19 321.149 15.128 321.149 16.234V16.262C321.149 17.368 321.947 18.334 323.123 18.334ZM328.682 10.732V10.704C328.682 10.088 329.2 9.71 329.872 9.71C330.544 9.71 331.062 10.088 331.062 10.704V10.732C331.062 11.348 330.544 11.74 329.872 11.74C329.2 11.74 328.682 11.348 328.682 10.732ZM328.808 19.02V13.476C328.808 12.888 329.284 12.412 329.872 12.412C330.46 12.412 330.936 12.888 330.936 13.476V19.02C330.936 19.608 330.46 20.084 329.872 20.084C329.284 20.084 328.808 19.608 328.808 19.02ZM336.476 20.168C334.222 20.168 332.57 18.432 332.57 16.29V16.262C332.57 14.12 334.208 12.356 336.504 12.356C337.638 12.356 338.436 12.664 339.066 13.196C339.206 13.308 339.402 13.56 339.402 13.924C339.402 14.456 338.968 14.876 338.436 14.876C338.156 14.876 337.946 14.764 337.82 14.666C337.442 14.372 337.05 14.19 336.49 14.19C335.426 14.19 334.67 15.128 334.67 16.234V16.262C334.67 17.41 335.412 18.334 336.574 18.334C337.134 18.334 337.568 18.138 337.974 17.816C338.086 17.732 338.296 17.62 338.548 17.62C339.052 17.62 339.444 18.026 339.444 18.53C339.444 18.81 339.318 19.034 339.136 19.202C338.506 19.776 337.708 20.168 336.476 20.168ZM342.449 15.66H345.655C345.529 14.708 344.969 14.064 344.073 14.064C343.191 14.064 342.617 14.694 342.449 15.66ZM346.887 19.258C346.229 19.818 345.375 20.168 344.283 20.168C342.029 20.168 340.363 18.586 340.363 16.29V16.262C340.363 14.12 341.889 12.356 344.073 12.356C346.579 12.356 347.685 14.414 347.685 15.968C347.685 16.584 347.251 16.99 346.691 16.99H342.477C342.687 17.956 343.359 18.46 344.311 18.46C344.899 18.46 345.389 18.278 345.823 17.956C345.977 17.844 346.117 17.788 346.341 17.788C346.817 17.788 347.167 18.152 347.167 18.628C347.167 18.908 347.041 19.118 346.887 19.258Z" fill="#333333"/>
<rect x="289" y="13" width="14" height="4" rx="2" fill="#AA6BD4"/>
<rect x="289" y="30" width="124" height="30" fill="white"/>
<path d="M314.768 50.168C311.884 50.168 309.742 47.942 309.742 45.128V45.1C309.742 42.314 311.842 40.032 314.852 40.032C316.322 40.032 317.316 40.424 318.128 41.026C318.352 41.194 318.548 41.502 318.548 41.88C318.548 42.468 318.072 42.93 317.484 42.93C317.19 42.93 316.994 42.818 316.84 42.72C316.238 42.272 315.608 42.02 314.838 42.02C313.186 42.02 311.996 43.392 311.996 45.072V45.1C311.996 46.78 313.158 48.18 314.838 48.18C315.748 48.18 316.35 47.9 316.966 47.41C317.134 47.27 317.358 47.172 317.61 47.172C318.156 47.172 318.618 47.62 318.618 48.166C318.618 48.502 318.45 48.768 318.254 48.936C317.372 49.706 316.336 50.168 314.768 50.168ZM323.833 50.168C321.509 50.168 319.787 48.446 319.787 46.29V46.262C319.787 44.106 321.523 42.356 323.861 42.356C326.185 42.356 327.907 44.078 327.907 46.234V46.262C327.907 48.418 326.171 50.168 323.833 50.168ZM323.861 48.334C325.079 48.334 325.807 47.396 325.807 46.29V46.262C325.807 45.156 325.009 44.19 323.833 44.19C322.615 44.19 321.887 45.128 321.887 46.234V46.262C321.887 47.368 322.685 48.334 323.861 48.334ZM329.448 49.02V43.476C329.448 42.888 329.924 42.412 330.512 42.412C331.1 42.412 331.576 42.888 331.576 43.476V43.56C332.066 42.93 332.696 42.356 333.774 42.356C335.384 42.356 336.322 43.42 336.322 45.142V49.02C336.322 49.608 335.846 50.084 335.258 50.084C334.67 50.084 334.194 49.608 334.194 49.02V45.814C334.194 44.806 333.718 44.288 332.906 44.288C332.094 44.288 331.576 44.806 331.576 45.814V49.02C331.576 49.608 331.1 50.084 330.512 50.084C329.924 50.084 329.448 49.608 329.448 49.02ZM342.458 49.23C342.22 49.776 341.828 50.154 341.254 50.154H341.142C340.568 50.154 340.176 49.79 339.938 49.23L337.642 43.924C337.586 43.784 337.53 43.602 337.53 43.406C337.53 42.902 337.992 42.412 338.566 42.412C339.14 42.412 339.448 42.734 339.602 43.168L341.212 47.522L342.85 43.14C342.99 42.776 343.284 42.412 343.844 42.412C344.404 42.412 344.866 42.846 344.866 43.42C344.866 43.602 344.796 43.826 344.754 43.924L342.458 49.23ZM347.74 45.66H350.946C350.82 44.708 350.26 44.064 349.364 44.064C348.482 44.064 347.908 44.694 347.74 45.66ZM352.178 49.258C351.52 49.818 350.666 50.168 349.574 50.168C347.32 50.168 345.654 48.586 345.654 46.29V46.262C345.654 44.12 347.18 42.356 349.364 42.356C351.87 42.356 352.976 44.414 352.976 45.968C352.976 46.584 352.542 46.99 351.982 46.99H347.768C347.978 47.956 348.65 48.46 349.602 48.46C350.19 48.46 350.68 48.278 351.114 47.956C351.268 47.844 351.408 47.788 351.632 47.788C352.108 47.788 352.458 48.152 352.458 48.628C352.458 48.908 352.332 49.118 352.178 49.258ZM354.604 49.02V43.476C354.604 42.888 355.08 42.412 355.668 42.412C356.256 42.412 356.732 42.888 356.732 43.476V43.56C357.222 42.93 357.852 42.356 358.93 42.356C360.54 42.356 361.478 43.42 361.478 45.142V49.02C361.478 49.608 361.002 50.084 360.414 50.084C359.826 50.084 359.35 49.608 359.35 49.02V45.814C359.35 44.806 358.874 44.288 358.062 44.288C357.25 44.288 356.732 44.806 356.732 45.814V49.02C356.732 49.608 356.256 50.084 355.668 50.084C355.08 50.084 354.604 49.608 354.604 49.02ZM365.861 50.126C364.559 50.126 363.677 49.608 363.677 47.872V44.316H363.607C363.103 44.316 362.697 43.91 362.697 43.406C362.697 42.902 363.103 42.496 363.607 42.496H363.677V41.558C363.677 40.97 364.153 40.494 364.741 40.494C365.329 40.494 365.805 40.97 365.805 41.558V42.496H366.743C367.247 42.496 367.653 42.902 367.653 43.406C367.653 43.91 367.247 44.316 366.743 44.316H365.805V47.522C365.805 48.012 366.015 48.25 366.491 48.25C366.561 48.25 366.701 48.236 366.743 48.236C367.219 48.236 367.625 48.628 367.625 49.118C367.625 49.496 367.373 49.804 367.079 49.916C366.687 50.07 366.323 50.126 365.861 50.126ZM369.11 40.732V40.704C369.11 40.088 369.628 39.71 370.3 39.71C370.972 39.71 371.49 40.088 371.49 40.704V40.732C371.49 41.348 370.972 41.74 370.3 41.74C369.628 41.74 369.11 41.348 369.11 40.732ZM369.236 49.02V43.476C369.236 42.888 369.712 42.412 370.3 42.412C370.888 42.412 371.364 42.888 371.364 43.476V49.02C371.364 49.608 370.888 50.084 370.3 50.084C369.712 50.084 369.236 49.608 369.236 49.02ZM377.044 50.168C374.72 50.168 372.998 48.446 372.998 46.29V46.262C372.998 44.106 374.734 42.356 377.072 42.356C379.396 42.356 381.118 44.078 381.118 46.234V46.262C381.118 48.418 379.382 50.168 377.044 50.168ZM377.072 48.334C378.29 48.334 379.018 47.396 379.018 46.29V46.262C379.018 45.156 378.22 44.19 377.044 44.19C375.826 44.19 375.098 45.128 375.098 46.234V46.262C375.098 47.368 375.896 48.334 377.072 48.334ZM382.659 49.02V43.476C382.659 42.888 383.135 42.412 383.723 42.412C384.311 42.412 384.787 42.888 384.787 43.476V43.56C385.277 42.93 385.907 42.356 386.985 42.356C388.595 42.356 389.533 43.42 389.533 45.142V49.02C389.533 49.608 389.057 50.084 388.469 50.084C387.881 50.084 387.405 49.608 387.405 49.02V45.814C387.405 44.806 386.929 44.288 386.117 44.288C385.305 44.288 384.787 44.806 384.787 45.814V49.02C384.787 49.608 384.311 50.084 383.723 50.084C383.135 50.084 382.659 49.608 382.659 49.02ZM394.014 50.14C393.09 50.14 392.096 49.874 391.186 49.286C390.962 49.146 390.78 48.894 390.78 48.558C390.78 48.082 391.144 47.718 391.62 47.718C391.774 47.718 391.928 47.76 392.04 47.83C392.754 48.278 393.468 48.502 394.07 48.502C394.686 48.502 394.966 48.278 394.966 47.942V47.914C394.966 47.452 394.238 47.298 393.412 47.046C392.362 46.738 391.172 46.248 391.172 44.792V44.764C391.172 43.238 392.404 42.384 393.916 42.384C394.7 42.384 395.512 42.594 396.24 42.958C396.548 43.112 396.744 43.392 396.744 43.756C396.744 44.232 396.366 44.596 395.89 44.596C395.736 44.596 395.638 44.568 395.498 44.498C394.896 44.204 394.322 44.022 393.874 44.022C393.356 44.022 393.09 44.246 393.09 44.54V44.568C393.09 44.988 393.804 45.184 394.616 45.464C395.666 45.814 396.884 46.318 396.884 47.69V47.718C396.884 49.384 395.638 50.14 394.014 50.14Z" fill="#333333"/>
<rect x="289" y="43" width="14" height="4" rx="2" fill="#DB5757"/>
</svg>
