<svg width="391" height="12" viewBox="0 0 391 12" fill="none" xmlns="http://www.w3.org/2000/svg">
    <path d="M25.222 11.154c-.7 0-1.32-.089-1.862-.266a3.604 3.604 0 0 1-1.344-.812 3.39 3.39 0 0 1-.826-1.33c-.177-.541-.266-1.167-.266-1.876V2.11c0-.364.093-.64.28-.826.187-.187.457-.28.812-.28.345 0 .611.093.798.28.187.187.28.462.28.826v4.774c0 .803.182 1.41.546 1.82.364.401.891.602 1.582.602.69 0 1.213-.2 1.568-.602.364-.41.546-1.017.546-1.82V2.11c0-.364.093-.64.28-.826.187-.187.453-.28.798-.28.345 0 .607.093.784.28.187.187.28.462.28.826v4.76c0 .943-.163 1.736-.49 2.38a3.113 3.113 0 0 1-1.428 1.428c-.625.317-1.405.476-2.338.476zm7.058-.028c-.345 0-.611-.093-.798-.28-.177-.187-.266-.453-.266-.798v-4.97c0-.345.089-.607.266-.784.187-.187.444-.28.77-.28.336 0 .593.093.77.28.178.177.266.439.266.784v.798l-.154-.462c.215-.457.532-.807.952-1.05.43-.252.915-.378 1.456-.378.551 0 1.004.107 1.358.322.355.205.621.523.798.952.178.42.266.957.266 1.61v3.178c0 .345-.093.611-.28.798-.177.187-.438.28-.784.28-.336 0-.597-.093-.784-.28-.177-.187-.266-.453-.266-.798v-3.08c0-.476-.088-.817-.266-1.022-.168-.215-.429-.322-.784-.322-.448 0-.807.14-1.078.42-.261.28-.392.653-.392 1.12v2.884c0 .719-.35 1.078-1.05 1.078zm8.326-.014c-.345 0-.61-.098-.797-.294-.178-.205-.267-.49-.267-.854V5.176c0-.373.09-.658.267-.854.186-.205.452-.308.797-.308.337 0 .593.103.77.308.187.196.28.48.28.854v4.788c0 .364-.088.649-.265.854-.178.196-.44.294-.785.294zm0-8.246c-.392 0-.695-.089-.91-.266-.205-.187-.307-.448-.307-.784 0-.345.102-.607.307-.784.215-.187.519-.28.91-.28.392 0 .691.093.896.28.206.177.308.439.308.784 0 .336-.102.597-.308.784-.205.177-.504.266-.896.266zm6.057 8.288c-.644 0-1.186-.107-1.624-.322a2.136 2.136 0 0 1-.966-.938c-.206-.41-.308-.929-.308-1.554V5.708h-.588c-.262 0-.467-.07-.616-.21-.14-.14-.21-.331-.21-.574 0-.261.07-.457.21-.588.149-.14.354-.21.616-.21h.588V3.062c0-.355.093-.62.28-.798.186-.187.448-.28.784-.28.345 0 .606.093.784.28.177.177.266.443.266.798v1.064h1.33c.26 0 .462.07.602.21.14.13.21.327.21.588 0 .243-.07.434-.21.574-.14.14-.341.21-.602.21h-1.33v2.548c0 .392.088.686.266.882.186.196.48.294.882.294.14 0 .27-.014.392-.042.12-.028.233-.047.336-.056.13-.01.238.033.322.126.084.084.126.275.126.574 0 .224-.038.42-.112.588a.687.687 0 0 1-.392.364 2.28 2.28 0 0 1-.504.112 3.04 3.04 0 0 1-.532.056zM54.245 11c-.299 0-.527-.08-.686-.238-.159-.159-.238-.378-.238-.658 0-.29.08-.509.238-.658.159-.15.387-.224.686-.224h1.414V2.908h1.022l-2.044 1.246c-.215.13-.416.182-.602.154a.82.82 0 0 1-.462-.238c-.13-.13-.22-.285-.266-.462a.914.914 0 0 1 .056-.546c.075-.187.215-.345.42-.476l1.946-1.176c.196-.121.392-.22.588-.294.205-.075.406-.112.602-.112.28 0 .5.075.658.224.168.14.252.36.252.658v7.336h1.274c.29 0 .513.075.672.224.159.15.238.369.238.658 0 .29-.08.513-.238.672-.159.15-.383.224-.672.224h-4.858z" fill="#333"/>
    <rect y="4" width="14" height="4" rx="2" fill="#3DBCBF"/>
    <path d="M105.222 11.154c-.7 0-1.321-.089-1.862-.266a3.604 3.604 0 0 1-1.344-.812 3.393 3.393 0 0 1-.826-1.33c-.177-.541-.266-1.167-.266-1.876V2.11c0-.364.093-.64.28-.826.187-.187.457-.28.812-.28.345 0 .611.093.798.28.187.187.28.462.28.826v4.774c0 .803.182 1.41.546 1.82.364.401.891.602 1.582.602.691 0 1.213-.2 1.568-.602.364-.41.546-1.017.546-1.82V2.11c0-.364.093-.64.28-.826.187-.187.453-.28.798-.28.345 0 .607.093.784.28.187.187.28.462.28.826v4.76c0 .943-.163 1.736-.49 2.38a3.11 3.11 0 0 1-1.428 1.428c-.625.317-1.405.476-2.338.476zm7.058-.028c-.345 0-.611-.093-.798-.28-.177-.187-.266-.453-.266-.798v-4.97c0-.345.089-.607.266-.784.187-.187.444-.28.77-.28.336 0 .593.093.77.28.178.177.266.439.266.784v.798l-.154-.462c.215-.457.532-.807.952-1.05.43-.252.915-.378 1.456-.378.551 0 1.004.107 1.358.322.355.205.621.523.798.952.178.42.266.957.266 1.61v3.178c0 .345-.093.611-.28.798-.177.187-.438.28-.784.28-.336 0-.597-.093-.784-.28-.177-.187-.266-.453-.266-.798v-3.08c0-.476-.088-.817-.266-1.022-.168-.215-.429-.322-.784-.322-.448 0-.807.14-1.078.42-.261.28-.392.653-.392 1.12v2.884c0 .719-.35 1.078-1.05 1.078zm8.326-.014c-.345 0-.611-.098-.798-.294-.177-.205-.266-.49-.266-.854V5.176c0-.373.089-.658.266-.854.187-.205.453-.308.798-.308.336 0 .593.103.77.308.187.196.28.48.28.854v4.788c0 .364-.088.649-.266.854-.177.196-.438.294-.784.294zm0-8.246c-.392 0-.695-.089-.91-.266-.205-.187-.308-.448-.308-.784 0-.345.103-.607.308-.784.215-.187.518-.28.91-.28s.691.093.896.28c.206.177.308.439.308.784 0 .336-.102.597-.308.784-.205.177-.504.266-.896.266zm6.057 8.288c-.644 0-1.186-.107-1.624-.322a2.13 2.13 0 0 1-.966-.938c-.206-.41-.308-.929-.308-1.554V5.708h-.588c-.262 0-.467-.07-.616-.21-.14-.14-.21-.331-.21-.574 0-.261.07-.457.21-.588.149-.14.354-.21.616-.21h.588V3.062c0-.355.093-.62.28-.798.186-.187.448-.28.784-.28.345 0 .606.093.784.28.177.177.266.443.266.798v1.064h1.33c.261 0 .462.07.602.21.14.13.21.327.21.588 0 .243-.07.434-.21.574-.14.14-.341.21-.602.21h-1.33v2.548c0 .392.088.686.266.882.186.196.48.294.882.294.14 0 .27-.014.392-.042a2.5 2.5 0 0 1 .336-.056c.13-.01.238.033.322.126.084.084.126.275.126.574 0 .224-.038.42-.112.588a.69.69 0 0 1-.392.364c-.122.047-.29.084-.504.112a3.048 3.048 0 0 1-.532.056zm7.316-.154c-.345 0-.602-.08-.77-.238-.159-.168-.238-.41-.238-.728 0-.205.051-.397.154-.574.103-.177.243-.36.42-.546l2.632-2.772c.392-.42.672-.793.84-1.12.177-.327.266-.653.266-.98 0-.41-.135-.723-.406-.938-.261-.215-.644-.322-1.148-.322-.271 0-.551.042-.84.126-.28.075-.574.2-.882.378-.205.112-.397.154-.574.126a.867.867 0 0 1-.434-.238.955.955 0 0 1-.238-.462.877.877 0 0 1 .056-.532.966.966 0 0 1 .42-.448 4.768 4.768 0 0 1 1.344-.56c.485-.13.966-.196 1.442-.196.737 0 1.358.112 1.862.336.504.215.887.532 1.148.952.261.42.392.933.392 1.54 0 .392-.061.775-.182 1.148a4.476 4.476 0 0 1-.574 1.134 8.822 8.822 0 0 1-1.008 1.204l-2.45 2.492v-.56h3.794c.299 0 .523.075.672.224.159.15.238.369.238.658 0 .29-.079.513-.238.672-.149.15-.373.224-.672.224h-5.026z" fill="#333"/>
    <rect x="80" y="4" width="14" height="4" rx="2" fill="#F77488"/>
    <path d="M188.222 11.154c-.7 0-1.321-.089-1.862-.266a3.604 3.604 0 0 1-1.344-.812 3.393 3.393 0 0 1-.826-1.33c-.177-.541-.266-1.167-.266-1.876V2.11c0-.364.093-.64.28-.826.187-.187.457-.28.812-.28.345 0 .611.093.798.28.187.187.28.462.28.826v4.774c0 .803.182 1.41.546 1.82.364.401.891.602 1.582.602.691 0 1.213-.2 1.568-.602.364-.41.546-1.017.546-1.82V2.11c0-.364.093-.64.28-.826.187-.187.453-.28.798-.28.345 0 .607.093.784.28.187.187.28.462.28.826v4.76c0 .943-.163 1.736-.49 2.38a3.11 3.11 0 0 1-1.428 1.428c-.625.317-1.405.476-2.338.476zm7.058-.028c-.345 0-.611-.093-.798-.28-.177-.187-.266-.453-.266-.798v-4.97c0-.345.089-.607.266-.784.187-.187.444-.28.77-.28.336 0 .593.093.77.28.178.177.266.439.266.784v.798l-.154-.462c.215-.457.532-.807.952-1.05.43-.252.915-.378 1.456-.378.551 0 1.004.107 1.358.322.355.205.621.523.798.952.178.42.266.957.266 1.61v3.178c0 .345-.093.611-.28.798-.177.187-.438.28-.784.28-.336 0-.597-.093-.784-.28-.177-.187-.266-.453-.266-.798v-3.08c0-.476-.088-.817-.266-1.022-.168-.215-.429-.322-.784-.322-.448 0-.807.14-1.078.42-.261.28-.392.653-.392 1.12v2.884c0 .719-.35 1.078-1.05 1.078zm8.326-.014c-.345 0-.611-.098-.798-.294-.177-.205-.266-.49-.266-.854V5.176c0-.373.089-.658.266-.854.187-.205.453-.308.798-.308.336 0 .593.103.77.308.187.196.28.48.28.854v4.788c0 .364-.088.649-.266.854-.177.196-.438.294-.784.294zm0-8.246c-.392 0-.695-.089-.91-.266-.205-.187-.308-.448-.308-.784 0-.345.103-.607.308-.784.215-.187.518-.28.91-.28s.691.093.896.28c.206.177.308.439.308.784 0 .336-.102.597-.308.784-.205.177-.504.266-.896.266zm6.057 8.288c-.644 0-1.186-.107-1.624-.322a2.13 2.13 0 0 1-.966-.938c-.206-.41-.308-.929-.308-1.554V5.708h-.588c-.262 0-.467-.07-.616-.21-.14-.14-.21-.331-.21-.574 0-.261.07-.457.21-.588.149-.14.354-.21.616-.21h.588V3.062c0-.355.093-.62.28-.798.186-.187.448-.28.784-.28.345 0 .606.093.784.28.177.177.266.443.266.798v1.064h1.33c.261 0 .462.07.602.21.14.13.21.327.21.588 0 .243-.07.434-.21.574-.14.14-.341.21-.602.21h-1.33v2.548c0 .392.088.686.266.882.186.196.48.294.882.294.14 0 .27-.014.392-.042a2.5 2.5 0 0 1 .336-.056c.13-.01.238.033.322.126.084.084.126.275.126.574 0 .224-.038.42-.112.588a.69.69 0 0 1-.392.364c-.122.047-.29.084-.504.112a3.048 3.048 0 0 1-.532.056zm9.346 0c-.495 0-.999-.056-1.512-.168a4.951 4.951 0 0 1-1.316-.504c-.243-.13-.411-.285-.504-.462a1.046 1.046 0 0 1-.098-.546.864.864 0 0 1 .224-.462.8.8 0 0 1 .462-.266c.196-.037.411 0 .644.112.364.177.709.303 1.036.378.327.075.653.112.98.112.373 0 .686-.047.938-.14.252-.103.443-.247.574-.434.131-.187.196-.42.196-.7 0-.392-.135-.686-.406-.882-.271-.196-.667-.294-1.19-.294h-.826c-.308 0-.546-.075-.714-.224-.159-.159-.238-.373-.238-.644 0-.28.079-.495.238-.644.168-.159.406-.238.714-.238h.616c.317 0 .583-.047.798-.14.224-.103.397-.243.518-.42.131-.177.196-.397.196-.658 0-.373-.131-.658-.392-.854-.252-.196-.621-.294-1.106-.294-.299 0-.593.037-.882.112a3.862 3.862 0 0 0-.938.364c-.205.103-.397.135-.574.098a.83.83 0 0 1-.448-.252 1.014 1.014 0 0 1-.224-.448.959.959 0 0 1 .07-.532.962.962 0 0 1 .448-.434 5.15 5.15 0 0 1 1.302-.532 5.818 5.818 0 0 1 1.442-.182c.709 0 1.316.107 1.82.322.504.215.891.523 1.162.924.271.392.406.868.406 1.428 0 .383-.075.733-.224 1.05a2.321 2.321 0 0 1-.63.812 2.384 2.384 0 0 1-.966.462v-.182c.663.112 1.181.387 1.554.826.373.439.56.99.56 1.652 0 .588-.149 1.101-.448 1.54-.299.43-.728.76-1.288.994-.551.233-1.209.35-1.974.35z" fill="#333"/>
    <rect x="163" y="4" width="14" height="4" rx="2" fill="#F9A77C"/>
    <path d="M271.222 11.154c-.7 0-1.321-.089-1.862-.266a3.604 3.604 0 0 1-1.344-.812 3.393 3.393 0 0 1-.826-1.33c-.177-.541-.266-1.167-.266-1.876V2.11c0-.364.093-.64.28-.826.187-.187.457-.28.812-.28.345 0 .611.093.798.28.187.187.28.462.28.826v4.774c0 .803.182 1.41.546 1.82.364.401.891.602 1.582.602.691 0 1.213-.2 1.568-.602.364-.41.546-1.017.546-1.82V2.11c0-.364.093-.64.28-.826.187-.187.453-.28.798-.28.345 0 .607.093.784.28.187.187.28.462.28.826v4.76c0 .943-.163 1.736-.49 2.38a3.11 3.11 0 0 1-1.428 1.428c-.625.317-1.405.476-2.338.476zm7.058-.028c-.345 0-.611-.093-.798-.28-.177-.187-.266-.453-.266-.798v-4.97c0-.345.089-.607.266-.784.187-.187.444-.28.77-.28.336 0 .593.093.77.28.178.177.266.439.266.784v.798l-.154-.462c.215-.457.532-.807.952-1.05.43-.252.915-.378 1.456-.378.551 0 1.004.107 1.358.322.355.205.621.523.798.952.178.42.266.957.266 1.61v3.178c0 .345-.093.611-.28.798-.177.187-.438.28-.784.28-.336 0-.597-.093-.784-.28-.177-.187-.266-.453-.266-.798v-3.08c0-.476-.088-.817-.266-1.022-.168-.215-.429-.322-.784-.322-.448 0-.807.14-1.078.42-.261.28-.392.653-.392 1.12v2.884c0 .719-.35 1.078-1.05 1.078zm8.326-.014c-.345 0-.611-.098-.798-.294-.177-.205-.266-.49-.266-.854V5.176c0-.373.089-.658.266-.854.187-.205.453-.308.798-.308.336 0 .593.103.77.308.187.196.28.48.28.854v4.788c0 .364-.088.649-.266.854-.177.196-.438.294-.784.294zm0-8.246c-.392 0-.695-.089-.91-.266-.205-.187-.308-.448-.308-.784 0-.345.103-.607.308-.784.215-.187.518-.28.91-.28s.691.093.896.28c.206.177.308.439.308.784 0 .336-.102.597-.308.784-.205.177-.504.266-.896.266zm6.057 8.288c-.644 0-1.186-.107-1.624-.322a2.13 2.13 0 0 1-.966-.938c-.206-.41-.308-.929-.308-1.554V5.708h-.588c-.262 0-.467-.07-.616-.21-.14-.14-.21-.331-.21-.574 0-.261.07-.457.21-.588.149-.14.354-.21.616-.21h.588V3.062c0-.355.093-.62.28-.798.186-.187.448-.28.784-.28.345 0 .606.093.784.28.177.177.266.443.266.798v1.064h1.33c.261 0 .462.07.602.21.14.13.21.327.21.588 0 .243-.07.434-.21.574-.14.14-.341.21-.602.21h-1.33v2.548c0 .392.088.686.266.882.186.196.48.294.882.294.14 0 .27-.014.392-.042a2.5 2.5 0 0 1 .336-.056c.13-.01.238.033.322.126.084.084.126.275.126.574 0 .224-.038.42-.112.588a.69.69 0 0 1-.392.364c-.122.047-.29.084-.504.112a3.048 3.048 0 0 1-.532.056zm11.124-.028c-.336 0-.602-.093-.798-.28-.187-.187-.28-.457-.28-.812v-.798h-3.136c-.345 0-.621-.075-.826-.224-.205-.159-.308-.397-.308-.714 0-.187.042-.378.126-.574.084-.196.233-.439.448-.728l3.626-5.278c.159-.233.336-.41.532-.532a1.25 1.25 0 0 1 .672-.182c.299 0 .537.093.714.28.187.177.28.448.28.812v5.432h.518c.308 0 .541.075.7.224.159.14.238.35.238.63 0 .27-.079.48-.238.63-.149.15-.383.224-.7.224h-.518v.798c0 .355-.093.625-.28.812-.177.187-.434.28-.77.28zm-1.078-3.598v-3.85h.406l-2.982 4.382v-.532h2.576z" fill="#333"/>
    <rect x="246" y="4" width="14" height="4" rx="2" fill="#43D39A"/>
    <path d="M355.222 11.154c-.7 0-1.321-.089-1.862-.266a3.604 3.604 0 0 1-1.344-.812 3.393 3.393 0 0 1-.826-1.33c-.177-.541-.266-1.167-.266-1.876V2.11c0-.364.093-.64.28-.826.187-.187.457-.28.812-.28.345 0 .611.093.798.28.187.187.28.462.28.826v4.774c0 .803.182 1.41.546 1.82.364.401.891.602 1.582.602.691 0 1.213-.2 1.568-.602.364-.41.546-1.017.546-1.82V2.11c0-.364.093-.64.28-.826.187-.187.453-.28.798-.28.345 0 .607.093.784.28.187.187.28.462.28.826v4.76c0 .943-.163 1.736-.49 2.38a3.11 3.11 0 0 1-1.428 1.428c-.625.317-1.405.476-2.338.476zm7.058-.028c-.345 0-.611-.093-.798-.28-.177-.187-.266-.453-.266-.798v-4.97c0-.345.089-.607.266-.784.187-.187.444-.28.77-.28.336 0 .593.093.77.28.178.177.266.439.266.784v.798l-.154-.462c.215-.457.532-.807.952-1.05.43-.252.915-.378 1.456-.378.551 0 1.004.107 1.358.322.355.205.621.523.798.952.178.42.266.957.266 1.61v3.178c0 .345-.093.611-.28.798-.177.187-.438.28-.784.28-.336 0-.597-.093-.784-.28-.177-.187-.266-.453-.266-.798v-3.08c0-.476-.088-.817-.266-1.022-.168-.215-.429-.322-.784-.322-.448 0-.807.14-1.078.42-.261.28-.392.653-.392 1.12v2.884c0 .719-.35 1.078-1.05 1.078zm8.326-.014c-.345 0-.611-.098-.798-.294-.177-.205-.266-.49-.266-.854V5.176c0-.373.089-.658.266-.854.187-.205.453-.308.798-.308.336 0 .593.103.77.308.187.196.28.48.28.854v4.788c0 .364-.088.649-.266.854-.177.196-.438.294-.784.294zm0-8.246c-.392 0-.695-.089-.91-.266-.205-.187-.308-.448-.308-.784 0-.345.103-.607.308-.784.215-.187.518-.28.91-.28s.691.093.896.28c.206.177.308.439.308.784 0 .336-.102.597-.308.784-.205.177-.504.266-.896.266zm6.057 8.288c-.644 0-1.186-.107-1.624-.322a2.13 2.13 0 0 1-.966-.938c-.206-.41-.308-.929-.308-1.554V5.708h-.588c-.262 0-.467-.07-.616-.21-.14-.14-.21-.331-.21-.574 0-.261.07-.457.21-.588.149-.14.354-.21.616-.21h.588V3.062c0-.355.093-.62.28-.798.186-.187.448-.28.784-.28.345 0 .606.093.784.28.177.177.266.443.266.798v1.064h1.33c.261 0 .462.07.602.21.14.13.21.327.21.588 0 .243-.07.434-.21.574-.14.14-.341.21-.602.21h-1.33v2.548c0 .392.088.686.266.882.186.196.48.294.882.294.14 0 .27-.014.392-.042a2.5 2.5 0 0 1 .336-.056c.13-.01.238.033.322.126.084.084.126.275.126.574 0 .224-.038.42-.112.588a.69.69 0 0 1-.392.364c-.122.047-.29.084-.504.112a3.048 3.048 0 0 1-.532.056zm9.598 0c-.476 0-.966-.06-1.47-.182a5.172 5.172 0 0 1-1.386-.546c-.215-.121-.364-.27-.448-.448a.997.997 0 0 1-.07-.546c.037-.187.112-.345.224-.476a.796.796 0 0 1 .448-.266c.187-.037.392.005.616.126.327.168.658.299.994.392.345.093.695.14 1.05.14.355 0 .658-.06.91-.182.252-.121.443-.29.574-.504.131-.215.196-.467.196-.756 0-.448-.145-.807-.434-1.078-.28-.27-.663-.406-1.148-.406a2.503 2.503 0 0 0-1.498.532 1.629 1.629 0 0 1-.364.21 1.173 1.173 0 0 1-.476.098c-.289 0-.504-.065-.644-.196-.14-.14-.21-.34-.21-.602V2.068c0-.308.079-.541.238-.7.168-.159.401-.238.7-.238h4.494c.308 0 .541.08.7.238.159.15.238.369.238.658 0 .28-.079.5-.238.658-.159.15-.392.224-.7.224h-3.346v2.674h-.532c.233-.29.541-.513.924-.672a3.26 3.26 0 0 1 1.26-.238c.625 0 1.171.135 1.638.406.467.261.831.63 1.092 1.106.261.476.392 1.027.392 1.652 0 .653-.149 1.232-.448 1.736a3.062 3.062 0 0 1-1.288 1.162c-.56.28-1.223.42-1.988.42z" fill="#333"/>
    <rect x="330" y="4" width="14" height="4" rx="2" fill="#5A91C8"/>
</svg>
