<svg width="68" height="68" viewBox="0 0 68 68" fill="none" xmlns="http://www.w3.org/2000/svg">
<g filter="url(#filter0_d_601_3402)">
<mask id="mask0_601_3402" style="mask-type:luminance" maskUnits="userSpaceOnUse" x="4" y="0" width="60" height="65">
<path d="M64 0H4V65H64V0Z" fill="white"/>
</mask>
<g mask="url(#mask0_601_3402)">
<path d="M34.1667 24.857C37.5761 24.857 40.9089 25.868 43.7436 27.7621C46.5784 29.6563 48.7878 32.3485 50.0925 35.4983C51.3972 38.6481 51.7386 42.1141 51.0735 45.458C50.4084 48.8018 48.7666 51.8733 46.3558 54.2841C43.945 56.6949 40.8735 58.3366 37.5297 59.0018C34.1858 59.6669 30.7198 59.3255 27.57 58.0208C24.4202 56.7161 21.728 54.5067 19.8338 51.6719C17.9397 48.8371 16.9287 45.5044 16.9287 42.095C16.9287 37.5232 18.7449 33.1386 21.9776 29.9059C25.2104 26.6731 29.5949 24.857 34.1667 24.857Z" fill="#FFCE4B"/>
<path d="M34.1663 29.168C36.7235 29.1678 39.2233 29.9259 41.3496 31.3465C43.4759 32.7671 45.1332 34.7863 46.1119 37.1488C47.0906 39.5113 47.3467 42.111 46.8479 44.6191C46.3491 47.1271 45.1177 49.431 43.3095 51.2392C41.5012 53.0474 39.1974 54.2788 36.6894 54.7776C34.1813 55.2765 31.5816 55.0203 29.2191 54.0416C26.8566 53.063 24.8374 51.4057 23.4168 49.2793C21.9962 47.153 21.2381 44.6532 21.2383 42.096C21.2383 38.6673 22.6003 35.379 25.0248 32.9545C27.4493 30.53 30.7376 29.168 34.1663 29.168Z" fill="#F9B32F"/>
<path fill-rule="evenodd" clip-rule="evenodd" d="M47.0948 22.702C47.0948 22.1305 46.8678 21.5823 46.4636 21.1782C46.0595 20.7741 45.5114 20.547 44.9398 20.547H23.3928C23.106 20.5408 22.8208 20.592 22.554 20.6975C22.2872 20.803 22.0441 20.9607 21.8391 21.1614C21.634 21.362 21.4711 21.6016 21.3599 21.8661C21.2487 22.1306 21.1914 22.4146 21.1914 22.7015C21.1914 22.9884 21.2487 23.2724 21.3599 23.5369C21.4711 23.8014 21.634 24.041 21.8391 24.2416C22.0441 24.4423 22.2872 24.6 22.554 24.7055C22.8208 24.811 23.106 24.8622 23.3928 24.856H44.9408C45.5124 24.856 46.0605 24.629 46.4646 24.2248C46.8688 23.8207 47.0958 23.2725 47.0958 22.701" fill="#F9B32F"/>
<path fill-rule="evenodd" clip-rule="evenodd" d="M21.238 -1H4L25.548 20.547H42.786L21.238 -1Z" fill="#109BB2"/>
<path fill-rule="evenodd" clip-rule="evenodd" d="M15.8507 -1H9.38672L30.9337 20.547H37.3977L15.8507 -1Z" fill="#D0D0D0"/>
<path fill-rule="evenodd" clip-rule="evenodd" d="M47.0948 -1H64.3329L42.7859 20.547H25.5479L47.0948 -1Z" fill="#0FA9CB"/>
<path fill-rule="evenodd" clip-rule="evenodd" d="M52.4816 -1H58.9456L37.3986 20.547H30.9346L52.4816 -1Z" fill="#F0F0F0"/>
<path d="M41.2698 38.17C40.8702 38.1825 40.4919 38.3533 40.2181 38.6447C39.9443 38.9361 39.7974 39.3243 39.8098 39.724C39.8169 39.9399 39.8717 40.1516 39.9702 40.3439C40.0688 40.5361 40.2087 40.7042 40.3798 40.836C38.6558 43.144 36.9048 43.324 34.8748 39.502C35.0678 39.4062 35.2382 39.2707 35.3751 39.1043C35.5119 38.9379 35.6119 38.7445 35.6686 38.5367C35.7252 38.3288 35.7373 38.1114 35.7039 37.8986C35.6705 37.6858 35.5924 37.4825 35.4748 37.302C35.3419 37.0873 35.1519 36.9139 34.926 36.801C34.7001 36.6882 34.4473 36.6404 34.1958 36.663H34.1398C33.8889 36.6448 33.6377 36.6945 33.4126 36.8069C33.1875 36.9194 32.9969 37.0904 32.8608 37.302C32.7432 37.4825 32.6652 37.6858 32.6318 37.8986C32.5984 38.1114 32.6104 38.3288 32.6671 38.5367C32.7238 38.7445 32.8238 38.9379 32.9606 39.1043C33.0974 39.2707 33.2679 39.4062 33.4608 39.502C31.4308 43.325 29.6798 43.144 27.9558 40.836C28.1258 40.7031 28.2649 40.5348 28.3633 40.3428C28.4617 40.1508 28.5172 39.9396 28.5258 39.724C28.5366 39.3245 28.3894 38.9368 28.116 38.6453C27.8426 38.3538 27.4652 38.1819 27.0658 38.167C26.668 38.1633 26.285 38.3178 26.0011 38.5964C25.7171 38.8751 25.5555 39.2552 25.5518 39.653C25.5481 40.0508 25.7026 40.4338 25.9813 40.7178C26.2599 41.0017 26.64 41.1633 27.0378 41.167C27.0985 41.1693 27.1592 41.1646 27.2188 41.153L27.7888 46.741C27.8095 46.9549 27.9094 47.1534 28.0689 47.2976C28.2283 47.4417 28.4359 47.521 28.6508 47.52H39.6888C39.9038 47.521 40.1113 47.4417 40.2708 47.2976C40.4303 47.1534 40.5301 46.9549 40.5508 46.741L41.1208 41.153C41.1803 41.1651 41.2411 41.1698 41.3018 41.167C41.6996 41.1633 42.0797 41.0017 42.3584 40.7178C42.6371 40.4338 42.7915 40.0508 42.7878 39.653C42.7841 39.2552 42.6225 38.8751 42.3386 38.5964C42.0547 38.3178 41.6716 38.1633 41.2738 38.167" fill="#FFCE4B"/>
</g>
</g>
<defs>
<filter id="filter0_d_601_3402" x="0" y="0" width="68" height="67.333" filterUnits="userSpaceOnUse" color-interpolation-filters="sRGB">
<feFlood flood-opacity="0" result="BackgroundImageFix"/>
<feColorMatrix in="SourceAlpha" type="matrix" values="0 0 0 0 0 0 0 0 0 0 0 0 0 0 0 0 0 0 127 0" result="hardAlpha"/>
<feOffset dy="4"/>
<feGaussianBlur stdDeviation="2"/>
<feComposite in2="hardAlpha" operator="out"/>
<feColorMatrix type="matrix" values="0 0 0 0 0 0 0 0 0 0 0 0 0 0 0 0 0 0 0.15 0"/>
<feBlend mode="normal" in2="BackgroundImageFix" result="effect1_dropShadow_601_3402"/>
<feBlend mode="normal" in="SourceGraphic" in2="effect1_dropShadow_601_3402" result="shape"/>
</filter>
</defs>
</svg>
