<svg width="56" height="48" viewBox="0 0 56 48" fill="none" xmlns="http://www.w3.org/2000/svg">
<g id="unit" filter="url(#filter0_d_601_3448)">
<mask id="mask0_601_3448" style="mask-type:luminance" maskUnits="userSpaceOnUse" x="3" y="0" width="50" height="45">
<g id="clip-path">
<path id="&#236;&#130;&#172;&#234;&#176;&#129;&#237;&#152;&#149; 3376" d="M53 0H3V45H53V0Z" fill="white"/>
</g>
</mask>
<g mask="url(#mask0_601_3448)">
<g id="crown">
<path id="&#237;&#140;&#168;&#236;&#138;&#164; 13136" d="M28.0004 12.5718C30.7128 12.5718 33.3644 13.3761 35.6197 14.883C37.875 16.39 39.6328 18.5319 40.6708 21.0378C41.7088 23.5438 41.9804 26.3013 41.4512 28.9616C40.922 31.6219 39.6159 34.0656 37.6979 35.9835C35.7799 37.9015 33.3363 39.2077 30.6759 39.7368C28.0156 40.266 25.2581 39.9944 22.7522 38.9564C20.2462 37.9184 18.1044 36.1606 16.5974 33.9053C15.0905 31.65 14.2861 28.9985 14.2861 26.2861C14.2861 22.6488 15.731 19.1605 18.303 16.5886C20.8749 14.0167 24.3632 12.5718 28.0004 12.5718Z" fill="#FFCE4B"/>
<path id="&#237;&#140;&#168;&#236;&#138;&#164; 13137" d="M27.9992 16.0012C30.0337 16.001 32.0225 16.6042 33.7141 17.7344C35.4058 18.8645 36.7243 20.471 37.503 22.3506C38.2816 24.2302 38.4854 26.2984 38.0885 28.2938C37.6916 30.2892 36.7119 32.1221 35.2734 33.5606C33.8348 34.9992 32.0019 35.9789 30.0065 36.3758C28.0111 36.7726 25.9429 36.5689 24.0633 35.7902C22.1837 35.0116 20.5773 33.6931 19.4471 32.0014C18.3169 30.3098 17.7137 28.3209 17.7139 26.2865C17.7139 23.5586 18.7975 20.9425 20.7264 19.0137C22.6552 17.0848 25.2713 16.0012 27.9992 16.0012Z" fill="#F9B32F"/>
<path id="&#237;&#140;&#168;&#236;&#138;&#164; 13138" fill-rule="evenodd" clip-rule="evenodd" d="M38.2861 10.8572C38.2861 10.4025 38.1055 9.96645 37.7839 9.64493C37.4624 9.3234 37.0263 9.14276 36.5716 9.14276H19.4291C19.2009 9.13785 18.9741 9.17855 18.7618 9.26248C18.5495 9.34641 18.3562 9.47189 18.193 9.63154C18.0299 9.7912 17.9003 9.98181 17.8118 10.1922C17.7233 10.4026 17.6777 10.6286 17.6777 10.8569C17.6777 11.0851 17.7233 11.3111 17.8118 11.5215C17.9003 11.7319 18.0299 11.9225 18.193 12.0822C18.3562 12.2418 18.5495 12.3673 18.7618 12.4512C18.9741 12.5352 19.2009 12.5759 19.4291 12.5709H36.5724C37.0271 12.5709 37.4632 12.3903 37.7847 12.0688C38.1063 11.7472 38.2869 11.3112 38.2869 10.8565" fill="#F9B32F"/>
<path id="&#237;&#140;&#168;&#236;&#138;&#164; 13139" fill-rule="evenodd" clip-rule="evenodd" d="M17.7143 -8H4L21.1433 9.14246H34.8575L17.7143 -8Z" fill="#109BB2"/>
<path id="&#237;&#140;&#168;&#236;&#138;&#164; 13140" fill-rule="evenodd" clip-rule="evenodd" d="M13.4288 -8H8.28613L25.4286 9.14246H30.5713L13.4288 -8Z" fill="#D0D0D0"/>
<path id="&#237;&#140;&#168;&#236;&#138;&#164; 13141" fill-rule="evenodd" clip-rule="evenodd" d="M38.286 -8H52.0003L34.8578 9.14246H21.1436L38.286 -8Z" fill="#0FA9CB"/>
<path id="&#237;&#140;&#168;&#236;&#138;&#164; 13142" fill-rule="evenodd" clip-rule="evenodd" d="M42.5712 -8H47.7138L30.5714 9.14246H25.4287L42.5712 -8Z" fill="#F0F0F0"/>
<path id="&#237;&#140;&#168;&#236;&#138;&#164; 13143" d="M33.6515 23.1628C33.3336 23.1728 33.0326 23.3086 32.8148 23.5405C32.597 23.7723 32.4801 24.0812 32.49 24.3991C32.4956 24.5709 32.5392 24.7393 32.6176 24.8923C32.696 25.0452 32.8073 25.179 32.9435 25.2838C31.5719 27.12 30.1788 27.2632 28.5638 24.2225C28.7173 24.1463 28.8529 24.0385 28.9617 23.9061C29.0706 23.7738 29.1502 23.6198 29.1953 23.4545C29.2403 23.2892 29.2499 23.1162 29.2234 22.9469C29.1968 22.7776 29.1347 22.6158 29.0411 22.4722C28.9354 22.3015 28.7842 22.1635 28.6045 22.0737C28.4248 21.9839 28.2236 21.9459 28.0236 21.9639H27.979C27.7794 21.9493 27.5795 21.9889 27.4005 22.0784C27.2214 22.1678 27.0697 22.3039 26.9615 22.4722C26.8679 22.6158 26.8058 22.7776 26.7792 22.9469C26.7527 23.1162 26.7622 23.2892 26.8073 23.4545C26.8524 23.6198 26.932 23.7738 27.0408 23.9061C27.1497 24.0385 27.2853 24.1463 27.4388 24.2225C25.8238 27.264 24.4307 27.12 23.0591 25.2838C23.1944 25.1781 23.305 25.0442 23.3833 24.8914C23.4616 24.7387 23.5057 24.5707 23.5126 24.3991C23.5212 24.0813 23.404 23.7729 23.1865 23.5409C22.969 23.309 22.6688 23.1722 22.3511 23.1604C22.0345 23.1575 21.7298 23.2804 21.5039 23.5021C21.2781 23.7238 21.1495 24.0262 21.1465 24.3427C21.1436 24.6592 21.2665 24.9639 21.4882 25.1898C21.7099 25.4157 22.0123 25.5442 22.3288 25.5472C22.377 25.549 22.4254 25.5452 22.4728 25.536L22.9263 29.9818C22.9427 30.152 23.0222 30.3099 23.1491 30.4245C23.2759 30.5392 23.4411 30.6023 23.6121 30.6015H32.3937C32.5647 30.6023 32.7298 30.5392 32.8567 30.4245C32.9836 30.3099 33.0631 30.152 33.0795 29.9818L33.533 25.536C33.5803 25.5457 33.6287 25.5494 33.677 25.5472C33.9935 25.5442 34.2959 25.4157 34.5176 25.1898C34.7393 24.9639 34.8622 24.6592 34.8592 24.3427C34.8563 24.0262 34.7277 23.7238 34.5018 23.5021C34.2759 23.2804 33.9712 23.1575 33.6547 23.1604" fill="#FFCE4B"/>
</g>
</g>
</g>
<defs>
<filter id="filter0_d_601_3448" x="0" y="0" width="56" height="48.0004" filterUnits="userSpaceOnUse" color-interpolation-filters="sRGB">
<feFlood flood-opacity="0" result="BackgroundImageFix"/>
<feColorMatrix in="SourceAlpha" type="matrix" values="0 0 0 0 0 0 0 0 0 0 0 0 0 0 0 0 0 0 127 0" result="hardAlpha"/>
<feOffset dy="4"/>
<feGaussianBlur stdDeviation="2"/>
<feComposite in2="hardAlpha" operator="out"/>
<feColorMatrix type="matrix" values="0 0 0 0 0 0 0 0 0 0 0 0 0 0 0 0 0 0 0.15 0"/>
<feBlend mode="normal" in2="BackgroundImageFix" result="effect1_dropShadow_601_3448"/>
<feBlend mode="normal" in="SourceGraphic" in2="effect1_dropShadow_601_3448" result="shape"/>
</filter>
</defs>
</svg>
