<svg width="300" height="206" viewBox="0 0 300 206" fill="none" xmlns="http://www.w3.org/2000/svg">
<g filter="url(#filter0_d_679_877)">
<rect width="300" height="201" rx="20" fill="#3E61AA"/>
</g>
<g filter="url(#filter1_d_679_877)">
<path d="M10 21.3748V175.352C10 181.611 16.216 186.727 23.944 186.727H127.6C139.976 186.727 150 184.904 150 195V28.2727C150 18.177 139.976 10 127.6 10H23.944C16.272 10 10 15.0707 10 21.3748Z" fill="white"/>
<path d="M290 21.3748V175.352C290 181.611 283.784 186.727 276.056 186.727H172.4C160.024 186.727 150 184.904 150 195V28.2727C150 18.177 160.024 10 172.4 10H276.056C283.728 10 290 15.0707 290 21.3748Z" fill="#F9FBFF"/>
</g>
<path d="M30 148H270" stroke="#CCCCCC" stroke-miterlimit="10" stroke-linecap="round" stroke-dasharray="4 4"/>
<path d="M30 174H270" stroke="#CCCCCC" stroke-miterlimit="10" stroke-linecap="round" stroke-dasharray="4 4"/>
<path d="M69.5296 23.7716C72.4782 22.2801 76.0972 23.4241 77.6132 26.325C78.0071 27.0799 78.2322 27.9106 78.2702 28.7585C78.417 31.5444 80.5361 33.8458 83.3403 34.2618C86.6462 34.805 88.879 37.8821 88.3272 41.1353C88.1914 41.933 87.8929 42.6965 87.4488 43.3768C85.8876 45.7112 86.2167 48.8066 88.2355 50.7727C90.5883 53.0815 90.5931 56.8278 88.2465 59.1426C87.6482 59.7336 86.9288 60.1924 86.1372 60.4909C83.5091 61.5162 81.9492 64.192 82.3786 66.9412C82.8766 70.2189 80.5777 73.2739 77.2461 73.7633C76.4508 73.8796 75.6409 73.8416 74.8615 73.6483C72.1013 72.8995 69.1919 74.2038 67.9562 76.7437C66.4696 79.6569 62.8652 80.8339 59.9031 79.3718C59.1275 78.9888 58.4447 78.4444 57.904 77.7764C56.1042 75.6083 53.0125 74.9648 50.4737 76.2287C47.5251 77.7201 43.906 76.5761 42.3901 73.6752C41.9962 72.9203 41.771 72.0896 41.7331 71.2417C41.5863 68.4558 39.4672 66.1544 36.663 65.7385C33.3571 65.1952 31.1242 62.1182 31.676 58.8649C31.8118 58.0672 32.1104 57.3037 32.5545 56.6235C34.1157 54.2891 33.7866 51.1936 31.7678 49.2275C29.415 46.9188 29.4101 43.1724 31.7568 40.8576C32.3551 40.2666 33.0745 39.8078 33.8661 39.5093C36.4941 38.484 38.0541 35.8082 37.6246 33.0591C37.1267 29.7813 39.4256 26.7263 42.7572 26.2369C43.5524 26.1207 44.3624 26.1586 45.1418 26.3519C47.9019 27.1007 50.8114 25.7964 52.0471 23.2565C53.5337 20.3421 57.1393 19.1664 60.1001 20.6284C60.8758 21.0114 61.5585 21.5558 62.0993 22.2239C63.9174 24.3613 66.9859 25.0012 69.5296 23.7716Z" fill="#00C2A9"/>
<path d="M60.0395 70.6187C71.6253 70.6187 81.0174 61.3783 81.0174 49.9797C81.0174 38.581 71.6253 29.3406 60.0395 29.3406C48.4537 29.3406 39.0615 38.581 39.0615 49.9797C39.0615 61.3783 48.4537 70.6187 60.0395 70.6187Z" fill="#00A58C"/>
<path d="M39.9846 47.5931C42.3496 36.4324 53.4638 29.2701 64.808 31.5972C72.2456 33.1229 78.2651 38.4842 80.5433 45.6159C78.133 34.4602 66.987 27.337 55.6477 29.7081C47.5066 31.41 41.1555 37.6841 39.461 45.7016C38.7085 49.1555 38.8896 52.7428 39.9858 56.1073C39.3741 53.3019 39.3741 50.3998 39.9858 47.5931H39.9846Z" fill="#037C68"/>
<path d="M57.2213 58.6785C56.468 58.7444 55.6953 58.4608 55.1614 57.8479L48.3803 50.0664C47.4929 49.0473 47.5984 47.5016 48.6175 46.6141C49.6366 45.7267 51.1822 45.8322 52.0697 46.8513L57.2808 52.8309L68.7857 43.2653C69.8253 42.4018 71.368 42.5432 72.2314 43.5828C73.0949 44.6225 72.9535 46.1651 71.9139 47.0286L58.5703 58.1232C58.1731 58.454 57.7004 58.6378 57.2214 58.6797L57.2213 58.6785Z" fill="white"/>
<defs>
<filter id="filter0_d_679_877" x="0" y="0" width="300" height="206" filterUnits="userSpaceOnUse" color-interpolation-filters="sRGB">
<feFlood flood-opacity="0" result="BackgroundImageFix"/>
<feColorMatrix in="SourceAlpha" type="matrix" values="0 0 0 0 0 0 0 0 0 0 0 0 0 0 0 0 0 0 127 0" result="hardAlpha"/>
<feOffset dy="5"/>
<feComposite in2="hardAlpha" operator="out"/>
<feColorMatrix type="matrix" values="0 0 0 0 0.176806 0 0 0 0 0.300449 0 0 0 0 0.558333 0 0 0 1 0"/>
<feBlend mode="normal" in2="BackgroundImageFix" result="effect1_dropShadow_679_877"/>
<feBlend mode="normal" in="SourceGraphic" in2="effect1_dropShadow_679_877" result="shape"/>
</filter>
<filter id="filter1_d_679_877" x="5" y="5" width="290" height="195" filterUnits="userSpaceOnUse" color-interpolation-filters="sRGB">
<feFlood flood-opacity="0" result="BackgroundImageFix"/>
<feColorMatrix in="SourceAlpha" type="matrix" values="0 0 0 0 0 0 0 0 0 0 0 0 0 0 0 0 0 0 127 0" result="hardAlpha"/>
<feOffset/>
<feGaussianBlur stdDeviation="2.5"/>
<feComposite in2="hardAlpha" operator="out"/>
<feColorMatrix type="matrix" values="0 0 0 0 0 0 0 0 0 0 0 0 0 0 0 0 0 0 0.15 0"/>
<feBlend mode="normal" in2="BackgroundImageFix" result="effect1_dropShadow_679_877"/>
<feBlend mode="normal" in="SourceGraphic" in2="effect1_dropShadow_679_877" result="shape"/>
</filter>
</defs>
</svg>
