<svg width="300" height="206" viewBox="0 0 300 206" fill="none" xmlns="http://www.w3.org/2000/svg">
<g filter="url(#filter0_d_601_3414)">
<rect width="300" height="201" rx="20" fill="#DDDDDD"/>
</g>
<g filter="url(#filter1_d_601_3414)">
<path d="M10 21.3748V175.352C10 181.611 16.216 186.727 23.944 186.727H127.6C139.976 186.727 150 184.904 150 195V28.2727C150 18.177 139.976 10 127.6 10H23.944C16.272 10 10 15.0707 10 21.3748Z" fill="#F9F9F9"/>
<path d="M290 21.3748V175.352C290 181.611 283.784 186.727 276.056 186.727H172.4C160.024 186.727 150 184.904 150 195V28.2727C150 18.177 160.024 10 172.4 10H276.056C283.728 10 290 15.0707 290 21.3748Z" fill="#F5F5F5"/>
</g>
<path fill-rule="evenodd" clip-rule="evenodd" d="M157.906 78.1854V69.2849C157.906 65.0909 154.54 61.6897 150.387 61.6897C146.234 61.6897 142.868 65.0897 142.868 69.2849V78.1854H136.244V69.2849C136.248 61.3961 142.582 55.0024 150.392 55.0048C158.198 55.0073 164.526 61.3998 164.529 69.2849V78.1854H157.905H157.906Z" fill="#9E9E9E"/>
<path fill-rule="evenodd" clip-rule="evenodd" d="M148.532 61.9284C145.212 62.8019 142.889 65.8201 142.87 69.2849V78.1855H139.157V69.2849C139.179 65.0995 142.533 61.7118 146.676 61.6898C147.302 61.6898 147.926 61.7693 148.533 61.9271L148.532 61.9284ZM150.387 55C149.766 55 149.146 55.0416 148.531 55.1248C155.551 56.0864 160.794 62.1302 160.817 69.2862V78.1867H164.529V69.2862C164.506 61.406 158.189 55.0232 150.387 55Z" fill="#828282"/>
<path fill-rule="evenodd" clip-rule="evenodd" d="M133.501 76.4664H167.275C170.31 76.4749 172.768 78.9573 172.776 82.0233V109.443C172.768 112.509 170.31 114.991 167.275 115H133.501C130.466 114.991 128.008 112.509 128 109.443V82.0233C128.008 78.9573 130.466 76.4749 133.501 76.4664Z" fill="#BDBDBD"/>
<path fill-rule="evenodd" clip-rule="evenodd" d="M167.527 76.4716C170.459 76.6172 172.766 79.0555 172.775 82.0212V109.441C172.766 112.507 170.309 114.989 167.274 114.998H133.501C131.152 114.991 129.066 113.485 128.299 111.242C128.382 111.242 128.466 111.248 128.551 111.248H162.325C165.36 111.239 167.817 108.757 167.826 105.691V78.2713C167.826 77.6584 167.725 77.0503 167.527 76.4716Z" fill="#A8A8A8"/>
<path fill-rule="evenodd" clip-rule="evenodd" d="M150.387 86.5624C153.024 86.571 155.154 88.7365 155.147 91.3987C155.142 93.0063 154.345 94.505 153.022 95.3969L155.061 104.134C155.14 104.469 154.934 104.805 154.601 104.885C154.555 104.896 154.506 104.902 154.459 104.902H146.318C145.976 104.902 145.699 104.622 145.7 104.277C145.7 104.229 145.706 104.18 145.717 104.134L147.757 95.3969C145.563 93.9202 144.97 90.9252 146.432 88.7096C147.314 87.3724 148.798 86.5673 150.39 86.5624H150.387Z" fill="#F7F7F7"/>
<path fill-rule="evenodd" clip-rule="evenodd" d="M150.388 86.5626C150.685 86.5626 150.983 86.5895 151.275 86.6458C148.686 87.1474 146.989 89.6739 147.486 92.2896C147.727 93.5583 148.461 94.6765 149.524 95.3935L147.484 104.13C147.406 104.465 147.611 104.802 147.945 104.881C147.991 104.892 148.039 104.898 148.086 104.898H146.322C145.98 104.898 145.703 104.618 145.704 104.273C145.704 104.226 145.71 104.177 145.721 104.13L147.76 95.3935C145.567 93.9168 144.974 90.9218 146.435 88.7061C147.318 87.3689 148.802 86.5639 150.394 86.559L150.388 86.5639V86.5626Z" fill="#EAEAEA"/>
<defs>
<filter id="filter0_d_601_3414" x="0" y="0" width="300" height="206" filterUnits="userSpaceOnUse" color-interpolation-filters="sRGB">
<feFlood flood-opacity="0" result="BackgroundImageFix"/>
<feColorMatrix in="SourceAlpha" type="matrix" values="0 0 0 0 0 0 0 0 0 0 0 0 0 0 0 0 0 0 127 0" result="hardAlpha"/>
<feOffset dy="5"/>
<feComposite in2="hardAlpha" operator="out"/>
<feColorMatrix type="matrix" values="0 0 0 0 0.8 0 0 0 0 0.8 0 0 0 0 0.8 0 0 0 1 0"/>
<feBlend mode="normal" in2="BackgroundImageFix" result="effect1_dropShadow_601_3414"/>
<feBlend mode="normal" in="SourceGraphic" in2="effect1_dropShadow_601_3414" result="shape"/>
</filter>
<filter id="filter1_d_601_3414" x="5" y="5" width="290" height="195" filterUnits="userSpaceOnUse" color-interpolation-filters="sRGB">
<feFlood flood-opacity="0" result="BackgroundImageFix"/>
<feColorMatrix in="SourceAlpha" type="matrix" values="0 0 0 0 0 0 0 0 0 0 0 0 0 0 0 0 0 0 127 0" result="hardAlpha"/>
<feOffset/>
<feGaussianBlur stdDeviation="2.5"/>
<feComposite in2="hardAlpha" operator="out"/>
<feColorMatrix type="matrix" values="0 0 0 0 0 0 0 0 0 0 0 0 0 0 0 0 0 0 0.15 0"/>
<feBlend mode="normal" in2="BackgroundImageFix" result="effect1_dropShadow_601_3414"/>
<feBlend mode="normal" in="SourceGraphic" in2="effect1_dropShadow_601_3414" result="shape"/>
</filter>
</defs>
</svg>
