<svg width="100" height="48" viewBox="0 0 100 48" fill="none" xmlns="http://www.w3.org/2000/svg">
<rect width="100" height="48" rx="10" fill="#3E61AA"/>
<rect x="0.5" y="0.5" width="99" height="47" rx="9.5" stroke="white" stroke-opacity="0.7"/>
<path d="M48.4378 28.864V20.032C48.4378 19.344 48.9818 18.8 49.6698 18.8H53.0138C55.6858 18.8 57.3018 20.384 57.3018 22.672V22.704C57.3018 25.296 55.2858 26.64 52.7738 26.64H50.9018V28.864C50.9018 29.552 50.3578 30.096 49.6698 30.096C48.9818 30.096 48.4378 29.552 48.4378 28.864ZM50.9018 24.448H52.8538C54.0858 24.448 54.8058 23.712 54.8058 22.752V22.72C54.8058 21.616 54.0378 21.024 52.8058 21.024H50.9018V24.448ZM58.8693 28.88V22.544C58.8693 21.872 59.4133 21.328 60.0853 21.328C60.7573 21.328 61.3013 21.872 61.3013 22.544V22.928C61.6533 22.096 62.2293 21.328 62.9493 21.328C63.7013 21.328 64.1333 21.824 64.1333 22.512C64.1333 23.152 63.7173 23.536 63.2213 23.648C61.9893 23.936 61.3013 24.88 61.3013 26.608V28.88C61.3013 29.552 60.7573 30.096 60.0853 30.096C59.4133 30.096 58.8693 29.552 58.8693 28.88ZM65.5247 19.408V19.376C65.5247 18.672 66.1168 18.24 66.8848 18.24C67.6528 18.24 68.2448 18.672 68.2448 19.376V19.408C68.2448 20.112 67.6528 20.56 66.8848 20.56C66.1168 20.56 65.5247 20.112 65.5247 19.408ZM65.6688 28.88V22.544C65.6688 21.872 66.2128 21.328 66.8848 21.328C67.5568 21.328 68.1008 21.872 68.1008 22.544V28.88C68.1008 29.552 67.5568 30.096 66.8848 30.096C66.2128 30.096 65.6688 29.552 65.6688 28.88ZM70.3849 28.88V22.544C70.3849 21.872 70.9289 21.328 71.6009 21.328C72.2729 21.328 72.8169 21.872 72.8169 22.544V22.64C73.3769 21.92 74.0969 21.264 75.3289 21.264C77.1689 21.264 78.2409 22.48 78.2409 24.448V28.88C78.2409 29.552 77.6969 30.096 77.0249 30.096C76.3529 30.096 75.8089 29.552 75.8089 28.88V25.216C75.8089 24.064 75.2649 23.472 74.3369 23.472C73.4089 23.472 72.8169 24.064 72.8169 25.216V28.88C72.8169 29.552 72.2729 30.096 71.6009 30.096C70.9289 30.096 70.3849 29.552 70.3849 28.88ZM83.2496 30.144C81.7616 30.144 80.7536 29.552 80.7536 27.568V23.504H80.6736C80.0976 23.504 79.6336 23.04 79.6336 22.464C79.6336 21.888 80.0976 21.424 80.6736 21.424H80.7536V20.352C80.7536 19.68 81.2976 19.136 81.9696 19.136C82.6416 19.136 83.1856 19.68 83.1856 20.352V21.424H84.2576C84.8336 21.424 85.2976 21.888 85.2976 22.464C85.2976 23.04 84.8336 23.504 84.2576 23.504H83.1856V27.168C83.1856 27.728 83.4256 28 83.9696 28C84.0496 28 84.2096 27.984 84.2576 27.984C84.8016 27.984 85.2656 28.432 85.2656 28.992C85.2656 29.424 84.9776 29.776 84.6416 29.904C84.1936 30.08 83.7776 30.144 83.2496 30.144Z" fill="white"/>
<path d="M41.0004 23.1301V35.6102C41.0004 36.3763 40.3795 36.9971 39.6135 36.9971H16.3869C15.6214 36.996 15.0011 36.3757 15 35.6102V23.1301C15.0011 22.3645 15.6214 21.7442 16.3869 21.7432H39.6135C40.3795 21.7432 41.0004 22.364 41.0004 23.1301Z" fill="#E1E6E9"/>
<path d="M37.2349 35.468V37.0001H18.8721V35.468C18.8721 34.7019 19.4929 34.0811 20.259 34.0811H35.8485C36.6146 34.0811 37.2354 34.7019 37.2354 35.468H37.2349Z" fill="#22407D"/>
<path d="M18.5499 32.7073C19.1244 32.7073 19.5901 32.2416 19.5901 31.6671C19.5901 31.0927 19.1244 30.627 18.5499 30.627C17.9755 30.627 17.5098 31.0927 17.5098 31.6671C17.5098 32.2416 17.9755 32.7073 18.5499 32.7073Z" fill="#2D5BBC"/>
<path d="M18.5504 32.1867C18.8376 32.1867 19.0705 31.9538 19.0705 31.6666C19.0705 31.3793 18.8376 31.1465 18.5504 31.1465C18.2631 31.1465 18.0303 31.3793 18.0303 31.6666C18.0303 31.9538 18.2631 32.1867 18.5504 32.1867Z" fill="#6189DF"/>
<path d="M22.0167 32.7073C22.5912 32.7073 23.0569 32.2416 23.0569 31.6671C23.0569 31.0927 22.5912 30.627 22.0167 30.627C21.4423 30.627 20.9766 31.0927 20.9766 31.6671C20.9766 32.2416 21.4423 32.7073 22.0167 32.7073Z" fill="#DB5757"/>
<path d="M22.0172 32.1867C22.3044 32.1867 22.5373 31.9538 22.5373 31.6666C22.5373 31.3793 22.3044 31.1465 22.0172 31.1465C21.7299 31.1465 21.4971 31.3793 21.4971 31.6666C21.4971 31.9538 21.7299 32.1867 22.0172 32.1867Z" fill="#EF7E7E"/>
<path d="M37.1086 18.8008H18.8921C18.1308 18.8008 17.5137 19.4179 17.5137 20.1792V22.7542C17.5137 23.5155 18.1308 24.1327 18.8921 24.1327H37.1086C37.8699 24.1327 38.487 23.5155 38.487 22.7542V20.1792C38.487 19.4179 37.8699 18.8008 37.1086 18.8008Z" fill="#22407D"/>
<path d="M35.9733 21.707V23.0939H20.0265V21.707H17.5098V27.6003C17.5098 28.5578 18.2859 29.3335 19.2429 29.3335H36.7532C37.7106 29.3335 38.4863 28.5573 38.4863 27.6003V21.707H35.9728H35.9733Z" fill="#21C39A"/>
<path d="M21.0666 24.133H34.933C35.5072 24.133 35.9732 23.6675 35.9732 23.0928H20.0264C20.0264 23.6669 20.4919 24.133 21.0666 24.133Z" fill="#58E1BF"/>
<path d="M17.5098 21.707H20.0265V22.7472H17.5098V21.707Z" fill="#58E1BF"/>
<path d="M35.9736 21.707H38.4871V22.7472H35.9736V21.707Z" fill="#58E1BF"/>
<path d="M21.4048 11H34.5948C35.3556 11 35.9732 11.6176 35.9732 12.3784V23.0931H20.0264V12.3784C20.0264 11.6176 20.644 11 21.4048 11Z" fill="#E1E6E9"/>
<path d="M33.2001 19.6416H22.7999C22.6085 19.6416 22.4531 19.7969 22.4531 19.9883C22.4531 20.1797 22.6085 20.3351 22.7999 20.3351H33.2001C33.3915 20.3351 33.5468 20.1797 33.5468 19.9883C33.5468 19.7969 33.3915 19.6416 33.2001 19.6416Z" fill="#D5D6DB"/>
<path d="M33.2001 17.6445H22.7999C22.6085 17.6445 22.4531 17.7999 22.4531 17.9913C22.4531 18.1826 22.6085 18.338 22.7999 18.338H33.2001C33.3915 18.338 33.5468 18.1826 33.5468 17.9913C33.5468 17.7999 33.3915 17.6445 33.2001 17.6445Z" fill="#D5D6DB"/>
<path d="M33.2001 15.6475H22.7999C22.6085 15.6475 22.4531 15.8028 22.4531 15.9942C22.4531 16.1856 22.6085 16.3409 22.7999 16.3409H33.2001C33.3915 16.3409 33.5468 16.1856 33.5468 15.9942C33.5468 15.8028 33.3915 15.6475 33.2001 15.6475Z" fill="#D5D6DB"/>
<path d="M33.2001 13.6504H22.7999C22.6085 13.6504 22.4531 13.8057 22.4531 13.9971C22.4531 14.1885 22.6085 14.3438 22.7999 14.3438H33.2001C33.3915 14.3438 33.5468 14.1885 33.5468 13.9971C33.5468 13.8057 33.3915 13.6504 33.2001 13.6504Z" fill="#D5D6DB"/>
</svg>
