<svg width="100" height="51" viewBox="0 0 100 51" fill="none" xmlns="http://www.w3.org/2000/svg">
<g filter="url(#filter0_d_642_1119)">
<rect width="100" height="48" rx="10" fill="#7861BB"/>
<rect x="1" y="1" width="98" height="46" rx="9" stroke="#614AA4" stroke-width="2"/>
</g>
<path d="M48.4378 28.864V20.032C48.4378 19.344 48.9818 18.8 49.6698 18.8H53.0138C55.6858 18.8 57.3018 20.384 57.3018 22.672V22.704C57.3018 25.296 55.2858 26.64 52.7738 26.64H50.9018V28.864C50.9018 29.552 50.3578 30.096 49.6698 30.096C48.9818 30.096 48.4378 29.552 48.4378 28.864ZM50.9018 24.448H52.8538C54.0858 24.448 54.8058 23.712 54.8058 22.752V22.72C54.8058 21.616 54.0378 21.024 52.8058 21.024H50.9018V24.448ZM58.8693 28.88V22.544C58.8693 21.872 59.4133 21.328 60.0853 21.328C60.7573 21.328 61.3013 21.872 61.3013 22.544V22.928C61.6533 22.096 62.2293 21.328 62.9493 21.328C63.7013 21.328 64.1333 21.824 64.1333 22.512C64.1333 23.152 63.7173 23.536 63.2213 23.648C61.9893 23.936 61.3013 24.88 61.3013 26.608V28.88C61.3013 29.552 60.7573 30.096 60.0853 30.096C59.4133 30.096 58.8693 29.552 58.8693 28.88ZM65.5247 19.408V19.376C65.5247 18.672 66.1168 18.24 66.8848 18.24C67.6528 18.24 68.2448 18.672 68.2448 19.376V19.408C68.2448 20.112 67.6528 20.56 66.8848 20.56C66.1168 20.56 65.5247 20.112 65.5247 19.408ZM65.6688 28.88V22.544C65.6688 21.872 66.2128 21.328 66.8848 21.328C67.5568 21.328 68.1008 21.872 68.1008 22.544V28.88C68.1008 29.552 67.5568 30.096 66.8848 30.096C66.2128 30.096 65.6688 29.552 65.6688 28.88ZM70.3849 28.88V22.544C70.3849 21.872 70.9289 21.328 71.6009 21.328C72.2729 21.328 72.8169 21.872 72.8169 22.544V22.64C73.3769 21.92 74.0969 21.264 75.3289 21.264C77.1689 21.264 78.2409 22.48 78.2409 24.448V28.88C78.2409 29.552 77.6969 30.096 77.0249 30.096C76.3529 30.096 75.8089 29.552 75.8089 28.88V25.216C75.8089 24.064 75.2649 23.472 74.3369 23.472C73.4089 23.472 72.8169 24.064 72.8169 25.216V28.88C72.8169 29.552 72.2729 30.096 71.6009 30.096C70.9289 30.096 70.3849 29.552 70.3849 28.88ZM83.2496 30.144C81.7616 30.144 80.7536 29.552 80.7536 27.568V23.504H80.6736C80.0976 23.504 79.6336 23.04 79.6336 22.464C79.6336 21.888 80.0976 21.424 80.6736 21.424H80.7536V20.352C80.7536 19.68 81.2976 19.136 81.9696 19.136C82.6416 19.136 83.1856 19.68 83.1856 20.352V21.424H84.2576C84.8336 21.424 85.2976 21.888 85.2976 22.464C85.2976 23.04 84.8336 23.504 84.2576 23.504H83.1856V27.168C83.1856 27.728 83.4256 28 83.9696 28C84.0496 28 84.2096 27.984 84.2576 27.984C84.8016 27.984 85.2656 28.432 85.2656 28.992C85.2656 29.424 84.9776 29.776 84.6416 29.904C84.1936 30.08 83.7776 30.144 83.2496 30.144Z" fill="white"/>
<path d="M41.0004 23.1305V35.6106C41.0004 36.3767 40.3795 36.9975 39.6135 36.9975H16.3869C15.6214 36.9964 15.0011 36.3762 15 35.6106V23.1305C15.0011 22.3649 15.6214 21.7447 16.3869 21.7436H39.6135C40.3795 21.7436 41.0004 22.3644 41.0004 23.1305Z" fill="#E1E6E9"/>
<path d="M37.2349 35.4678V37H18.8721V35.4678C18.8721 34.7017 19.4929 34.0809 20.259 34.0809H35.8485C36.6146 34.0809 37.2354 34.7017 37.2354 35.4678H37.2349Z" fill="#22407D"/>
<path d="M18.5499 32.7072C19.1244 32.7072 19.5901 32.2415 19.5901 31.667C19.5901 31.0925 19.1244 30.6268 18.5499 30.6268C17.9755 30.6268 17.5098 31.0925 17.5098 31.667C17.5098 32.2415 17.9755 32.7072 18.5499 32.7072Z" fill="#2D5BBC"/>
<path d="M18.5504 32.187C18.8376 32.187 19.0705 31.9542 19.0705 31.6669C19.0705 31.3797 18.8376 31.1469 18.5504 31.1469C18.2631 31.1469 18.0303 31.3797 18.0303 31.6669C18.0303 31.9542 18.2631 32.187 18.5504 32.187Z" fill="#6189DF"/>
<path d="M22.0167 32.7072C22.5912 32.7072 23.0569 32.2415 23.0569 31.667C23.0569 31.0925 22.5912 30.6268 22.0167 30.6268C21.4423 30.6268 20.9766 31.0925 20.9766 31.667C20.9766 32.2415 21.4423 32.7072 22.0167 32.7072Z" fill="#DB5757"/>
<path d="M22.0172 32.187C22.3044 32.187 22.5373 31.9542 22.5373 31.6669C22.5373 31.3797 22.3044 31.1469 22.0172 31.1469C21.7299 31.1469 21.4971 31.3797 21.4971 31.6669C21.4971 31.9542 21.7299 32.187 22.0172 32.187Z" fill="#EF7E7E"/>
<path d="M37.1086 18.8007H18.8921C18.1308 18.8007 17.5137 19.4179 17.5137 20.1791V22.7542C17.5137 23.5154 18.1308 24.1326 18.8921 24.1326H37.1086C37.8699 24.1326 38.487 23.5154 38.487 22.7542V20.1791C38.487 19.4179 37.8699 18.8007 37.1086 18.8007Z" fill="#22407D"/>
<path d="M35.9733 21.707V23.0939H20.0265V21.707H17.5098V27.6003C17.5098 28.5578 18.2859 29.3334 19.2429 29.3334H36.7532C37.7106 29.3334 38.4863 28.5572 38.4863 27.6003V21.707H35.9728H35.9733Z" fill="#21C39A"/>
<path d="M21.0666 24.1329H34.933C35.5072 24.1329 35.9732 23.6674 35.9732 23.0927H20.0264C20.0264 23.6669 20.4919 24.1329 21.0666 24.1329Z" fill="#58E1BF"/>
<path d="M17.5098 21.707H20.0265V22.7472H17.5098V21.707Z" fill="#58E1BF"/>
<path d="M35.9736 21.707H38.4871V22.7472H35.9736V21.707Z" fill="#58E1BF"/>
<path d="M21.4048 11H34.5948C35.3556 11 35.9732 11.6176 35.9732 12.3784V23.0931H20.0264V12.3784C20.0264 11.6176 20.644 11 21.4048 11Z" fill="#E1E6E9"/>
<path d="M33.2001 19.6423H22.7999C22.6085 19.6423 22.4531 19.7976 22.4531 19.989C22.4531 20.1804 22.6085 20.3357 22.7999 20.3357H33.2001C33.3915 20.3357 33.5468 20.1804 33.5468 19.989C33.5468 19.7976 33.3915 19.6423 33.2001 19.6423Z" fill="#D5D6DB"/>
<path d="M33.2001 17.6447H22.7999C22.6085 17.6447 22.4531 17.8 22.4531 17.9914C22.4531 18.1828 22.6085 18.3381 22.7999 18.3381H33.2001C33.3915 18.3381 33.5468 18.1828 33.5468 17.9914C33.5468 17.8 33.3915 17.6447 33.2001 17.6447Z" fill="#D5D6DB"/>
<path d="M33.2001 15.6476H22.7999C22.6085 15.6476 22.4531 15.8029 22.4531 15.9943C22.4531 16.1857 22.6085 16.341 22.7999 16.341H33.2001C33.3915 16.341 33.5468 16.1857 33.5468 15.9943C33.5468 15.8029 33.3915 15.6476 33.2001 15.6476Z" fill="#D5D6DB"/>
<path d="M33.2001 13.6509H22.7999C22.6085 13.6509 22.4531 13.8062 22.4531 13.9976C22.4531 14.189 22.6085 14.3443 22.7999 14.3443H33.2001C33.3915 14.3443 33.5468 14.189 33.5468 13.9976C33.5468 13.8062 33.3915 13.6509 33.2001 13.6509Z" fill="#D5D6DB"/>
<defs>
<filter id="filter0_d_642_1119" x="0" y="0" width="100" height="51" filterUnits="userSpaceOnUse" color-interpolation-filters="sRGB">
<feFlood flood-opacity="0" result="BackgroundImageFix"/>
<feColorMatrix in="SourceAlpha" type="matrix" values="0 0 0 0 0 0 0 0 0 0 0 0 0 0 0 0 0 0 127 0" result="hardAlpha"/>
<feOffset dy="3"/>
<feComposite in2="hardAlpha" operator="out"/>
<feColorMatrix type="matrix" values="0 0 0 0 0 0 0 0 0 0 0 0 0 0 0 0 0 0 0.25 0"/>
<feBlend mode="normal" in2="BackgroundImageFix" result="effect1_dropShadow_642_1119"/>
<feBlend mode="normal" in="SourceGraphic" in2="effect1_dropShadow_642_1119" result="shape"/>
</filter>
</defs>
</svg>
