<svg xmlns="http://www.w3.org/2000/svg" xmlns:xlink="http://www.w3.org/1999/xlink" width="38" height="46" viewBox="0 0 38 46">
  <defs>
    <style>
      .cls-1 {
        fill: none;
      }

      .cls-2 {
        clip-path: url(#clip-path);
      }

      .cls-3 {
        fill: #d8e4e5;
      }

      .cls-4 {
        fill: #eaf3f9;
      }

      .cls-5 {
        fill: #fff3d2;
      }

      .cls-6 {
        fill: #f46257;
      }

      .cls-7 {
        fill: #f1b02e;
      }

      .cls-8 {
        fill: #888;
      }

      .cls-9 {
        fill: #ffd488;
      }

      .cls-10 {
        fill: #1183c9;
      }
    </style>
    <clipPath id="clip-path">
      <rect id="사각형_3375" data-name="사각형 3375" class="cls-1" width="38" height="46"/>
    </clipPath>
  </defs>
  <g id="그룹_12630" data-name="그룹 12630" class="cls-2">
    <path id="패스_13123" data-name="패스 13123" class="cls-3" d="M36.255,50.661H14.684A4.684,4.684,0,0,1,10,45.977V14.684A4.684,4.684,0,0,1,14.684,10H36.255a4.684,4.684,0,0,1,4.684,4.684V45.977a4.684,4.684,0,0,1-4.684,4.684" transform="translate(-9.095 -9.095)"/>
    <path id="패스_13124" data-name="패스 13124" class="cls-4" d="M26.255,40.661H4.684A4.684,4.684,0,0,1,0,35.977V4.684A4.684,4.684,0,0,1,4.684,0H26.255a4.684,4.684,0,0,1,4.684,4.684V35.977a4.684,4.684,0,0,1-4.684,4.684"/>
    <path id="패스_13125" data-name="패스 13125" class="cls-3" d="M194.013,274.681h0l-2.4-2.4a1.7,1.7,0,0,0-2.4,0h0l-3.918,3.918-.008.009-8.686,8.685-.006,0a6.118,6.118,0,0,0-.89,1.738c-.287.7-.736,2.3-1.095,3.537-.137.258-.8,1.556-.416,1.936s1.746-.31,1.956-.421c1.231-.359,2.824-.8,3.517-1.089a6.113,6.113,0,0,0,1.739-.89c.014-.015.026-.031.039-.046l10.328-10.326.293-.293.016-.016.291-.291h0l1.647-1.647a1.7,1.7,0,0,0,0-2.4" transform="translate(-158.324 -247.192)"/>
    <path id="패스_13126" data-name="패스 13126" class="cls-5" d="M186.2,422.484c-.064.207.733,1,.939.939,1.212-.375,3.495-.983,4.363-1.341a6.113,6.113,0,0,0,1.739-.89.885.885,0,0,0-.035-1.233,13.545,13.545,0,0,0-3.539-3.543.886.886,0,0,0-1.236-.034,6.114,6.114,0,0,0-.89,1.738c-.358.869-.967,3.152-1.341,4.363" transform="translate(-169.353 -378.501)"/>
    <path id="패스_13127" data-name="패스 13127" class="cls-6" d="M305.971,274.276h0a1.7,1.7,0,0,1,2.4,0l2.4,2.4h0a1.7,1.7,0,0,1,0,2.4L306.86,283h0a1.7,1.7,0,0,1-2.4,0l-2.4-2.4h0a1.7,1.7,0,0,1,0-2.4Z" transform="translate(-274.275 -249.011)"/>
    <path id="패스_13128" data-name="패스 13128" class="cls-7" d="M221.587,300.725l4.807,4.805-10.68,10.678-2.4-2.4-2.405-2.4Z" transform="translate(-191.83 -273.52)"/>
    <path id="패스_13129" data-name="패스 13129" class="cls-8" d="M185.172,478.09c-.473-.462-1.175-1.131-1.543-1.545,0,0-.862,1.559-.441,1.981s1.984-.436,1.984-.436" transform="translate(-166.51 -433.435)"/>
    <rect id="사각형_3374" data-name="사각형 3374" class="cls-9" width="0.848" height="6.797" transform="matrix(0.707, -0.707, 0.707, 0.707, 29.449, 27.512)"/>
    <path id="패스_13130" data-name="패스 13130" class="cls-9" d="M263.583,335.793a.271.271,0,0,1-.192-.463l5.1-5.1a.271.271,0,1,1,.384.384l-5.1,5.1a.27.27,0,0,1-.192.08" transform="translate(-239.492 -300.28)"/>
    <path id="패스_13131" data-name="패스 13131" class="cls-9" d="M300.767,349.443a.271.271,0,0,1-.192-.463l2.513-2.513a.271.271,0,0,1,.384.384l-2.513,2.513a.271.271,0,0,1-.192.08" transform="translate(-273.312 -315.051)"/>
    <path id="패스_13132" data-name="패스 13132" class="cls-10" d="M82.84,105.947H64.974a.724.724,0,1,1,0-1.447H82.84a.724.724,0,0,1,0,1.447" transform="translate(-58.438 -95.046)"/>
    <path id="패스_13133" data-name="패스 13133" class="cls-10" d="M82.84,180.77H64.974a.724.724,0,1,1,0-1.447H82.84a.724.724,0,0,1,0,1.447" transform="translate(-58.438 -163.101)"/>
    <path id="패스_13134" data-name="패스 13134" class="cls-10" d="M82.84,255.592H64.974a.724.724,0,1,1,0-1.447H82.84a.724.724,0,0,1,0,1.447" transform="translate(-58.438 -231.154)"/>
    <path id="패스_13135" data-name="패스 13135" class="cls-10" d="M78.172,330.415h-13.2a.724.724,0,1,1,0-1.447h13.2a.724.724,0,1,1,0,1.447" transform="translate(-58.438 -299.208)"/>
  </g>
</svg>
