<svg width="140" height="49" viewBox="0 0 140 49" fill="none" xmlns="http://www.w3.org/2000/svg">
<g filter="url(#filter0_d_674_2429)">
<rect width="140" height="44" rx="22" fill="#21C4CC"/>
</g>
<path d="M56.6619 28C55.9739 28 55.4299 27.456 55.4299 26.768V18.032C55.4299 17.344 55.9739 16.8 56.6619 16.8H62.8699C63.4779 16.8 63.9739 17.296 63.9739 17.904C63.9739 18.512 63.4779 18.992 62.8699 18.992H57.8779V21.264H62.1499C62.7579 21.264 63.2539 21.76 63.2539 22.368C63.2539 22.976 62.7579 23.456 62.1499 23.456H57.8779V25.808H62.9499C63.5579 25.808 64.0539 26.304 64.0539 26.912C64.0539 27.52 63.5579 28 62.9499 28H56.6619ZM74.3604 17.44V26.88C74.3604 27.552 73.8164 28.096 73.1444 28.096C72.4724 28.096 71.9284 27.552 71.9284 26.88V26.768C71.3364 27.568 70.5204 28.16 69.2564 28.16C67.2564 28.16 65.3524 26.592 65.3524 23.728V23.696C65.3524 20.832 67.2244 19.264 69.2564 19.264C70.5524 19.264 71.3524 19.856 71.9284 20.544V17.44C71.9284 16.768 72.4724 16.224 73.1444 16.224C73.8164 16.224 74.3604 16.768 74.3604 17.44ZM69.8804 21.328C68.7444 21.328 67.7844 22.256 67.7844 23.696V23.728C67.7844 25.152 68.7444 26.096 69.8804 26.096C71.0164 26.096 71.9604 25.152 71.9604 23.728V23.696C71.9604 22.272 71.0164 21.328 69.8804 21.328ZM76.5013 17.408V17.376C76.5013 16.672 77.0933 16.24 77.8613 16.24C78.6293 16.24 79.2213 16.672 79.2213 17.376V17.408C79.2213 18.112 78.6293 18.56 77.8613 18.56C77.0933 18.56 76.5013 18.112 76.5013 17.408ZM76.6453 26.88V20.544C76.6453 19.872 77.1893 19.328 77.8613 19.328C78.5333 19.328 79.0773 19.872 79.0773 20.544V26.88C79.0773 27.552 78.5333 28.096 77.8613 28.096C77.1893 28.096 76.6453 27.552 76.6453 26.88ZM84.2574 28.144C82.7694 28.144 81.7614 27.552 81.7614 25.568V21.504H81.6814C81.1054 21.504 80.6414 21.04 80.6414 20.464C80.6414 19.888 81.1054 19.424 81.6814 19.424H81.7614V18.352C81.7614 17.68 82.3054 17.136 82.9774 17.136C83.6494 17.136 84.1934 17.68 84.1934 18.352V19.424H85.2654C85.8414 19.424 86.3054 19.888 86.3054 20.464C86.3054 21.04 85.8414 21.504 85.2654 21.504H84.1934V25.168C84.1934 25.728 84.4334 26 84.9774 26C85.0574 26 85.2174 25.984 85.2654 25.984C85.8094 25.984 86.2734 26.432 86.2734 26.992C86.2734 27.424 85.9854 27.776 85.6494 27.904C85.2014 28.08 84.7854 28.144 84.2574 28.144Z" fill="white"/>
<defs>
<filter id="filter0_d_674_2429" x="0" y="0" width="140" height="49" filterUnits="userSpaceOnUse" color-interpolation-filters="sRGB">
<feFlood flood-opacity="0" result="BackgroundImageFix"/>
<feColorMatrix in="SourceAlpha" type="matrix" values="0 0 0 0 0 0 0 0 0 0 0 0 0 0 0 0 0 0 127 0" result="hardAlpha"/>
<feOffset dy="5"/>
<feComposite in2="hardAlpha" operator="out"/>
<feColorMatrix type="matrix" values="0 0 0 0 0.101961 0 0 0 0 0.623529 0 0 0 0 0.65098 0 0 0 1 0"/>
<feBlend mode="normal" in2="BackgroundImageFix" result="effect1_dropShadow_674_2429"/>
<feBlend mode="normal" in="SourceGraphic" in2="effect1_dropShadow_674_2429" result="shape"/>
</filter>
</defs>
</svg>
