<svg width="250" height="73" viewBox="0 0 250 73" fill="none" xmlns="http://www.w3.org/2000/svg">
<g filter="url(#filter0_d_671_1459)">
<path d="M0 15C0 6.71573 6.71573 0 15 0H235C243.284 0 250 6.71573 250 15V53C250 61.2843 243.284 68 235 68H15C6.71573 68 0 61.2843 0 53V15Z" fill="white"/>
<path d="M0.5 15C0.5 6.99187 6.99187 0.5 15 0.5H235C243.008 0.5 249.5 6.99187 249.5 15V53C249.5 61.0081 243.008 67.5 235 67.5H15C6.99187 67.5 0.5 61.0081 0.5 53V15Z" stroke="#A9BDE9"/>
</g>
<rect x="10" y="10" width="230" height="48" rx="10" fill="#3E61AA"/>
<path d="M218 42L225.293 34.7071C225.683 34.3166 225.683 33.6834 225.293 33.2929L218 26" stroke="white" stroke-width="4" stroke-linecap="round"/>
<path d="M26.68 39.58V28.54C26.68 27.68 27.36 27 28.22 27H36.06C36.84 27 37.46 27.62 37.46 28.4C37.46 29.18 36.84 29.8 36.06 29.8H29.76V32.78H35.16C35.94 32.78 36.56 33.4 36.56 34.18C36.56 34.96 35.94 35.58 35.16 35.58H29.76V39.58C29.76 40.44 29.08 41.12 28.22 41.12C27.36 41.12 26.68 40.44 26.68 39.58ZM39.485 39.6V31.68C39.485 30.84 40.165 30.16 41.005 30.16C41.845 30.16 42.525 30.84 42.525 31.68V32.16C42.965 31.12 43.685 30.16 44.585 30.16C45.525 30.16 46.065 30.78 46.065 31.64C46.065 32.44 45.545 32.92 44.925 33.06C43.385 33.42 42.525 34.6 42.525 36.76V39.6C42.525 40.44 41.845 41.12 41.005 41.12C40.165 41.12 39.485 40.44 39.485 39.6ZM50.0114 34.8H54.5914C54.4114 33.44 53.6114 32.52 52.3314 32.52C51.0714 32.52 50.2514 33.42 50.0114 34.8ZM56.3514 39.94C55.4114 40.74 54.1914 41.24 52.6314 41.24C49.4114 41.24 47.0314 38.98 47.0314 35.7V35.66C47.0314 32.6 49.2114 30.08 52.3314 30.08C55.9114 30.08 57.4914 33.02 57.4914 35.24C57.4914 36.12 56.8714 36.7 56.0714 36.7H50.0514C50.3514 38.08 51.3114 38.8 52.6714 38.8C53.5114 38.8 54.2114 38.54 54.8314 38.08C55.0514 37.92 55.2514 37.84 55.5714 37.84C56.2514 37.84 56.7514 38.36 56.7514 39.04C56.7514 39.44 56.5714 39.74 56.3514 39.94ZM63.577 41.2C62.257 41.2 60.837 40.82 59.537 39.98C59.217 39.78 58.957 39.42 58.957 38.94C58.957 38.26 59.477 37.74 60.157 37.74C60.377 37.74 60.597 37.8 60.757 37.9C61.777 38.54 62.797 38.86 63.657 38.86C64.537 38.86 64.937 38.54 64.937 38.06V38.02C64.937 37.36 63.897 37.14 62.717 36.78C61.217 36.34 59.517 35.64 59.517 33.56V33.52C59.517 31.34 61.277 30.12 63.437 30.12C64.557 30.12 65.717 30.42 66.757 30.94C67.197 31.16 67.477 31.56 67.477 32.08C67.477 32.76 66.937 33.28 66.257 33.28C66.037 33.28 65.897 33.24 65.697 33.14C64.837 32.72 64.017 32.46 63.377 32.46C62.637 32.46 62.257 32.78 62.257 33.2V33.24C62.257 33.84 63.277 34.12 64.437 34.52C65.937 35.02 67.677 35.74 67.677 37.7V37.74C67.677 40.12 65.897 41.2 63.577 41.2ZM69.8561 39.6V27.8C69.8561 26.96 70.5361 26.28 71.3761 26.28C72.2161 26.28 72.8961 26.96 72.8961 27.8V31.8C73.5961 30.9 74.4961 30.08 76.0361 30.08C78.3361 30.08 79.6761 31.6 79.6761 34.06V39.6C79.6761 40.44 78.9961 41.12 78.1561 41.12C77.3161 41.12 76.6361 40.44 76.6361 39.6V35.02C76.6361 33.58 75.9561 32.84 74.7961 32.84C73.6361 32.84 72.8961 33.58 72.8961 35.02V39.6C72.8961 40.44 72.2161 41.12 71.3761 41.12C70.5361 41.12 69.8561 40.44 69.8561 39.6ZM88.6331 39.58V28.54C88.6331 27.68 89.3131 27 90.1731 27H94.3531C97.6931 27 99.7131 28.98 99.7131 31.84V31.88C99.7131 35.12 97.1931 36.8 94.0531 36.8H91.7131V39.58C91.7131 40.44 91.0331 41.12 90.1731 41.12C89.3131 41.12 88.6331 40.44 88.6331 39.58ZM91.7131 34.06H94.1531C95.6931 34.06 96.5931 33.14 96.5931 31.94V31.9C96.5931 30.52 95.6331 29.78 94.0931 29.78H91.7131V34.06ZM104.517 41.2C102.497 41.2 100.837 40.04 100.837 37.92V37.88C100.837 35.54 102.617 34.46 105.157 34.46C106.237 34.46 107.017 34.64 107.777 34.9V34.72C107.777 33.46 106.997 32.76 105.477 32.76C104.637 32.76 103.957 32.88 103.377 33.06C103.197 33.12 103.077 33.14 102.937 33.14C102.237 33.14 101.677 32.6 101.677 31.9C101.677 31.36 102.017 30.9 102.497 30.72C103.457 30.36 104.497 30.16 105.917 30.16C107.577 30.16 108.777 30.6 109.537 31.36C110.337 32.16 110.697 33.34 110.697 34.78V39.66C110.697 40.48 110.037 41.12 109.217 41.12C108.337 41.12 107.757 40.5 107.757 39.86V39.84C107.017 40.66 105.997 41.2 104.517 41.2ZM105.437 39.1C106.857 39.1 107.817 38.32 107.817 37.22V36.68C107.297 36.44 106.617 36.28 105.877 36.28C104.577 36.28 103.777 36.8 103.777 37.76V37.8C103.777 38.62 104.457 39.1 105.437 39.1ZM118.113 44.24C116.693 44.24 115.453 44 114.193 43.5C113.673 43.3 113.333 42.88 113.333 42.32C113.333 41.64 113.893 41.08 114.573 41.08C114.773 41.08 114.933 41.12 115.073 41.18C115.953 41.58 116.893 41.82 118.033 41.82C120.113 41.82 121.093 40.82 121.093 38.9V38.38C120.193 39.46 119.213 40.12 117.593 40.12C115.093 40.12 112.833 38.3 112.833 35.12V35.08C112.833 31.88 115.133 30.08 117.593 30.08C119.253 30.08 120.233 30.78 121.053 31.68V31.66C121.053 30.84 121.733 30.16 122.573 30.16C123.413 30.16 124.093 30.84 124.093 31.68V38.58C124.093 40.5 123.633 41.9 122.733 42.8C121.733 43.8 120.193 44.24 118.113 44.24ZM118.473 37.6C119.953 37.6 121.093 36.58 121.093 35.12V35.08C121.093 33.62 119.953 32.6 118.473 32.6C116.993 32.6 115.873 33.62 115.873 35.08V35.12C115.873 36.6 116.993 37.6 118.473 37.6ZM129.269 34.8H133.849C133.669 33.44 132.869 32.52 131.589 32.52C130.329 32.52 129.509 33.42 129.269 34.8ZM135.609 39.94C134.669 40.74 133.449 41.24 131.889 41.24C128.669 41.24 126.289 38.98 126.289 35.7V35.66C126.289 32.6 128.469 30.08 131.589 30.08C135.169 30.08 136.749 33.02 136.749 35.24C136.749 36.12 136.129 36.7 135.329 36.7H129.309C129.609 38.08 130.569 38.8 131.929 38.8C132.769 38.8 133.469 38.54 134.089 38.08C134.309 37.92 134.509 37.84 134.829 37.84C135.509 37.84 136.009 38.36 136.009 39.04C136.009 39.44 135.829 39.74 135.609 39.94Z" fill="white"/>
<defs>
<filter id="filter0_d_671_1459" x="0" y="0" width="250" height="73" filterUnits="userSpaceOnUse" color-interpolation-filters="sRGB">
<feFlood flood-opacity="0" result="BackgroundImageFix"/>
<feColorMatrix in="SourceAlpha" type="matrix" values="0 0 0 0 0 0 0 0 0 0 0 0 0 0 0 0 0 0 127 0" result="hardAlpha"/>
<feOffset dy="5"/>
<feComposite in2="hardAlpha" operator="out"/>
<feColorMatrix type="matrix" values="0 0 0 0 0.890451 0 0 0 0 0.90013 0 0 0 0 0.929167 0 0 0 1 0"/>
<feBlend mode="normal" in2="BackgroundImageFix" result="effect1_dropShadow_671_1459"/>
<feBlend mode="normal" in="SourceGraphic" in2="effect1_dropShadow_671_1459" result="shape"/>
</filter>
</defs>
</svg>
