<svg width="140" height="49" viewBox="0 0 140 49" fill="none" xmlns="http://www.w3.org/2000/svg">
<g filter="url(#filter0_d_674_2426)">
<rect width="140" height="44" rx="22" fill="#AAAAAA"/>
</g>
<path d="M39.8284 26.864V18.032C39.8284 17.344 40.3724 16.8 41.0604 16.8H44.4044C47.0764 16.8 48.6924 18.384 48.6924 20.672V20.704C48.6924 23.296 46.6764 24.64 44.1644 24.64H42.2924V26.864C42.2924 27.552 41.7484 28.096 41.0604 28.096C40.3724 28.096 39.8284 27.552 39.8284 26.864ZM42.2924 22.448H44.2444C45.4764 22.448 46.1964 21.712 46.1964 20.752V20.72C46.1964 19.616 45.4284 19.024 44.1964 19.024H42.2924V22.448ZM50.2599 26.88V20.544C50.2599 19.872 50.8039 19.328 51.4759 19.328C52.1479 19.328 52.6919 19.872 52.6919 20.544V20.928C53.0439 20.096 53.6199 19.328 54.3399 19.328C55.0919 19.328 55.5239 19.824 55.5239 20.512C55.5239 21.152 55.1079 21.536 54.6119 21.648C53.3799 21.936 52.6919 22.88 52.6919 24.608V26.88C52.6919 27.552 52.1479 28.096 51.4759 28.096C50.8039 28.096 50.2599 27.552 50.2599 26.88ZM58.681 23.04H62.345C62.201 21.952 61.561 21.216 60.537 21.216C59.529 21.216 58.873 21.936 58.681 23.04ZM63.753 27.152C63.001 27.792 62.025 28.192 60.777 28.192C58.201 28.192 56.297 26.384 56.297 23.76V23.728C56.297 21.28 58.041 19.264 60.537 19.264C63.401 19.264 64.665 21.616 64.665 23.392C64.665 24.096 64.169 24.56 63.529 24.56H58.713C58.953 25.664 59.721 26.24 60.809 26.24C61.481 26.24 62.041 26.032 62.537 25.664C62.713 25.536 62.873 25.472 63.129 25.472C63.673 25.472 64.073 25.888 64.073 26.432C64.073 26.752 63.929 26.992 63.753 27.152ZM71.269 27.12C70.997 27.744 70.549 28.176 69.893 28.176H69.765C69.109 28.176 68.661 27.76 68.389 27.12L65.765 21.056C65.701 20.896 65.637 20.688 65.637 20.464C65.637 19.888 66.165 19.328 66.821 19.328C67.477 19.328 67.829 19.696 68.005 20.192L69.845 25.168L71.717 20.16C71.877 19.744 72.213 19.328 72.853 19.328C73.493 19.328 74.021 19.824 74.021 20.48C74.021 20.688 73.941 20.944 73.893 21.056L71.269 27.12ZM75.5872 17.408V17.376C75.5872 16.672 76.1793 16.24 76.9473 16.24C77.7153 16.24 78.3073 16.672 78.3073 17.376V17.408C78.3073 18.112 77.7153 18.56 76.9473 18.56C76.1793 18.56 75.5872 18.112 75.5872 17.408ZM75.7313 26.88V20.544C75.7313 19.872 76.2753 19.328 76.9473 19.328C77.6193 19.328 78.1633 19.872 78.1633 20.544V26.88C78.1633 27.552 77.6193 28.096 76.9473 28.096C76.2753 28.096 75.7313 27.552 75.7313 26.88ZM82.4154 23.04H86.0794C85.9354 21.952 85.2954 21.216 84.2714 21.216C83.2634 21.216 82.6074 21.936 82.4154 23.04ZM87.4874 27.152C86.7354 27.792 85.7594 28.192 84.5114 28.192C81.9354 28.192 80.0314 26.384 80.0314 23.76V23.728C80.0314 21.28 81.7754 19.264 84.2714 19.264C87.1354 19.264 88.3994 21.616 88.3994 23.392C88.3994 24.096 87.9034 24.56 87.2634 24.56H82.4474C82.6874 25.664 83.4554 26.24 84.5434 26.24C85.2154 26.24 85.7754 26.032 86.2714 25.664C86.4474 25.536 86.6074 25.472 86.8634 25.472C87.4074 25.472 87.8074 25.888 87.8074 26.432C87.8074 26.752 87.6634 26.992 87.4874 27.152ZM92.9535 28.16C92.3615 28.16 91.8655 27.824 91.6095 27.072L89.5135 21.024C89.4655 20.88 89.4015 20.64 89.4015 20.432C89.4015 19.872 89.8495 19.328 90.5695 19.328C91.1775 19.328 91.5775 19.712 91.7535 20.272L93.0655 24.624L94.4095 20.288C94.5855 19.712 95.0335 19.312 95.6575 19.312H95.8015C96.4255 19.312 96.8735 19.712 97.0495 20.288L98.4095 24.64L99.7535 20.256C99.9135 19.744 100.282 19.328 100.922 19.328C101.594 19.328 102.058 19.84 102.058 20.448C102.058 20.608 102.01 20.832 101.978 20.944L99.8175 27.072C99.5615 27.824 99.0655 28.16 98.4735 28.16H98.3935C97.8015 28.16 97.3055 27.824 97.0815 27.12L95.7215 22.8L94.3455 27.12C94.1215 27.824 93.6255 28.16 93.0335 28.16H92.9535Z" fill="white"/>
<defs>
<filter id="filter0_d_674_2426" x="0" y="0" width="140" height="49" filterUnits="userSpaceOnUse" color-interpolation-filters="sRGB">
<feFlood flood-opacity="0" result="BackgroundImageFix"/>
<feColorMatrix in="SourceAlpha" type="matrix" values="0 0 0 0 0 0 0 0 0 0 0 0 0 0 0 0 0 0 127 0" result="hardAlpha"/>
<feOffset dy="5"/>
<feComposite in2="hardAlpha" operator="out"/>
<feColorMatrix type="matrix" values="0 0 0 0 0.533333 0 0 0 0 0.533333 0 0 0 0 0.533333 0 0 0 1 0"/>
<feBlend mode="normal" in2="BackgroundImageFix" result="effect1_dropShadow_674_2426"/>
<feBlend mode="normal" in="SourceGraphic" in2="effect1_dropShadow_674_2426" result="shape"/>
</filter>
</defs>
</svg>
