<svg width="250" height="73" viewBox="0 0 250 73" fill="none" xmlns="http://www.w3.org/2000/svg">
<g filter="url(#filter0_d_671_1452)">
<path d="M0 15C0 6.71573 6.71573 0 15 0H235C243.284 0 250 6.71573 250 15V53C250 61.2843 243.284 68 235 68H15C6.71573 68 0 61.2843 0 53V15Z" fill="white"/>
<path d="M0.5 15C0.5 6.99187 6.99187 0.5 15 0.5H235C243.008 0.5 249.5 6.99187 249.5 15V53C249.5 61.0081 243.008 67.5 235 67.5H15C6.99187 67.5 0.5 61.0081 0.5 53V15Z" stroke="#A9BDE9"/>
</g>
<rect x="10" y="10" width="230" height="48" rx="10" fill="#3E61AA"/>
<path d="M218 42L225.293 34.7071C225.683 34.3166 225.683 33.6834 225.293 33.2929L218 26" stroke="white" stroke-width="4" stroke-linecap="round"/>
<path d="M26.68 39.58V28.54C26.68 27.68 27.36 27 28.22 27H33.08C34.86 27 36.24 27.5 37.16 28.42C37.94 29.2 38.36 30.3 38.36 31.62V31.66C38.36 33.86 37.26 35.22 35.56 35.92L37.7 38.52C38 38.9 38.2 39.22 38.2 39.7C38.2 40.56 37.48 41.12 36.74 41.12C36.04 41.12 35.58 40.78 35.22 40.32L32.22 36.52H29.76V39.58C29.76 40.44 29.08 41.12 28.22 41.12C27.36 41.12 26.68 40.44 26.68 39.58ZM29.76 33.8H32.88C34.38 33.8 35.24 33 35.24 31.82V31.78C35.24 30.46 34.32 29.78 32.82 29.78H29.76V33.8ZM43.0778 34.8H47.6578C47.4778 33.44 46.6778 32.52 45.3978 32.52C44.1378 32.52 43.3178 33.42 43.0778 34.8ZM49.4178 39.94C48.4778 40.74 47.2578 41.24 45.6978 41.24C42.4778 41.24 40.0978 38.98 40.0978 35.7V35.66C40.0978 32.6 42.2778 30.08 45.3978 30.08C48.9778 30.08 50.5578 33.02 50.5578 35.24C50.5578 36.12 49.9378 36.7 49.1378 36.7H43.1178C43.4178 38.08 44.3778 38.8 45.7378 38.8C46.5778 38.8 47.2778 38.54 47.8978 38.08C48.1178 37.92 48.3178 37.84 48.6378 37.84C49.3178 37.84 49.8178 38.36 49.8178 39.04C49.8178 39.44 49.6378 39.74 49.4178 39.94ZM58.8128 39.9C58.4728 40.68 57.9128 41.22 57.0928 41.22H56.9328C56.1128 41.22 55.5528 40.7 55.2128 39.9L51.9328 32.32C51.8528 32.12 51.7728 31.86 51.7728 31.58C51.7728 30.86 52.4328 30.16 53.2528 30.16C54.0728 30.16 54.5128 30.62 54.7328 31.24L57.0328 37.46L59.3728 31.2C59.5728 30.68 59.9928 30.16 60.7928 30.16C61.5928 30.16 62.2528 30.78 62.2528 31.6C62.2528 31.86 62.1528 32.18 62.0928 32.32L58.8128 39.9ZM64.2106 27.76V27.72C64.2106 26.84 64.9506 26.3 65.9106 26.3C66.8706 26.3 67.6106 26.84 67.6106 27.72V27.76C67.6106 28.64 66.8706 29.2 65.9106 29.2C64.9506 29.2 64.2106 28.64 64.2106 27.76ZM64.3906 39.6V31.68C64.3906 30.84 65.0706 30.16 65.9106 30.16C66.7506 30.16 67.4306 30.84 67.4306 31.68V39.6C67.4306 40.44 66.7506 41.12 65.9106 41.12C65.0706 41.12 64.3906 40.44 64.3906 39.6ZM74.0458 41.2C72.7258 41.2 71.3058 40.82 70.0058 39.98C69.6858 39.78 69.4258 39.42 69.4258 38.94C69.4258 38.26 69.9458 37.74 70.6258 37.74C70.8458 37.74 71.0658 37.8 71.2258 37.9C72.2458 38.54 73.2658 38.86 74.1258 38.86C75.0058 38.86 75.4058 38.54 75.4058 38.06V38.02C75.4058 37.36 74.3658 37.14 73.1858 36.78C71.6858 36.34 69.9858 35.64 69.9858 33.56V33.52C69.9858 31.34 71.7458 30.12 73.9058 30.12C75.0258 30.12 76.1858 30.42 77.2258 30.94C77.6658 31.16 77.9458 31.56 77.9458 32.08C77.9458 32.76 77.4058 33.28 76.7258 33.28C76.5058 33.28 76.3658 33.24 76.1658 33.14C75.3058 32.72 74.4858 32.46 73.8458 32.46C73.1058 32.46 72.7258 32.78 72.7258 33.2V33.24C72.7258 33.84 73.7458 34.12 74.9058 34.52C76.4058 35.02 78.1458 35.74 78.1458 37.7V37.74C78.1458 40.12 76.3658 41.2 74.0458 41.2ZM82.7848 34.8H87.3648C87.1848 33.44 86.3848 32.52 85.1048 32.52C83.8448 32.52 83.0248 33.42 82.7848 34.8ZM89.1248 39.94C88.1848 40.74 86.9648 41.24 85.4048 41.24C82.1848 41.24 79.8048 38.98 79.8048 35.7V35.66C79.8048 32.6 81.9848 30.08 85.1048 30.08C88.6848 30.08 90.2648 33.02 90.2648 35.24C90.2648 36.12 89.6448 36.7 88.8448 36.7H82.8248C83.1248 38.08 84.0848 38.8 85.4448 38.8C86.2848 38.8 86.9848 38.54 87.6048 38.08C87.8248 37.92 88.0248 37.84 88.3448 37.84C89.0248 37.84 89.5248 38.36 89.5248 39.04C89.5248 39.44 89.3448 39.74 89.1248 39.94ZM100.787 39.6V29.92L99.7066 30.2C99.5466 30.24 99.3266 30.28 99.1666 30.28C98.4466 30.28 97.8266 29.68 97.8266 28.96C97.8266 28.34 98.2266 27.82 98.8466 27.64L100.827 27.06C101.407 26.9 101.847 26.8 102.267 26.8H102.307C103.147 26.8 103.827 27.48 103.827 28.32V39.6C103.827 40.44 103.147 41.12 102.307 41.12C101.467 41.12 100.787 40.44 100.787 39.6ZM110.784 41.2C109.464 41.2 108.044 40.82 106.744 39.98C106.424 39.78 106.164 39.42 106.164 38.94C106.164 38.26 106.684 37.74 107.364 37.74C107.584 37.74 107.804 37.8 107.964 37.9C108.984 38.54 110.004 38.86 110.864 38.86C111.744 38.86 112.144 38.54 112.144 38.06V38.02C112.144 37.36 111.104 37.14 109.924 36.78C108.424 36.34 106.724 35.64 106.724 33.56V33.52C106.724 31.34 108.484 30.12 110.644 30.12C111.764 30.12 112.924 30.42 113.964 30.94C114.404 31.16 114.684 31.56 114.684 32.08C114.684 32.76 114.144 33.28 113.464 33.28C113.244 33.28 113.104 33.24 112.904 33.14C112.044 32.72 111.224 32.46 110.584 32.46C109.844 32.46 109.464 32.78 109.464 33.2V33.24C109.464 33.84 110.484 34.12 111.644 34.52C113.144 35.02 114.884 35.74 114.884 37.7V37.74C114.884 40.12 113.104 41.2 110.784 41.2ZM120.488 41.18C118.628 41.18 117.368 40.44 117.368 37.96V32.88H117.268C116.548 32.88 115.968 32.3 115.968 31.58C115.968 30.86 116.548 30.28 117.268 30.28H117.368V28.94C117.368 28.1 118.048 27.42 118.888 27.42C119.728 27.42 120.408 28.1 120.408 28.94V30.28H121.748C122.468 30.28 123.048 30.86 123.048 31.58C123.048 32.3 122.468 32.88 121.748 32.88H120.408V37.46C120.408 38.16 120.708 38.5 121.388 38.5C121.488 38.5 121.688 38.48 121.748 38.48C122.428 38.48 123.008 39.04 123.008 39.74C123.008 40.28 122.648 40.72 122.228 40.88C121.668 41.1 121.148 41.18 120.488 41.18ZM131.485 39.46V28.54C131.485 27.68 132.165 27 133.025 27H136.945C141.345 27 144.385 30.02 144.385 33.96V34C144.385 37.94 141.345 41 136.945 41H133.025C132.165 41 131.485 40.32 131.485 39.46ZM134.565 38.22H136.945C139.465 38.22 141.165 36.52 141.165 34.04V34C141.165 31.52 139.465 29.78 136.945 29.78H134.565V38.22ZM146.809 39.6V31.68C146.809 30.84 147.489 30.16 148.329 30.16C149.169 30.16 149.849 30.84 149.849 31.68V32.16C150.289 31.12 151.009 30.16 151.909 30.16C152.849 30.16 153.389 30.78 153.389 31.64C153.389 32.44 152.869 32.92 152.249 33.06C150.709 33.42 149.849 34.6 149.849 36.76V39.6C149.849 40.44 149.169 41.12 148.329 41.12C147.489 41.12 146.809 40.44 146.809 39.6ZM157.701 41.2C155.681 41.2 154.021 40.04 154.021 37.92V37.88C154.021 35.54 155.801 34.46 158.341 34.46C159.421 34.46 160.201 34.64 160.961 34.9V34.72C160.961 33.46 160.181 32.76 158.661 32.76C157.821 32.76 157.141 32.88 156.561 33.06C156.381 33.12 156.261 33.14 156.121 33.14C155.421 33.14 154.861 32.6 154.861 31.9C154.861 31.36 155.201 30.9 155.681 30.72C156.641 30.36 157.681 30.16 159.101 30.16C160.761 30.16 161.961 30.6 162.721 31.36C163.521 32.16 163.881 33.34 163.881 34.78V39.66C163.881 40.48 163.221 41.12 162.401 41.12C161.521 41.12 160.941 40.5 160.941 39.86V39.84C160.201 40.66 159.181 41.2 157.701 41.2ZM158.621 39.1C160.041 39.1 161.001 38.32 161.001 37.22V36.68C160.481 36.44 159.801 36.28 159.061 36.28C157.761 36.28 156.961 36.8 156.961 37.76V37.8C156.961 38.62 157.641 39.1 158.621 39.1ZM167.017 39.6V32.88H166.897C166.197 32.88 165.637 32.34 165.637 31.64C165.637 30.94 166.197 30.38 166.897 30.38H167.017V29.7C167.017 28.52 167.317 27.66 167.877 27.1C168.437 26.54 169.257 26.26 170.337 26.26C170.817 26.26 171.237 26.28 171.577 26.34C172.097 26.42 172.617 26.88 172.617 27.56C172.617 28.24 172.057 28.82 171.377 28.82H171.117C170.417 28.82 170.017 29.18 170.017 29.98V30.4H171.337C172.037 30.4 172.597 30.94 172.597 31.64C172.597 32.34 172.037 32.88 171.337 32.88H170.057V39.6C170.057 40.44 169.377 41.12 168.537 41.12C167.697 41.12 167.017 40.44 167.017 39.6ZM177.753 41.18C175.893 41.18 174.633 40.44 174.633 37.96V32.88H174.533C173.813 32.88 173.233 32.3 173.233 31.58C173.233 30.86 173.813 30.28 174.533 30.28H174.633V28.94C174.633 28.1 175.313 27.42 176.153 27.42C176.993 27.42 177.673 28.1 177.673 28.94V30.28H179.013C179.733 30.28 180.313 30.86 180.313 31.58C180.313 32.3 179.733 32.88 179.013 32.88H177.673V37.46C177.673 38.16 177.973 38.5 178.653 38.5C178.753 38.5 178.953 38.48 179.013 38.48C179.693 38.48 180.273 39.04 180.273 39.74C180.273 40.28 179.913 40.72 179.493 40.88C178.933 41.1 178.413 41.18 177.753 41.18Z" fill="white"/>
<defs>
<filter id="filter0_d_671_1452" x="0" y="0" width="250" height="73" filterUnits="userSpaceOnUse" color-interpolation-filters="sRGB">
<feFlood flood-opacity="0" result="BackgroundImageFix"/>
<feColorMatrix in="SourceAlpha" type="matrix" values="0 0 0 0 0 0 0 0 0 0 0 0 0 0 0 0 0 0 127 0" result="hardAlpha"/>
<feOffset dy="5"/>
<feComposite in2="hardAlpha" operator="out"/>
<feColorMatrix type="matrix" values="0 0 0 0 0.890451 0 0 0 0 0.90013 0 0 0 0 0.929167 0 0 0 1 0"/>
<feBlend mode="normal" in2="BackgroundImageFix" result="effect1_dropShadow_671_1452"/>
<feBlend mode="normal" in="SourceGraphic" in2="effect1_dropShadow_671_1452" result="shape"/>
</filter>
</defs>
</svg>
