<svg width="48" height="51" viewBox="0 0 48 51" fill="none" xmlns="http://www.w3.org/2000/svg">
<g filter="url(#filter0_d_642_1140)">
<rect width="48" height="48" rx="10" fill="#7861BB"/>
<rect x="1" y="1" width="46" height="46" rx="9" stroke="#614AA4" stroke-width="2"/>
</g>
<circle cx="22.5" cy="22.5" r="11.5" fill="white"/>
<path fill-rule="evenodd" clip-rule="evenodd" d="M22.4551 12.9297C19.929 12.9297 17.5064 13.9332 15.7202 15.7194C13.9341 17.5057 12.9306 19.9283 12.9306 22.4545C12.9306 24.9806 13.9341 27.4033 15.7202 29.1895C17.5064 30.9758 19.929 31.9793 22.4551 31.9793C24.9811 31.9793 27.4037 30.9758 29.1899 29.1895C30.976 27.4033 31.9795 24.9806 31.9795 22.4545C31.9795 19.9283 30.976 17.5057 29.1899 15.7194C27.4037 13.9332 24.9811 12.9297 22.4551 12.9297ZM10 22.4545C10.0002 20.4683 10.4753 18.511 11.3857 16.7458C12.2962 14.9806 13.6155 13.4588 15.2337 12.3072C16.8519 11.1557 18.722 10.4078 20.688 10.126C22.654 9.84421 24.6588 10.0367 26.5353 10.6873C28.4118 11.338 30.1055 12.428 31.475 13.8664C32.8446 15.3047 33.8504 17.0498 34.4084 18.9559C34.9664 20.8621 35.0605 22.8741 34.6829 24.824C34.3052 26.7739 33.4667 28.6052 32.2374 30.1652L37.5887 35.5166C37.8556 35.793 38.0033 36.1632 37.9999 36.5474C37.9966 36.9316 37.8425 37.2991 37.5708 37.5708C37.2991 37.8425 36.9316 37.9966 36.5474 37.9999C36.1632 38.0033 35.7931 37.8556 35.5167 37.5887L30.1655 32.2372C28.3289 33.6849 26.1218 34.5864 23.7969 34.8383C21.4719 35.0903 19.123 34.6826 17.0189 33.6618C14.9149 32.6411 13.1407 31.0486 11.8994 29.0666C10.6581 27.0846 9.99984 24.7931 10 22.4545ZM20.9898 17.3257C20.9898 16.9371 21.1441 16.5644 21.4189 16.2896C21.6937 16.0147 22.0664 15.8604 22.4551 15.8604C24.2039 15.8604 25.881 16.5551 27.1176 17.7917C28.3542 19.0284 29.0489 20.7056 29.0489 22.4545C29.0489 22.8431 28.8945 23.2158 28.6197 23.4906C28.3449 23.7654 27.9722 23.9198 27.5836 23.9198C27.195 23.9198 26.8223 23.7654 26.5475 23.4906C26.2727 23.2158 26.1183 22.8431 26.1183 22.4545C26.1183 21.4829 25.7324 20.5511 25.0454 19.8641C24.3584 19.177 23.4266 18.7911 22.4551 18.7911C22.0664 18.7911 21.6937 18.6367 21.4189 18.3619C21.1441 18.0871 20.9898 17.7144 20.9898 17.3257Z" fill="#21C39A"/>
<defs>
<filter id="filter0_d_642_1140" x="0" y="0" width="48" height="51" filterUnits="userSpaceOnUse" color-interpolation-filters="sRGB">
<feFlood flood-opacity="0" result="BackgroundImageFix"/>
<feColorMatrix in="SourceAlpha" type="matrix" values="0 0 0 0 0 0 0 0 0 0 0 0 0 0 0 0 0 0 127 0" result="hardAlpha"/>
<feOffset dy="3"/>
<feComposite in2="hardAlpha" operator="out"/>
<feColorMatrix type="matrix" values="0 0 0 0 0 0 0 0 0 0 0 0 0 0 0 0 0 0 0.25 0"/>
<feBlend mode="normal" in2="BackgroundImageFix" result="effect1_dropShadow_642_1140"/>
<feBlend mode="normal" in="SourceGraphic" in2="effect1_dropShadow_642_1140" result="shape"/>
</filter>
</defs>
</svg>
