<svg width="140" height="49" viewBox="0 0 140 49" fill="none" xmlns="http://www.w3.org/2000/svg">
<g filter="url(#filter0_d_674_2417)">
<rect width="140" height="44" rx="22" fill="#AAAAAA"/>
</g>
<path d="M56.6249 28.16C55.1529 28.16 53.6649 27.712 52.4169 26.816C52.1449 26.624 51.9529 26.272 51.9529 25.888C51.9529 25.248 52.4649 24.752 53.1049 24.752C53.4249 24.752 53.6489 24.864 53.8089 24.976C54.6569 25.6 55.5849 25.984 56.6729 25.984C57.6809 25.984 58.2889 25.584 58.2889 24.928V24.896C58.2889 24.272 57.9049 23.952 56.0329 23.472C53.7769 22.896 52.3209 22.272 52.3209 20.048V20.016C52.3209 17.984 53.9529 16.64 56.2409 16.64C57.6009 16.64 58.7849 16.992 59.7929 17.632C60.0649 17.792 60.3369 18.128 60.3369 18.608C60.3369 19.248 59.8249 19.744 59.1849 19.744C58.9449 19.744 58.7529 19.68 58.5609 19.568C57.7449 19.088 56.9769 18.816 56.2089 18.816C55.2649 18.816 54.7689 19.248 54.7689 19.792V19.824C54.7689 20.56 55.2489 20.8 57.1849 21.296C59.4569 21.888 60.7369 22.704 60.7369 24.656V24.688C60.7369 26.912 59.0409 28.16 56.6249 28.16ZM65.0513 28.16C63.4353 28.16 62.1073 27.232 62.1073 25.536V25.504C62.1073 23.632 63.5312 22.768 65.5633 22.768C66.4273 22.768 67.0513 22.912 67.6593 23.12V22.976C67.6593 21.968 67.0353 21.408 65.8193 21.408C65.1473 21.408 64.6033 21.504 64.1393 21.648C63.9953 21.696 63.8993 21.712 63.7873 21.712C63.2273 21.712 62.7793 21.28 62.7793 20.72C62.7793 20.288 63.0513 19.92 63.4353 19.776C64.2033 19.488 65.0353 19.328 66.1713 19.328C67.4993 19.328 68.4593 19.68 69.0673 20.288C69.7073 20.928 69.9953 21.872 69.9953 23.024V26.928C69.9953 27.584 69.4673 28.096 68.8113 28.096C68.1073 28.096 67.6433 27.6 67.6433 27.088V27.072C67.0513 27.728 66.2352 28.16 65.0513 28.16ZM65.7873 26.48C66.9233 26.48 67.6913 25.856 67.6913 24.976V24.544C67.2753 24.352 66.7313 24.224 66.1393 24.224C65.0993 24.224 64.4593 24.64 64.4593 25.408V25.44C64.4593 26.096 65.0033 26.48 65.7873 26.48ZM76.9096 27.12C76.6376 27.744 76.1896 28.176 75.5336 28.176H75.4056C74.7496 28.176 74.3016 27.76 74.0296 27.12L71.4056 21.056C71.3416 20.896 71.2776 20.688 71.2776 20.464C71.2776 19.888 71.8056 19.328 72.4616 19.328C73.1176 19.328 73.4696 19.696 73.6456 20.192L75.4856 25.168L77.3576 20.16C77.5176 19.744 77.8536 19.328 78.4936 19.328C79.1336 19.328 79.6616 19.824 79.6616 20.48C79.6616 20.688 79.5816 20.944 79.5336 21.056L76.9096 27.12ZM82.9466 23.04H86.6106C86.4666 21.952 85.8266 21.216 84.8026 21.216C83.7946 21.216 83.1386 21.936 82.9466 23.04ZM88.0186 27.152C87.2666 27.792 86.2906 28.192 85.0426 28.192C82.4666 28.192 80.5626 26.384 80.5626 23.76V23.728C80.5626 21.28 82.3066 19.264 84.8026 19.264C87.6666 19.264 88.9306 21.616 88.9306 23.392C88.9306 24.096 88.4346 24.56 87.7946 24.56H82.9786C83.2186 25.664 83.9866 26.24 85.0746 26.24C85.7466 26.24 86.3066 26.032 86.8026 25.664C86.9786 25.536 87.1386 25.472 87.3946 25.472C87.9386 25.472 88.3386 25.888 88.3386 26.432C88.3386 26.752 88.1946 26.992 88.0186 27.152Z" fill="white"/>
<defs>
<filter id="filter0_d_674_2417" x="0" y="0" width="140" height="49" filterUnits="userSpaceOnUse" color-interpolation-filters="sRGB">
<feFlood flood-opacity="0" result="BackgroundImageFix"/>
<feColorMatrix in="SourceAlpha" type="matrix" values="0 0 0 0 0 0 0 0 0 0 0 0 0 0 0 0 0 0 127 0" result="hardAlpha"/>
<feOffset dy="5"/>
<feComposite in2="hardAlpha" operator="out"/>
<feColorMatrix type="matrix" values="0 0 0 0 0.533333 0 0 0 0 0.533333 0 0 0 0 0.533333 0 0 0 1 0"/>
<feBlend mode="normal" in2="BackgroundImageFix" result="effect1_dropShadow_674_2417"/>
<feBlend mode="normal" in="SourceGraphic" in2="effect1_dropShadow_674_2417" result="shape"/>
</filter>
</defs>
</svg>
