<svg width="140" height="49" viewBox="0 0 140 49" fill="none" xmlns="http://www.w3.org/2000/svg">
<g filter="url(#filter0_d_674_2402)">
<rect width="140" height="44" rx="22" fill="#21C4CC"/>
</g>
<path d="M46.4921 28.16C45.0201 28.16 43.5321 27.712 42.2841 26.816C42.0121 26.624 41.8201 26.272 41.8201 25.888C41.8201 25.248 42.3321 24.752 42.9721 24.752C43.2921 24.752 43.5161 24.864 43.6761 24.976C44.5241 25.6 45.4521 25.984 46.5401 25.984C47.5481 25.984 48.1561 25.584 48.1561 24.928V24.896C48.1561 24.272 47.7721 23.952 45.9001 23.472C43.6441 22.896 42.1881 22.272 42.1881 20.048V20.016C42.1881 17.984 43.8201 16.64 46.1081 16.64C47.4681 16.64 48.6521 16.992 49.6601 17.632C49.9321 17.792 50.2041 18.128 50.2041 18.608C50.2041 19.248 49.6921 19.744 49.0521 19.744C48.8121 19.744 48.6201 19.68 48.4281 19.568C47.6121 19.088 46.8441 18.816 46.0761 18.816C45.1321 18.816 44.6361 19.248 44.6361 19.792V19.824C44.6361 20.56 45.1161 20.8 47.0521 21.296C49.3241 21.888 50.6041 22.704 50.6041 24.656V24.688C50.6041 26.912 48.9081 28.16 46.4921 28.16ZM60.2784 20.544V26.88C60.2784 27.552 59.7344 28.096 59.0624 28.096C58.3904 28.096 57.8464 27.552 57.8464 26.88V26.784C57.2864 27.504 56.5664 28.16 55.3344 28.16C53.4944 28.16 52.4224 26.944 52.4224 24.976V20.544C52.4224 19.872 52.9664 19.328 53.6384 19.328C54.3104 19.328 54.8544 19.872 54.8544 20.544V24.208C54.8544 25.36 55.3984 25.952 56.3264 25.952C57.2544 25.952 57.8464 25.36 57.8464 24.208V20.544C57.8464 19.872 58.3904 19.328 59.0624 19.328C59.7344 19.328 60.2784 19.872 60.2784 20.544ZM62.4552 26.88V17.44C62.4552 16.768 62.9992 16.224 63.6712 16.224C64.3432 16.224 64.8872 16.768 64.8872 17.44V20.656C65.4792 19.856 66.2952 19.264 67.5592 19.264C69.5592 19.264 71.4632 20.832 71.4632 23.696V23.728C71.4632 26.592 69.5912 28.16 67.5592 28.16C66.2632 28.16 65.4632 27.568 64.8872 26.88V26.896C64.8872 27.552 64.3432 28.096 63.6712 28.096C62.9992 28.096 62.4552 27.552 62.4552 26.88ZM66.9352 26.096C68.0712 26.096 69.0312 25.168 69.0312 23.728V23.696C69.0312 22.272 68.0712 21.328 66.9352 21.328C65.7992 21.328 64.8552 22.272 64.8552 23.696V23.728C64.8552 25.152 65.7992 26.096 66.9352 26.096ZM73.2521 26.88V20.544C73.2521 19.872 73.7961 19.328 74.4681 19.328C75.1401 19.328 75.6841 19.872 75.6841 20.544V20.64C76.2441 19.92 76.9801 19.264 78.2121 19.264C79.3321 19.264 80.1801 19.76 80.6281 20.624C81.3801 19.744 82.2761 19.264 83.4441 19.264C85.2521 19.264 86.3401 20.352 86.3401 22.416V26.88C86.3401 27.552 85.7961 28.096 85.1241 28.096C84.4521 28.096 83.9081 27.552 83.9081 26.88V23.216C83.9081 22.064 83.3961 21.472 82.4841 21.472C81.5721 21.472 81.0121 22.064 81.0121 23.216V26.88C81.0121 27.552 80.4681 28.096 79.7961 28.096C79.1241 28.096 78.5801 27.552 78.5801 26.88V23.216C78.5801 22.064 78.0681 21.472 77.1561 21.472C76.2441 21.472 75.6841 22.064 75.6841 23.216V26.88C75.6841 27.552 75.1401 28.096 74.4681 28.096C73.7961 28.096 73.2521 27.552 73.2521 26.88ZM88.4232 17.408V17.376C88.4232 16.672 89.0152 16.24 89.7832 16.24C90.5512 16.24 91.1432 16.672 91.1432 17.376V17.408C91.1432 18.112 90.5512 18.56 89.7832 18.56C89.0152 18.56 88.4232 18.112 88.4232 17.408ZM88.5672 26.88V20.544C88.5672 19.872 89.1112 19.328 89.7832 19.328C90.4552 19.328 90.9992 19.872 90.9992 20.544V26.88C90.9992 27.552 90.4552 28.096 89.7832 28.096C89.1112 28.096 88.5672 27.552 88.5672 26.88ZM96.1793 28.144C94.6913 28.144 93.6833 27.552 93.6833 25.568V21.504H93.6033C93.0273 21.504 92.5633 21.04 92.5633 20.464C92.5633 19.888 93.0273 19.424 93.6033 19.424H93.6833V18.352C93.6833 17.68 94.2273 17.136 94.8993 17.136C95.5713 17.136 96.1153 17.68 96.1153 18.352V19.424H97.1873C97.7633 19.424 98.2273 19.888 98.2273 20.464C98.2273 21.04 97.7633 21.504 97.1873 21.504H96.1153V25.168C96.1153 25.728 96.3553 26 96.8993 26C96.9793 26 97.1393 25.984 97.1873 25.984C97.7313 25.984 98.1953 26.432 98.1953 26.992C98.1953 27.424 97.9073 27.776 97.5713 27.904C97.1233 28.08 96.7073 28.144 96.1793 28.144Z" fill="white"/>
<defs>
<filter id="filter0_d_674_2402" x="0" y="0" width="140" height="49" filterUnits="userSpaceOnUse" color-interpolation-filters="sRGB">
<feFlood flood-opacity="0" result="BackgroundImageFix"/>
<feColorMatrix in="SourceAlpha" type="matrix" values="0 0 0 0 0 0 0 0 0 0 0 0 0 0 0 0 0 0 127 0" result="hardAlpha"/>
<feOffset dy="5"/>
<feComposite in2="hardAlpha" operator="out"/>
<feColorMatrix type="matrix" values="0 0 0 0 0.101961 0 0 0 0 0.623529 0 0 0 0 0.65098 0 0 0 1 0"/>
<feBlend mode="normal" in2="BackgroundImageFix" result="effect1_dropShadow_674_2402"/>
<feBlend mode="normal" in="SourceGraphic" in2="effect1_dropShadow_674_2402" result="shape"/>
</filter>
</defs>
</svg>
