<svg width="36" height="38" viewBox="0 0 36 38" fill="none" xmlns="http://www.w3.org/2000/svg">
<g id="bt_rubric">
<g id="Rectangle 52" filter="url(#filter0_d_674_2138)">
<rect width="36" height="36" rx="10" fill="#21C4CC"/>
</g>
<g id="Group 674">
<path id="?&#226;&#145;&#165;&#235;&#146;&#170; 302" d="M11.106 6C8.83814 6 7 7.83814 7 10.106V24.9452C7 27.213 8.83814 29.0511 11.106 29.0511H22.055C24.3228 29.0511 26.161 27.213 26.161 24.9452V13.3907C26.161 13.173 26.0744 12.9645 25.9202 12.8103L19.3507 6.24078C19.1965 6.08662 18.988 6 18.7703 6H11.106Z" fill="white"/>
<path id="?&#226;&#145;&#165;&#235;&#146;&#170; 304" d="M19.3508 6.24029C19.0298 5.91974 18.5101 5.92023 18.1895 6.24078C18.0358 6.39445 17.9497 6.60293 17.9492 6.82021V10.105C17.9492 12.3728 19.7874 14.2109 22.0552 14.2109H25.3399C25.7936 14.2109 26.1607 13.8424 26.1602 13.3893C26.1602 13.172 26.0735 12.9635 25.9199 12.8098L19.3508 6.24029Z" fill="#CCCCCC"/>
<g id="Group">
<path id="?&#226;&#145;&#165;&#235;&#146;&#170; 305" fill-rule="evenodd" clip-rule="evenodd" d="M23.0716 19.0515C21.4086 19.0515 20.0604 20.3998 20.0604 22.0627C20.0604 23.7256 21.4086 25.0739 23.0716 25.0739C24.7345 25.0739 26.0828 23.7256 26.0828 22.0627C26.0828 20.3998 24.7345 19.0515 23.0716 19.0515ZM18.418 22.0627C18.418 19.4929 20.5013 17.4091 23.0716 17.4091C25.6418 17.4091 27.7251 19.4924 27.7251 22.0627C27.7251 24.633 25.6418 26.7163 23.0716 26.7163C20.5013 26.7163 18.418 24.633 18.418 22.0627Z" fill="#7861BB"/>
<path id="?&#226;&#145;&#165;&#235;&#146;&#170; 306" fill-rule="evenodd" clip-rule="evenodd" d="M25.2278 24.2193C25.5484 23.8983 26.0686 23.8983 26.3892 24.2193L30.7687 28.5993C31.0838 28.9257 31.0746 29.4455 30.7481 29.7606C30.4295 30.068 29.925 30.0675 29.6069 29.7601L25.2273 25.3806C24.9073 25.0601 24.9073 24.5408 25.2273 24.2198L25.2278 24.2193Z" fill="#7861BB"/>
</g>
<path id="?&#226;&#145;&#165;&#235;&#146;&#170; 308" fill-rule="evenodd" clip-rule="evenodd" d="M10.2852 12.0508C10.2852 11.5971 10.6527 11.2296 11.1063 11.2296H16.5811C17.0348 11.2296 17.4023 11.5971 17.4023 12.0508C17.4023 12.5045 17.0348 12.872 16.5811 12.872H11.1063C10.6527 12.872 10.2852 12.5045 10.2852 12.0508ZM10.2852 17.5256C10.2852 17.0719 10.6527 16.7044 11.1063 16.7044H16.5811C17.0348 16.7044 17.4023 17.0719 17.4023 17.5256C17.4023 17.9792 17.0348 18.3468 16.5811 18.3468H11.1063C10.6527 18.3468 10.2852 17.9792 10.2852 17.5256ZM10.2852 23.0004C10.2852 22.5467 10.6527 22.1792 11.1063 22.1792H16.5811C17.0348 22.1792 17.4023 22.5467 17.4023 23.0004C17.4023 23.454 17.0348 23.8216 16.5811 23.8216H11.1063C10.6527 23.8216 10.2852 23.454 10.2852 23.0004Z" fill="#CCCCCC"/>
</g>
</g>
<defs>
<filter id="filter0_d_674_2138" x="0" y="0" width="36" height="38" filterUnits="userSpaceOnUse" color-interpolation-filters="sRGB">
<feFlood flood-opacity="0" result="BackgroundImageFix"/>
<feColorMatrix in="SourceAlpha" type="matrix" values="0 0 0 0 0 0 0 0 0 0 0 0 0 0 0 0 0 0 127 0" result="hardAlpha"/>
<feOffset dy="2"/>
<feComposite in2="hardAlpha" operator="out"/>
<feColorMatrix type="matrix" values="0 0 0 0 0.0875 0 0 0 0 0.671345 0 0 0 0 0.7 0 0 0 1 0"/>
<feBlend mode="normal" in2="BackgroundImageFix" result="effect1_dropShadow_674_2138"/>
<feBlend mode="normal" in="SourceGraphic" in2="effect1_dropShadow_674_2138" result="shape"/>
</filter>
</defs>
</svg>
