<svg width="90" height="90" viewBox="0 0 90 90" fill="none" xmlns="http://www.w3.org/2000/svg">
<g id="bt_back">
<g id="&#237;&#140;&#168;&#236;&#138;&#164; 51" filter="url(#filter0_d_601_2992)">
<path d="M45.003 15C33.844 15 24.634 17.955 20.355 22.9C13.215 31.16 13.215 58.834 20.355 67.094C24.634 72.045 33.844 75 45.003 75C56.162 75 65.369 72.045 69.648 67.1C76.788 58.84 76.788 31.166 69.648 22.906C65.366 17.955 56.155 15 45.003 15Z" fill="#21C4CC"/>
</g>
<path id="&#237;&#149;&#169;&#236;&#185;&#152;&#234;&#184;&#176; 2" d="M40.2969 53.8898L27.8249 45.5548C27.5823 45.438 27.3783 45.254 27.2372 45.0248C27.096 44.7955 27.0236 44.5305 27.0286 44.2613C27.0335 43.992 27.1156 43.7299 27.2651 43.5059C27.4146 43.282 27.6252 43.1056 27.8719 42.9978L40.2469 35.3148C41.3469 34.6308 42.2539 35.0988 42.2539 36.3558V38.6048H60.5329C61.1749 38.5998 61.7926 38.8497 62.2505 39.2996C62.7083 39.7496 62.9689 40.3629 62.9749 41.0048V48.2188C62.9726 48.5372 62.9076 48.8519 62.7836 49.1451C62.6596 49.4383 62.479 49.7042 62.2523 49.9276C62.0255 50.151 61.757 50.3276 61.462 50.4472C61.167 50.5668 60.8513 50.6272 60.5329 50.6248H42.2539V52.9148C42.2539 53.7628 41.8539 54.2388 41.2629 54.2388C40.9121 54.2203 40.5744 54.0989 40.2919 53.8898H40.2969Z" fill="white"/>
</g>
<defs>
<filter id="filter0_d_601_2992" x="15" y="15" width="60.0029" height="64" filterUnits="userSpaceOnUse" color-interpolation-filters="sRGB">
<feFlood flood-opacity="0" result="BackgroundImageFix"/>
<feColorMatrix in="SourceAlpha" type="matrix" values="0 0 0 0 0 0 0 0 0 0 0 0 0 0 0 0 0 0 127 0" result="hardAlpha"/>
<feOffset dy="4"/>
<feComposite in2="hardAlpha" operator="out"/>
<feColorMatrix type="matrix" values="0 0 0 0 0.100208 0 0 0 0 0.624279 0 0 0 0 0.65 0 0 0 1 0"/>
<feBlend mode="normal" in2="BackgroundImageFix" result="effect1_dropShadow_601_2992"/>
<feBlend mode="normal" in="SourceGraphic" in2="effect1_dropShadow_601_2992" result="shape"/>
</filter>
</defs>
</svg>
