<svg width="140" height="40" viewBox="0 0 140 40" fill="none" xmlns="http://www.w3.org/2000/svg">
    <rect opacity=".5" x=".5" y=".5" width="139" height="39" rx="9.5" stroke="#fff"/>
    <path d="M73.989 26c-.416 0-.736-.112-.96-.336-.224-.224-.336-.544-.336-.96v-8.688c0-.416.112-.736.336-.96.224-.224.544-.336.96-.336h5.584c.32 0 .56.085.72.256.17.16.256.395.256.704 0 .32-.086.565-.256.736-.16.16-.4.24-.72.24H75.06v2.64h4.144c.33 0 .576.085.736.256.17.16.256.4.256.72 0 .32-.086.565-.256.736-.16.16-.406.24-.736.24H75.06v2.816h4.512c.32 0 .56.085.72.256.17.16.256.395.256.704 0 .32-.086.565-.256.736-.16.16-.4.24-.72.24h-5.584zm9.015.112c-.299 0-.538-.08-.72-.24a.897.897 0 0 1-.288-.64c0-.256.107-.517.32-.784l2.48-3.04v1.088l-2.304-2.816c-.224-.277-.33-.544-.32-.8a.843.843 0 0 1 .288-.624c.181-.16.422-.24.72-.24.288 0 .528.048.72.144.192.096.373.256.544.48l1.712 2.192h-.848l1.712-2.192c.181-.224.368-.384.56-.48.192-.096.427-.144.704-.144.299 0 .539.085.72.256.181.16.272.368.272.624.01.256-.096.517-.32.784l-2.304 2.816v-1.088l2.496 3.04c.224.256.33.512.32.768a.872.872 0 0 1-.304.64c-.181.17-.421.256-.72.256-.288 0-.528-.048-.72-.144a2.2 2.2 0 0 1-.544-.48l-1.872-2.384h.816l-1.872 2.384c-.17.203-.352.357-.544.464-.181.107-.416.16-.704.16zm9.322.016c-.395 0-.699-.112-.912-.336-.203-.235-.304-.56-.304-.976v-5.472c0-.427.101-.752.304-.976.213-.235.517-.352.912-.352.384 0 .677.117.88.352.213.224.32.55.32.976v5.472c0 .416-.102.741-.304.976-.203.224-.502.336-.896.336zm0-9.424c-.448 0-.795-.101-1.04-.304-.235-.213-.352-.512-.352-.896 0-.395.117-.693.352-.896.245-.213.592-.32 1.04-.32.448 0 .789.107 1.024.32.234.203.352.501.352.896 0 .384-.118.683-.352.896-.235.203-.576.304-1.024.304zm6.92 9.472c-.735 0-1.354-.123-1.855-.368a2.442 2.442 0 0 1-1.104-1.072c-.235-.47-.352-1.061-.352-1.776v-3.008h-.672c-.299 0-.533-.08-.704-.24-.16-.16-.24-.379-.24-.656 0-.299.08-.523.24-.672.17-.16.405-.24.704-.24h.672v-1.216c0-.405.107-.71.32-.912.213-.213.512-.32.896-.32.395 0 .693.107.896.32.203.203.304.507.304.912v1.216h1.52c.299 0 .528.08.688.24.16.15.24.373.24.672 0 .277-.08.496-.24.656-.16.16-.389.24-.688.24h-1.52v2.912c0 .448.101.784.304 1.008.213.224.55.336 1.008.336.16 0 .31-.016.448-.048a2.9 2.9 0 0 1 .384-.064.429.429 0 0 1 .368.144c.096.096.144.315.144.656 0 .256-.043.48-.128.672a.784.784 0 0 1-.448.416 2.617 2.617 0 0 1-.576.128 3.466 3.466 0 0 1-.608.064z" fill="#fff"/>
    <path fill-rule="evenodd" clip-rule="evenodd" d="M51.932 11a2 2 0 0 1 2 2v2.636a1 1 0 1 1-2 0V13h-7a1 1 0 0 0-1 1v12a1 1 0 0 0 1 1h6a1 1 0 0 0 1-1v-1.636a1 1 0 0 1 2 0V27a2 2 0 0 1-2 2h-8a2 2 0 0 1-2-2V13a2 2 0 0 1 2-2h8z" fill="#fff"/>
    <path d="M48.932 20h11-11zm11 0-3-3.5 3 3.5zm0 0-3 3.5 3-3.5z" fill="#fff"/>
    <path d="M48.932 20h11m0 0-3-3.5m3 3.5-3 3.5" stroke="#fff" stroke-width="2" stroke-linecap="round" stroke-linejoin="round"/>
</svg>
