<svg width="80" height="100" viewBox="0 0 80 100" fill="none" xmlns="http://www.w3.org/2000/svg">
<path fill-rule="evenodd" clip-rule="evenodd" d="M15.9154 0H64.0845C72.877 0 79.9999 7.17797 79.9999 16.0385V69.8787H57.5471C53.8934 69.8787 50.9337 72.8613 50.9337 76.5432V100H15.9154C7.12291 100 0 92.822 0 83.9615V16.0385C0 7.17797 7.12291 0 15.9154 0Z" fill="#EEEEEE"/>
<path fill-rule="evenodd" clip-rule="evenodd" d="M57.547 69.8787H79.9998L50.9336 100V76.5432C50.9336 72.8613 53.8933 69.8787 57.547 69.8787Z" fill="#CCCCCC"/>
<path d="M13.0108 15.1526C13.0108 14.5872 13.4531 14.1523 14.0034 14.1523H17.1431C18.2975 14.1523 19.193 14.4785 19.7864 15.0765C20.2935 15.5875 20.5632 16.3051 20.5632 17.164V17.1857C20.5632 18.6209 19.8511 19.5016 18.7507 19.9583L20.1317 21.6544C20.3259 21.9045 20.4553 22.111 20.4553 22.4263C20.4553 22.9917 19.9914 23.3505 19.5059 23.3505C19.0527 23.3505 18.7506 23.1331 18.5241 22.8286L16.582 20.3497H14.9852V22.3394C14.9852 22.9047 14.5429 23.3396 13.9926 23.3396C13.4424 23.3396 13 22.8939 13 22.3394V15.1417L13.0108 15.1526ZM17.0244 18.5774C17.9954 18.5774 18.5564 18.0555 18.5564 17.2836V17.2618C18.5564 16.4029 17.963 15.9571 16.992 15.9571H15.0176V18.5774H17.0352H17.0244Z" fill="#3E61AA"/>
<path d="M22.3652 22.2741V15.1526C22.3652 14.5872 22.8076 14.1523 23.3578 14.1523H28.3748C28.8711 14.1523 29.2703 14.5546 29.2703 15.0547C29.2703 15.5548 28.8711 15.9463 28.3748 15.9463H24.3397V17.7946H27.7922C28.2885 17.7946 28.6877 18.1969 28.6877 18.697C28.6877 19.1972 28.2885 19.5886 27.7922 19.5886H24.3397V21.5022H28.4396C28.9359 21.5022 29.3351 21.9045 29.3351 22.4046C29.3351 22.9047 28.9359 23.2961 28.4396 23.2961H23.3578C22.7968 23.2961 22.3652 22.8504 22.3652 22.2959V22.2741Z" fill="#3E61AA"/>
<path d="M31.04 15.1526C31.04 14.5872 31.4824 14.1523 32.0326 14.1523H34.7407C36.8986 14.1523 38.2041 15.4461 38.2041 17.3053V17.3271C38.2041 19.4364 36.5749 20.5345 34.5465 20.5345H33.036V22.3502C33.036 22.9156 32.5937 23.3505 32.0434 23.3505C31.4932 23.3505 31.0508 22.9047 31.0508 22.3502V15.1526H31.04ZM34.6113 18.7514C35.6039 18.7514 36.1865 18.1534 36.1865 17.3706V17.3488C36.1865 16.4464 35.5607 15.968 34.5681 15.968H33.0253V18.7623H34.6005L34.6113 18.7514Z" fill="#3E61AA"/>
<path d="M39.2939 18.7405V18.7187C39.2939 16.1202 41.3223 14 44.1167 14C46.9111 14 48.9179 16.0984 48.9179 18.697V18.7187C48.9179 21.3173 46.8896 23.4374 44.0951 23.4374C41.3007 23.4374 39.2939 21.339 39.2939 18.7405ZM46.8356 18.7405V18.7187C46.8356 17.1531 45.6919 15.8483 44.0951 15.8483C42.4983 15.8483 41.3763 17.1313 41.3763 18.6861V18.7078C41.3763 20.2735 42.5199 21.5782 44.1167 21.5782C45.7135 21.5782 46.8356 20.2952 46.8356 18.7405Z" fill="#3E61AA"/>
<path d="M50.6973 15.1526C50.6973 14.5872 51.1397 14.1523 51.6899 14.1523H54.8296C55.984 14.1523 56.8795 14.4785 57.4729 15.0765C57.98 15.5875 58.2498 16.3051 58.2498 17.164V17.1857C58.2498 18.6209 57.5377 19.5016 56.4372 19.9583L57.8182 21.6544C58.0124 21.9045 58.1419 22.111 58.1419 22.4263C58.1419 22.9917 57.6779 23.3505 57.1924 23.3505C56.7393 23.3505 56.4372 23.1331 56.2106 22.8286L54.2685 20.3497H52.6717V22.3394C52.6717 22.9047 52.2294 23.3396 51.6791 23.3396C51.1289 23.3396 50.6865 22.8939 50.6865 22.3394V15.1417L50.6973 15.1526ZM54.7109 18.5774C55.6819 18.5774 56.243 18.0555 56.243 17.2836V17.2618C56.243 16.4029 55.6496 15.9571 54.6785 15.9571H52.7041V18.5774H54.7217H54.7109Z" fill="#3E61AA"/>
<path d="M62.1666 16.0006H60.2569C59.7498 16.0006 59.3398 15.5875 59.3398 15.0765C59.3398 14.5654 59.7498 14.1523 60.2569 14.1523H66.0831C66.5902 14.1523 67.0002 14.5654 67.0002 15.0765C67.0002 15.5875 66.5902 16.0006 66.0831 16.0006H64.1734V22.3502C64.1734 22.9156 63.7311 23.3505 63.1808 23.3505C62.6306 23.3505 62.1882 22.9047 62.1882 22.3502V16.0006H62.1666Z" fill="#3E61AA"/>
<path d="M14.0455 79H34.9545C35.533 79 36 78.33 36 77.5C36 76.67 35.533 76 34.9545 76H14.0455C13.467 76 13 76.67 13 77.5C13 78.33 13.467 79 14.0455 79Z" fill="#21C39A"/>
<path d="M14.0455 86H34.9545C35.533 86 36 85.33 36 84.5C36 83.67 35.533 83 34.9545 83H14.0455C13.467 83 13 83.67 13 84.5C13 85.33 13.467 86 14.0455 86Z" fill="#21C39A"/>
<path d="M34.9545 72H14.0455C13.467 72 13 71.33 13 70.5C13 69.67 13.467 69 14.0455 69H34.9545C35.533 69 36 69.67 36 70.5C36 71.33 35.533 72 34.9545 72Z" fill="#7B4DED"/>
<path d="M35.6439 48.4409C37.2061 42.2409 33.4825 35.9331 27.3301 34.3588C21.1777 32.7846 14.9183 36.5369 13.3561 42.7369C11.7939 48.9369 15.5175 55.2447 21.6699 56.8189C23.521 57.2934 25.4683 57.2934 27.3194 56.8189L24.5482 45.6482L35.6332 48.4409H35.6439Z" fill="#21C39A"/>
<path d="M35.6437 48.4409L24.5586 45.6482L27.3299 56.8189C31.4172 55.7838 34.6165 52.5598 35.6437 48.4409Z" fill="#7B4DED"/>
<path d="M63 40.3764V54.6236C63 55.934 63.8972 57 65 57C66.1028 57 67 55.934 67 54.6236V40.3764C67 39.066 66.1028 38 65 38C63.8972 38 63 39.066 63 40.3764Z" fill="#7B4DED"/>
<path d="M55 45.3352V54.6648C55 55.9525 55.8972 57 57 57C58.1028 57 59 55.9525 59 54.6648V45.3352C59 44.0475 58.1028 43 57 43C55.8972 43 55 44.0475 55 45.3352Z" fill="#21C39A"/>
<path d="M47 36.3022V54.6978C47 55.9673 47.8972 57 49 57C50.1028 57 51 55.9673 51 54.6978V36.3022C51 35.0327 50.1028 34 49 34C47.8972 34 47 35.0327 47 36.3022Z" fill="#21C39A"/>
</svg>
