<svg width="54" height="62" viewBox="0 0 54 62" fill="none" xmlns="http://www.w3.org/2000/svg">
    <path d="m46.87 54.694-5.286-10.796a2.552 2.552 0 0 0-1.984-1.323h-3.086a6.175 6.175 0 0 0-4.408 1.762l-2.201 2.201a2.348 2.348 0 0 0-.439 2.647l5.509 11.234a3.421 3.421 0 0 0 1.762 1.323h.223a1.999 1.999 0 0 0 1.762-.878l2.423-3.085h3.747a1.96 1.96 0 0 0 1.762-1.1 2.145 2.145 0 0 0 .223-1.98l-.006-.005zM24.62 46.76l-2.201-2.201a6.563 6.563 0 0 0-4.409-1.762h-3.085a2.118 2.118 0 0 0-1.985 1.323L7.653 54.916c-.44.662-.223 1.54 0 2.201.606.353 1.28.575 1.978.662h3.964l2.2 3.085a2.01 2.01 0 0 0 1.763.884h.222c.816 0 1.534-.538 1.762-1.323l5.51-11.234a2.017 2.017 0 0 0-.44-2.424l.007-.006z" fill="#21C39A"/>
    <path d="m52.108 22.085-3.525-3.524c-.34-.352-.5-.835-.439-1.323v-5.064c0-3.4-2.745-6.164-6.145-6.17H36.91a3.136 3.136 0 0 1-1.323-.44L31.84 1.819a6.247 6.247 0 0 0-8.81 0l-3.525 3.524c-.352.34-.834.5-1.323.439h-5.064c-3.301.223-6.17 3.085-6.17 6.387v5.064c-.043.47-.198.92-.44 1.323l-3.746 3.524a6.388 6.388 0 0 0 0 8.81l3.524 3.525c.34.352.501.834.44 1.323v5.07c0 3.4 2.745 6.164 6.145 6.17h5.082c.47.044.922.198 1.323.44l3.525 3.524a5.967 5.967 0 0 0 4.402 1.762 6.563 6.563 0 0 0 4.408-1.762l3.525-3.525c.352-.34.834-.5 1.323-.439h5.07c3.4 0 6.164-2.745 6.17-6.145v-5.089c.043-.47.198-.921.44-1.323l3.523-3.524a6.534 6.534 0 0 0 1.763-4.409c0-1.54-.223-3.301-1.324-4.408l.007.006z" fill="#7B4DED"/>
    <path d="M27.216 44.25c9.885 0 17.9-8.013 17.9-17.899 0-9.885-8.015-17.899-17.9-17.899-9.886 0-17.9 8.014-17.9 17.9 0 9.885 8.014 17.899 17.9 17.899z" fill="#EAEAEA"/>
    <path d="M13.255 31.297c-.299 0-.527-.08-.686-.238-.159-.158-.238-.378-.238-.658 0-.29.08-.508.238-.658.159-.15.387-.224.686-.224h1.414v-6.314h1.022l-2.044 1.246c-.215.13-.415.182-.602.154a.82.82 0 0 1-.462-.238c-.13-.13-.22-.284-.266-.462a.915.915 0 0 1 .056-.546c.075-.186.215-.345.42-.476l1.946-1.176c.196-.121.392-.22.588-.294.205-.074.406-.112.602-.112.28 0 .5.075.658.224.168.14.252.36.252.658v7.336h1.274c.29 0 .513.075.672.224.159.15.238.369.238.658 0 .29-.08.514-.238.672-.159.15-.383.224-.672.224h-4.858zm9.416.154c-1.194 0-2.109-.443-2.744-1.33-.625-.896-.938-2.16-.938-3.794 0-1.092.14-2.011.42-2.758.29-.756.705-1.325 1.246-1.708.551-.392 1.223-.588 2.016-.588 1.204 0 2.12.434 2.744 1.302.626.859.938 2.11.938 3.752 0 1.092-.144 2.02-.434 2.786-.28.756-.69 1.335-1.232 1.736-.54.402-1.213.602-2.016.602zm0-1.764c.542 0 .943-.266 1.204-.798.262-.541.392-1.395.392-2.562 0-1.166-.13-2.006-.392-2.52-.26-.513-.662-.77-1.204-.77-.54 0-.942.257-1.204.77-.26.514-.392 1.354-.392 2.52 0 1.167.131 2.02.392 2.562.262.532.663.798 1.204.798zm7.415 1.764c-1.195 0-2.11-.443-2.744-1.33-.625-.896-.938-2.16-.938-3.794 0-1.092.14-2.011.42-2.758.29-.756.705-1.325 1.246-1.708.55-.392 1.223-.588 2.016-.588 1.204 0 2.119.434 2.744 1.302.625.859.938 2.11.938 3.752 0 1.092-.145 2.02-.434 2.786-.28.756-.69 1.335-1.232 1.736-.541.402-1.213.602-2.016.602zm0-1.764c.541 0 .943-.266 1.204-.798.261-.541.392-1.395.392-2.562 0-1.166-.13-2.006-.392-2.52-.261-.513-.663-.77-1.204-.77-.541 0-.943.257-1.204.77-.261.514-.392 1.354-.392 2.52 0 1.167.13 2.02.392 2.562.261.532.663.798 1.204.798zm6.675 1.48a.566.566 0 0 1-.29.26.545.545 0 0 1-.34.03.594.594 0 0 1-.29-.16.63.63 0 0 1-.14-.31.555.555 0 0 1 .09-.38l3.59-6.22a.614.614 0 0 1 .29-.28.474.474 0 0 1 .33-.02c.113.027.21.084.29.17.08.08.13.18.15.3.02.12-.01.247-.09.38l-3.59 6.23zm-1.26-2.72c-.58 0-1.03-.193-1.35-.58-.32-.393-.48-.92-.48-1.58 0-.446.07-.83.21-1.15a1.68 1.68 0 0 1 .63-.74c.28-.173.61-.26.99-.26.573 0 1.02.197 1.34.59.326.387.49.907.49 1.56 0 .44-.074.824-.22 1.15-.14.32-.347.57-.62.75-.274.174-.604.26-.99.26zm0-.96c.133 0 .243-.04.33-.12a.805.805 0 0 0 .21-.39c.053-.18.08-.41.08-.69 0-.42-.057-.72-.17-.9-.107-.186-.257-.28-.45-.28a.505.505 0 0 0-.34.12c-.094.08-.164.207-.21.38-.047.167-.07.394-.07.68 0 .427.053.734.16.92.106.187.26.28.46.28zm5.15 3.92c-.58 0-1.03-.196-1.35-.59-.32-.393-.48-.92-.48-1.58 0-.44.073-.82.22-1.14a1.68 1.68 0 0 1 .63-.74c.273-.173.6-.26.98-.26.573 0 1.02.194 1.34.58.326.387.49.907.49 1.56 0 .44-.074.824-.22 1.15-.14.327-.347.58-.62.76-.274.174-.604.26-.99.26zm0-.97c.133 0 .243-.04.33-.12.093-.08.163-.21.21-.39.053-.18.08-.41.08-.69 0-.42-.057-.72-.17-.9-.107-.186-.257-.28-.45-.28a.505.505 0 0 0-.34.12c-.087.08-.157.207-.21.38-.047.174-.07.4-.07.68 0 .434.053.744.16.93.106.18.26.27.46.27z" fill="#7B4DED"/>
</svg>
