<svg width="1280" height="800" viewBox="0 0 1280 800" fill="none" xmlns="http://www.w3.org/2000/svg">
<rect width="1280" height="800" fill="#EFE9FF"/>
<mask id="mask0_601_3638" style="mask-type:alpha" maskUnits="userSpaceOnUse" x="0" y="0" width="1280" height="800">
<rect width="1280" height="800" fill="#EFE9FF"/>
</mask>
<g mask="url(#mask0_601_3638)">
<path d="M1416.18 702.103C1417.94 750.096 1361.21 828.546 1332.62 861.772L304.532 921.763C278.876 894.998 211.51 822.639 147.296 747.327C67.028 653.187 163.789 559.97 186.88 520.284C209.97 480.597 153.893 437.219 147.296 401.224C140.698 365.23 176.984 345.848 239.658 321.851C333.12 288.625 322.612 220.263 367.112 143.763C444.612 -1.73689 586.019 6.20525 664.087 28.3558C742.156 50.5064 818.025 164.951 883.998 224.019C949.972 283.088 1078.62 304.315 1185.28 339.387C1291.93 374.459 1240.25 467.676 1232.56 503.671C1224.86 539.665 1296.33 567.353 1340.31 583.966C1384.3 600.579 1413.98 642.112 1416.18 702.103Z" fill="#EAE2FF"/>
<path d="M575 -36L575 17.125" stroke="#1C1E1D" stroke-width="2" stroke-miterlimit="10" stroke-linecap="round"/>
<path d="M581.25 10.4235H568.75V4.5988C568.75 0.911248 571.546 -2.07648 574.997 -2.07648C578.449 -2.07648 581.245 0.911248 581.245 4.5988V10.4235H581.25Z" fill="#C0B1ED"/>
<path d="M540 31.6736C540 31.6736 540.614 6.67365 573.996 6.67365C607.377 6.67365 610 31.6736 610 31.6736H540Z" fill="#D4C6FF"/>
</g>
</svg>
