<svg width="135" height="127" viewBox="0 0 135 127" fill="none" xmlns="http://www.w3.org/2000/svg">
    <g filter="url(#yw5hknflja)">
        <mask id="nax6xiwxbb" fill="#fff">
            <path d="m116.76 15.438.001-.002C100.694.163 79.327-.018 67.751.002 55.264.024 31.63.07 15.95 17.59-2.46 38.168-2.792 74.927 15.812 94.1l.004.004c.063.065 23.598 24.465 73.148 8.821.214-.069.595-.184 1.11-.314 3.044-.778 10.925-2.12 18.638 2.519 6.281 3.777 9.193 9.564 10.543 14.048.51 1.696 3.35 2.173 4.084.561 3.781-8.297 7.729-19.469 9.512-32.992.473-3.593 1.122-8.5 1.472-14.181 1.049-17.025-.575-40.973-17.563-57.128l.001-.002z"/>
        </mask>
        <path d="m116.76 15.438.001-.002C100.694.163 79.327-.018 67.751.002 55.264.024 31.63.07 15.95 17.59-2.46 38.168-2.792 74.927 15.812 94.1l.004.004c.063.065 23.598 24.465 73.148 8.821.214-.069.595-.184 1.11-.314 3.044-.778 10.925-2.12 18.638 2.519 6.281 3.777 9.193 9.564 10.543 14.048.51 1.696 3.35 2.173 4.084.561 3.781-8.297 7.729-19.469 9.512-32.992.473-3.593 1.122-8.5 1.472-14.181 1.049-17.025-.575-40.973-17.563-57.128l.001-.002z" fill="#17C5EB"/>
        <path d="m67.75 0-.004-2.285.004 2.286zM15.952 17.59l-1.703-1.524 1.703 1.524zm73.011 85.336.688 2.18.008-.002.007-.003-.703-2.175zm1.11-.314.561 2.216.005-.002-.566-2.214zm18.638 2.519 1.178-1.959-1.178 1.959zm24.139-18.383 2.266.298-2.266-.298zm1.472-14.181 2.282.14-2.282-.14zm-15.068 46.612-2.189.659 2.189-.659zm4.084.561-2.08-.948 2.08.948zM15.812 94.102l-1.64 1.591 1.64-1.591zm.003.003 1.646-1.585-1.646 1.585zm100.944-78.666-1.575 1.656 1.575-1.656zm.002-.002-1.575 1.656 1.575-1.656zm-.001 0-1.026 2.043 1.026-2.043zm1.576-1.657C101.539-2.19 79.279-2.304 67.746-2.285l.008 4.572c11.62-.02 32.095.226 47.432 14.806l3.15-3.313zM67.746-2.285c-12.361.023-37.054-.024-53.497 18.351l3.406 3.048C32.568 2.45 55.145 2.31 67.755 2.287l-.009-4.572zM14.249 16.066C4.607 26.841-.225 41.746-.286 56.363c-.061 14.613 4.647 29.222 14.456 39.33l3.281-3.183C8.656 83.445 4.23 70.088 4.286 56.382c.057-13.7 4.598-27.464 13.37-37.268l-3.407-3.048zm-.08 79.624c.448.466 24.844 25.403 75.482 9.416l-1.376-4.359c-48.461 15.3-71.137-8.563-70.814-8.227l-3.293 3.17zm75.497 9.411c.167-.054.501-.155.968-.273l-1.122-4.432c-.563.143-.991.271-1.252.355l1.406 4.35zm.973-.275c2.815-.719 9.956-1.909 16.894 2.263l2.356-3.917c-8.488-5.105-17.108-3.611-20.382-2.775l1.132 4.429zm16.894 2.263c5.628 3.386 8.28 8.589 9.532 12.749l4.378-1.318c-1.448-4.809-4.621-11.178-11.554-15.348l-2.356 3.917zm17.885 13.599c3.853-8.455 7.88-19.846 9.698-33.642l-4.532-.597c-1.747 13.251-5.616 24.203-9.326 32.343l4.16 1.896zm9.698-33.642c.473-3.592 1.131-8.57 1.488-14.339l-4.563-.281c-.345 5.594-.984 10.431-1.457 14.023l4.532.597zm1.488-14.339c1.057-17.15-.501-42.026-18.269-58.925l-3.151 3.313c16.206 15.412 17.898 38.432 16.857 55.331l4.563.281zm-19.539 47.131c.586 1.946 2.362 2.906 3.808 3.123 1.445.216 3.599-.196 4.545-2.273l-4.16-1.896a.71.71 0 0 1 .333-.335c.038-.015.054-.015.041-.013a.365.365 0 0 1-.081-.004.554.554 0 0 1-.119-.033.305.305 0 0 1-.07-.037c-.02-.015.043.027.081.15l-4.378 1.318zM14.171 95.694l.005.005.002.002c.001 0 0 0 0 0l-.004-.005-.003-.003-.002-.002 3.292-3.171-.004-.005-.004-.004a.185.185 0 0 0-.005-.005l.001.001a.114.114 0 0 0 .003.003l-3.28 3.183zm104.164-81.912c.924.88.844 2.141.33 2.917-.527.797-1.726 1.386-2.931.781l2.052-4.085c-1.205-.605-2.405-.016-2.933.781-.514.777-.594 2.039.331 2.919l3.151-3.313zm-3.149 3.311c-.921-.876-.845-2.131-.338-2.907.524-.8 1.726-1.4 2.938-.791l-2.052 4.085c1.212.609 2.416.01 2.94-.791.507-.776.583-2.033-.338-2.91l-3.15 3.314z" fill="#4FD6F3" mask="url(#nax6xiwxbb)"/>
    </g>
    <path d="M19.047 83.564c-.571 4.178 6.666 10.232 9.86 10.89 1.38.465 1.79-1.333.785-1.746-3.89-1.597-7.593-6.736-8.428-8.597-.236-1.438-1.86-1.729-2.217-.547zM117.134 31.427c1.297-5.809-7.077-12.914-10.113-13.548-1.888-.817-2.677 1.663-1.311 2.364 5.206 2.67 7.415 7.433 8.37 10.151.162 2.051 2.413 2.654 3.054 1.033z" fill="#00ADD2"/>
    <g filter="url(#bz0o8lulzc)">
        <path d="M46.161 77.53a.681.681 0 0 1 1.02-9.29l3.447.118a.685.685 0 0 1 .66.727c-.16 2.599-.253 4.876-.298 7.02a.684.684 0 0 0 .758.691c.516-.054 1.044-.106 1.58-.157a.681.681 0 0 0 .617-.68 249.3 249.3 0 0 0-.178-8.237.683.683 0 0 1 .628-.707l3.452-.275c.386-.03.72.266.735.653.102 2.696.17 5.475.18 8.262a.576.576 0 0 0 .602.569.56.56 0 0 1 .582.53l.128 2.46a.698.698 0 0 1-.664.729c-.02 0-.039.002-.058.003a.683.683 0 0 0-.644.666 133.566 133.566 0 0 1-.192 4.578.68.68 0 0 1-.707.638l-3.443-.137a.687.687 0 0 1-.657-.73c.08-1.272.132-2.561.176-3.861a.677.677 0 0 0-.745-.698c-.529.053-1.045.11-1.55.168a.679.679 0 0 0-.6.687c.027 1.515.072 3.022.14 4.607a.684.684 0 0 1-.604.71l-3.45.396a.682.682 0 0 1-.76-.649 198.254 198.254 0 0 1-.14-4.42.494.494 0 0 0-.583-.468.476.476 0 0 1-.55-.37l-.614-2.558a.626.626 0 0 1 .5-.767c.382-.065.791-.129 1.228-.196a.007.007 0 0 0 .004-.012z" fill="#FAFF00"/>
    </g>
    <g filter="url(#inspocjzcd)">
        <path d="M75.82 51.672c-.046 2.544-.029 4.883.05 7.056a.606.606 0 0 1-.588.628l-3.06.087a.6.6 0 0 1-.617-.577c-.162-4.587.002-10.302.34-16.072a.602.602 0 0 1 .623-.566l3.056.104c.34.012.604.303.583.643a239.344 239.344 0 0 0-.211 3.81c-.02.435.415.742.788.516 1.304-.787 2.485-2.244 3.784-5.012a.613.613 0 0 1 .81-.3l2.61 1.215c.3.14.432.494.288.791-1.212 2.51-2.595 4.017-4.17 4.886-.502.277-.552 1.17-.088 1.508 1.968 1.435 3.388 4.059 4.363 8.663a.597.597 0 0 1-.477.709l-2.87.532a.61.61 0 0 1-.706-.478c-1.08-5.262-2.377-7.383-4.508-8.145 0 0-.002.001 0 .002z" fill="#fff"/>
    </g>
    <g filter="url(#ojjc6v47be)">
        <path d="M28.644 51.517a.007.007 0 0 0 .007-.007 166.66 166.66 0 0 1-.064-2.983c-.005-.401-.406-.693-.793-.589a.648.648 0 0 1-.8-.465l-.543-2.062a.623.623 0 0 1 .427-.76c1.793-.51 3.857-.866 5.883-1.029 4.741-.382 7.485 1.263 7.772 4.827.32 3.953-2.016 6.293-6.742 6.659a.656.656 0 0 0-.612.678c.113 2.27.253 4.544.428 6.8a.638.638 0 0 1-.61.687l-3.09.121a.635.635 0 0 1-.659-.584 242.541 242.541 0 0 1-.462-7.402.65.65 0 0 0-.55-.608 43.147 43.147 0 0 1-.751-.125.634.634 0 0 1-.523-.657l.1-2.041a.658.658 0 0 1 .784-.606c.27.052.535.098.796.146h.002zm7.289-2.697c-.104-1.29-1.092-1.895-2.894-1.75a.14.14 0 0 0-.129.142c.013 1.209.038 2.433.072 3.66.011.387.364.677.735.57 1.528-.437 2.318-1.35 2.216-2.622z" fill="#fff"/>
    </g>
    <g filter="url(#tkf4hjgbqf)">
        <path d="m13.835 54.598.002-.002 3.563-1.348c.39-.148.802.095.985.468.207.423.485.63.82.61.383-.02.57-.35.54-.94-.036-.687-.51-1.267-1.373-1.686-3.737-1.832-6.073-4.72-6.234-7.67-.228-4.16 2.07-6.464 6.19-6.69 4.023-.22 6.656 1.852 6.887 6.083a7.758 7.758 0 0 1-.351 2.738.64.64 0 0 1-.808.403l-3.113-.953c-.385-.118-.594-.548-.552-.948.03-.286.036-.614.015-.974-.096-1.773-.847-2.666-1.932-2.61-1.018.053-1.49.978-1.398 2.683.086 1.592 1.265 3.248 3.433 4.3 2.151 1.037 3.626 2.846 3.746 5.001.167 3.062-1.681 4.775-4.838 4.95-2.346.13-4.63-1.027-5.584-3.408a.006.006 0 0 1 .002-.007z" fill="#fff"/>
    </g>
    <g filter="url(#55ufxap1mg)">
        <path d="M65.99 58.655s0-.002-.002-.002a12.628 12.628 0 0 1-3.423.478c-3.251 0-5.307-1.444-5.307-4.216 0-3.06 2.271-4.657 5.925-4.657.998 0 1.94.128 2.802.38a.273.273 0 0 0 .351-.259c0-2.233-.107-4.17-1.875-4.17-1.205 0-1.797.71-2.28 2.415a.61.61 0 0 1-.698.44l-2.85-.55a.57.57 0 0 1-.448-.72c.985-3.26 3.133-4.764 6.276-4.764 4.24 0 5.783 3.109 5.783 7.433 0 1.502-.132 4.706-.406 9.364a.593.593 0 0 1-.634.557l-2.72-.193a.597.597 0 0 1-.552-.632c.018-.308.036-.61.057-.903zm-3.234-2.634.001.002c1.288 0 2.362-.257 3.175-.74a.547.547 0 0 0 .258-.443c.013-.212.025-.418.033-.62a.534.534 0 0 0-.174-.427c-.56-.493-1.228-.746-2.206-.746-1.376 0-2.449.514-2.449 1.743 0 .729.465 1.229 1.36 1.23l.002.001z" fill="#fff"/>
    </g>
    <g filter="url(#72t6tfwf9h)">
        <path d="M42.482 50.475c.596-5.207 2.983-7.722 7.887-7.16 3.706.425 5.48 2.353 5.074 5.592-.047.378.192.742.566.817.194.039.387.078.577.118a.67.67 0 0 1 .474.923l-.403.945a.696.696 0 0 1-.791.403c-2.449-.54-5.644-.946-8.676-1.166a.071.071 0 0 0-.076.063c-.226 1.976.372 3.058 1.783 3.22.884.1 1.668-.303 2.316-1.237.204-.295.583-.432.91-.287l3.024 1.332c.37.163.522.612.286.941-1.563 2.182-4.208 3.113-6.943 2.8-4.167-.478-6.499-3.025-6.009-7.3v-.004zm8.903-1.478c.258-1.302-.215-1.998-1.422-2.137-.92-.105-1.54.21-1.984.944-.233.386.074.844.523.882.957.082 1.918.187 2.88.307.002 0 .003.002.003.004z" fill="#fff"/>
    </g>
    <g filter="url(#avb59cy4wi)">
        <path d="M108.091 67.461h-.002c.03-.328.115-.709.254-1.12a.457.457 0 0 1 .574-.283l3.13.977c.334.104.492.474.461.823-.058.654.54 1.04 1.854 1.158 2.173.194 3.354-.625 3.516-2.44.114-1.278-.645-1.99-2.294-2.137-.483-.043-1.087-.026-1.793.055a.653.653 0 0 1-.636-.307l-.632-1.047a.624.624 0 0 1-.004-.644c.384-.64.833-1.31 1.346-2.006.3-.407.048-1.001-.448-1.098-2.74-.538-4.516-2.014-4.315-4.254.312-3.49 3.122-5.172 7.211-5.042a.675.675 0 0 0 .599-.327c.88-1.468 1.994-2.702 3.277-3.635a.61.61 0 0 1 .835.123l1.508 1.886a.661.661 0 0 1-.139.945 9.944 9.944 0 0 0-1.5 1.321c-.263.29-.154.734.168.956 1.162.8 1.818 1.947 1.687 3.406-.189 2.12-1.422 3.554-3.332 4.273a.657.657 0 0 0-.288.207 18.136 18.136 0 0 0-1.058 1.474c-.217.34-.034.78.339.936.164.069.322.142.469.22 2.192 1.11 3.889 2.897 3.694 5.07-.355 3.973-3.709 5.773-8.499 5.344-3.894-.348-6.228-2.038-5.98-4.833h-.002zm7.003-10.934c1.916.171 3.041-.435 3.165-1.828.078-.869-.56-1.353-1.722-1.457-1.801-.16-2.764.513-2.899 2.02-.067.755.412 1.172 1.459 1.265h-.003z" fill="#fff"/>
    </g>
    <g filter="url(#ieb4iif0aj)">
        <path d="M90.91 37.91c1.482.13 2 1.116 1.86 2.713-.131 1.482-1.175 2.202-3.218 2.022-1.314-.117-1.788-1.023-1.659-2.49.166-1.88 1.524-2.377 3.02-2.245h-.003zM88 44.958s0-.003.002-.002l3.526.63c.335.06.564.373.52.711-.543 4.172-1.014 9.061-1.39 13.281a.637.637 0 0 1-.69.578l-2.895-.256a.636.636 0 0 1-.578-.689c.397-4.446.919-9.832 1.505-14.251v-.002z" fill="#fff"/>
    </g>
    <g filter="url(#htygpeq7uk)">
        <path d="M83.874 73.813c4.277.243 6.744 2.684 6.53 6.433-.175 3.085-2.229 4.858-5.415 4.676-.946-.053-1.942-.282-2.934-.654-.417-.157-.884.12-.914.564-.049.715-.097 1.42-.149 2.115a.634.634 0 0 1-.756.575l-3.138-.619a.637.637 0 0 1-.512-.672c.511-6.883.82-15.046.821-21.865 0-.356.29-.642.645-.639l3.171.034a.635.635 0 0 1 .63.635c0 2.757-.049 5.74-.146 8.774-.013.417.37.734.785.685a7.917 7.917 0 0 1 1.382-.042zm-2.337 3.847c-.002 0-.003.002-.003.003-.03.706-.059 1.412-.095 2.11-.011.21.08.412.25.535.987.712 2.006 1.15 2.852 1.198.923.053 1.532-.48 1.584-1.388.1-1.742-.942-2.866-2.747-2.969-.577-.033-1.214.151-1.84.511h-.001z" fill="#FAFF00"/>
    </g>
    <g filter="url(#1kql4npm4l)">
        <path d="M61.781 81.859c0-2.05.63-3.98 1.916-6.037a.623.623 0 0 1 .753-.246l2.686 1.03c.383.147.528.61.323.965-.864 1.49-1.241 2.942-1.241 4.4 0 1.938.667 3.142 1.782 3.142 1.655 0 2.26-1.577 2.26-3.784 0-1.587-.45-3.722-1.07-5.288-.164-.415.097-.898.54-.948l2.757-.31a.623.623 0 0 1 .634.345c1.063 2.21 1.6 4.451 1.6 6.12 0 4.167-2.243 7.142-6.721 7.142-4.105 0-6.219-2.78-6.219-6.539v.008z" fill="#FAFF00"/>
    </g>
    <g filter="url(#6zcs9l7exm)">
        <path d="m103.904 53.899-.002-.002c-.196-1.342-.403-2.325-1.062-3.02-.459-.49-1.111-.772-2.011-.64-.148.02-.304.046-.469.076a.62.62 0 0 0-.501.674c.332 3.494.606 5.958 1.083 9.648a.638.638 0 0 1-.584.718l-3.163.238a.637.637 0 0 1-.679-.553 255.27 255.27 0 0 1-.956-8.332c-.043-.43-.492-.695-.879-.501-.03.015-.061.03-.092.047a.663.663 0 0 1-.905-.302l-.881-1.918a.602.602 0 0 1 .24-.781c1.58-.892 4.837-2.266 7.541-2.66 3.011-.439 4.706.105 5.823 1.175.993.944 1.447 2.38 1.708 4.17.292 2.006.419 4.417.435 7.089a.634.634 0 0 1-.611.636l-3.069.116a.632.632 0 0 1-.658-.625c-.016-1.382-.041-3.433-.306-5.252 0 0-.001-.002-.002-.001z" fill="#fff"/>
    </g>
    <defs>
        <filter id="yw5hknflja" x=".979" y="0" width="133.593" height="126.859" filterUnits="userSpaceOnUse" color-interpolation-filters="sRGB">
            <feFlood flood-opacity="0" result="BackgroundImageFix"/>
            <feColorMatrix in="SourceAlpha" values="0 0 0 0 0 0 0 0 0 0 0 0 0 0 0 0 0 0 127 0" result="hardAlpha"/>
            <feOffset dx="-1.021" dy="6.128"/>
            <feComposite in2="hardAlpha" operator="out"/>
            <feColorMatrix values="0 0 0 0 0 0 0 0 0 0.639216 0 0 0 0 0.776471 0 0 0 1 0"/>
            <feBlend in2="BackgroundImageFix" result="effect1_dropShadow_263_1539"/>
            <feBlend in="SourceGraphic" in2="effect1_dropShadow_263_1539" result="shape"/>
        </filter>
        <filter id="bz0o8lulzc" x="44.411" y="66.738" width="15.663" height="21.237" filterUnits="userSpaceOnUse" color-interpolation-filters="sRGB">
            <feFlood flood-opacity="0" result="BackgroundImageFix"/>
            <feColorMatrix in="SourceAlpha" values="0 0 0 0 0 0 0 0 0 0 0 0 0 0 0 0 0 0 127 0" result="hardAlpha"/>
            <feOffset dy="1"/>
            <feComposite in2="hardAlpha" operator="out"/>
            <feColorMatrix values="0 0 0 0 0 0 0 0 0 0 0 0 0 0 0 0 0 0 0.25 0"/>
            <feBlend in2="BackgroundImageFix" result="effect1_dropShadow_263_1539"/>
            <feBlend in="SourceGraphic" in2="effect1_dropShadow_263_1539" result="shape"/>
        </filter>
        <filter id="inspocjzcd" x="71.542" y="41.934" width="12.852" height="19.37" filterUnits="userSpaceOnUse" color-interpolation-filters="sRGB">
            <feFlood flood-opacity="0" result="BackgroundImageFix"/>
            <feColorMatrix in="SourceAlpha" values="0 0 0 0 0 0 0 0 0 0 0 0 0 0 0 0 0 0 127 0" result="hardAlpha"/>
            <feOffset dy="1"/>
            <feComposite in2="hardAlpha" operator="out"/>
            <feColorMatrix values="0 0 0 0 0 0 0 0 0 0 0 0 0 0 0 0 0 0 0.25 0"/>
            <feBlend in2="BackgroundImageFix" result="effect1_dropShadow_263_1539"/>
            <feBlend in="SourceGraphic" in2="effect1_dropShadow_263_1539" result="shape"/>
        </filter>
        <filter id="ojjc6v47be" x="26.431" y="43.568" width="14.132" height="20.827" filterUnits="userSpaceOnUse" color-interpolation-filters="sRGB">
            <feFlood flood-opacity="0" result="BackgroundImageFix"/>
            <feColorMatrix in="SourceAlpha" values="0 0 0 0 0 0 0 0 0 0 0 0 0 0 0 0 0 0 127 0" result="hardAlpha"/>
            <feOffset dy="1"/>
            <feComposite in2="hardAlpha" operator="out"/>
            <feColorMatrix values="0 0 0 0 0 0 0 0 0 0 0 0 0 0 0 0 0 0 0.25 0"/>
            <feBlend in2="BackgroundImageFix" result="effect1_dropShadow_263_1539"/>
            <feBlend in="SourceGraphic" in2="effect1_dropShadow_263_1539" result="shape"/>
        </filter>
        <filter id="tkf4hjgbqf" x="12.123" y="37.325" width="13.102" height="21.699" filterUnits="userSpaceOnUse" color-interpolation-filters="sRGB">
            <feFlood flood-opacity="0" result="BackgroundImageFix"/>
            <feColorMatrix in="SourceAlpha" values="0 0 0 0 0 0 0 0 0 0 0 0 0 0 0 0 0 0 127 0" result="hardAlpha"/>
            <feOffset dy="1"/>
            <feComposite in2="hardAlpha" operator="out"/>
            <feColorMatrix values="0 0 0 0 0 0 0 0 0 0 0 0 0 0 0 0 0 0 0.25 0"/>
            <feBlend in2="BackgroundImageFix" result="effect1_dropShadow_263_1539"/>
            <feBlend in="SourceGraphic" in2="effect1_dropShadow_263_1539" result="shape"/>
        </filter>
        <filter id="55ufxap1mg" x="57.258" y="43.03" width="12.985" height="18.355" filterUnits="userSpaceOnUse" color-interpolation-filters="sRGB">
            <feFlood flood-opacity="0" result="BackgroundImageFix"/>
            <feColorMatrix in="SourceAlpha" values="0 0 0 0 0 0 0 0 0 0 0 0 0 0 0 0 0 0 127 0" result="hardAlpha"/>
            <feOffset dy="1"/>
            <feComposite in2="hardAlpha" operator="out"/>
            <feColorMatrix values="0 0 0 0 0 0 0 0 0 0 0 0 0 0 0 0 0 0 0.25 0"/>
            <feBlend in2="BackgroundImageFix" result="effect1_dropShadow_263_1539"/>
            <feBlend in="SourceGraphic" in2="effect1_dropShadow_263_1539" result="shape"/>
        </filter>
        <filter id="72t6tfwf9h" x="42.417" y="43.237" width="14.698" height="15.6" filterUnits="userSpaceOnUse" color-interpolation-filters="sRGB">
            <feFlood flood-opacity="0" result="BackgroundImageFix"/>
            <feColorMatrix in="SourceAlpha" values="0 0 0 0 0 0 0 0 0 0 0 0 0 0 0 0 0 0 127 0" result="hardAlpha"/>
            <feOffset dy="1"/>
            <feComposite in2="hardAlpha" operator="out"/>
            <feColorMatrix values="0 0 0 0 0 0 0 0 0 0 0 0 0 0 0 0 0 0 0.25 0"/>
            <feBlend in2="BackgroundImageFix" result="effect1_dropShadow_263_1539"/>
            <feBlend in="SourceGraphic" in2="effect1_dropShadow_263_1539" result="shape"/>
        </filter>
        <filter id="avb59cy4wi" x="108.075" y="46.02" width="14.69" height="27.337" filterUnits="userSpaceOnUse" color-interpolation-filters="sRGB">
            <feFlood flood-opacity="0" result="BackgroundImageFix"/>
            <feColorMatrix in="SourceAlpha" values="0 0 0 0 0 0 0 0 0 0 0 0 0 0 0 0 0 0 127 0" result="hardAlpha"/>
            <feOffset dy="1"/>
            <feComposite in2="hardAlpha" operator="out"/>
            <feColorMatrix values="0 0 0 0 0 0 0 0 0 0 0 0 0 0 0 0 0 0 0.25 0"/>
            <feBlend in2="BackgroundImageFix" result="effect1_dropShadow_263_1539"/>
            <feBlend in="SourceGraphic" in2="effect1_dropShadow_263_1539" result="shape"/>
        </filter>
        <filter id="ieb4iif0aj" x="86.493" y="37.89" width="6.299" height="23.268" filterUnits="userSpaceOnUse" color-interpolation-filters="sRGB">
            <feFlood flood-opacity="0" result="BackgroundImageFix"/>
            <feColorMatrix in="SourceAlpha" values="0 0 0 0 0 0 0 0 0 0 0 0 0 0 0 0 0 0 127 0" result="hardAlpha"/>
            <feOffset dy="1"/>
            <feComposite in2="hardAlpha" operator="out"/>
            <feColorMatrix values="0 0 0 0 0 0 0 0 0 0 0 0 0 0 0 0 0 0 0.25 0"/>
            <feBlend in2="BackgroundImageFix" result="effect1_dropShadow_263_1539"/>
            <feBlend in="SourceGraphic" in2="effect1_dropShadow_263_1539" result="shape"/>
        </filter>
        <filter id="htygpeq7uk" x="76.584" y="63.727" width="13.834" height="24.807" filterUnits="userSpaceOnUse" color-interpolation-filters="sRGB">
            <feFlood flood-opacity="0" result="BackgroundImageFix"/>
            <feColorMatrix in="SourceAlpha" values="0 0 0 0 0 0 0 0 0 0 0 0 0 0 0 0 0 0 127 0" result="hardAlpha"/>
            <feOffset dy="1"/>
            <feComposite in2="hardAlpha" operator="out"/>
            <feColorMatrix values="0 0 0 0 0 0 0 0 0 0 0 0 0 0 0 0 0 0 0.25 0"/>
            <feBlend in2="BackgroundImageFix" result="effect1_dropShadow_263_1539"/>
            <feBlend in="SourceGraphic" in2="effect1_dropShadow_263_1539" result="shape"/>
        </filter>
        <filter id="1kql4npm4l" x="61.781" y="74.779" width="12.94" height="14.611" filterUnits="userSpaceOnUse" color-interpolation-filters="sRGB">
            <feFlood flood-opacity="0" result="BackgroundImageFix"/>
            <feColorMatrix in="SourceAlpha" values="0 0 0 0 0 0 0 0 0 0 0 0 0 0 0 0 0 0 127 0" result="hardAlpha"/>
            <feOffset dy="1"/>
            <feComposite in2="hardAlpha" operator="out"/>
            <feColorMatrix values="0 0 0 0 0 0 0 0 0 0 0 0 0 0 0 0 0 0 0.25 0"/>
            <feBlend in2="BackgroundImageFix" result="effect1_dropShadow_263_1539"/>
            <feBlend in="SourceGraphic" in2="effect1_dropShadow_263_1539" result="shape"/>
        </filter>
        <filter id="6zcs9l7exm" x="92.745" y="46.439" width="15.805" height="16.154" filterUnits="userSpaceOnUse" color-interpolation-filters="sRGB">
            <feFlood flood-opacity="0" result="BackgroundImageFix"/>
            <feColorMatrix in="SourceAlpha" values="0 0 0 0 0 0 0 0 0 0 0 0 0 0 0 0 0 0 127 0" result="hardAlpha"/>
            <feOffset dy="1"/>
            <feComposite in2="hardAlpha" operator="out"/>
            <feColorMatrix values="0 0 0 0 0 0 0 0 0 0 0 0 0 0 0 0 0 0 0.25 0"/>
            <feBlend in2="BackgroundImageFix" result="effect1_dropShadow_263_1539"/>
            <feBlend in="SourceGraphic" in2="effect1_dropShadow_263_1539" result="shape"/>
        </filter>
    </defs>
</svg>
