<svg width="54" height="62" viewBox="0 0 54 62" fill="none" xmlns="http://www.w3.org/2000/svg">
<path d="M46.8707 54.6936L41.5844 43.8983C41.1825 43.1563 40.4405 42.6617 39.5997 42.5752H36.5144C34.8698 42.5504 33.2808 43.1873 32.1061 44.3373L29.905 46.5384C29.2187 47.2432 29.0455 48.2943 29.466 49.1846L34.9749 60.4189C35.4015 61.0434 36.0198 61.5071 36.737 61.742H36.9596C37.6583 61.7791 38.3322 61.4452 38.7217 60.8641L41.1454 57.7788H44.8922C45.6403 57.7788 46.3266 57.3522 46.6543 56.6783C47.05 56.0971 47.1304 55.3551 46.8769 54.6997L46.8707 54.6936ZM24.6186 46.761L22.4175 44.5599C21.218 43.4408 19.6476 42.8163 18.0091 42.7977H14.9239C14.0521 42.7916 13.2669 43.3109 12.9392 44.1209L7.65284 54.9161C7.21386 55.5777 7.43026 56.4557 7.65284 57.1172C8.25876 57.4697 8.93269 57.6922 9.63136 57.7788H13.5946L15.7957 60.8641C16.1914 61.4452 16.8591 61.7853 17.5578 61.7482H17.7804C18.5965 61.7482 19.3137 61.2103 19.5425 60.4251L25.0514 49.1908C25.4718 48.3747 25.2925 47.3792 24.6124 46.7671L24.6186 46.761Z" fill="#21C39A"/>
<path d="M52.1075 22.0852L48.5833 18.5609C48.2432 18.2085 48.0825 17.7263 48.1443 17.2378V12.174C48.1443 8.77348 45.3991 6.00974 41.9985 6.00356C41.9924 6.00356 41.9862 6.00356 41.98 6.00356H36.91C36.4402 5.96028 35.9888 5.8057 35.5869 5.56457L31.8401 1.81776C29.4041 -0.60592 25.4656 -0.60592 23.0295 1.81776L19.5053 5.34199C19.1529 5.68205 18.6706 5.8428 18.1822 5.78097H13.1184C9.81676 6.00356 6.94791 8.86622 6.94791 12.1679V17.2316C6.90463 17.7015 6.75006 18.1529 6.50893 18.5548L2.76211 22.079C0.412628 24.5459 0.412628 28.4226 2.76211 30.8896L6.28635 34.4138C6.6264 34.7662 6.78716 35.2485 6.72533 35.7369V40.8069C6.72533 44.2074 9.47052 46.9712 12.8711 46.9774C12.8773 46.9774 12.8835 46.9774 12.8896 46.9774H17.9534C18.4233 47.0206 18.8746 47.1752 19.2765 47.4163L22.8008 50.9406C23.9631 52.1091 25.5583 52.7522 27.203 52.7027C28.8414 52.6841 30.4119 52.0597 31.6113 50.9406L35.1356 47.4163C35.488 47.0763 35.9703 46.9155 36.4587 46.9774H41.5286C44.9292 46.9774 47.693 44.2322 47.6991 40.8316C47.6991 40.8254 47.6991 40.8192 47.6991 40.8131V35.7431C47.7424 35.2732 47.897 34.8219 48.1381 34.42L51.6624 30.8957C52.7814 29.6963 53.4121 28.1258 53.4245 26.4874C53.4245 24.9478 53.2019 23.1857 52.1013 22.079L52.1075 22.0852Z" fill="#7B4DED"/>
<path d="M27.2158 44.2507C37.1013 44.2507 45.1152 36.2369 45.1152 26.3513C45.1152 16.4658 37.1013 8.45197 27.2158 8.45197C17.3302 8.45197 9.31641 16.4658 9.31641 26.3513C9.31641 36.2369 17.3302 44.2507 27.2158 44.2507Z" fill="#EAEAEA"/>
<path d="M13.9298 30.3172V23.5412L13.1738 23.7372C13.0618 23.7652 12.9078 23.7932 12.7958 23.7932C12.2918 23.7932 11.8578 23.3732 11.8578 22.8692C11.8578 22.4352 12.1378 22.0712 12.5718 21.9452L13.9578 21.5392C14.3638 21.4272 14.6718 21.3572 14.9658 21.3572H14.9938C15.5818 21.3572 16.0578 21.8332 16.0578 22.4212V30.3172C16.0578 30.9052 15.5818 31.3812 14.9938 31.3812C14.4058 31.3812 13.9298 30.9052 13.9298 30.3172ZM21.46 31.4652C18.842 31.4652 17.12 29.2672 17.12 26.4252V26.3972C17.12 23.5552 18.884 21.3292 21.488 21.3292C24.078 21.3292 25.828 23.5272 25.828 26.3692V26.3972C25.828 29.2392 24.078 31.4652 21.46 31.4652ZM21.488 29.5192C22.79 29.5192 23.616 28.2032 23.616 26.4252V26.3972C23.616 24.6192 22.748 23.2752 21.46 23.2752C20.172 23.2752 19.332 24.5772 19.332 26.3692V26.3972C19.332 28.1892 20.186 29.5192 21.488 29.5192ZM30.7066 31.4652C28.0886 31.4652 26.3666 29.2672 26.3666 26.4252V26.3972C26.3666 23.5552 28.1306 21.3292 30.7346 21.3292C33.3246 21.3292 35.0746 23.5272 35.0746 26.3692V26.3972C35.0746 29.2392 33.3246 31.4652 30.7066 31.4652ZM30.7346 29.5192C32.0366 29.5192 32.8626 28.2032 32.8626 26.4252V26.3972C32.8626 24.6192 31.9946 23.2752 30.7066 23.2752C29.4186 23.2752 28.5786 24.5772 28.5786 26.3692V26.3972C28.5786 28.1892 29.4326 29.5192 30.7346 29.5192ZM36.9971 27.7972C35.9871 27.7972 35.3071 27.0072 35.3071 26.0272V26.0072C35.3071 25.0172 35.9971 24.2172 37.0171 24.2172C38.0271 24.2172 38.7071 25.0072 38.7071 25.9872V26.0072C38.7071 26.9872 38.0171 27.7972 36.9971 27.7972ZM36.4271 30.8872C36.4271 30.7572 36.4771 30.6572 36.5371 30.5672L41.0071 24.4472C41.0971 24.3172 41.2571 24.2372 41.4171 24.2372C41.6771 24.2372 41.8871 24.4472 41.8871 24.7072C41.8871 24.8372 41.8471 24.9372 41.7771 25.0272L37.3071 31.1472C37.2171 31.2772 37.0571 31.3572 36.8971 31.3572C36.6371 31.3572 36.4271 31.1472 36.4271 30.8872ZM41.2971 31.3772C40.2871 31.3772 39.6071 30.5872 39.6071 29.6072V29.5872C39.6071 28.5972 40.2971 27.7972 41.3171 27.7972C42.3271 27.7972 43.0071 28.5872 43.0071 29.5672V29.5872C43.0071 30.5672 42.3171 31.3772 41.2971 31.3772ZM37.0171 26.8872C37.4371 26.8872 37.6571 26.4772 37.6571 26.0272V26.0072C37.6571 25.5372 37.3971 25.1272 36.9971 25.1272C36.5771 25.1272 36.3571 25.5272 36.3571 25.9872V26.0072C36.3571 26.4772 36.6171 26.8872 37.0171 26.8872ZM41.3171 30.4672C41.7371 30.4672 41.9571 30.0572 41.9571 29.6072V29.5872C41.9571 29.1172 41.6971 28.7072 41.2971 28.7072C40.8771 28.7072 40.6571 29.1072 40.6571 29.5672V29.5872C40.6571 30.0572 40.9171 30.4672 41.3171 30.4672Z" fill="#7B4DED"/>
</svg>
