<svg width="190" height="348" viewBox="0 0 190 348" fill="none" xmlns="http://www.w3.org/2000/svg">
<path d="M0 20C0 8.9543 8.95431 0 20 0H180C185.523 0 190 4.47715 190 10V308.75H0V20Z" fill="#E5E8F3"/>
<path d="M0 20C0 8.9543 8.95431 0 20 0V327H0V20Z" fill="#DCE1F5"/>
<path d="M0 328.375C0 317.536 8.78641 308.75 19.625 308.75H190C183.862 322.629 183.652 330.988 188.365 343.825C189.102 345.83 187.653 348 185.516 348H19.625C8.78641 348 0 339.214 0 328.375Z" fill="#D0D7F0"/>
<path d="M10.1875 328.375C10.1875 322.278 15.1303 317.335 21.2276 317.335H179.812C176.505 325.957 176.625 330.793 179.812 339.415H21.2276C15.1303 339.415 10.1875 334.472 10.1875 328.375Z" fill="white"/>
</svg>