<svg xmlns="http://www.w3.org/2000/svg" width="119" height="119" viewBox="0 0 119 119" fill="none">
  <mask id="mask0_681_865" style="mask-type:alpha" maskUnits="userSpaceOnUse" x="0" y="0" width="119" height="119">
    <rect width="118.925" height="118.925" fill="#FF0000"/>
  </mask>
  <g mask="url(#mask0_681_865)">
    <g filter="url(#filter0_d_681_865)">
      <ellipse cx="59.4394" cy="56.9743" rx="56.209" ry="56.0742" fill="#21C39A"/>
      <path d="M114.648 56.9743C114.648 87.3887 89.9328 112.049 59.4394 112.049C28.9461 112.049 4.23047 87.3887 4.23047 56.9743C4.23047 26.56 28.9461 1.90015 59.4394 1.90015C89.9328 1.90015 114.648 26.56 114.648 56.9743Z" stroke="#60DDBD" stroke-width="2"/>
    </g>
    <g filter="url(#filter1_d_681_865)">
      <path d="M25.8499 41.9444C25.8484 41.9436 25.8465 41.9444 25.8463 41.9461C25.6257 43.853 25.4381 46.6132 25.399 48.4438C25.3942 48.6702 25.2504 48.8644 25.0336 48.9336L22.1626 49.8495C21.9076 49.9309 21.6199 49.8186 21.481 49.582C18.8754 45.1457 16.4963 40.2178 15.385 37.468C15.2658 37.1731 15.4217 36.8565 15.7229 36.7711L19.2151 35.7813C19.5096 35.6978 19.8303 35.8673 19.9382 36.1585C20.3352 37.2307 21.0161 38.9143 21.717 40.5871C21.9355 41.1086 22.7213 41.0599 22.8362 40.5244C22.9777 39.8651 23.134 39.2078 23.2951 38.5619C23.3375 38.3916 23.4628 38.2566 23.6311 38.199L25.6954 37.4919C25.9205 37.4148 26.1785 37.4902 26.335 37.6797C26.7032 38.1255 27.0818 38.5893 27.4583 39.0572C27.783 39.4608 28.4297 39.2978 28.4686 38.801C28.618 36.8928 28.7825 34.9303 28.9232 33.6617C28.95 33.4201 29.1398 33.2362 29.3864 33.2085L32.8907 32.8144C33.2637 32.7725 33.5915 33.0972 33.5454 33.4617C33.1157 36.8622 32.6361 41.8682 32.4087 46.284C32.3972 46.5054 32.251 46.6914 32.0372 46.7559L29.6379 47.4794C29.3782 47.5577 29.0887 47.4367 28.9535 47.1941C27.7752 45.0797 26.7302 43.3338 25.8509 41.9453C25.8507 41.945 25.8503 41.9446 25.8499 41.9444Z" fill="white"/>
      <path d="M35.3385 39.9912C35.3378 39.6101 35.7178 39.3508 36.0942 39.4357C37.5141 39.7561 39.2044 39.6361 40.6562 39.1191C40.9343 39.0201 41.2554 39.1344 41.3948 39.4002L42.0002 40.5544C42.1473 40.8349 42.0362 41.1754 41.7475 41.2919C41.0142 41.5877 40.2808 41.7965 39.6341 41.9072C39.3561 41.9547 39.1456 42.1866 39.1497 42.4683C39.1822 44.7216 39.2769 46.0187 39.6174 47.7524C39.6771 48.0563 39.4835 48.3469 39.1799 48.4008L36.6186 48.8556C36.318 48.909 36.0229 48.7103 35.9633 48.4095C35.4666 45.8992 35.3454 43.6678 35.3385 39.9912Z" fill="white"/>
      <path d="M46.025 30.0596C47.3824 30.0311 47.9491 30.7215 47.9759 31.9242C48.0007 33.0401 47.1229 33.6657 45.2518 33.705C44.0441 33.7304 43.5263 33.0949 43.5017 31.9902C43.4702 30.575 44.654 30.0884 46.025 30.0596ZM44.064 35.5623C44.0631 35.5616 44.0636 35.5601 44.0648 35.5602L47.3341 35.731C47.6377 35.7468 47.8728 36.0018 47.8646 36.3049C47.7806 39.4158 47.8251 43.027 47.8912 46.1578C47.8977 46.465 47.6536 46.7189 47.3457 46.7254L44.6473 46.7821C44.3394 46.7885 44.0841 46.5452 44.0777 46.2381C44.0076 42.9047 43.9611 38.8821 44.0645 35.5633C44.0645 35.5629 44.0643 35.5626 44.064 35.5623Z" fill="white"/>
      <path d="M61.437 28.1874C62.661 27.9416 63.3335 28.527 63.6341 29.7007C63.9131 30.7898 63.2611 31.5436 61.5739 31.8824C60.4848 32.101 59.8693 31.5617 59.5932 30.4834C59.2394 29.1022 60.2008 28.4356 61.437 28.1874ZM60.9239 33.8924C60.9228 33.8918 60.9231 33.8902 60.9242 33.8901L63.8909 33.537C64.1908 33.5013 64.4769 33.7072 64.5384 34.002C65.1775 37.0652 66.0488 40.5999 66.829 43.6591C66.9052 43.9578 66.723 44.2486 66.4218 44.3091L64.0737 44.7806C63.7725 44.8411 63.4664 44.6485 63.3902 44.3498C62.5605 41.0954 61.5936 37.1614 60.9245 33.8932C60.9244 33.8929 60.9242 33.8925 60.9239 33.8924Z" fill="white"/>
      <path d="M51.7051 42.527C51.6717 42.1481 51.6394 41.7779 51.6099 41.407C51.5856 41.1002 51.3179 40.862 51.0092 40.8682C50.8601 40.8712 50.7095 40.8733 50.557 40.875C50.2363 40.8787 49.9706 40.6134 49.9753 40.2948L49.9956 38.9435C50.0001 38.6467 50.2391 38.4126 50.5377 38.4071C50.6559 38.405 50.7731 38.4024 50.8893 38.3997C51.1957 38.3926 51.4331 38.1416 51.4217 37.8367C51.389 36.9628 51.3555 35.9655 51.323 34.7604C51.315 34.4634 51.5439 34.2195 51.842 34.207L54.4955 34.0957C54.8109 34.0825 55.0819 34.3323 55.0933 34.6465C55.1335 35.7624 55.1667 36.701 55.199 37.51C55.2121 37.8385 55.5084 38.0912 55.835 38.0495C56.6894 37.9403 57.5558 37.8055 58.4707 37.6375C58.7623 37.584 59.053 37.7656 59.1319 38.0534L59.4936 39.3732C59.5781 39.6815 59.3878 39.9903 59.0754 40.0477C57.9465 40.2551 56.9006 40.4153 55.872 40.537C55.5795 40.5716 55.368 40.8245 55.3892 41.118C55.4176 41.512 55.4433 41.8743 55.4734 42.2334C55.8265 46.2824 56.1247 47.3417 56.8638 47.2692C57.3534 47.2212 57.4669 47.0831 57.2542 45.4147C57.209 45.0599 57.1659 44.7751 57.0815 44.3351C57.0217 44.0236 57.2281 43.7295 57.5414 43.6871L60.049 43.3476C60.354 43.3063 60.6425 43.52 60.6893 43.8248C60.7683 44.3402 60.8001 44.621 60.8222 44.9292C61.0676 48.0581 60.4043 49.5023 57.3846 49.7986C53.43 50.1867 52.238 48.5382 51.7051 42.527Z" fill="white"/>
      <path d="M76.5542 39.8025C76.5533 39.8026 76.5525 39.802 76.5524 39.8011C76.4224 38.7867 76.2721 38.0422 75.7262 37.503C75.3454 37.1223 74.7939 36.8939 74.017 36.97C73.8919 36.9823 73.7606 36.997 73.6221 37.0147C73.3421 37.0504 73.147 37.2975 73.167 37.5789C73.35 40.1565 73.5135 41.9986 73.8112 44.7219C73.8457 45.0373 73.6096 45.3104 73.2919 45.322L70.5899 45.4208C70.2916 45.4317 70.0306 45.2069 69.9981 44.9108C69.7577 42.7183 69.5957 41.0039 69.428 38.7817C69.4 38.4106 69.0214 38.1592 68.6786 38.2976C68.6442 38.3114 68.61 38.3254 68.576 38.3394C68.2914 38.457 67.9531 38.3332 67.8177 38.0507L67.1748 36.7096C67.0465 36.442 67.1461 36.1281 67.4119 36.0084C68.8131 35.3777 71.6066 34.447 73.91 34.2214C76.508 33.9669 77.9489 34.4188 78.8775 35.2513C79.7035 35.9866 80.0529 37.0792 80.2262 38.4319C80.4186 39.9344 80.4601 41.7319 80.4005 43.7203C80.3917 44.0113 80.1556 44.2378 79.8624 44.2389L77.2459 44.2492C76.9262 44.2505 76.6638 43.9858 76.6716 43.6685C76.697 42.6308 76.7266 41.1381 76.556 39.804C76.5559 39.8031 76.5551 39.8024 76.5542 39.8025Z" fill="white"/>
      <path d="M82.9172 48.2174C82.8907 48.0091 82.891 47.766 82.9196 47.4989C82.949 47.2249 83.2018 47.044 83.4795 47.0692L86.2062 47.3163C86.4664 47.3399 86.6399 47.5909 86.6727 47.8488C86.7352 48.339 87.3001 48.5345 88.4173 48.4248C90.2635 48.2436 91.11 47.464 90.9364 46.1021C90.8143 45.144 90.059 44.7331 88.6578 44.8706C88.2427 44.9113 87.7346 45.016 87.151 45.1847C86.9536 45.2417 86.7367 45.1904 86.5855 45.0453L85.9363 44.4222C85.7726 44.2652 85.7157 44.0284 85.7987 43.8236C85.9846 43.3647 86.2077 42.8825 86.4672 42.3792C86.6738 41.9785 86.3439 41.4783 85.8856 41.4762C83.5614 41.465 81.8753 40.6422 81.6643 38.9865C81.3306 36.3673 83.3928 34.7084 86.832 34.1945C87.034 34.1643 87.2024 34.0304 87.2779 33.8429C87.7649 32.6323 88.4873 31.5599 89.4005 30.6839C89.5864 30.5055 89.8783 30.4985 90.0917 30.6557L91.5768 31.7496C91.8672 31.9635 91.8907 32.3831 91.6415 32.6296C91.3028 32.9647 91.0128 33.3005 90.7758 33.6344C90.5683 33.9269 90.7546 34.3207 91.0962 34.4577C92.1508 34.8804 92.8563 35.6158 92.9918 36.679C93.1942 38.268 92.4106 39.5078 90.9406 40.3226C90.8517 40.3718 90.7766 40.4424 90.7265 40.5304C90.5044 40.9205 90.3119 41.2924 90.1528 41.6453C90.003 41.9776 90.2504 42.3475 90.6162 42.4159C90.7393 42.4389 90.8587 42.4651 90.972 42.4946C92.99 42.9846 94.7104 44.0481 94.918 45.6774C95.2977 48.6575 92.8049 50.4842 88.7338 50.8838C85.4205 51.2118 83.1845 50.3146 82.9172 48.2174ZM86.9019 39.1154C88.5304 38.9555 89.3659 38.3405 89.2328 37.2961C89.1497 36.6444 88.5349 36.3832 87.5471 36.4802C86.0165 36.6304 85.328 37.2705 85.4721 38.4012C85.5441 38.9666 86.0151 39.2024 86.9051 39.115L86.9019 39.1154Z" fill="white"/>
    </g>
    <g filter="url(#filter2_d_681_865)">
      <path d="M41.5943 65.8559C41.593 65.8551 41.5921 65.8538 41.5918 65.8523C41.2679 63.9292 40.9863 61.8933 40.7302 59.5591C40.6953 59.2415 40.919 58.9578 41.2362 58.9159L44.1499 58.5309C44.4876 58.4863 44.7989 58.7317 44.8356 59.0697C45.0359 60.9148 45.2494 62.5354 45.4845 64.056C45.539 64.4089 45.8918 64.6381 46.2373 64.5493C46.6608 64.4404 47.094 64.3318 47.5332 64.2227C47.8346 64.1478 48.0245 63.8547 47.9679 63.5488C47.6056 61.5904 47.1958 59.642 46.7669 57.7239C46.6961 57.4073 46.8904 57.0962 47.2056 57.0224L50.073 56.3514C50.399 56.2751 50.7288 56.4815 50.8025 56.8088C51.2326 58.721 51.6467 60.6942 52.0135 62.6816C52.0645 62.9576 52.3379 63.139 52.6128 63.0837C52.8716 63.0317 53.1279 63.1965 53.1902 63.4534L53.5845 65.0798C53.6643 65.4093 53.4541 65.7344 53.123 65.8038C53.1171 65.8051 53.1112 65.8063 53.1053 65.8075C52.7998 65.8717 52.6016 66.1621 52.6478 66.471C52.8094 67.55 52.9492 68.6244 53.0672 69.6857C53.1027 70.004 52.8772 70.2876 52.5589 70.328L49.6459 70.6981C49.3075 70.7411 48.9972 70.4935 48.9605 70.155C48.8654 69.2783 48.7494 68.3926 48.6247 67.5016C48.5752 67.1477 48.2258 66.9121 47.8799 67.0001C47.4489 67.1097 47.0281 67.2196 46.6168 67.3292C46.3179 67.4088 46.1347 67.7044 46.1962 68.0083C46.4076 69.0537 46.6322 70.093 46.8839 71.1789C46.9561 71.4904 46.7715 71.8001 46.4633 71.8821L43.6135 72.6401C43.2841 72.7277 42.9433 72.5221 42.867 72.189C42.6293 71.1524 42.4058 70.1425 42.1981 69.1226C42.1458 68.8654 41.869 68.7109 41.6205 68.7929C41.4104 68.8623 41.1916 68.7589 41.0951 68.5581L40.2754 66.8516C40.1477 66.5858 40.2782 66.2725 40.5573 66.1838C40.8787 66.0818 41.2238 65.9766 41.5932 65.865C41.5974 65.8638 41.598 65.8582 41.5943 65.8559Z" fill="#6B41E2"/>
    </g>
    <g filter="url(#filter3_d_681_865)">
      <path d="M73.0676 57.9492C76.7245 57.5394 79.1378 58.9867 79.4513 61.7597C79.7093 64.0425 78.2023 65.6223 75.4779 65.9276C74.665 66.0187 73.7852 65.988 72.8909 65.8495C72.5166 65.7916 72.1752 66.0948 72.2129 66.4716C72.2603 66.9464 72.3068 67.4157 72.3503 67.8788C72.381 68.2058 72.1218 68.4865 71.7933 68.4839L69.0727 68.4627C68.7859 68.4604 68.5475 68.2408 68.5208 67.9553C68.0478 62.8971 67.2438 56.9609 66.3567 52.0151C66.3013 51.7061 66.5109 51.4121 66.8213 51.3647L69.4931 50.9567C69.791 50.9112 70.0713 51.1106 70.1247 51.4072C70.4799 53.3808 70.8237 55.5182 71.1347 57.6976C71.1849 58.0499 71.5475 58.2661 71.8909 58.173C72.278 58.0681 72.6711 57.9936 73.0676 57.9492ZM71.5942 61.0869C71.5928 61.087 71.5918 61.0883 71.592 61.0897C71.6563 61.5877 71.7227 62.0855 71.7818 62.5795C71.8052 62.7743 71.9275 62.9448 72.1092 63.0191C73.0275 63.3941 73.9338 63.5686 74.6478 63.4886C75.4371 63.4002 75.8831 62.9263 75.8072 62.2544C75.6615 60.9657 74.6307 60.2865 73.0871 60.4595C72.594 60.5147 72.0778 60.737 71.5954 61.0864C71.595 61.0866 71.5946 61.0868 71.5942 61.0869Z" fill="#6B41E2"/>
    </g>
    <g filter="url(#filter4_d_681_865)">
      <path d="M55.4038 66.8763C55.1332 65.3753 55.4123 63.8761 56.2315 62.194C56.3346 61.9824 56.5669 61.8681 56.8026 61.9056L59.1381 62.2775C59.5201 62.3383 59.7321 62.7564 59.5851 63.1086C59.1043 64.26 58.9945 65.326 59.1787 66.3481C59.4345 67.7672 60.159 68.5568 61.1038 68.4035C62.5067 68.1759 62.8106 66.9385 62.5194 65.323C62.3193 64.2129 61.7061 62.7929 61.0131 61.7434C60.7861 61.3996 60.9373 60.913 61.3324 60.8088L63.566 60.2194C63.775 60.1643 64.0001 60.2345 64.1373 60.4041C65.3237 61.8707 66.0715 63.4323 66.2909 64.6493C66.8408 67.7003 65.3311 70.1865 61.5361 70.8023C58.0571 71.3667 55.8986 69.6216 55.4028 66.8709L55.4038 66.8763Z" fill="#6B41E2"/>
    </g>
    <path d="M19.6666 92.0516L18.8979 92.6913L20.1772 94.2286L20.9459 93.5889L19.6666 92.0516ZM48.509 88.9962L47.8726 89.7675L48.509 88.9962ZM44.2069 99.9905L44.9421 99.3126L44.2069 99.9905ZM66.7627 83.7863L67.0586 82.8311L66.7627 83.7863ZM93.702 75.6264C93.7737 75.0788 93.388 74.5767 92.8404 74.5049C92.2928 74.4332 91.7907 74.8189 91.7189 75.3665L93.702 75.6264ZM20.3062 92.8203C20.9459 93.5889 20.9457 93.5891 20.9455 93.5892C20.9455 93.5892 20.9455 93.5893 20.9455 93.5892C20.9457 93.5891 20.9461 93.5888 20.9467 93.5882C20.948 93.5872 20.9502 93.5853 20.9534 93.5827C20.9598 93.5774 20.9702 93.569 20.9843 93.5575C21.0125 93.5345 21.056 93.4994 21.1141 93.4534C21.2302 93.3613 21.4046 93.2254 21.6321 93.0546C22.0874 92.7129 22.7545 92.2324 23.5928 91.6845C25.2728 90.5867 27.6246 89.2289 30.3264 88.172C35.7599 86.0463 42.3601 85.2197 47.8726 89.7675L49.1454 88.2248C42.8032 82.9925 35.3019 84.0779 29.5977 86.3094C26.7307 87.431 24.2545 88.863 22.4988 90.0103C21.6193 90.585 20.9166 91.091 20.4315 91.455C20.1889 91.6371 20.0005 91.7839 19.8713 91.8864C19.8067 91.9376 19.757 91.9777 19.7226 92.0056C19.7055 92.0196 19.6922 92.0305 19.6828 92.0382C19.6781 92.0421 19.6744 92.0451 19.6717 92.0474C19.6703 92.0485 19.6692 92.0494 19.6684 92.0501C19.6679 92.0505 19.6675 92.0508 19.6673 92.051C19.6669 92.0513 19.6666 92.0516 20.3062 92.8203ZM47.8726 89.7675C50.0635 91.575 51.0741 93.3345 51.3929 94.8252C51.7101 96.309 51.3627 97.6119 50.6772 98.5881C49.9817 99.5783 48.9456 100.223 47.8975 100.387C46.8778 100.546 45.8138 100.258 44.9421 99.3126L43.4717 100.668C44.8147 102.125 46.5547 102.62 48.2054 102.363C49.8277 102.11 51.3286 101.14 52.3138 99.7376C53.3089 98.3207 53.786 96.4523 53.3487 94.4071C52.9128 92.3688 51.5899 90.2415 49.1454 88.2248L47.8726 89.7675ZM44.9421 99.3126C43.2862 97.5168 42.8482 95.5111 43.2892 93.5442C43.7396 91.5353 45.1312 89.4828 47.294 87.7575C51.6135 84.312 58.7858 82.3621 66.4668 84.7415L67.0586 82.8311C58.7454 80.2558 50.8844 82.3352 46.0468 86.194C43.6311 88.1209 41.9132 90.5394 41.3376 93.1066C40.7527 95.7158 41.3721 98.3913 43.4717 100.668L44.9421 99.3126ZM66.4668 84.7415C72.8281 86.7121 79.2455 86.7841 84.2659 85.2249C89.2755 83.669 93.0756 80.407 93.702 75.6264L91.7189 75.3665C91.2314 79.087 88.2581 81.8907 83.6727 83.3149C79.0979 84.7357 73.0983 84.7021 67.0586 82.8311L66.4668 84.7415Z" fill="white"/>
    <path fill-rule="evenodd" clip-rule="evenodd" d="M107.742 28.235C110.07 32.087 111.949 36.2474 113.303 40.6477L99.9121 70.6768L90.6301 66.6078L107.742 28.235Z" fill="white"/>
    <path fill-rule="evenodd" clip-rule="evenodd" d="M107.895 39.2484C108.489 39.5307 108.751 40.2512 108.479 40.8577L98.3175 63.5423C98.0458 64.1487 97.3436 64.4115 96.7491 64.1292C96.1547 63.8469 95.893 63.1263 96.1647 62.5198L106.326 39.8353C106.598 39.2288 107.3 38.966 107.895 39.2484Z" fill="#21C39A"/>
    <path d="M93.1617 76.6077C92.5568 77.1418 91.601 76.7765 91.5066 75.9751L90.4754 67.2201C90.3875 66.4737 91.1236 65.9007 91.8256 66.1691L99.4649 69.0892C100.167 69.3575 100.333 70.2754 99.7698 70.7729L93.1617 76.6077Z" fill="white"/>
    <path d="M93.9917 72.415C93.7007 72.6191 93.2956 72.4629 93.217 72.1163L92.3109 68.1214C92.2224 67.7312 92.6051 67.4003 92.9784 67.5443L97.2383 69.1872C97.6116 69.3311 97.6731 69.8333 97.3455 70.063L93.9917 72.415Z" fill="#21C39A"/>
    <path d="M114.648 56.9743C114.648 87.3887 89.9328 112.049 59.4394 112.049C28.9461 112.049 4.23047 87.3887 4.23047 56.9743C4.23047 26.56 28.9461 1.90015 59.4394 1.90015C89.9328 1.90015 114.648 26.56 114.648 56.9743Z" stroke="#60DDBD" stroke-width="2"/>
  </g>
  <defs>
    <filter id="filter0_d_681_865" x="3.23047" y="0.900146" width="112.418" height="117.148" filterUnits="userSpaceOnUse" color-interpolation-filters="sRGB">
      <feFlood flood-opacity="0" result="BackgroundImageFix"/>
      <feColorMatrix in="SourceAlpha" type="matrix" values="0 0 0 0 0 0 0 0 0 0 0 0 0 0 0 0 0 0 127 0" result="hardAlpha"/>
      <feOffset dy="5"/>
      <feComposite in2="hardAlpha" operator="out"/>
      <feColorMatrix type="matrix" values="0 0 0 0 0.254948 0 0 0 0 0.6875 0 0 0 0 0.578027 0 0 0 1 0"/>
      <feBlend mode="normal" in2="BackgroundImageFix" result="effect1_dropShadow_681_865"/>
      <feBlend mode="normal" in="SourceGraphic" in2="effect1_dropShadow_681_865" result="shape"/>
    </filter>
    <filter id="filter1_d_681_865" x="15.3447" y="28.1321" width="79.6113" height="23.6926" filterUnits="userSpaceOnUse" color-interpolation-filters="sRGB">
      <feFlood flood-opacity="0" result="BackgroundImageFix"/>
      <feColorMatrix in="SourceAlpha" type="matrix" values="0 0 0 0 0 0 0 0 0 0 0 0 0 0 0 0 0 0 127 0" result="hardAlpha"/>
      <feOffset dy="0.875"/>
      <feComposite in2="hardAlpha" operator="out"/>
      <feColorMatrix type="matrix" values="0 0 0 0 0 0 0 0 0 0 0 0 0 0 0 0 0 0 0.25 0"/>
      <feBlend mode="normal" in2="BackgroundImageFix" result="effect1_dropShadow_681_865"/>
      <feBlend mode="normal" in="SourceGraphic" in2="effect1_dropShadow_681_865" result="shape"/>
    </filter>
    <filter id="filter2_d_681_865" x="40.2266" y="56.3354" width="13.375" height="17.2" filterUnits="userSpaceOnUse" color-interpolation-filters="sRGB">
      <feFlood flood-opacity="0" result="BackgroundImageFix"/>
      <feColorMatrix in="SourceAlpha" type="matrix" values="0 0 0 0 0 0 0 0 0 0 0 0 0 0 0 0 0 0 127 0" result="hardAlpha"/>
      <feOffset dy="0.875"/>
      <feComposite in2="hardAlpha" operator="out"/>
      <feColorMatrix type="matrix" values="0 0 0 0 0 0 0 0 0 0 0 0 0 0 0 0 0 0 0.25 0"/>
      <feBlend mode="normal" in2="BackgroundImageFix" result="effect1_dropShadow_681_865"/>
      <feBlend mode="normal" in="SourceGraphic" in2="effect1_dropShadow_681_865" result="shape"/>
    </filter>
    <filter id="filter3_d_681_865" x="66.3477" y="50.9502" width="13.1318" height="18.4087" filterUnits="userSpaceOnUse" color-interpolation-filters="sRGB">
      <feFlood flood-opacity="0" result="BackgroundImageFix"/>
      <feColorMatrix in="SourceAlpha" type="matrix" values="0 0 0 0 0 0 0 0 0 0 0 0 0 0 0 0 0 0 127 0" result="hardAlpha"/>
      <feOffset dy="0.875"/>
      <feComposite in2="hardAlpha" operator="out"/>
      <feColorMatrix type="matrix" values="0 0 0 0 0 0 0 0 0 0 0 0 0 0 0 0 0 0 0.25 0"/>
      <feBlend mode="normal" in2="BackgroundImageFix" result="effect1_dropShadow_681_865"/>
      <feBlend mode="normal" in="SourceGraphic" in2="effect1_dropShadow_681_865" result="shape"/>
    </filter>
    <filter id="filter4_d_681_865" x="55.3037" y="60.2009" width="11.0967" height="11.5823" filterUnits="userSpaceOnUse" color-interpolation-filters="sRGB">
      <feFlood flood-opacity="0" result="BackgroundImageFix"/>
      <feColorMatrix in="SourceAlpha" type="matrix" values="0 0 0 0 0 0 0 0 0 0 0 0 0 0 0 0 0 0 127 0" result="hardAlpha"/>
      <feOffset dy="0.875"/>
      <feComposite in2="hardAlpha" operator="out"/>
      <feColorMatrix type="matrix" values="0 0 0 0 0 0 0 0 0 0 0 0 0 0 0 0 0 0 0.25 0"/>
      <feBlend mode="normal" in2="BackgroundImageFix" result="effect1_dropShadow_681_865"/>
      <feBlend mode="normal" in="SourceGraphic" in2="effect1_dropShadow_681_865" result="shape"/>
    </filter>
  </defs>
</svg>