<svg width="190" height="348" viewBox="0 0 190 348" fill="none" xmlns="http://www.w3.org/2000/svg">
<mask id="path-1-inside-1_679_869" fill="white">
<path fillRule="evenodd" clipRule="evenodd" d="M0 20C0 8.9543 8.95431 0 20 0H180C185.523 0 190 4.47715 190 10V308.75C183.862 322.629 183.652 330.988 188.365 343.825C189.102 345.83 187.653 348 185.516 348H19.625C8.78641 348 0 339.214 0 328.375C0 327.913 0.0159809 327.454 0.0474203 327H0V308.75V20Z"/>
</mask>
<path d="M0 20C0 8.9543 8.95431 0 20 0H180C185.523 0 190 4.47715 190 10V308.75H0V20Z" fill="#E5E8F3"/>
<path d="M0 20C0 8.9543 8.95431 0 20 0V327H0V20Z" fill="#DCE1F5"/>
<path d="M0 328.375C0 317.536 8.78641 308.75 19.625 308.75H190C183.862 322.629 183.652 330.988 188.365 343.825C189.102 345.83 187.653 348 185.516 348H19.625C8.78641 348 0 339.214 0 328.375Z" fill="#D0D7F0"/>
<path d="M10.1875 328.375C10.1875 322.278 15.1303 317.335 21.2276 317.335H179.812C176.505 325.957 176.625 330.793 179.812 339.415H21.2276C15.1303 339.415 10.1875 334.472 10.1875 328.375Z" fill="white"/>
<path d="M190 308.75L192.744 309.963L193 309.384V308.75H190ZM188.365 343.825L191.181 342.791L188.365 343.825ZM0.0474203 327L3.04026 327.207L3.26223 324H0.0474203V327ZM0 327H-3V330H0V327ZM20 -3C7.29745 -3 -3 7.29745 -3 20H3C3 10.6112 10.6112 3 20 3V-3ZM180 -3H20V3H180V-3ZM193 10C193 2.8203 187.18 -3 180 -3V3C183.866 3 187 6.13401 187 10H193ZM193 308.75V10H187V308.75H193ZM187.256 307.537C184.107 314.657 182.369 320.603 182.116 326.551C181.863 332.515 183.114 338.228 185.549 344.859L191.181 342.791C188.903 336.585 187.903 331.7 188.111 326.806C188.319 321.895 189.754 316.722 192.744 309.963L187.256 307.537ZM185.549 344.859C185.556 344.877 185.558 344.889 185.559 344.897C185.559 344.905 185.559 344.912 185.558 344.921C185.556 344.939 185.548 344.962 185.534 344.982C185.521 345.002 185.511 345.006 185.515 345.004C185.518 345.003 185.521 345.001 185.525 345C185.53 344.999 185.528 345 185.516 345V351C189.836 351 192.603 346.661 191.181 342.791L185.549 344.859ZM185.516 345H19.625V351H185.516V345ZM19.625 345C10.4433 345 3 337.557 3 328.375H-3C-3 340.87 7.12956 351 19.625 351V345ZM3 328.375C3 327.982 3.01359 327.592 3.04026 327.207L-2.94542 326.793C-2.98163 327.316 -3 327.844 -3 328.375H3ZM0 330H0.0474203V324H0V330ZM-3 308.75V327H3V308.75H-3ZM-3 20V308.75H3V20H-3Z" fill="#21C39A" mask="url(#path-1-inside-1_679_869)"/>
</svg>