<svg width="124" height="30" viewBox="0 0 124 30" fill="none" xmlns="http://www.w3.org/2000/svg">
    <path fill="#fff" d="M0 0h124v30H0z"/>
    <path d="M25.782 20.154c-1.064 0-1.974-.21-2.73-.63a4.362 4.362 0 0 1-1.75-1.764c-.401-.765-.602-1.666-.602-2.702 0-.775.112-1.47.336-2.086a4.396 4.396 0 0 1 1.008-1.596c.439-.448.97-.793 1.596-1.036.635-.243 1.349-.364 2.142-.364.467 0 .938.06 1.414.182.485.112.905.275 1.26.49.233.13.392.294.476.49a.993.993 0 0 1 .07.588.909.909 0 0 1-.238.504.802.802 0 0 1-.462.266c-.187.037-.397-.005-.63-.126a3.149 3.149 0 0 0-.882-.364 3.966 3.966 0 0 0-.938-.112c-.625 0-1.153.126-1.582.378-.42.243-.737.597-.952 1.064-.215.467-.322 1.04-.322 1.722 0 .672.107 1.246.322 1.722.215.476.532.84.952 1.092.43.243.957.364 1.582.364.299 0 .602-.037.91-.112.317-.075.62-.191.91-.35.243-.121.457-.163.644-.126a.747.747 0 0 1 .476.252c.13.13.21.29.238.476a.968.968 0 0 1-.056.56 1.018 1.018 0 0 1-.42.476c-.345.233-.77.415-1.274.546a5.949 5.949 0 0 1-1.498.196zm7.412 0c-.737 0-1.381-.145-1.932-.434a3.058 3.058 0 0 1-1.26-1.246c-.299-.541-.448-1.18-.448-1.918 0-.55.084-1.045.252-1.484a3.064 3.064 0 0 1 1.89-1.834 4.239 4.239 0 0 1 1.498-.252c.737 0 1.377.145 1.918.434.55.29.975.7 1.274 1.232.308.532.462 1.167.462 1.904 0 .56-.088 1.06-.266 1.498a3.2 3.2 0 0 1-.728 1.134c-.317.317-.704.56-1.162.728a4.463 4.463 0 0 1-1.498.238zm0-1.582c.308 0 .574-.075.798-.224.224-.15.402-.369.532-.658.13-.299.196-.677.196-1.134 0-.681-.14-1.18-.42-1.498-.28-.327-.648-.49-1.106-.49-.299 0-.565.07-.798.21-.224.14-.401.36-.532.658-.121.29-.182.663-.182 1.12 0 .681.14 1.19.42 1.526.28.327.644.49 1.092.49zm6.004 1.554c-.345 0-.611-.093-.798-.28-.177-.187-.266-.453-.266-.798v-4.97c0-.345.089-.607.266-.784.187-.187.444-.28.77-.28.336 0 .593.093.77.28.178.177.266.439.266.784v.798l-.154-.462c.215-.457.532-.807.952-1.05.43-.252.915-.378 1.456-.378.55 0 1.004.107 1.358.322.355.205.62.523.798.952.178.42.266.957.266 1.61v3.178c0 .345-.093.611-.28.798-.177.187-.438.28-.784.28-.336 0-.597-.093-.784-.28-.177-.187-.266-.453-.266-.798v-3.08c0-.476-.088-.817-.266-1.022-.168-.215-.43-.322-.784-.322-.448 0-.807.14-1.078.42-.261.28-.392.653-.392 1.12v2.884c0 .719-.35 1.078-1.05 1.078zm10.106 0c-.27 0-.509-.07-.714-.21-.205-.15-.369-.369-.49-.658l-2.114-4.872a1.278 1.278 0 0 1-.112-.672.707.707 0 0 1 .294-.504c.177-.13.42-.196.728-.196.252 0 .457.06.616.182.159.112.299.331.42.658l1.652 4.2h-.448l1.722-4.214c.13-.317.275-.532.434-.644.159-.121.378-.182.658-.182.243 0 .434.065.574.196.15.121.238.285.266.49.037.205 0 .43-.112.672l-2.156 4.886c-.121.299-.285.518-.49.658-.196.14-.439.21-.728.21zm7.972.028c-.812 0-1.512-.145-2.1-.434a3.276 3.276 0 0 1-1.343-1.246c-.308-.541-.462-1.176-.462-1.904 0-.71.149-1.33.447-1.862a3.174 3.174 0 0 1 1.247-1.26c.54-.308 1.152-.462 1.834-.462.494 0 .942.084 1.343.252a2.91 2.91 0 0 1 1.694 1.806c.15.43.224.91.224 1.442 0 .177-.055.313-.167.406-.113.084-.276.126-.49.126h-4.397v-1.092h3.529l-.224.196c0-.383-.056-.7-.169-.952a1.23 1.23 0 0 0-.49-.588c-.205-.13-.462-.196-.77-.196-.345 0-.639.08-.882.238-.242.159-.429.387-.56.686-.13.299-.196.658-.196 1.078v.112c0 .71.164 1.232.49 1.568.336.336.831.504 1.484.504.224 0 .481-.028.77-.084.29-.056.56-.145.813-.266.214-.103.405-.135.573-.098a.597.597 0 0 1 .393.224.744.744 0 0 1 .154.42.8.8 0 0 1-.099.476.987.987 0 0 1-.42.378 3.785 3.785 0 0 1-1.078.392c-.392.093-.774.14-1.148.14zm5.178-.028c-.345 0-.611-.093-.798-.28-.177-.187-.266-.453-.266-.798v-4.97c0-.345.089-.607.266-.784.187-.187.444-.28.77-.28.336 0 .593.093.77.28.178.177.266.439.266.784v.798l-.154-.462c.215-.457.532-.807.952-1.05.43-.252.915-.378 1.456-.378.55 0 1.004.107 1.358.322.355.205.62.523.798.952.177.42.266.957.266 1.61v3.178c0 .345-.093.611-.28.798-.177.187-.439.28-.784.28-.336 0-.597-.093-.784-.28-.177-.187-.266-.453-.266-.798v-3.08c0-.476-.088-.817-.266-1.022-.168-.215-.43-.322-.784-.322-.448 0-.807.14-1.078.42-.261.28-.392.653-.392 1.12v2.884c0 .719-.35 1.078-1.05 1.078zm10.636.028c-.644 0-1.185-.107-1.624-.322a2.137 2.137 0 0 1-.966-.938c-.205-.41-.308-.929-.308-1.554v-2.632h-.588c-.261 0-.466-.07-.616-.21-.14-.14-.21-.331-.21-.574 0-.261.07-.457.21-.588.15-.14.355-.21.616-.21h.588v-1.064c0-.355.094-.62.28-.798.187-.187.448-.28.784-.28.346 0 .607.093.784.28.178.177.266.443.266.798v1.064h1.33c.262 0 .462.07.602.21.14.13.21.327.21.588 0 .243-.07.434-.21.574-.14.14-.34.21-.602.21h-1.33v2.548c0 .392.089.686.266.882.187.196.481.294.882.294.14 0 .271-.014.392-.042a2.51 2.51 0 0 1 .336-.056c.131-.01.238.033.322.126.084.084.126.275.126.574 0 .224-.037.42-.112.588a.686.686 0 0 1-.392.364c-.121.047-.289.084-.504.112a3.039 3.039 0 0 1-.532.056zm3.57-.042c-.346 0-.612-.098-.799-.294-.177-.205-.266-.49-.266-.854v-4.788c0-.373.089-.658.266-.854.187-.205.453-.308.798-.308.336 0 .593.103.77.308.187.196.28.48.28.854v4.788c0 .364-.088.649-.266.854-.177.196-.439.294-.784.294zm0-8.246c-.393 0-.696-.089-.91-.266-.206-.187-.309-.448-.309-.784 0-.345.103-.607.308-.784.215-.187.518-.28.91-.28s.69.093.896.28c.205.177.308.439.308.784 0 .336-.103.597-.308.784-.205.177-.504.266-.896.266zm5.985 8.288c-.737 0-1.381-.145-1.932-.434a3.058 3.058 0 0 1-1.26-1.246c-.298-.541-.448-1.18-.448-1.918 0-.55.084-1.045.252-1.484a3.064 3.064 0 0 1 1.89-1.834 4.239 4.239 0 0 1 1.498-.252c.738 0 1.377.145 1.918.434.551.29.976.7 1.274 1.232.308.532.462 1.167.462 1.904 0 .56-.088 1.06-.266 1.498a3.2 3.2 0 0 1-.728 1.134c-.317.317-.704.56-1.162.728a4.463 4.463 0 0 1-1.498.238zm0-1.582c.308 0 .574-.075.798-.224.224-.15.402-.369.532-.658.131-.299.196-.677.196-1.134 0-.681-.14-1.18-.42-1.498-.28-.327-.648-.49-1.106-.49-.298 0-.564.07-.798.21-.224.14-.401.36-.532.658-.121.29-.182.663-.182 1.12 0 .681.14 1.19.42 1.526.28.327.644.49 1.092.49zm6.004 1.554c-.345 0-.61-.093-.798-.28-.177-.187-.266-.453-.266-.798v-4.97c0-.345.09-.607.266-.784.187-.187.444-.28.77-.28.336 0 .593.093.77.28.178.177.266.439.266.784v.798l-.154-.462c.215-.457.532-.807.952-1.05.43-.252.915-.378 1.456-.378.551 0 1.004.107 1.358.322.355.205.621.523.798.952.178.42.266.957.266 1.61v3.178c0 .345-.093.611-.28.798-.177.187-.438.28-.784.28-.336 0-.597-.093-.784-.28-.177-.187-.266-.453-.266-.798v-3.08c0-.476-.088-.817-.266-1.022-.168-.215-.429-.322-.784-.322-.448 0-.807.14-1.078.42-.26.28-.392.653-.392 1.12v2.884c0 .719-.35 1.078-1.05 1.078zm9.895.028c-.411 0-.836-.037-1.274-.112a4.24 4.24 0 0 1-1.176-.378.95.95 0 0 1-.406-.35.869.869 0 0 1-.098-.448.786.786 0 0 1 .14-.406c.093-.121.21-.2.35-.238a.7.7 0 0 1 .49.042c.382.159.732.27 1.05.336.317.065.63.098.938.098.4 0 .69-.06.868-.182.186-.13.28-.299.28-.504 0-.187-.061-.327-.182-.42-.122-.093-.3-.159-.532-.196l-1.47-.266c-.58-.103-1.027-.313-1.344-.63-.308-.327-.462-.742-.462-1.246 0-.467.13-.868.392-1.204.26-.345.62-.607 1.078-.784.466-.187.994-.28 1.582-.28.42 0 .807.037 1.162.112.354.075.695.196 1.022.364a.726.726 0 0 1 .35.336.65.65 0 0 1 .07.434.829.829 0 0 1-.168.406.647.647 0 0 1-.364.238c-.14.037-.304.019-.49-.056a4.042 4.042 0 0 0-.826-.294 2.9 2.9 0 0 0-.728-.098c-.42 0-.724.07-.91.21-.187.13-.28.299-.28.504a.58.58 0 0 0 .154.406c.112.103.28.173.504.21l1.47.266c.606.103 1.068.308 1.386.616.317.299.476.71.476 1.232 0 .71-.28 1.27-.84 1.68-.551.401-1.288.602-2.212.602z" fill="#333"/>
    <rect y="13" width="14" height="4" rx="2" fill="#DB5757"/>
</svg>
