<svg width="128" height="30" viewBox="0 0 128 30" fill="none" xmlns="http://www.w3.org/2000/svg">
    <path fill="#fff" d="M0 0h128v30H0z"/>
    <rect y="13" width="14" height="4" rx="2" fill="#30C194"/>
    <path d="m23.304 19.272-2.744-7.7a1.4 1.4 0 0 1-.084-.406c0-.602.504-1.05 1.106-1.05.504 0 .91.322 1.05.77l1.946 6.006 1.96-5.95c.168-.504.546-.854 1.092-.854h.168c.546 0 .924.336 1.092.854l1.96 5.95 1.946-6.006c.14-.42.504-.77 1.036-.77.588 0 1.064.448 1.064 1.036 0 .126-.042.294-.084.42l-2.744 7.7c-.196.546-.602.882-1.12.882h-.224c-.518 0-.91-.322-1.106-.882l-1.932-5.614-1.932 5.614c-.196.56-.588.882-1.106.882h-.224c-.518 0-.924-.336-1.12-.882zm16.068.896c-2.324 0-4.046-1.722-4.046-3.878v-.028c0-2.156 1.736-3.906 4.074-3.906 2.324 0 4.046 1.722 4.046 3.878v.028c0 2.156-1.736 3.906-4.074 3.906zm.028-1.834c1.218 0 1.946-.938 1.946-2.044v-.028c0-1.106-.798-2.072-1.974-2.072-1.218 0-1.946.938-1.946 2.044v.028c0 1.106.798 2.072 1.974 2.072zm5.587.686v-5.544a1.064 1.064 0 1 1 2.128 0v.336c.308-.728.812-1.4 1.442-1.4.658 0 1.036.434 1.036 1.036 0 .56-.364.896-.798.994-1.078.252-1.68 1.078-1.68 2.59v1.988a1.064 1.064 0 1 1-2.128 0zm13.261-8.26v8.26a1.064 1.064 0 1 1-2.128 0v-.098c-.518.7-1.232 1.218-2.338 1.218-1.75 0-3.416-1.372-3.416-3.878v-.028c0-2.506 1.638-3.878 3.416-3.878 1.134 0 1.834.518 2.338 1.12V10.76a1.064 1.064 0 1 1 2.128 0zm-3.92 3.402c-.994 0-1.834.812-1.834 2.072v.028c0 1.246.84 2.072 1.834 2.072.994 0 1.82-.826 1.82-2.072v-.028c0-1.246-.826-2.072-1.82-2.072zm14.834 6.006c-2.884 0-5.026-2.226-5.026-5.04V15.1c0-2.786 2.1-5.068 5.11-5.068 1.47 0 2.465.392 3.276.994.224.168.42.476.42.854 0 .588-.475 1.05-1.063 1.05-.294 0-.49-.112-.645-.21-.602-.448-1.231-.7-2.001-.7-1.653 0-2.843 1.372-2.843 3.052v.028c0 1.68 1.162 3.08 2.843 3.08.91 0 1.511-.28 2.127-.77.168-.14.392-.238.644-.238a1.01 1.01 0 0 1 1.008.994c0 .336-.168.602-.364.77-.882.77-1.917 1.232-3.486 1.232zm5.52-1.148v-8.26a1.064 1.064 0 1 1 2.129 0v2.8c.49-.63 1.12-1.204 2.197-1.204 1.61 0 2.549 1.064 2.549 2.786v3.878a1.064 1.064 0 1 1-2.129 0v-3.206c0-1.008-.475-1.526-1.287-1.526-.813 0-1.33.518-1.33 1.526v3.206a1.064 1.064 0 1 1-2.129 0zm12.405 1.148c-2.324 0-4.046-1.722-4.046-3.878v-.028c0-2.156 1.736-3.906 4.074-3.906 2.324 0 4.046 1.722 4.046 3.878v.028c0 2.156-1.736 3.906-4.074 3.906zm.028-1.834c1.218 0 1.946-.938 1.946-2.044v-.028c0-1.106-.798-2.072-1.974-2.072-1.218 0-1.946.938-1.946 2.044v.028c0 1.106.798 2.072 1.974 2.072zm5.559-7.602v-.028c0-.616.518-.994 1.19-.994.672 0 1.19.378 1.19.994v.028c0 .616-.518 1.008-1.19 1.008-.672 0-1.19-.392-1.19-1.008zm.126 8.288v-5.544a1.064 1.064 0 1 1 2.128 0v5.544a1.064 1.064 0 1 1-2.128 0zm7.669 1.148c-2.254 0-3.906-1.736-3.906-3.878v-.028c0-2.142 1.638-3.906 3.934-3.906 1.134 0 1.932.308 2.562.84.14.112.336.364.336.728a.956.956 0 0 1-.966.952c-.28 0-.49-.112-.616-.21-.378-.294-.77-.476-1.33-.476-1.064 0-1.82.938-1.82 2.044v.028c0 1.148.742 2.072 1.904 2.072.56 0 .994-.196 1.4-.518a.99.99 0 0 1 .574-.196c.504 0 .896.406.896.91 0 .28-.126.504-.308.672-.63.574-1.428.966-2.66.966zm5.973-4.508h3.206c-.126-.952-.686-1.596-1.582-1.596-.882 0-1.456.63-1.624 1.596zm4.438 3.598c-.658.56-1.512.91-2.604.91-2.254 0-3.92-1.582-3.92-3.878v-.028c0-2.142 1.526-3.906 3.71-3.906 2.506 0 3.612 2.058 3.612 3.612 0 .616-.434 1.022-.994 1.022h-4.214c.21.966.882 1.47 1.834 1.47.588 0 1.078-.182 1.512-.504a.794.794 0 0 1 .518-.168c.476 0 .826.364.826.84 0 .28-.126.49-.28.63z" fill="#333"/>
</svg>
