<svg width="161" height="30" viewBox="0 0 161 30" fill="none" xmlns="http://www.w3.org/2000/svg">
    <path fill="#fff" d="M0 0h161v30H0z"/>
    <path d="M24.662 20.14a6.326 6.326 0 0 1-3.682-1.176 1.007 1.007 0 0 1-.406-.812c0-.56.448-.994 1.008-.994.28 0 .476.098.616.196.742.546 1.554.882 2.506.882.882 0 1.414-.35 1.414-.924v-.028c0-.546-.336-.826-1.974-1.246-1.974-.504-3.248-1.05-3.248-2.996v-.028c0-1.778 1.428-2.954 3.43-2.954 1.19 0 2.226.308 3.108.868.238.14.476.434.476.854 0 .56-.448.994-1.008.994-.21 0-.378-.056-.546-.154-.714-.42-1.386-.658-2.058-.658-.826 0-1.26.378-1.26.854v.028c0 .644.42.854 2.114 1.288 1.988.518 3.108 1.232 3.108 2.94v.028c0 1.946-1.484 3.038-3.598 3.038zm6.967-4.48h3.206c-.126-.952-.686-1.596-1.582-1.596-.882 0-1.456.63-1.624 1.596zm4.438 3.598c-.658.56-1.512.91-2.604.91-2.254 0-3.92-1.582-3.92-3.878v-.028c0-2.142 1.526-3.906 3.71-3.906 2.506 0 3.612 2.058 3.612 3.612 0 .616-.434 1.022-.994 1.022h-4.214c.21.966.882 1.47 1.834 1.47.588 0 1.078-.182 1.512-.504a.794.794 0 0 1 .518-.168c.476 0 .826.364.826.84 0 .28-.126.49-.28.63zm2.426-.238v-5.544a1.064 1.064 0 1 1 2.128 0v.084c.49-.63 1.12-1.204 2.198-1.204 1.61 0 2.548 1.064 2.548 2.786v3.878a1.064 1.064 0 1 1-2.128 0v-3.206c0-1.008-.476-1.526-1.288-1.526s-1.33.518-1.33 1.526v3.206a1.064 1.064 0 1 1-2.128 0zm11.257 1.106c-1.302 0-2.184-.518-2.184-2.254v-3.556h-.07a.908.908 0 0 1-.91-.91c0-.504.406-.91.91-.91h.07v-.938a1.064 1.064 0 1 1 2.128 0v.938h.938c.504 0 .91.406.91.91s-.406.91-.91.91h-.938v3.206c0 .49.21.728.686.728.07 0 .21-.014.252-.014.476 0 .882.392.882.882a.866.866 0 0 1-.546.798c-.392.154-.756.21-1.218.21zm4.793-4.466h3.206c-.126-.952-.686-1.596-1.582-1.596-.882 0-1.456.63-1.624 1.596zm4.438 3.598c-.658.56-1.512.91-2.604.91-2.254 0-3.92-1.582-3.92-3.878v-.028c0-2.142 1.526-3.906 3.71-3.906 2.506 0 3.612 2.058 3.612 3.612 0 .616-.434 1.022-.994 1.022h-4.214c.21.966.882 1.47 1.834 1.47.588 0 1.078-.182 1.512-.504a.794.794 0 0 1 .518-.168c.476 0 .826.364.826.84 0 .28-.126.49-.28.63zm2.426-.238v-5.544a1.064 1.064 0 1 1 2.128 0v.084c.49-.63 1.12-1.204 2.198-1.204 1.61 0 2.548 1.064 2.548 2.786v3.878a1.064 1.064 0 1 1-2.128 0v-3.206c0-1.008-.476-1.526-1.288-1.526s-1.33.518-1.33 1.526v3.206a1.064 1.064 0 1 1-2.128 0zm12.265 1.148c-2.254 0-3.906-1.736-3.906-3.878v-.028c0-2.142 1.638-3.906 3.934-3.906 1.134 0 1.932.308 2.562.84.14.112.336.364.336.728a.956.956 0 0 1-.966.952c-.28 0-.49-.112-.616-.21-.378-.294-.77-.476-1.33-.476-1.064 0-1.82.938-1.82 2.044v.028c0 1.148.742 2.072 1.904 2.072.56 0 .994-.196 1.4-.518a.99.99 0 0 1 .574-.196c.504 0 .896.406.896.91 0 .28-.126.504-.308.672-.63.574-1.428.966-2.66.966zm5.973-4.508h3.206c-.126-.952-.686-1.596-1.582-1.596-.882 0-1.456.63-1.624 1.596zm4.438 3.598c-.658.56-1.512.91-2.604.91-2.254 0-3.92-1.582-3.92-3.878v-.028c0-2.142 1.526-3.906 3.71-3.906 2.506 0 3.612 2.058 3.612 3.612 0 .616-.434 1.022-.994 1.022h-4.214c.21.966.882 1.47 1.834 1.47.588 0 1.078-.182 1.512-.504a.794.794 0 0 1 .518-.168c.476 0 .826.364.826.84 0 .28-.126.49-.28.63zm6.847-.252v-7.728a1.07 1.07 0 0 1 1.078-1.078h5.488c.546 0 .98.434.98.98s-.434.98-.98.98h-4.41v2.086h3.78c.546 0 .98.434.98.98s-.434.98-.98.98h-3.78v2.8a1.07 1.07 0 0 1-1.078 1.078 1.07 1.07 0 0 1-1.078-1.078zm9.061.014v-8.26a1.063 1.063 0 1 1 2.128 0v8.26a1.064 1.064 0 1 1-2.128 0zm10.945-5.544v5.544a1.064 1.064 0 1 1-2.128 0v-.084c-.49.63-1.12 1.204-2.198 1.204-1.61 0-2.548-1.064-2.548-2.786v-3.878a1.064 1.064 0 1 1 2.128 0v3.206c0 1.008.476 1.526 1.288 1.526s1.33-.518 1.33-1.526v-3.206a1.064 1.064 0 1 1 2.128 0zm3.627 2.184h3.206c-.126-.952-.686-1.596-1.582-1.596-.882 0-1.456.63-1.624 1.596zm4.438 3.598c-.658.56-1.512.91-2.604.91-2.254 0-3.92-1.582-3.92-3.878v-.028c0-2.142 1.526-3.906 3.71-3.906 2.506 0 3.612 2.058 3.612 3.612 0 .616-.434 1.022-.994 1.022h-4.214c.21.966.882 1.47 1.834 1.47.588 0 1.078-.182 1.512-.504a.794.794 0 0 1 .518-.168c.476 0 .826.364.826.84 0 .28-.126.49-.28.63zm2.426-.238v-5.544a1.064 1.064 0 1 1 2.128 0v.084c.49-.63 1.12-1.204 2.198-1.204 1.61 0 2.548 1.064 2.548 2.786v3.878a1.064 1.064 0 1 1-2.128 0v-3.206c0-1.008-.476-1.526-1.288-1.526s-1.33.518-1.33 1.526v3.206a1.064 1.064 0 1 1-2.128 0zm12.264 1.148c-2.254 0-3.906-1.736-3.906-3.878v-.028c0-2.142 1.638-3.906 3.934-3.906 1.134 0 1.932.308 2.562.84.14.112.336.364.336.728a.956.956 0 0 1-.966.952c-.28 0-.49-.112-.616-.21-.378-.294-.77-.476-1.33-.476-1.064 0-1.82.938-1.82 2.044v.028c0 1.148.742 2.072 1.904 2.072.56 0 .994-.196 1.4-.518a.99.99 0 0 1 .574-.196c.504 0 .896.406.896.91 0 .28-.126.504-.308.672-.63.574-1.428.966-2.66.966zm6.01 2.114c-.476 0-.812-.07-1.162-.196-.308-.112-.672-.364-.672-.882s.406-.868.84-.868c.168 0 .266.028.35.056.182.056.294.084.448.084.378 0 .56-.07.756-.448l.07-.168-2.562-5.936a1.552 1.552 0 0 1-.112-.49c0-.602.462-1.022 1.05-1.022.532 0 .84.294 1.022.798l1.624 4.368 1.568-4.354c.168-.448.476-.812 1.022-.812s1.008.42 1.008.98c0 .168-.056.406-.098.504l-2.618 6.286c-.63 1.526-1.26 2.1-2.534 2.1z" fill="#333"/>
    <rect y="13" width="14" height="4" rx="2" fill="#6865CC"/>
</svg>
