<svg width="161" height="30" viewBox="0 0 161 30" fill="none" xmlns="http://www.w3.org/2000/svg">
    <path fill="#fff" d="M0 0h161v30H0z"/>
    <rect y="13" width="14" height="4" rx="2" fill="#F6914D"/>
    <path d="M25.572 20.154c-.97 0-1.825-.21-2.562-.63a4.513 4.513 0 0 1-1.708-1.792c-.401-.765-.602-1.657-.602-2.674 0-.775.112-1.47.336-2.086a4.494 4.494 0 0 1 .994-1.596c.43-.448.943-.793 1.54-1.036a5.343 5.343 0 0 1 2.002-.364c.99 0 1.848.21 2.576.63a4.324 4.324 0 0 1 1.694 1.778c.41.756.616 1.643.616 2.66 0 .775-.117 1.475-.35 2.1a4.638 4.638 0 0 1-.994 1.61c-.43.448-.943.793-1.54 1.036-.597.243-1.265.364-2.002.364zm0-1.848c.55 0 1.017-.126 1.4-.378.392-.261.69-.635.896-1.12.215-.495.322-1.078.322-1.75 0-1.027-.229-1.82-.686-2.38-.457-.57-1.101-.854-1.932-.854-.541 0-1.008.126-1.4.378-.392.252-.69.62-.896 1.106-.205.485-.308 1.069-.308 1.75 0 1.017.229 1.815.686 2.394.457.57 1.097.854 1.918.854zm7.475 1.82c-.355 0-.626-.093-.812-.28-.187-.187-.28-.453-.28-.798v-4.97c0-.345.088-.607.266-.784.186-.187.443-.28.77-.28.336 0 .592.093.77.28.177.177.266.439.266.784v.728h-.14c.112-.56.359-.994.742-1.302.382-.308.877-.48 1.484-.518.233-.019.41.042.532.182.13.13.2.35.21.658.018.29-.042.518-.182.686-.131.168-.355.27-.672.308l-.322.028c-.532.047-.93.2-1.19.462-.252.261-.378.64-.378 1.134v2.604c0 .345-.094.611-.28.798-.178.187-.44.28-.784.28zm7.858 2.548c-.504 0-.99-.042-1.456-.126a4.91 4.91 0 0 1-1.218-.378c-.215-.093-.369-.215-.462-.364a.855.855 0 0 1-.112-.476.933.933 0 0 1 .168-.448.856.856 0 0 1 .378-.28.66.66 0 0 1 .476.042c.41.187.789.308 1.134.364.355.056.658.084.91.084.597 0 1.045-.135 1.344-.406.299-.27.448-.686.448-1.246v-1.064h.126c-.14.43-.43.78-.868 1.05-.439.27-.924.406-1.456.406-.616 0-1.153-.14-1.61-.42a2.903 2.903 0 0 1-1.064-1.204c-.252-.523-.378-1.125-.378-1.806 0-.513.07-.98.21-1.4.15-.42.355-.78.616-1.078.27-.299.593-.527.966-.686a3.1 3.1 0 0 1 1.26-.252c.55 0 1.036.135 1.456.406.43.261.714.607.854 1.036l-.14.448v-.798c0-.345.089-.607.266-.784.187-.187.448-.28.784-.28s.593.093.77.28c.177.177.266.439.266.784v5.124c0 1.148-.317 2.011-.952 2.59-.625.588-1.53.882-2.716.882zm.042-4.424c.317 0 .588-.075.812-.224.233-.15.415-.36.546-.63.13-.28.196-.611.196-.994 0-.579-.145-1.027-.434-1.344-.28-.327-.653-.49-1.12-.49a1.5 1.5 0 0 0-.826.224c-.233.14-.415.35-.546.63-.121.27-.182.597-.182.98 0 .579.14 1.031.42 1.358.28.327.658.49 1.134.49zm7.591 1.904c-.504 0-.956-.098-1.358-.294a2.322 2.322 0 0 1-.938-.798 1.998 1.998 0 0 1-.336-1.134c0-.504.131-.9.392-1.19.262-.299.686-.509 1.274-.63.588-.13 1.368-.196 2.338-.196h.742v1.092h-.728c-.476 0-.863.028-1.162.084-.289.047-.499.13-.63.252-.121.121-.182.29-.182.504 0 .261.089.476.266.644.187.168.453.252.798.252.271 0 .509-.06.714-.182a1.41 1.41 0 0 0 .504-.518 1.56 1.56 0 0 0 .182-.756v-1.61c0-.41-.093-.7-.28-.868-.186-.177-.504-.266-.952-.266-.252 0-.527.033-.826.098-.289.056-.611.154-.966.294-.205.093-.387.117-.546.07a.69.69 0 0 1-.364-.28.856.856 0 0 1-.126-.448c0-.168.047-.327.14-.476.094-.159.248-.275.462-.35a6.013 6.013 0 0 1 2.31-.462c.719 0 1.307.107 1.764.322a2.12 2.12 0 0 1 1.05.966c.234.43.35.985.35 1.666v3.108c0 .345-.084.611-.252.798-.168.187-.41.28-.728.28-.317 0-.564-.093-.742-.28-.168-.187-.252-.453-.252-.798v-.518l.098.084a1.798 1.798 0 0 1-1.05 1.358 2.41 2.41 0 0 1-.966.182zm6.533-.028c-.345 0-.611-.093-.798-.28-.177-.187-.266-.453-.266-.798v-4.97c0-.345.089-.607.266-.784.187-.187.444-.28.77-.28.336 0 .593.093.77.28.178.177.266.439.266.784v.798l-.154-.462c.215-.457.532-.807.952-1.05.43-.252.915-.378 1.456-.378.551 0 1.004.107 1.358.322.355.205.621.523.798.952.178.42.266.957.266 1.61v3.178c0 .345-.093.611-.28.798-.177.187-.438.28-.784.28-.336 0-.597-.093-.784-.28-.177-.187-.266-.453-.266-.798v-3.08c0-.476-.088-.817-.266-1.022-.168-.215-.429-.322-.784-.322-.448 0-.807.14-1.078.42-.261.28-.392.653-.392 1.12v2.884c0 .719-.35 1.078-1.05 1.078zm8.327-.014c-.346 0-.612-.098-.799-.294-.177-.205-.265-.49-.265-.854v-4.788c0-.373.088-.658.265-.854.187-.205.453-.308.799-.308.335 0 .592.103.77.308.186.196.28.48.28.854v4.788c0 .364-.09.649-.266.854-.178.196-.44.294-.785.294zm0-8.246c-.393 0-.696-.089-.91-.266-.206-.187-.309-.448-.309-.784 0-.345.103-.607.308-.784.215-.187.518-.28.91-.28s.691.093.896.28c.206.177.308.439.308.784 0 .336-.102.597-.308.784-.205.177-.504.266-.896.266zM66.668 20a.852.852 0 0 1-.518-.154.801.801 0 0 1-.28-.42 1.08 1.08 0 0 1 0-.546c.056-.196.163-.378.322-.546l3.43-4.116v.49h-3.038c-.252 0-.448-.07-.588-.21-.14-.14-.21-.331-.21-.574 0-.261.07-.457.21-.588.14-.14.336-.21.588-.21h4.046c.252 0 .452.056.602.168.149.112.247.252.294.42a.93.93 0 0 1 .014.532 1.089 1.089 0 0 1-.294.532l-3.514 4.2v-.546h3.248c.532 0 .798.261.798.784 0 .252-.07.448-.21.588-.14.13-.336.196-.588.196h-4.312zm8.394.154c-.504 0-.957-.098-1.358-.294a2.321 2.321 0 0 1-.938-.798 1.998 1.998 0 0 1-.336-1.134c0-.504.13-.9.392-1.19.261-.299.686-.509 1.274-.63.588-.13 1.367-.196 2.338-.196h.742v1.092h-.728c-.476 0-.864.028-1.162.084-.29.047-.5.13-.63.252-.122.121-.182.29-.182.504 0 .261.088.476.266.644.186.168.452.252.798.252.27 0 .508-.06.714-.182.214-.13.382-.303.504-.518.121-.224.182-.476.182-.756v-1.61c0-.41-.094-.7-.28-.868-.187-.177-.504-.266-.952-.266-.252 0-.528.033-.826.098-.29.056-.612.154-.966.294-.206.093-.388.117-.546.07a.69.69 0 0 1-.364-.28.856.856 0 0 1-.126-.448c0-.168.046-.327.14-.476.093-.159.247-.275.462-.35a6.01 6.01 0 0 1 2.31-.462c.718 0 1.306.107 1.764.322a2.12 2.12 0 0 1 1.05.966c.233.43.35.985.35 1.666v3.108c0 .345-.084.611-.252.798-.168.187-.41.28-.728.28s-.565-.093-.742-.28c-.168-.187-.252-.453-.252-.798v-.518l.098.084a1.799 1.799 0 0 1-1.05 1.358 2.41 2.41 0 0 1-.966.182zm8.843 0c-.644 0-1.186-.107-1.624-.322a2.136 2.136 0 0 1-.966-.938c-.206-.41-.308-.929-.308-1.554v-2.632h-.588c-.262 0-.467-.07-.616-.21-.14-.14-.21-.331-.21-.574 0-.261.07-.457.21-.588.15-.14.354-.21.616-.21h.588v-1.064c0-.355.093-.62.28-.798.186-.187.448-.28.784-.28.345 0 .606.093.784.28.177.177.266.443.266.798v1.064h1.33c.261 0 .462.07.602.21.14.13.21.327.21.588 0 .243-.07.434-.21.574-.14.14-.34.21-.602.21h-1.33v2.548c0 .392.088.686.266.882.186.196.48.294.882.294.14 0 .27-.014.392-.042a2.51 2.51 0 0 1 .336-.056c.13-.01.238.033.322.126.084.084.126.275.126.574 0 .224-.038.42-.112.588a.687.687 0 0 1-.392.364 2.28 2.28 0 0 1-.504.112 3.04 3.04 0 0 1-.532.056zm3.569-.042c-.346 0-.612-.098-.798-.294-.178-.205-.266-.49-.266-.854v-4.788c0-.373.088-.658.266-.854.186-.205.452-.308.798-.308.336 0 .592.103.77.308.186.196.28.48.28.854v4.788c0 .364-.089.649-.266.854-.178.196-.439.294-.784.294zm0-8.246c-.392 0-.696-.089-.91-.266-.206-.187-.308-.448-.308-.784 0-.345.102-.607.308-.784.214-.187.518-.28.91-.28s.69.093.896.28c.205.177.308.439.308.784 0 .336-.103.597-.308.784-.206.177-.504.266-.896.266zm5.986 8.288c-.738 0-1.382-.145-1.932-.434a3.058 3.058 0 0 1-1.26-1.246c-.299-.541-.448-1.18-.448-1.918 0-.55.084-1.045.252-1.484a3.063 3.063 0 0 1 1.89-1.834 4.238 4.238 0 0 1 1.498-.252c.737 0 1.376.145 1.918.434.55.29.975.7 1.274 1.232.308.532.462 1.167.462 1.904 0 .56-.089 1.06-.266 1.498a3.2 3.2 0 0 1-.728 1.134c-.318.317-.705.56-1.162.728a4.463 4.463 0 0 1-1.498.238zm0-1.582c.308 0 .574-.075.798-.224.224-.15.401-.369.532-.658.13-.299.196-.677.196-1.134 0-.681-.14-1.18-.42-1.498-.28-.327-.649-.49-1.106-.49-.299 0-.565.07-.798.21-.224.14-.402.36-.532.658-.122.29-.182.663-.182 1.12 0 .681.14 1.19.42 1.526.28.327.644.49 1.092.49zm6.004 1.554c-.345 0-.611-.093-.798-.28-.177-.187-.266-.453-.266-.798v-4.97c0-.345.089-.607.266-.784.187-.187.443-.28.77-.28.336 0 .593.093.77.28.177.177.266.439.266.784v.798l-.154-.462c.215-.457.532-.807.952-1.05a2.822 2.822 0 0 1 1.456-.378c.551 0 1.003.107 1.358.322.355.205.621.523.798.952.177.42.266.957.266 1.61v3.178c0 .345-.093.611-.28.798-.177.187-.439.28-.784.28-.336 0-.597-.093-.784-.28-.177-.187-.266-.453-.266-.798v-3.08c0-.476-.089-.817-.266-1.022-.168-.215-.429-.322-.784-.322-.448 0-.807.14-1.078.42-.261.28-.392.653-.392 1.12v2.884c0 .719-.35 1.078-1.05 1.078z" fill="#333"/>
</svg>
