<svg width="128" height="30" viewBox="0 0 128 30" fill="none" xmlns="http://www.w3.org/2000/svg">
    <path fill="#fff" d="M0 0h128v30H0z"/>
    <rect y="13" width="14" height="4" rx="2" fill="#30C194"/>
    <path d="M24.648 20.126c-.299 0-.541-.07-.728-.21-.187-.15-.336-.373-.448-.672l-2.828-7.952c-.121-.355-.098-.658.07-.91.177-.252.48-.378.91-.378.299 0 .527.07.686.21.168.14.303.36.406.658l2.31 6.874h-.602l2.436-6.86c.112-.299.247-.518.406-.658.168-.15.387-.224.658-.224.261 0 .471.075.63.224.159.14.294.364.406.672l2.324 6.846h-.518l2.352-6.874c.093-.29.224-.504.392-.644.168-.15.397-.224.686-.224.364 0 .63.126.798.378.168.252.187.555.056.91l-2.856 7.966c-.103.29-.243.509-.42.658-.177.14-.42.21-.728.21-.299 0-.537-.07-.714-.21-.177-.15-.322-.373-.434-.672l-2.212-6.258h.336l-2.24 6.272c-.112.29-.257.509-.434.658-.168.14-.401.21-.7.21zm14.247.028c-.737 0-1.381-.145-1.932-.434a3.058 3.058 0 0 1-1.26-1.246c-.298-.541-.448-1.18-.448-1.918 0-.55.084-1.045.252-1.484a3.064 3.064 0 0 1 1.89-1.834 4.239 4.239 0 0 1 1.498-.252c.738 0 1.377.145 1.918.434.551.29.976.7 1.274 1.232.308.532.462 1.167.462 1.904 0 .56-.088 1.06-.266 1.498a3.2 3.2 0 0 1-.728 1.134c-.317.317-.704.56-1.162.728a4.463 4.463 0 0 1-1.498.238zm0-1.582c.308 0 .574-.075.798-.224.224-.15.402-.369.532-.658.131-.299.196-.677.196-1.134 0-.681-.14-1.18-.42-1.498-.28-.327-.648-.49-1.106-.49-.298 0-.564.07-.798.21-.224.14-.401.36-.532.658-.121.29-.182.663-.182 1.12 0 .681.14 1.19.42 1.526.28.327.644.49 1.092.49zm6.032 1.554c-.354 0-.625-.093-.812-.28-.186-.187-.28-.453-.28-.798v-4.97c0-.345.09-.607.266-.784.187-.187.444-.28.77-.28.336 0 .593.093.77.28.178.177.266.439.266.784v.728h-.14c.112-.56.36-.994.742-1.302.383-.308.878-.48 1.484-.518.234-.019.411.042.532.182.131.13.201.35.21.658.02.29-.042.518-.182.686-.13.168-.354.27-.672.308l-.322.028c-.532.047-.928.2-1.19.462-.252.261-.378.64-.378 1.134v2.604c0 .345-.093.611-.28.798-.177.187-.438.28-.784.28zm7.229.028c-.597 0-1.125-.145-1.582-.434-.448-.29-.798-.705-1.05-1.246s-.378-1.18-.378-1.918c0-.737.126-1.372.378-1.904.252-.532.602-.943 1.05-1.232.457-.29.985-.434 1.582-.434.541 0 1.017.13 1.428.392.42.261.705.602.854 1.022h-.154v-3.318c0-.355.089-.62.266-.798.177-.187.439-.28.784-.28.336 0 .597.093.784.28.187.177.28.443.28.798v7.966c0 .345-.093.611-.28.798-.177.187-.434.28-.77.28s-.597-.093-.784-.28c-.177-.187-.266-.453-.266-.798v-.952l.154.546c-.13.457-.41.826-.84 1.106-.42.27-.905.406-1.456.406zm.63-1.582c.308 0 .574-.075.798-.224.224-.15.401-.369.532-.658.13-.299.196-.677.196-1.134 0-.681-.14-1.18-.42-1.498-.28-.327-.649-.49-1.106-.49-.299 0-.565.07-.798.21-.224.14-.401.36-.532.658-.121.29-.182.663-.182 1.12 0 .681.14 1.19.42 1.526.28.327.644.49 1.092.49zm14.121 1.582c-1.064 0-1.974-.21-2.73-.63a4.362 4.362 0 0 1-1.75-1.764c-.401-.765-.602-1.666-.602-2.702 0-.775.112-1.47.336-2.086a4.396 4.396 0 0 1 1.008-1.596c.439-.448.97-.793 1.596-1.036.635-.243 1.349-.364 2.142-.364.467 0 .938.06 1.414.182.485.112.905.275 1.26.49.233.13.392.294.476.49a.993.993 0 0 1 .07.588.909.909 0 0 1-.238.504.802.802 0 0 1-.462.266c-.187.037-.397-.005-.63-.126a3.149 3.149 0 0 0-.882-.364 3.966 3.966 0 0 0-.938-.112c-.625 0-1.153.126-1.582.378-.42.243-.737.597-.952 1.064-.215.467-.322 1.04-.322 1.722 0 .672.107 1.246.322 1.722.215.476.532.84.952 1.092.43.243.957.364 1.582.364.299 0 .602-.037.91-.112.317-.075.62-.191.91-.35.243-.121.457-.163.644-.126a.747.747 0 0 1 .476.252c.13.13.21.29.238.476a.968.968 0 0 1-.056.56 1.018 1.018 0 0 1-.42.476c-.345.233-.77.415-1.274.546a5.949 5.949 0 0 1-1.498.196zm5.664-.028c-.345 0-.611-.093-.798-.28-.177-.187-.266-.453-.266-.798v-7.966c0-.355.089-.62.266-.798.187-.187.453-.28.798-.28.336 0 .593.093.77.28.187.177.28.443.28.798v3.332h-.196c.215-.457.532-.807.952-1.05.43-.252.915-.378 1.456-.378.551 0 1.004.107 1.358.322.355.205.621.523.798.952.178.42.266.957.266 1.61v3.178c0 .345-.093.611-.28.798-.177.187-.438.28-.784.28-.336 0-.597-.093-.784-.28-.177-.187-.266-.453-.266-.798v-3.08c0-.476-.088-.817-.266-1.022-.168-.215-.429-.322-.784-.322-.448 0-.807.14-1.078.42-.261.28-.392.653-.392 1.12v2.884c0 .719-.35 1.078-1.05 1.078zm10.567.028c-.738 0-1.382-.145-1.933-.434a3.058 3.058 0 0 1-1.26-1.246c-.298-.541-.447-1.18-.447-1.918 0-.55.084-1.045.251-1.484a3.064 3.064 0 0 1 1.89-1.834 4.239 4.239 0 0 1 1.499-.252c.737 0 1.376.145 1.917.434.551.29.976.7 1.274 1.232.309.532.463 1.167.463 1.904 0 .56-.09 1.06-.267 1.498a3.2 3.2 0 0 1-.728 1.134c-.317.317-.704.56-1.162.728a4.463 4.463 0 0 1-1.498.238zm0-1.582c.307 0 .573-.075.797-.224.224-.15.402-.369.532-.658.131-.299.197-.677.197-1.134 0-.681-.14-1.18-.42-1.498-.28-.327-.65-.49-1.106-.49-.3 0-.565.07-.799.21-.224.14-.4.36-.531.658-.122.29-.183.663-.183 1.12 0 .681.14 1.19.42 1.526.28.327.644.49 1.093.49zm6.004 1.54c-.346 0-.612-.098-.798-.294-.178-.205-.266-.49-.266-.854v-4.788c0-.373.088-.658.266-.854.186-.205.452-.308.798-.308.336 0 .592.103.77.308.186.196.28.48.28.854v4.788c0 .364-.089.649-.266.854-.178.196-.439.294-.784.294zm0-8.246c-.392 0-.696-.089-.91-.266-.206-.187-.308-.448-.308-.784 0-.345.102-.607.308-.784.214-.187.518-.28.91-.28s.69.093.896.28c.205.177.308.439.308.784 0 .336-.103.597-.308.784-.206.177-.504.266-.896.266zm6.028 8.288c-.747 0-1.4-.145-1.96-.434a3.127 3.127 0 0 1-1.274-1.26c-.299-.541-.448-1.18-.448-1.918 0-.55.084-1.045.252-1.484.168-.439.41-.812.728-1.12a3.236 3.236 0 0 1 1.176-.7 4.399 4.399 0 0 1 2.45-.14c.326.065.648.182.966.35a.69.69 0 0 1 .378.364.852.852 0 0 1-.098.91.718.718 0 0 1-.364.252c-.15.037-.318.01-.504-.084a2.068 2.068 0 0 0-.56-.224 2.193 2.193 0 0 0-.532-.07c-.28 0-.528.047-.742.14-.215.084-.397.21-.546.378-.14.159-.252.36-.336.602a2.863 2.863 0 0 0-.112.84c0 .616.15 1.101.448 1.456.308.345.737.518 1.288.518.168 0 .345-.019.532-.056.186-.047.373-.121.56-.224.186-.093.354-.117.504-.07.15.047.266.135.35.266a.762.762 0 0 1 .154.434.863.863 0 0 1-.084.476.703.703 0 0 1-.364.35 3.87 3.87 0 0 1-.952.336c-.318.075-.62.112-.91.112zm6.773 0c-.812 0-1.512-.145-2.1-.434a3.276 3.276 0 0 1-1.344-1.246c-.308-.541-.462-1.176-.462-1.904 0-.71.149-1.33.447-1.862a3.174 3.174 0 0 1 1.247-1.26c.541-.308 1.152-.462 1.834-.462.494 0 .942.084 1.344.252.401.159.746.392 1.036.7.289.299.508.667.658 1.106.149.43.224.91.224 1.442 0 .177-.056.313-.168.406-.112.084-.276.126-.49.126h-4.397v-1.092h3.529l-.224.196c0-.383-.056-.7-.168-.952a1.235 1.235 0 0 0-.49-.588c-.206-.13-.462-.196-.77-.196-.346 0-.64.08-.882.238-.243.159-.43.387-.56.686-.131.299-.196.658-.196 1.078v.112c0 .71.163 1.232.49 1.568.336.336.83.504 1.484.504.224 0 .48-.028.77-.084.289-.056.56-.145.812-.266.214-.103.406-.135.574-.098a.599.599 0 0 1 .392.224.752.752 0 0 1 .154.42.806.806 0 0 1-.098.476.987.987 0 0 1-.42.378 3.798 3.798 0 0 1-1.078.392c-.392.093-.775.14-1.148.14z" fill="#333"/>
</svg>
