<svg width="161" height="30" viewBox="0 0 161 30" fill="none" xmlns="http://www.w3.org/2000/svg">
    <path fill="#fff" d="M0 0h161v30H0z"/>
    <rect y="13" width="14" height="4" rx="2" fill="#F6914D"/>
    <path d="M25.936 20.168c-3.024 0-5.194-2.254-5.194-5.04V15.1c0-2.786 2.198-5.068 5.222-5.068 3.024 0 5.194 2.254 5.194 5.04v.028c0 2.786-2.198 5.068-5.222 5.068zm.028-1.988c1.736 0 2.94-1.372 2.94-3.052V15.1c0-1.68-1.232-3.08-2.968-3.08s-2.94 1.372-2.94 3.052v.028c0 1.68 1.232 3.08 2.968 3.08zm6.883.84v-5.544a1.064 1.064 0 1 1 2.127 0v.336c.309-.728.813-1.4 1.443-1.4.657 0 1.035.434 1.035 1.036 0 .56-.363.896-.797.994-1.078.252-1.68 1.078-1.68 2.59v1.988a1.064 1.064 0 1 1-2.129 0zm9.074 3.248a7.195 7.195 0 0 1-2.744-.518c-.364-.14-.602-.434-.602-.826a.872.872 0 0 1 1.218-.798 4.85 4.85 0 0 0 2.072.448c1.456 0 2.142-.7 2.142-2.044v-.364c-.63.756-1.316 1.218-2.45 1.218-1.75 0-3.332-1.274-3.332-3.5v-.028c0-2.24 1.61-3.5 3.332-3.5 1.162 0 1.848.49 2.422 1.12v-.014c0-.574.476-1.05 1.064-1.05.588 0 1.064.476 1.064 1.064v4.83c0 1.344-.322 2.324-.952 2.954-.7.7-1.778 1.008-3.234 1.008zm.252-4.648c1.036 0 1.834-.714 1.834-1.736v-.028c0-1.022-.798-1.736-1.834-1.736s-1.82.714-1.82 1.736v.028c0 1.036.784 1.736 1.82 1.736zm7.964 2.52c-1.414 0-2.576-.812-2.576-2.296v-.028c0-1.638 1.246-2.394 3.024-2.394.756 0 1.302.126 1.834.308v-.126c0-.882-.546-1.372-1.61-1.372a4.88 4.88 0 0 0-1.47.21.9.9 0 0 1-.308.056.867.867 0 0 1-.882-.868c0-.378.238-.7.574-.826.672-.252 1.4-.392 2.394-.392 1.162 0 2.002.308 2.534.84.56.56.812 1.386.812 2.394v3.416c0 .574-.462 1.022-1.036 1.022-.616 0-1.022-.434-1.022-.882v-.014c-.518.574-1.232.952-2.268.952zm.644-1.47c.994 0 1.666-.546 1.666-1.316v-.378a3.3 3.3 0 0 0-1.358-.28c-.91 0-1.47.364-1.47 1.036v.028c0 .574.476.91 1.162.91zm5.513.35v-5.544a1.064 1.064 0 1 1 2.128 0v.084c.49-.63 1.12-1.204 2.198-1.204 1.61 0 2.548 1.064 2.548 2.786v3.878a1.064 1.064 0 1 1-2.128 0v-3.206c0-1.008-.476-1.526-1.288-1.526s-1.33.518-1.33 1.526v3.206a1.064 1.064 0 1 1-2.128 0zm8.695-8.288v-.028c0-.616.517-.994 1.19-.994.671 0 1.19.378 1.19.994v.028c0 .616-.519 1.008-1.19 1.008-.672 0-1.19-.392-1.19-1.008zm.126 8.288v-5.544a1.064 1.064 0 1 1 2.128 0v5.544a1.064 1.064 0 1 1-2.128 0zm4.826.98c-.602 0-1.036-.35-1.036-.854v-.042c0-.406.14-.672.476-1.036l3.486-3.85H69.9a.86.86 0 0 1-.868-.854c0-.476.392-.868.868-.868h4.662c.602 0 1.036.35 1.036.854v.042c0 .406-.14.672-.476 1.036l-3.5 3.85h3.108c.476 0 .868.392.868.868a.86.86 0 0 1-.868.854h-4.788zm9.317.14c-1.414 0-2.576-.812-2.576-2.296v-.028c0-1.638 1.246-2.394 3.024-2.394.756 0 1.302.126 1.834.308v-.126c0-.882-.546-1.372-1.61-1.372a4.88 4.88 0 0 0-1.47.21.9.9 0 0 1-.308.056.867.867 0 0 1-.882-.868c0-.378.238-.7.574-.826.672-.252 1.4-.392 2.394-.392 1.162 0 2.002.308 2.534.84.56.56.812 1.386.812 2.394v3.416c0 .574-.462 1.022-1.036 1.022-.616 0-1.022-.434-1.022-.882v-.014c-.518.574-1.232.952-2.268.952zm.644-1.47c.994 0 1.666-.546 1.666-1.316v-.378a3.3 3.3 0 0 0-1.358-.28c-.91 0-1.47.364-1.47 1.036v.028c0 .574.476.91 1.162.91zm7.978 1.456c-1.301 0-2.183-.518-2.183-2.254v-3.556h-.07a.908.908 0 0 1-.91-.91c0-.504.406-.91.91-.91h.07v-.938a1.064 1.064 0 1 1 2.127 0v.938h.939c.503 0 .91.406.91.91s-.407.91-.91.91h-.939v3.206c0 .49.21.728.686.728.07 0 .21-.014.252-.014.477 0 .882.392.882.882a.866.866 0 0 1-.546.798c-.391.154-.755.21-1.218.21zm3.25-9.394v-.028c0-.616.517-.994 1.19-.994.671 0 1.19.378 1.19.994v.028c0 .616-.519 1.008-1.19 1.008-.673 0-1.19-.392-1.19-1.008zm.125 8.288v-5.544a1.064 1.064 0 1 1 2.128 0v5.544a1.064 1.064 0 1 1-2.128 0zm7.809 1.148c-2.324 0-4.046-1.722-4.046-3.878v-.028c0-2.156 1.736-3.906 4.074-3.906 2.324 0 4.046 1.722 4.046 3.878v.028c0 2.156-1.736 3.906-4.074 3.906zm.028-1.834c1.218 0 1.946-.938 1.946-2.044v-.028c0-1.106-.798-2.072-1.974-2.072-1.218 0-1.946.938-1.946 2.044v.028c0 1.106.798 2.072 1.974 2.072zm5.587.686v-5.544a1.064 1.064 0 1 1 2.128 0v.084c.49-.63 1.12-1.204 2.198-1.204 1.61 0 2.548 1.064 2.548 2.786v3.878a1.064 1.064 0 1 1-2.128 0v-3.206c0-1.008-.476-1.526-1.288-1.526s-1.33.518-1.33 1.526v3.206a1.064 1.064 0 1 1-2.128 0z" fill="#333"/>
</svg>
