<svg width="161" height="30" viewBox="0 0 161 30" fill="none" xmlns="http://www.w3.org/2000/svg">
    <path fill="#fff" d="M0 0h161v30H0z"/>
    <path d="M24.522 20.154c-.392 0-.793-.033-1.204-.098a7.78 7.78 0 0 1-1.162-.252 4.694 4.694 0 0 1-.98-.42.974.974 0 0 1-.434-.434 1.083 1.083 0 0 1-.098-.56c.028-.187.098-.35.21-.49a.77.77 0 0 1 .448-.28c.187-.047.392-.014.616.098.383.215.798.373 1.246.476.457.103.91.154 1.358.154.681 0 1.167-.103 1.456-.308.29-.215.434-.48.434-.798a.771.771 0 0 0-.308-.644c-.205-.159-.565-.294-1.078-.406l-1.582-.336c-.896-.187-1.563-.504-2.002-.952-.43-.457-.644-1.055-.644-1.792 0-.467.098-.891.294-1.274.196-.383.471-.714.826-.994s.775-.495 1.26-.644a5.6 5.6 0 0 1 1.624-.224 6.11 6.11 0 0 1 1.54.196c.504.121.947.303 1.33.546a.845.845 0 0 1 .378.434c.075.168.098.34.07.518a.77.77 0 0 1-.21.448.76.76 0 0 1-.434.252c-.177.037-.392-.005-.644-.126a3.956 3.956 0 0 0-.98-.35 5.018 5.018 0 0 0-1.064-.112c-.392 0-.728.051-1.008.154-.27.103-.48.247-.63.434-.14.187-.21.401-.21.644 0 .27.098.49.294.658.196.168.537.303 1.022.406l1.582.336c.915.196 1.596.513 2.044.952.448.43.672.999.672 1.708 0 .467-.093.891-.28 1.274a2.763 2.763 0 0 1-.812.966c-.355.27-.78.48-1.274.63-.495.14-1.05.21-1.666.21zm8.829 0c-.812 0-1.512-.145-2.1-.434a3.275 3.275 0 0 1-1.344-1.246c-.308-.541-.462-1.176-.462-1.904 0-.71.15-1.33.448-1.862a3.174 3.174 0 0 1 1.246-1.26c.541-.308 1.152-.462 1.834-.462.494 0 .942.084 1.344.252a2.912 2.912 0 0 1 1.694 1.806c.15.43.224.91.224 1.442 0 .177-.056.313-.168.406-.112.084-.276.126-.49.126H31.18v-1.092h3.528l-.224.196c0-.383-.056-.7-.168-.952a1.231 1.231 0 0 0-.49-.588c-.206-.13-.462-.196-.77-.196-.346 0-.64.08-.882.238-.243.159-.43.387-.56.686-.13.299-.196.658-.196 1.078v.112c0 .71.163 1.232.49 1.568.336.336.83.504 1.484.504.224 0 .48-.028.77-.084.29-.056.56-.145.812-.266.214-.103.406-.135.574-.098a.597.597 0 0 1 .392.224.745.745 0 0 1 .154.42.801.801 0 0 1-.098.476.987.987 0 0 1-.42.378 3.788 3.788 0 0 1-1.078.392 4.95 4.95 0 0 1-1.148.14zm5.177-.028c-.345 0-.611-.093-.798-.28-.177-.187-.266-.453-.266-.798v-4.97c0-.345.089-.607.266-.784.187-.187.444-.28.77-.28.336 0 .593.093.77.28.178.177.266.439.266.784v.798l-.154-.462c.215-.457.532-.807.952-1.05.43-.252.915-.378 1.456-.378.551 0 1.004.107 1.358.322.355.205.621.523.798.952.178.42.266.957.266 1.61v3.178c0 .345-.093.611-.28.798-.177.187-.438.28-.784.28-.336 0-.597-.093-.784-.28-.177-.187-.266-.453-.266-.798v-3.08c0-.476-.088-.817-.266-1.022-.168-.215-.429-.322-.784-.322-.448 0-.807.14-1.078.42-.261.28-.392.653-.392 1.12v2.884c0 .719-.35 1.078-1.05 1.078zm10.636.028c-.644 0-1.185-.107-1.623-.322a2.137 2.137 0 0 1-.966-.938c-.206-.41-.309-.929-.309-1.554v-2.632h-.587c-.262 0-.467-.07-.617-.21-.14-.14-.21-.331-.21-.574 0-.261.07-.457.21-.588.15-.14.355-.21.617-.21h.587v-1.064c0-.355.094-.62.28-.798.187-.187.449-.28.785-.28.345 0 .606.093.783.28.178.177.267.443.267.798v1.064h1.33c.26 0 .462.07.602.21.14.13.21.327.21.588 0 .243-.07.434-.21.574-.14.14-.341.21-.602.21h-1.33v2.548c0 .392.088.686.266.882.186.196.48.294.882.294.14 0 .27-.014.391-.042a2.51 2.51 0 0 1 .337-.056c.13-.01.238.033.322.126.084.084.126.275.126.574 0 .224-.038.42-.112.588a.686.686 0 0 1-.393.364c-.12.047-.289.084-.504.112a3.039 3.039 0 0 1-.532.056zm5.788 0c-.812 0-1.512-.145-2.1-.434a3.275 3.275 0 0 1-1.344-1.246c-.308-.541-.462-1.176-.462-1.904 0-.71.15-1.33.448-1.862a3.174 3.174 0 0 1 1.246-1.26c.542-.308 1.153-.462 1.834-.462.495 0 .943.084 1.344.252a2.91 2.91 0 0 1 1.694 1.806c.15.43.224.91.224 1.442 0 .177-.056.313-.168.406-.112.084-.275.126-.49.126h-4.396v-1.092h3.528l-.224.196c0-.383-.056-.7-.168-.952a1.23 1.23 0 0 0-.49-.588c-.205-.13-.462-.196-.77-.196-.345 0-.639.08-.882.238-.242.159-.429.387-.56.686-.13.299-.196.658-.196 1.078v.112c0 .71.164 1.232.49 1.568.336.336.831.504 1.484.504.224 0 .481-.028.77-.084.29-.056.56-.145.812-.266.215-.103.406-.135.574-.098a.597.597 0 0 1 .392.224.744.744 0 0 1 .154.42.8.8 0 0 1-.098.476.987.987 0 0 1-.42.378 3.787 3.787 0 0 1-1.078.392 4.95 4.95 0 0 1-1.148.14zm5.178-.028c-.345 0-.611-.093-.798-.28-.177-.187-.266-.453-.266-.798v-4.97c0-.345.089-.607.266-.784.187-.187.443-.28.77-.28.336 0 .593.093.77.28.177.177.266.439.266.784v.798l-.154-.462c.215-.457.532-.807.952-1.05.43-.252.915-.378 1.456-.378.55 0 1.003.107 1.358.322.355.205.62.523.798.952.177.42.266.957.266 1.61v3.178c0 .345-.093.611-.28.798-.177.187-.439.28-.784.28-.336 0-.597-.093-.784-.28-.177-.187-.266-.453-.266-.798v-3.08c0-.476-.089-.817-.266-1.022-.168-.215-.43-.322-.784-.322-.448 0-.807.14-1.078.42-.261.28-.392.653-.392 1.12v2.884c0 .719-.35 1.078-1.05 1.078zm10.608.028c-.747 0-1.4-.145-1.96-.434a3.125 3.125 0 0 1-1.274-1.26c-.299-.541-.448-1.18-.448-1.918 0-.55.084-1.045.252-1.484.168-.439.41-.812.728-1.12a3.234 3.234 0 0 1 1.176-.7 4.398 4.398 0 0 1 2.45-.14c.327.065.649.182.966.35a.69.69 0 0 1 .378.364.853.853 0 0 1-.098.91.719.719 0 0 1-.364.252c-.15.037-.317.01-.504-.084a2.07 2.07 0 0 0-.56-.224 2.194 2.194 0 0 0-.532-.07c-.28 0-.527.047-.742.14-.215.084-.397.21-.546.378-.14.159-.252.36-.336.602a2.86 2.86 0 0 0-.112.84c0 .616.15 1.101.448 1.456.308.345.737.518 1.288.518.168 0 .345-.019.532-.056.187-.047.373-.121.56-.224.187-.093.355-.117.504-.07.15.047.266.135.35.266a.764.764 0 0 1 .154.434.865.865 0 0 1-.084.476.704.704 0 0 1-.364.35c-.317.159-.635.27-.952.336-.317.075-.62.112-.91.112zm6.773 0c-.812 0-1.512-.145-2.1-.434a3.275 3.275 0 0 1-1.344-1.246c-.308-.541-.462-1.176-.462-1.904 0-.71.15-1.33.448-1.862a3.174 3.174 0 0 1 1.246-1.26c.541-.308 1.153-.462 1.834-.462.495 0 .943.084 1.344.252a2.91 2.91 0 0 1 1.694 1.806c.15.43.224.91.224 1.442 0 .177-.056.313-.168.406-.112.084-.275.126-.49.126H75.34v-1.092h3.528l-.224.196c0-.383-.056-.7-.168-.952a1.23 1.23 0 0 0-.49-.588c-.205-.13-.462-.196-.77-.196-.345 0-.64.08-.882.238-.243.159-.43.387-.56.686-.13.299-.196.658-.196 1.078v.112c0 .71.163 1.232.49 1.568.336.336.83.504 1.484.504.224 0 .48-.028.77-.084.29-.056.56-.145.812-.266.215-.103.406-.135.574-.098a.597.597 0 0 1 .392.224.744.744 0 0 1 .154.42.8.8 0 0 1-.098.476.987.987 0 0 1-.42.378 3.787 3.787 0 0 1-1.078.392 4.95 4.95 0 0 1-1.148.14zm9.312-.028c-.355 0-.63-.098-.826-.294-.187-.196-.28-.48-.28-.854v-7.714c0-.364.098-.644.294-.84.196-.196.476-.294.84-.294h4.788c.28 0 .49.075.63.224.149.14.224.345.224.616 0 .28-.075.495-.224.644-.14.14-.35.21-.63.21h-3.752v2.408h3.444c.28 0 .494.075.644.224.149.14.224.345.224.616 0 .27-.075.48-.224.63-.15.15-.364.224-.644.224h-3.444v3.052c0 .765-.355 1.148-1.064 1.148zm9.735.028c-.831 0-1.452-.229-1.862-.686-.411-.467-.616-1.157-.616-2.072v-6.314c0-.355.088-.62.266-.798.186-.187.452-.28.798-.28.336 0 .592.093.77.28.186.177.28.443.28.798v6.23c0 .383.079.667.238.854a.865.865 0 0 0 .658.266c.074 0 .144-.005.21-.014.065-.01.135-.014.21-.014.149-.019.252.028.308.14.065.103.098.313.098.63 0 .28-.056.495-.168.644-.112.14-.285.233-.518.28-.094.01-.201.019-.322.028a2.3 2.3 0 0 1-.35.028zm4.718 0c-.579 0-1.06-.107-1.442-.322a1.971 1.971 0 0 1-.854-.966c-.178-.439-.266-.98-.266-1.624v-3.164c0-.355.088-.62.266-.798.186-.177.448-.266.784-.266s.597.089.784.266c.186.177.28.443.28.798v3.22c0 .41.084.719.252.924.168.196.434.294.798.294.401 0 .728-.14.98-.42.261-.29.392-.667.392-1.134v-2.884c0-.355.088-.62.266-.798.186-.177.448-.266.784-.266.345 0 .606.089.784.266.186.177.28.443.28.798v4.97c0 .719-.341 1.078-1.022 1.078-.336 0-.593-.093-.77-.28-.178-.187-.266-.453-.266-.798v-.938l.21.546c-.206.476-.5.845-.882 1.106-.383.261-.836.392-1.358.392zm9.294 0c-.812 0-1.512-.145-2.1-.434a3.271 3.271 0 0 1-1.344-1.246c-.308-.541-.462-1.176-.462-1.904 0-.71.149-1.33.447-1.862a3.178 3.178 0 0 1 1.247-1.26c.541-.308 1.152-.462 1.834-.462.494 0 .942.084 1.344.252.401.159.746.392 1.036.7.289.299.508.667.658 1.106.149.43.224.91.224 1.442 0 .177-.056.313-.168.406-.112.084-.276.126-.49.126H108.4v-1.092h3.528l-.224.196c0-.383-.056-.7-.168-.952a1.235 1.235 0 0 0-.49-.588c-.206-.13-.462-.196-.77-.196-.346 0-.64.08-.882.238-.243.159-.43.387-.56.686-.131.299-.196.658-.196 1.078v.112c0 .71.163 1.232.49 1.568.336.336.83.504 1.484.504.224 0 .48-.028.77-.084.289-.056.56-.145.812-.266.214-.103.406-.135.574-.098a.599.599 0 0 1 .392.224.752.752 0 0 1 .154.42.806.806 0 0 1-.098.476.987.987 0 0 1-.42.378 3.798 3.798 0 0 1-1.078.392c-.392.093-.775.14-1.148.14zm5.177-.028c-.345 0-.611-.093-.798-.28-.177-.187-.266-.453-.266-.798v-4.97c0-.345.089-.607.266-.784.187-.187.443-.28.77-.28.336 0 .593.093.77.28.177.177.266.439.266.784v.798l-.154-.462c.215-.457.532-.807.952-1.05a2.822 2.822 0 0 1 1.456-.378c.551 0 1.003.107 1.358.322.355.205.621.523.798.952.177.42.266.957.266 1.61v3.178c0 .345-.093.611-.28.798-.177.187-.439.28-.784.28-.336 0-.597-.093-.784-.28-.177-.187-.266-.453-.266-.798v-3.08c0-.476-.089-.817-.266-1.022-.168-.215-.429-.322-.784-.322-.448 0-.807.14-1.078.42-.261.28-.392.653-.392 1.12v2.884c0 .719-.35 1.078-1.05 1.078zm10.608.028c-.746 0-1.4-.145-1.96-.434a3.132 3.132 0 0 1-1.274-1.26c-.298-.541-.448-1.18-.448-1.918 0-.55.084-1.045.252-1.484.168-.439.411-.812.728-1.12a3.24 3.24 0 0 1 1.176-.7 4.401 4.401 0 0 1 2.45-.14c.327.065.649.182.966.35a.687.687 0 0 1 .378.364.844.844 0 0 1-.098.91.714.714 0 0 1-.364.252c-.149.037-.317.01-.504-.084a2.064 2.064 0 0 0-.56-.224 2.19 2.19 0 0 0-.532-.07c-.28 0-.527.047-.742.14-.214.084-.396.21-.546.378-.14.159-.252.36-.336.602a2.883 2.883 0 0 0-.112.84c0 .616.15 1.101.448 1.456.308.345.738.518 1.288.518.168 0 .346-.019.532-.056.187-.047.374-.121.56-.224.187-.093.355-.117.504-.07.15.047.266.135.35.266a.756.756 0 0 1 .154.434.858.858 0 0 1-.084.476.7.7 0 0 1-.364.35c-.317.159-.634.27-.952.336-.317.075-.62.112-.91.112zm5.353 2.492a.914.914 0 0 1-.602-.196.774.774 0 0 1-.28-.518 1.213 1.213 0 0 1 .112-.658l.938-2.072v.868l-2.478-5.684a1.35 1.35 0 0 1-.098-.672.755.755 0 0 1 .308-.504c.177-.13.42-.196.728-.196.252 0 .452.06.602.182.158.112.303.331.434.658l1.652 4.2h-.448l1.708-4.214c.13-.317.275-.532.434-.644.168-.121.392-.182.672-.182.242 0 .434.065.574.196a.735.735 0 0 1 .266.49c.037.205 0 .43-.112.672l-3.29 7.462c-.14.317-.299.532-.476.644-.168.112-.383.168-.644.168z" fill="#333"/>
    <rect y="13" width="14" height="4" rx="2" fill="#6865CC"/>
</svg>
