<svg width="124" height="30" viewBox="0 0 124 30" fill="none" xmlns="http://www.w3.org/2000/svg">
    <path fill="#fff" d="M0 0h124v30H0z"/>
    <path d="M25.012 20.154c-.588 0-.994-.322-1.218-.854l-3.178-7.602a1.342 1.342 0 0 1-.126-.518c0-.602.476-1.064 1.078-1.064.56 0 .924.322 1.092.756l2.45 6.342 2.478-6.412c.14-.35.518-.686 1.036-.686.588 0 1.064.448 1.064 1.036 0 .168-.056.35-.112.476L26.37 19.3c-.224.532-.63.854-1.218.854h-.14zm9.083.014c-2.324 0-4.046-1.722-4.046-3.878v-.028c0-2.156 1.736-3.906 4.074-3.906 2.324 0 4.046 1.722 4.046 3.878v.028c0 2.156-1.736 3.906-4.074 3.906zm.028-1.834c1.218 0 1.946-.938 1.946-2.044v-.028c0-1.106-.798-2.072-1.974-2.072-1.218 0-1.946.938-1.946 2.044v.028c0 1.106.798 2.072 1.974 2.072zm5.559-7.602v-.028c0-.616.518-.994 1.19-.994.672 0 1.19.378 1.19.994v.028c0 .616-.518 1.008-1.19 1.008-.672 0-1.19-.392-1.19-1.008zm.126 8.288v-5.544a1.064 1.064 0 1 1 2.128 0v5.544a1.064 1.064 0 1 1-2.128 0zm7.668 1.148c-2.254 0-3.906-1.736-3.906-3.878v-.028c0-2.142 1.638-3.906 3.934-3.906 1.134 0 1.932.308 2.562.84.14.112.336.364.336.728a.956.956 0 0 1-.966.952c-.28 0-.49-.112-.616-.21-.378-.294-.77-.476-1.33-.476-1.064 0-1.82.938-1.82 2.044v.028c0 1.148.742 2.072 1.904 2.072.56 0 .994-.196 1.4-.518a.99.99 0 0 1 .574-.196c.504 0 .896.406.896.91 0 .28-.126.504-.308.672-.63.574-1.428.966-2.66.966zm5.973-4.508h3.206c-.126-.952-.686-1.596-1.582-1.596-.882 0-1.456.63-1.624 1.596zm4.438 3.598c-.658.56-1.512.91-2.604.91-2.254 0-3.92-1.582-3.92-3.878v-.028c0-2.142 1.526-3.906 3.71-3.906 2.506 0 3.612 2.058 3.612 3.612 0 .616-.434 1.022-.994 1.022h-4.214c.21.966.882 1.47 1.834 1.47.588 0 1.078-.182 1.512-.504a.794.794 0 0 1 .518-.168c.476 0 .826.364.826.84 0 .28-.126.49-.28.63z" fill="#333"/>
    <rect y="13" width="14" height="4" rx="2" fill="#AA6BD4"/>
</svg>
