<svg width="128" height="30" viewBox="0 0 128 30" fill="none" xmlns="http://www.w3.org/2000/svg">
    <path fill="#fff" d="M0 0h128v30H0z"/>
    <rect y="13" width="14" height="4" rx="2" fill="#588EE1"/>
    <path d="M22.086 20.126c-.355 0-.625-.098-.812-.294-.187-.196-.28-.471-.28-.826v-7.882c0-.355.093-.63.28-.826.187-.196.457-.294.812-.294.345 0 .611.098.798.294.187.196.28.471.28.826v7.882c0 .355-.093.63-.28.826-.177.196-.443.294-.798.294zm5.556.028c-.597 0-1.124-.145-1.582-.434-.448-.29-.798-.705-1.05-1.246s-.378-1.18-.378-1.918c0-.737.126-1.372.378-1.904.252-.532.602-.943 1.05-1.232.458-.29.985-.434 1.582-.434.542 0 1.018.13 1.428.392.42.261.705.602.854 1.022h-.154v-3.318c0-.355.089-.62.266-.798.178-.187.439-.28.784-.28.336 0 .598.093.784.28.187.177.28.443.28.798v7.966c0 .345-.093.611-.28.798-.177.187-.434.28-.77.28s-.597-.093-.784-.28c-.177-.187-.266-.453-.266-.798v-.952l.154.546c-.13.457-.41.826-.84 1.106-.42.27-.905.406-1.456.406zm.63-1.582c.308 0 .574-.075.798-.224.224-.15.402-.369.532-.658.13-.299.196-.677.196-1.134 0-.681-.14-1.18-.42-1.498-.28-.327-.648-.49-1.106-.49-.298 0-.564.07-.798.21-.224.14-.401.36-.532.658-.121.29-.182.663-.182 1.12 0 .681.14 1.19.42 1.526.28.327.644.49 1.092.49zm8.811 1.582c-.812 0-1.512-.145-2.1-.434a3.275 3.275 0 0 1-1.344-1.246c-.308-.541-.462-1.176-.462-1.904 0-.71.15-1.33.448-1.862a3.173 3.173 0 0 1 1.246-1.26c.541-.308 1.153-.462 1.834-.462.495 0 .943.084 1.344.252a2.912 2.912 0 0 1 1.694 1.806c.15.43.224.91.224 1.442 0 .177-.056.313-.168.406-.112.084-.275.126-.49.126h-4.396v-1.092h3.528l-.224.196c0-.383-.056-.7-.168-.952a1.231 1.231 0 0 0-.49-.588c-.205-.13-.462-.196-.77-.196-.345 0-.64.08-.882.238-.242.159-.43.387-.56.686-.13.299-.196.658-.196 1.078v.112c0 .71.163 1.232.49 1.568.336.336.83.504 1.484.504.224 0 .48-.028.77-.084.29-.056.56-.145.812-.266.215-.103.406-.135.574-.098a.597.597 0 0 1 .392.224.745.745 0 0 1 .154.42.801.801 0 0 1-.098.476.987.987 0 0 1-.42.378 3.788 3.788 0 0 1-1.078.392 4.95 4.95 0 0 1-1.148.14zm6.438 0c-.504 0-.957-.098-1.358-.294a2.321 2.321 0 0 1-.938-.798 1.998 1.998 0 0 1-.336-1.134c0-.504.13-.9.392-1.19.261-.299.686-.509 1.274-.63.588-.13 1.367-.196 2.338-.196h.742v1.092h-.728c-.476 0-.864.028-1.162.084-.29.047-.5.13-.63.252-.122.121-.182.29-.182.504 0 .261.088.476.266.644.186.168.452.252.798.252.27 0 .508-.06.714-.182.214-.13.382-.303.504-.518.121-.224.182-.476.182-.756v-1.61c0-.41-.094-.7-.28-.868-.187-.177-.504-.266-.952-.266-.252 0-.528.033-.826.098-.29.056-.612.154-.966.294-.206.093-.388.117-.546.07a.69.69 0 0 1-.364-.28.856.856 0 0 1-.126-.448c0-.168.046-.327.14-.476.093-.159.247-.275.462-.35a6.01 6.01 0 0 1 2.31-.462c.718 0 1.306.107 1.764.322a2.12 2.12 0 0 1 1.05.966c.233.43.35.985.35 1.666v3.108c0 .345-.084.611-.252.798-.168.187-.41.28-.728.28s-.565-.093-.742-.28c-.168-.187-.252-.453-.252-.798v-.518l.098.084a1.799 1.799 0 0 1-1.05 1.358 2.41 2.41 0 0 1-.966.182zm8.1 0c-.41 0-.835-.037-1.273-.112a4.24 4.24 0 0 1-1.176-.378.951.951 0 0 1-.406-.35.87.87 0 0 1-.098-.448.787.787 0 0 1 .14-.406c.093-.121.21-.2.35-.238a.7.7 0 0 1 .49.042c.382.159.732.27 1.05.336.317.065.63.098.938.098.401 0 .69-.06.868-.182.186-.13.28-.299.28-.504 0-.187-.06-.327-.182-.42-.122-.093-.299-.159-.532-.196l-1.47-.266c-.579-.103-1.027-.313-1.344-.63-.308-.327-.462-.742-.462-1.246 0-.467.13-.868.392-1.204.261-.345.62-.607 1.078-.784.466-.187.994-.28 1.582-.28.42 0 .807.037 1.162.112a4.05 4.05 0 0 1 1.022.364.723.723 0 0 1 .35.336c.074.14.098.285.07.434a.821.821 0 0 1-.168.406.643.643 0 0 1-.364.238c-.14.037-.304.019-.49-.056a4.031 4.031 0 0 0-.826-.294 2.9 2.9 0 0 0-.728-.098c-.42 0-.724.07-.91.21-.187.13-.28.299-.28.504a.58.58 0 0 0 .154.406c.112.103.28.173.504.21l1.47.266c.606.103 1.068.308 1.386.616.317.299.476.71.476 1.232 0 .71-.28 1.27-.84 1.68-.55.401-1.288.602-2.212.602z" fill="#333"/>
</svg>
