<svg width="124" height="30" viewBox="0 0 124 30" fill="none" xmlns="http://www.w3.org/2000/svg">
    <path fill="#fff" d="M0 0h124v30H0z"/>
    <path d="M25.096 20.126c-.299 0-.546-.065-.742-.196-.187-.14-.34-.35-.462-.63l-3.528-7.84c-.13-.28-.168-.527-.112-.742a.854.854 0 0 1 .35-.518c.177-.13.392-.196.644-.196.317 0 .56.075.728.224.168.14.308.35.42.63l3.094 7.154h-.7l3.094-7.168c.121-.28.266-.49.434-.63.168-.14.401-.21.7-.21.252 0 .457.065.616.196.168.121.27.294.308.518.047.215.01.462-.112.742L26.3 19.3c-.13.28-.29.49-.476.63-.177.13-.42.196-.728.196zm8.29.028c-.738 0-1.382-.145-1.933-.434a3.058 3.058 0 0 1-1.26-1.246c-.298-.541-.448-1.18-.448-1.918 0-.55.084-1.045.252-1.484a3.064 3.064 0 0 1 1.89-1.834 4.239 4.239 0 0 1 1.498-.252c.738 0 1.377.145 1.919.434.55.29.975.7 1.273 1.232.309.532.462 1.167.462 1.904 0 .56-.088 1.06-.266 1.498a3.2 3.2 0 0 1-.728 1.134c-.317.317-.704.56-1.162.728a4.463 4.463 0 0 1-1.498.238zm0-1.582c.307 0 .573-.075.797-.224.224-.15.402-.369.532-.658.131-.299.196-.677.196-1.134 0-.681-.14-1.18-.42-1.498-.28-.327-.648-.49-1.105-.49-.3 0-.565.07-.799.21-.224.14-.4.36-.532.658-.12.29-.181.663-.181 1.12 0 .681.14 1.19.42 1.526.28.327.644.49 1.092.49zm6.004 1.54c-.346 0-.612-.098-.798-.294-.178-.205-.266-.49-.266-.854v-4.788c0-.373.088-.658.266-.854.186-.205.452-.308.798-.308.336 0 .592.103.77.308.186.196.28.48.28.854v4.788c0 .364-.089.649-.266.854-.178.196-.439.294-.784.294zm0-8.246c-.392 0-.696-.089-.91-.266-.206-.187-.308-.448-.308-.784 0-.345.102-.607.308-.784.214-.187.518-.28.91-.28s.69.093.896.28c.205.177.308.439.308.784 0 .336-.103.597-.308.784-.206.177-.504.266-.896.266zm6.028 8.288c-.747 0-1.4-.145-1.96-.434a3.125 3.125 0 0 1-1.274-1.26c-.299-.541-.448-1.18-.448-1.918 0-.55.084-1.045.252-1.484.168-.439.41-.812.728-1.12a3.234 3.234 0 0 1 1.176-.7 4.398 4.398 0 0 1 2.45-.14c.326.065.648.182.966.35a.69.69 0 0 1 .378.364.853.853 0 0 1-.098.91.719.719 0 0 1-.364.252c-.15.037-.318.01-.504-.084a2.07 2.07 0 0 0-.56-.224 2.194 2.194 0 0 0-.532-.07c-.28 0-.528.047-.742.14-.215.084-.397.21-.546.378-.14.159-.252.36-.336.602a2.86 2.86 0 0 0-.112.84c0 .616.15 1.101.448 1.456.308.345.737.518 1.288.518.168 0 .345-.019.532-.056.186-.047.373-.121.56-.224.186-.093.354-.117.504-.07.15.047.266.135.35.266a.764.764 0 0 1 .154.434.865.865 0 0 1-.084.476.704.704 0 0 1-.364.35c-.318.159-.635.27-.952.336-.318.075-.62.112-.91.112zm6.773 0c-.812 0-1.512-.145-2.1-.434a3.275 3.275 0 0 1-1.344-1.246c-.308-.541-.462-1.176-.462-1.904 0-.71.149-1.33.448-1.862a3.174 3.174 0 0 1 1.246-1.26c.54-.308 1.152-.462 1.834-.462.494 0 .942.084 1.344.252a2.91 2.91 0 0 1 1.694 1.806c.149.43.224.91.224 1.442 0 .177-.056.313-.168.406-.112.084-.276.126-.49.126H50.02v-1.092h3.528l-.224.196c0-.383-.056-.7-.168-.952a1.23 1.23 0 0 0-.49-.588c-.206-.13-.462-.196-.77-.196-.346 0-.64.08-.882.238-.243.159-.43.387-.56.686-.131.299-.196.658-.196 1.078v.112c0 .71.163 1.232.49 1.568.336.336.83.504 1.484.504.224 0 .48-.028.77-.084.289-.056.56-.145.812-.266.214-.103.406-.135.574-.098a.597.597 0 0 1 .392.224.744.744 0 0 1 .154.42.8.8 0 0 1-.098.476.987.987 0 0 1-.42.378 3.787 3.787 0 0 1-1.078.392 4.95 4.95 0 0 1-1.148.14z" fill="#333"/>
    <rect y="13" width="14" height="4" rx="2" fill="#AA6BD4"/>
</svg>
