<svg width="124" height="30" viewBox="0 0 124 30" fill="none" xmlns="http://www.w3.org/2000/svg">
    <path fill="#fff" d="M0 0h124v30H0z"/>
    <path d="M25.768 20.168c-2.884 0-5.026-2.226-5.026-5.04V15.1c0-2.786 2.1-5.068 5.11-5.068 1.47 0 2.464.392 3.276.994.224.168.42.476.42.854 0 .588-.476 1.05-1.064 1.05-.294 0-.49-.112-.644-.21-.602-.448-1.232-.7-2.002-.7-1.652 0-2.842 1.372-2.842 3.052v.028c0 1.68 1.162 3.08 2.842 3.08.91 0 1.512-.28 2.128-.77.168-.14.392-.238.644-.238a1.01 1.01 0 0 1 1.008.994c0 .336-.168.602-.364.77-.882.77-1.918 1.232-3.486 1.232zm9.065 0c-2.324 0-4.046-1.722-4.046-3.878v-.028c0-2.156 1.736-3.906 4.074-3.906 2.324 0 4.046 1.722 4.046 3.878v.028c0 2.156-1.736 3.906-4.074 3.906zm.028-1.834c1.218 0 1.946-.938 1.946-2.044v-.028c0-1.106-.798-2.072-1.974-2.072-1.218 0-1.946.938-1.946 2.044v.028c0 1.106.798 2.072 1.974 2.072zm5.587.686v-5.544a1.064 1.064 0 1 1 2.128 0v.084c.49-.63 1.12-1.204 2.198-1.204 1.61 0 2.548 1.064 2.548 2.786v3.878a1.064 1.064 0 1 1-2.128 0v-3.206c0-1.008-.476-1.526-1.288-1.526s-1.33.518-1.33 1.526v3.206a1.064 1.064 0 1 1-2.128 0zm13.01.21c-.238.546-.63.924-1.204.924h-.112c-.574 0-.966-.364-1.204-.924l-2.296-5.306a1.414 1.414 0 0 1-.112-.518c0-.504.462-.994 1.036-.994.574 0 .882.322 1.036.756l1.61 4.354 1.638-4.382c.14-.364.434-.728.994-.728s1.022.434 1.022 1.008c0 .182-.07.406-.112.504l-2.296 5.306zm5.282-3.57h3.206c-.126-.952-.686-1.596-1.582-1.596-.882 0-1.456.63-1.624 1.596zm4.438 3.598c-.658.56-1.512.91-2.604.91-2.254 0-3.92-1.582-3.92-3.878v-.028c0-2.142 1.526-3.906 3.71-3.906 2.506 0 3.612 2.058 3.612 3.612 0 .616-.434 1.022-.994 1.022h-4.214c.21.966.882 1.47 1.834 1.47.588 0 1.078-.182 1.512-.504a.794.794 0 0 1 .518-.168c.476 0 .826.364.826.84 0 .28-.126.49-.28.63zm2.426-.238v-5.544a1.064 1.064 0 1 1 2.128 0v.084c.49-.63 1.12-1.204 2.198-1.204 1.61 0 2.548 1.064 2.548 2.786v3.878a1.064 1.064 0 1 1-2.128 0v-3.206c0-1.008-.476-1.526-1.288-1.526s-1.33.518-1.33 1.526v3.206a1.064 1.064 0 1 1-2.128 0zm11.257 1.106c-1.302 0-2.184-.518-2.184-2.254v-3.556h-.07a.908.908 0 0 1-.91-.91c0-.504.406-.91.91-.91h.07v-.938a1.064 1.064 0 1 1 2.128 0v.938h.938c.504 0 .91.406.91.91s-.406.91-.91.91h-.938v3.206c0 .49.21.728.686.728.07 0 .21-.014.252-.014.476 0 .882.392.882.882a.866.866 0 0 1-.546.798c-.392.154-.756.21-1.218.21zm3.248-9.394v-.028c0-.616.519-.994 1.19-.994.672 0 1.19.378 1.19.994v.028c0 .616-.517 1.008-1.19 1.008-.672 0-1.19-.392-1.19-1.008zm.127 8.288v-5.544a1.064 1.064 0 1 1 2.127 0v5.544a1.064 1.064 0 1 1-2.127 0zm7.808 1.148c-2.324 0-4.046-1.722-4.046-3.878v-.028c0-2.156 1.736-3.906 4.074-3.906 2.324 0 4.046 1.722 4.046 3.878v.028c0 2.156-1.736 3.906-4.074 3.906zm.028-1.834c1.218 0 1.946-.938 1.946-2.044v-.028c0-1.106-.798-2.072-1.974-2.072-1.218 0-1.946.938-1.946 2.044v.028c0 1.106.798 2.072 1.974 2.072zm5.587.686v-5.544a1.064 1.064 0 1 1 2.128 0v.084c.49-.63 1.12-1.204 2.198-1.204 1.61 0 2.548 1.064 2.548 2.786v3.878a1.064 1.064 0 1 1-2.128 0v-3.206c0-1.008-.476-1.526-1.288-1.526s-1.33.518-1.33 1.526v3.206a1.064 1.064 0 1 1-2.128 0zm11.355 1.12a5.23 5.23 0 0 1-2.828-.854.848.848 0 0 1-.406-.728c0-.476.364-.84.84-.84.154 0 .308.042.42.112.714.448 1.428.672 2.03.672.616 0 .896-.224.896-.56v-.028c0-.462-.728-.616-1.554-.868-1.05-.308-2.24-.798-2.24-2.254v-.028c0-1.526 1.232-2.38 2.744-2.38.784 0 1.596.21 2.324.574a.867.867 0 0 1 .504.798c0 .476-.378.84-.854.84a.777.777 0 0 1-.392-.098c-.602-.294-1.176-.476-1.624-.476-.518 0-.784.224-.784.518v.028c0 .42.714.616 1.526.896 1.05.35 2.268.854 2.268 2.226v.028c0 1.666-1.246 2.422-2.87 2.422z" fill="#333"/>
    <rect y="13" width="14" height="4" rx="2" fill="#DB5757"/>
</svg>
