<svg width="128" height="30" viewBox="0 0 128 30" fill="none" xmlns="http://www.w3.org/2000/svg">
    <path fill="#fff" d="M0 0h128v30H0z"/>
    <rect y="13" width="14" height="4" rx="2" fill="#588EE1"/>
    <path d="M21.274 19.006v-7.812a1.07 1.07 0 0 1 1.078-1.078 1.07 1.07 0 0 1 1.078 1.078v7.812a1.07 1.07 0 0 1-1.078 1.078 1.07 1.07 0 0 1-1.078-1.078zm11.927-8.246v8.26a1.064 1.064 0 1 1-2.128 0v-.098c-.518.7-1.232 1.218-2.338 1.218-1.75 0-3.416-1.372-3.416-3.878v-.028c0-2.506 1.638-3.878 3.416-3.878 1.134 0 1.834.518 2.338 1.12V10.76a1.064 1.064 0 1 1 2.128 0zm-3.92 3.402c-.994 0-1.834.812-1.834 2.072v.028c0 1.246.84 2.072 1.834 2.072.994 0 1.82-.826 1.82-2.072v-.028c0-1.246-.826-2.072-1.82-2.072zm7.543 1.498h3.206c-.126-.952-.686-1.596-1.582-1.596-.882 0-1.456.63-1.624 1.596zm4.438 3.598c-.658.56-1.512.91-2.604.91-2.254 0-3.92-1.582-3.92-3.878v-.028c0-2.142 1.526-3.906 3.71-3.906 2.506 0 3.612 2.058 3.612 3.612 0 .616-.434 1.022-.994 1.022h-4.214c.21.966.882 1.47 1.834 1.47.588 0 1.078-.182 1.512-.504a.794.794 0 0 1 .518-.168c.476 0 .826.364.826.84 0 .28-.126.49-.28.63zm4.554.882c-1.414 0-2.576-.812-2.576-2.296v-.028c0-1.638 1.246-2.394 3.024-2.394.756 0 1.302.126 1.834.308v-.126c0-.882-.546-1.372-1.61-1.372a4.88 4.88 0 0 0-1.47.21.9.9 0 0 1-.308.056.867.867 0 0 1-.882-.868c0-.378.238-.7.574-.826.672-.252 1.4-.392 2.394-.392 1.162 0 2.002.308 2.534.84.56.56.812 1.386.812 2.394v3.416c0 .574-.462 1.022-1.036 1.022-.616 0-1.022-.434-1.022-.882v-.014c-.518.574-1.232.952-2.268.952zm.644-1.47c.994 0 1.666-.546 1.666-1.316v-.378a3.3 3.3 0 0 0-1.358-.28c-.91 0-1.47.364-1.47 1.036v.028c0 .574.476.91 1.162.91zm8.145 1.47a5.23 5.23 0 0 1-2.827-.854.848.848 0 0 1-.407-.728c0-.476.364-.84.84-.84.154 0 .309.042.42.112.715.448 1.428.672 2.03.672.617 0 .896-.224.896-.56v-.028c0-.462-.727-.616-1.553-.868-1.05-.308-2.24-.798-2.24-2.254v-.028c0-1.526 1.231-2.38 2.743-2.38.785 0 1.596.21 2.325.574a.867.867 0 0 1 .504.798c0 .476-.378.84-.855.84a.777.777 0 0 1-.392-.098c-.602-.294-1.175-.476-1.623-.476-.519 0-.785.224-.785.518v.028c0 .42.715.616 1.527.896 1.05.35 2.267.854 2.267 2.226v.028c0 1.666-1.245 2.422-2.87 2.422z" fill="#333"/>
</svg>
