<svg width="26" height="26" preserveAspectRatio="none" viewBox="0 0 26 26" fill="none" xmlns="http://www.w3.org/2000/svg">
<g id="ic">
<path id="?&#226;&#145;&#165;&#235;&#146;&#170; 166" d="M26.0004 12.1306V24.6107C26.0004 25.3767 25.3795 25.9976 24.6135 25.9976H1.38691C0.621354 25.9965 0.00106033 25.3762 0 24.6107V12.1306C0.00106033 11.365 0.621354 10.7447 1.38691 10.7437H24.6135C25.3795 10.7437 26.0004 11.3645 26.0004 12.1306Z" fill="#E1E6E9"/>
<path id="?&#226;&#145;&#165;&#235;&#146;&#170; 167" d="M22.2349 24.468V26.0001H3.87207V24.468C3.87207 23.7019 4.49289 23.0811 5.25898 23.0811H20.8485C21.6146 23.0811 22.2354 23.7019 22.2354 24.468H22.2349Z" fill="#22407D"/>
<path id="?&#194;&#128;??34" d="M3.54995 21.7073C4.12443 21.7073 4.59013 21.2416 4.59013 20.6671C4.59013 20.0927 4.12443 19.627 3.54995 19.627C2.97547 19.627 2.50977 20.0927 2.50977 20.6671C2.50977 21.2416 2.97547 21.7073 3.54995 21.7073Z" fill="#2D5BBC"/>
<path id="?&#194;&#128;??35" d="M3.55037 21.1872C3.8376 21.1872 4.07046 20.9543 4.07046 20.6671C4.07046 20.3798 3.8376 20.147 3.55037 20.147C3.26313 20.147 3.03027 20.3798 3.03027 20.6671C3.03027 20.9543 3.26313 21.1872 3.55037 21.1872Z" fill="#6189DF"/>
<path id="?&#194;&#128;??36" d="M7.01675 21.7073C7.59122 21.7073 8.05693 21.2416 8.05693 20.6671C8.05693 20.0927 7.59122 19.627 7.01675 19.627C6.44227 19.627 5.97656 20.0927 5.97656 20.6671C5.97656 21.2416 6.44227 21.7073 7.01675 21.7073Z" fill="#DB5757"/>
<path id="?&#194;&#128;??37" d="M7.01716 21.1872C7.3044 21.1872 7.53725 20.9543 7.53725 20.6671C7.53725 20.3798 7.3044 20.147 7.01716 20.147C6.72992 20.147 6.49707 20.3798 6.49707 20.6671C6.49707 20.9543 6.72992 21.1872 7.01716 21.1872Z" fill="#EF7E7E"/>
<path id="Vector" d="M22.1086 7.80078H3.8921C3.13082 7.80078 2.51367 8.41793 2.51367 9.17921V11.7542C2.51367 12.5155 3.13082 13.1327 3.8921 13.1327H22.1086C22.8699 13.1327 23.487 12.5155 23.487 11.7542V9.17921C23.487 8.41793 22.8699 7.80078 22.1086 7.80078Z" fill="#22407D"/>
<path id="?&#226;&#145;&#165;&#235;&#146;&#170; 170" d="M20.9733 10.707V12.0939H5.02646V10.707H2.50977V16.6003C2.50977 17.5578 3.28593 18.3335 4.24288 18.3335H21.7532C22.7106 18.3335 23.4863 17.5573 23.4863 16.6003V10.707H20.9728H20.9733Z" fill="#21C39A"/>
<path id="?&#226;&#145;&#165;&#235;&#146;&#170; 171" d="M6.06655 13.133H19.933C20.5072 13.133 20.9732 12.6675 20.9732 12.0928H5.02637C5.02637 12.6669 5.49185 13.133 6.06655 13.133Z" fill="#58E1BF"/>
<path id="?&#226;&#145;&#165;&#235;&#146;&#170; 172" d="M2.50977 10.707H5.02646V11.7472H2.50977V10.707Z" fill="#58E1BF"/>
<path id="?&#226;&#145;&#165;&#235;&#146;&#170; 173" d="M20.9736 10.707H23.4871V11.7472H20.9736V10.707Z" fill="#58E1BF"/>
<path id="Vector_2" d="M6.4048 0H19.5948C20.3556 0 20.9732 0.617642 20.9732 1.37843V12.0931H5.02637V1.37843C5.02637 0.617642 5.64401 0 6.4048 0Z" fill="#E1E6E9"/>
<g id="Group">
<path id="?&#226;&#145;&#165;&#235;&#146;&#170; 174" d="M18.2001 8.64209H7.79985C7.60846 8.64209 7.45312 8.79743 7.45312 8.98882C7.45312 9.18021 7.60846 9.33555 7.79985 9.33555H18.2001C18.3915 9.33555 18.5468 9.18021 18.5468 8.98882C18.5468 8.79743 18.3915 8.64209 18.2001 8.64209Z" fill="#D5D6DB"/>
<path id="?&#226;&#145;&#165;&#235;&#146;&#170; 175" d="M18.2001 6.64453H7.79985C7.60846 6.64453 7.45312 6.79987 7.45312 6.99126C7.45312 7.18265 7.60846 7.33799 7.79985 7.33799H18.2001C18.3915 7.33799 18.5468 7.18265 18.5468 6.99126C18.5468 6.79987 18.3915 6.64453 18.2001 6.64453Z" fill="#D5D6DB"/>
<path id="?&#226;&#145;&#165;&#235;&#146;&#170; 176" d="M18.2001 4.64746H7.79985C7.60846 4.64746 7.45312 4.8028 7.45312 4.99419C7.45312 5.18558 7.60846 5.34092 7.79985 5.34092H18.2001C18.3915 5.34092 18.5468 5.18558 18.5468 4.99419C18.5468 4.8028 18.3915 4.64746 18.2001 4.64746Z" fill="#D5D6DB"/>
<path id="?&#226;&#145;&#165;&#235;&#146;&#170; 177" d="M18.2001 2.65088H7.79985C7.60846 2.65088 7.45312 2.80622 7.45312 2.99761C7.45312 3.189 7.60846 3.34434 7.79985 3.34434H18.2001C18.3915 3.34434 18.5468 3.189 18.5468 2.99761C18.5468 2.80622 18.3915 2.65088 18.2001 2.65088Z" fill="#D5D6DB"/>
</g>
</g>
</svg>
