<svg width="100" height="100" viewBox="0 0 100 100" fill="none" xmlns="http://www.w3.org/2000/svg">
<circle cx="50" cy="50" r="50" fill="#F4F4F4"/>
<g clip-path="url(#clip0_681_2127)">
<path d="M55.4855 75.5766C53.5175 73.4143 50.021 73.4876 48.149 75.7263C47.2872 76.7591 46.8796 78.1263 47.031 79.4672C47.1184 80.2183 47.3804 80.9459 47.7909 81.5826C48.2247 82.2516 48.8448 82.8179 49.4154 83.3665C51.9803 85.8399 62.1783 96.6386 63.5 98C67.046 97.1843 70.3732 95.6959 73.5 94C73.3515 93.8504 56.1377 76.184 55.4826 75.5766H55.4855Z" fill="#E7E7E7"/>
<path d="M44.6714 48.6361C45.1851 52.5546 45.7398 56.4869 46.5548 60.3573C46.7671 61.3713 46.8732 62.4678 47.7087 63.1759C47.9793 63.5059 48.3148 63.8118 48.6196 64.1074C48.9997 64.4717 75.2499 90.8736 75.6231 91.207C75.9724 91.5232 76.3046 91.8566 76.6333 92.1969C88.6352 84.8067 97.1513 72.2091 98.997 57.58C98.4251 57.0231 57.5498 17.9377 57.2484 17.6868C57.1252 17.5871 57.0361 17.4496 56.9163 17.3465C56.341 16.8549 55.5226 16.6453 54.8035 16.4837C53.7317 16.2397 52.6291 16.1228 51.5334 16.0575C49.2631 15.9269 48.8867 15.9819 46.6678 16.525C45.9829 16.6934 45.1782 16.9099 44.6509 17.4152C44.3085 17.7452 44.1236 18.2883 43.966 18.7214C43.7777 19.2301 43.6442 19.7595 43.5346 20.2922C43.1648 22.1002 43.0655 23.9736 43.021 25.8194C42.9627 28.2014 43.0381 30.5869 43.1648 32.9655C43.4456 38.204 43.9934 43.4321 44.6749 48.6327L44.6714 48.6361Z" fill="#E7E7E7"/>
<path d="M57.7652 18.9633C57.6145 18.5027 57.457 18.1555 57.255 17.7911C56.3612 15.416 45.2841 15.416 44.3904 17.7911C44.2089 18.1108 44.0308 18.5027 43.8801 18.9633C43.8151 19.1489 43.7569 19.3379 43.7124 19.5304C41.1305 29.1651 46.3216 62.0325 47.1982 62.6065C48.7015 64.9473 52.9439 64.9473 54.4471 62.6065C55.3237 62.0325 60.5114 29.1651 57.933 19.5304C57.8885 19.3379 57.8302 19.1489 57.7652 18.9633Z" fill="#42278F"/>
<circle cx="51" cy="78" r="5" fill="#42278F"/>
</g>
<defs>
<clipPath id="clip0_681_2127">
<rect width="56" height="82" fill="white" transform="translate(43 16)"/>
</clipPath>
</defs>
</svg>
