<svg xmlns="http://www.w3.org/2000/svg" xmlns:xlink="http://www.w3.org/1999/xlink" width="433.5" height="438" viewBox="0 0 433.5 438">
  <defs>
    <filter id="타원_116" x="166" y="173.5" width="98" height="98" filterUnits="userSpaceOnUse">
      <feOffset dy="3" input="SourceAlpha"/>
      <feGaussianBlur stdDeviation="3" result="blur"/>
      <feFlood flood-opacity="0.161"/>
      <feComposite operator="in" in2="blur"/>
      <feComposite in="SourceGraphic"/>
    </filter>
  </defs>
  <g id="graph" transform="translate(8 2)">
    <g id="chart" transform="translate(-116.5 -479.5)">
      <g id="size_02" data-name="size 02">
        <g id="그룹_12686" data-name="그룹 12686" transform="translate(0.5 1)">
          <circle id="타원_108" data-name="타원 108" cx="207" cy="207" r="207" transform="translate(116 489)" fill="#fff" stroke="#f5f5f5" stroke-linecap="round" stroke-linejoin="round" stroke-width="16"/>
          <circle id="타원_109" data-name="타원 109" cx="177" cy="177" r="177" transform="translate(146 519)" fill="#fff" stroke="#f5f5f5" stroke-linecap="round" stroke-linejoin="round" stroke-width="16"/>
          <circle id="타원_110" data-name="타원 110" cx="147" cy="147" r="147" transform="translate(176 549)" fill="#fff" stroke="#f5f5f5" stroke-linecap="round" stroke-linejoin="round" stroke-width="16"/>
          <circle id="타원_111" data-name="타원 111" cx="117" cy="117" r="117" transform="translate(206 579)" fill="#fff" stroke="#f5f5f5" stroke-linecap="round" stroke-linejoin="round" stroke-width="16"/>
          <circle id="타원_112" data-name="타원 112" cx="87" cy="87" r="87" transform="translate(236 609)" fill="#fff" stroke="#f5f5f5" stroke-linecap="round" stroke-linejoin="round" stroke-width="16"/>
          <circle id="타원_113" data-name="타원 113" cx="57" cy="57" r="57" transform="translate(266 639)" fill="#fff" stroke="#f5f5f5" stroke-linecap="round" stroke-linejoin="round" stroke-width="16"/>
        </g>
        <g id="line" transform="translate(0 0.5)">
          <g id="패스_13445" data-name="패스 13445" transform="translate(116 489)" fill="#588ee1" stroke-linecap="round">
            <path d="M 207.0000152587891 425 C 115.8872375488281 425 33.56829071044922 367.4361572265625 2.159735441207886 281.759765625 C 1.148401975631714 279.0010986328125 1.271901965141296 276.0137329101562 2.507513046264648 273.3479309082031 C 3.743068695068359 270.6820983886719 5.942790985107422 268.6570434570312 8.701457977294922 267.6457214355469 C 9.922957420349121 267.1979370117188 11.196457862854 266.9708862304688 12.48662376403809 266.9708862304688 C 14.71734619140625 266.9708862304688 16.87256813049316 267.6407775878906 18.71929168701172 268.9081115722656 C 20.60812377929688 270.2042846679688 22.02456855773926 272.0298767089844 22.81551361083984 274.1874389648438 C 51.06034469604492 351.2342224121094 125.0783996582031 403 207.0000152587891 403 C 315.0747985839844 403 403 315.0747680664062 403 207 C 403 98.92522430419922 315.0747985839844 11 207.0000152587891 11 C 204.0617980957031 11 201.2994537353516 9.855833053588867 199.2218475341797 7.778166770935059 C 197.1442413330078 5.700555324554443 196.0000152587891 2.938222169876099 196.0000152587891 0 C 196.0000152587891 -2.938222169876099 197.1442413330078 -5.700555324554443 199.2218475341797 -7.778166770935059 C 201.2994537353516 -9.855833053588867 204.0617980957031 -11 207.0000152587891 -11 C 327.2056274414062 -11 425 86.79438781738281 425 207 C 425 327.2055969238281 327.2056274414062 425 207.0000152587891 425 Z" stroke="none"/>
            <path d="M 207.0000152587891 424 C 326.6541748046875 424 424 326.6541748046875 424 207 C 424 87.34583282470703 326.6541748046875 -10 207.0000152587891 -10 C 201.4771728515625 -10 197.0000152587891 -5.522888660430908 197.0000152587891 0 C 197.0000152587891 5.522888660430908 201.4771728515625 10 207.0000152587891 10 C 315.6261901855469 10 404 98.37383270263672 404 207 C 404 315.6261596679688 315.6261901855469 404 207.0000152587891 404 C 124.6606216430664 404 50.26523590087891 351.9706726074219 21.87662506103516 274.5316772460938 C 19.97567939758301 269.3463439941406 14.23106861114502 266.6835021972656 9.045680046081543 268.5846252441406 C 3.860290765762329 270.4855651855469 1.197679758071899 276.230224609375 3.098624229431152 281.4155578613281 C 34.36334609985352 366.6996765136719 116.3049545288086 424 207.0000152587891 424 M 207.0000152587891 426 C 115.4694595336914 426 32.77317810058594 368.172607421875 1.22084641456604 282.1039428710938 C 0.1175686568021774 279.0945129394531 0.2522908747196198 275.8355407714844 1.600235342979431 272.9273986816406 C 2.948124170303345 270.019287109375 5.347846508026123 267.81005859375 8.357291221618652 266.7068481445312 C 9.689401626586914 266.218505859375 11.07868003845215 265.9708862304688 12.48662376403809 265.9708862304688 C 14.9202356338501 265.9708862304688 17.2711238861084 266.7014465332031 19.28512382507324 268.0835571289062 C 21.34612464904785 269.4979553222656 22.89156913757324 271.4896240234375 23.75440216064453 273.8432922363281 C 51.8554573059082 350.4977722167969 125.4961776733398 402 207.0000152587891 402 C 314.5234069824219 402 402 314.5233764648438 402 207 C 402 99.47660827636719 314.5234069824219 12 207.0000152587891 12 C 203.794677734375 12 200.7812347412109 10.75177764892578 198.5147399902344 8.485278129577637 C 196.2482299804688 6.218777656555176 195.0000152587891 3.205333232879639 195.0000152587891 0 C 195.0000152587891 -3.205333232879639 196.2482299804688 -6.218777656555176 198.5147399902344 -8.485278129577637 C 200.7812347412109 -10.75177764892578 203.794677734375 -12 207.0000152587891 -12 C 327.7570190429688 -12 426 86.24299621582031 426 207 C 426 327.7569885253906 327.7570190429688 426 207.0000152587891 426 Z" stroke="none" fill="#1f61c8"/>
          </g>
          <g id="패스_13446" data-name="패스 13446" transform="translate(146 519)" fill="#f6914d" stroke-linecap="round">
            <path d="M 176.9999694824219 365 C 82.2464599609375 365 2.025762557983398 294.0850524902344 -9.600437164306641 200.0457000732422 C -9.9609375 197.1296997070312 -9.164337158203125 194.2478485107422 -7.357337474822998 191.9309997558594 C -5.550337314605713 189.6141052246094 -2.949237585067749 188.1396026611328 -0.033237524330616 187.7790985107422 C 0.4184624850749969 187.7232513427734 0.8768124580383301 187.6949462890625 1.329112529754639 187.6949462890625 C 6.865262508392334 187.6949462890625 11.55306243896484 191.8441467285156 12.23331260681152 197.3463439941406 C 22.49921226501465 280.3825378417969 93.33346557617188 343 176.9999694824219 343 C 268.5326538085938 343 342.9999694824219 268.53271484375 342.9999694824219 177 C 342.9999694824219 85.46730041503906 268.5326538085938 11 176.9999694824219 11 C 174.061767578125 11 171.2994689941406 9.855799674987793 169.2218170166016 7.778200149536133 C 167.1441650390625 5.700550079345703 165.9999694824219 2.938199996948242 165.9999694824219 0 C 165.9999694824219 -2.938199996948242 167.1441650390625 -5.700500011444092 169.2218170166016 -7.778150081634521 C 171.2994689941406 -9.855799674987793 174.061767578125 -11 176.9999694824219 -11 C 280.6635131835938 -11 364.9999694824219 73.33644866943359 364.9999694824219 177 C 364.9999694824219 280.6635437011719 280.6635131835938 365 176.9999694824219 365 Z" stroke="none"/>
            <path d="M 176.9999694824219 364 C 280.1121520996094 364 363.9999694824219 280.1121520996094 363.9999694824219 177 C 363.9999694824219 73.88784790039062 280.1121520996094 -10 176.9999694824219 -10 C 171.4771575927734 -10 166.9999694824219 -5.522799968719482 166.9999694824219 0 C 166.9999694824219 5.522850036621094 171.4771575927734 10 176.9999694824219 10 C 269.0841064453125 10 343.9999694824219 84.91590118408203 343.9999694824219 177 C 343.9999694824219 269.0841064453125 269.0841064453125 344 176.9999694824219 344 C 92.82955932617188 344 21.56861305236816 281.0054016113281 11.24086284637451 197.4690551757812 C 10.56321239471436 191.9879455566406 5.570618629455566 188.0939788818359 0.08946247398853302 188.7715454101562 C -5.391687393188477 189.4492034912109 -9.285637855529785 194.44189453125 -8.607987403869629 199.9230041503906 C 2.95636248588562 293.4622497558594 82.75046539306641 364 176.9999694824219 364 M 176.9999694824219 366 C 81.74251556396484 366 1.095162510871887 294.7078857421875 -10.59288787841797 200.1683959960938 C -10.98618793487549 196.9873046875 -10.11713790893555 193.8434448242188 -8.14588737487793 191.3159942626953 C -6.174587726593018 188.7884979248047 -3.337037563323975 187.1799468994141 -0.155937522649765 186.7866516113281 C 0.3362124860286713 186.7257995605469 0.8358624577522278 186.6949462890625 1.329112529754639 186.6949462890625 C 7.369212627410889 186.6949462890625 12.48366260528564 191.2212982177734 13.22576236724854 197.2236480712891 C 23.42981338500977 279.7597045898438 93.83740997314453 342 176.9999694824219 342 C 267.9812622070312 342 341.9999694824219 267.9812927246094 341.9999694824219 177 C 341.9999694824219 86.01869964599609 267.9812622070312 12 176.9999694824219 12 C 173.7946624755859 12 170.7812194824219 10.75179958343506 168.5147094726562 8.485300064086914 C 166.2482147216797 6.218800067901611 164.9999694824219 3.205300092697144 164.9999694824219 0 C 164.9999694824219 -3.205300092697144 166.2481689453125 -6.21875 168.5147094726562 -8.485250473022461 C 170.7812194824219 -10.75179958343506 173.7946624755859 -12 176.9999694824219 -12 C 281.2149047851562 -12 365.9999694824219 72.78504943847656 365.9999694824219 177 C 365.9999694824219 281.2149353027344 281.2149047851562 366 176.9999694824219 366 Z" stroke="none" fill="#ee711e"/>
          </g>
          <g id="패스_13447" data-name="패스 13447" transform="translate(176 549)" fill="#aa6bd4" stroke-linecap="round">
            <path d="M 146.9999847412109 305 C 110.7844390869141 305 76.646728515625 293.0242919921875 48.27752304077148 270.3675842285156 C 45.98164749145508 268.5340270996094 44.5372314453125 265.9161376953125 44.21035766601562 262.9961547851562 C 43.88348007202148 260.0762023925781 44.71323013305664 257.2037353515625 46.54681396484375 254.9078674316406 C 48.64593887329102 252.2794647216797 51.78110504150391 250.7719573974609 55.14844131469727 250.7719573974609 C 57.66489791870117 250.7719573974609 60.03639984130859 251.6036224365234 62.00656509399414 253.1770782470703 C 86.43610382080078 272.6874084472656 115.8263549804688 283 146.9999847412109 283 C 221.9906463623047 283 283.0000305175781 221.9906616210938 283.0000305175781 147 C 283.0000305175781 72.00933074951172 221.9906463623047 11 146.9999847412109 11 C 144.061767578125 11 141.2994384765625 9.855792045593262 139.2218170166016 7.778166770935059 C 137.1441955566406 5.700541496276855 135.9999847412109 2.938208341598511 135.9999847412109 2.842170943040401e-14 C 135.9999847412109 -2.938208341598511 137.1441955566406 -5.700541496276855 139.2218170166016 -7.778166770935059 C 141.2994384765625 -9.855792045593262 144.061767578125 -11 146.9999847412109 -11 C 234.1214752197266 -11 305.0000305175781 59.87850189208984 305.0000305175781 147 C 305.0000305175781 234.1215057373047 234.1214752197266 305 146.9999847412109 305 Z" stroke="none"/>
            <path d="M 146.9999847412109 304 C 233.5701141357422 304 304.0000305175781 233.5700836181641 304.0000305175781 147 C 304.0000305175781 60.42991638183594 233.5701141357422 -10 146.9999847412109 -10 C 141.4771423339844 -10 136.9999847412109 -5.522833347320557 136.9999847412109 2.842170943040401e-14 C 136.9999847412109 5.52287483215332 141.4771423339844 10 146.9999847412109 10 C 222.5421142578125 10 284.0000305175781 71.45796203613281 284.0000305175781 147 C 284.0000305175781 222.5420379638672 222.5421142578125 284 146.9999847412109 284 C 115.5971450805664 284 85.99110412597656 273.6117858886719 61.38252258300781 253.9584655761719 C 57.06702041625977 250.511962890625 50.77468872070312 251.2163848876953 47.32818984985352 255.5319213867188 C 43.88169097900391 259.8473815917969 44.58610534667969 266.1397094726562 48.90156555175781 269.5862121582031 C 77.09172821044922 292.0999145507812 111.0135650634766 304 146.9999847412109 304 M 146.9999847412109 306 C 110.5552291870117 306 76.20177459716797 293.9486999511719 47.65348052978516 271.1489868164062 C 45.14889907836914 269.1487121582031 43.57314682006836 266.2928466796875 43.2165641784668 263.107421875 C 42.85993957519531 259.9220275878906 43.7651481628418 256.7884216308594 45.76539993286133 254.2838287353516 C 48.05535507202148 251.4164581298828 51.47531509399414 249.7719573974609 55.14844131469727 249.7719573974609 C 57.8548583984375 249.7719573974609 60.51206588745117 250.7037506103516 62.63060760498047 252.3956604003906 C 86.88106536865234 271.7630004882812 116.0555267333984 282 146.9999847412109 282 C 221.4392700195312 282 282.0000305175781 221.4392547607422 282.0000305175781 147 C 282.0000305175781 72.56075286865234 221.4392700195312 12 146.9999847412109 12 C 143.7946472167969 12 140.7811889648438 10.75179195404053 138.5146942138672 8.485291481018066 C 136.2481842041016 6.218791484832764 134.9999847412109 3.205333232879639 134.9999847412109 2.842170943040401e-14 C 134.9999847412109 -3.205291748046875 136.2481842041016 -6.218791484832764 138.5146942138672 -8.485291481018066 C 140.7811889648438 -10.75179195404053 143.7946929931641 -12 146.9999847412109 -12 C 234.6728973388672 -12 306.0000305175781 59.32708358764648 306.0000305175781 147 C 306.0000305175781 234.6729125976562 234.6728973388672 306 146.9999847412109 306 Z" stroke="none" fill="#863fb5"/>
          </g>
          <g id="패스_13448" data-name="패스 13448" transform="translate(206 579)" fill="#30c194" stroke-linecap="round">
            <path d="M 117 245 C 66.57466888427734 245 20.63809967041016 215.1369934082031 -0.02883406914770603 168.9204711914062 C -1.228267431259155 166.2382049560547 -1.311367392539978 163.2494354248047 -0.2628673911094666 160.5046691894531 C 0.7856326103210449 157.7599029541016 2.840265989303589 155.5877380371094 5.522499084472656 154.3883056640625 C 6.948165893554688 153.7507934570312 8.457032203674316 153.4275665283203 10.0072660446167 153.4275665283203 C 14.34179973602295 153.4275665283203 18.28566551208496 155.9837036132812 20.05463218688965 159.9396057128906 C 37.18489837646484 198.2473297119141 75.23819732666016 223 117 223 C 175.4485931396484 223 223 175.4485931396484 223 117 C 223 58.55139923095703 175.4485931396484 11 117 11 C 114.0617980957031 11 111.2994689941406 9.855799674987793 109.2218322753906 7.778166770935059 C 107.1441955566406 5.700533390045166 106 2.938199996948242 106 0 C 106 -2.938199996948242 107.1441955566406 -5.700533390045166 109.2218322753906 -7.778166770935059 C 111.2994689941406 -9.855799674987793 114.0617980957031 -11 117 -11 C 187.5794372558594 -11 245 46.42056655883789 245 117 C 245 187.5794372558594 187.5794372558594 245 117 245 Z" stroke="none"/>
            <path d="M 117 244 C 187.0280303955078 244 244 187.0280303955078 244 117 C 244 46.97196578979492 187.0280303955078 -10 117 -10 C 111.477165222168 -10 107 -5.522833347320557 107 0 C 107 5.522833347320557 111.477165222168 10 117 10 C 176 10 224 58 224 117 C 224 176 176 224 117 224 C 74.84439849853516 224 36.43276596069336 199.0150299072266 19.14176559448242 160.3478393554688 C 16.88723182678223 155.3061218261719 10.97243022918701 153.0466766357422 5.930732727050781 155.3011932373047 C 0.8889992833137512 157.5557403564453 -1.3704674243927 163.4705047607422 0.8840659260749817 168.5122375488281 C 21.39023208618164 214.3692626953125 66.96842956542969 244 117 244 M 117 246 C 66.18086242675781 246 19.88599967956543 215.9046936035156 -0.9417007565498352 169.3286590576172 C -2.250167369842529 166.4025726318359 -2.340834140777588 163.1421051025391 -1.197034120559692 160.1477966308594 C -0.05320073664188385 157.1535339355469 2.188199281692505 154.7839050292969 5.114299297332764 153.4754333496094 C 6.669199466705322 152.7801361083984 8.315432548522949 152.4275665283203 10.0072660446167 152.4275665283203 C 14.73559951782227 152.4275665283203 19.03776550292969 155.2159729003906 20.96753311157227 159.5314025878906 C 37.93703079223633 197.4795989990234 75.63199615478516 222 117 222 C 174.8972015380859 222 222 174.8972015380859 222 117 C 222 59.10279846191406 174.8972015380859 12 117 12 C 113.7947006225586 12 110.7812347412109 10.75176620483398 108.5147323608398 8.48526668548584 C 106.2482299804688 6.218766689300537 105 3.205300092697144 105 0 C 105 -3.205300092697144 106.2482299804688 -6.218766689300537 108.5147323608398 -8.48526668548584 C 110.7812347412109 -10.75176620483398 113.7947006225586 -12 117 -12 C 188.1308288574219 -12 246 45.86916732788086 246 117 C 246 188.1308288574219 188.1308288574219 246 117 246 Z" stroke="none" fill="#12986f"/>
          </g>
          <g id="패스_13449" data-name="패스 13449" transform="translate(236 609)" fill="#6865cc" stroke-linecap="round">
            <path d="M 87 185 C 38.48221969604492 185 -3.24457859992981 148.7232818603516 -10.06015396118164 100.6172027587891 C -10.47232818603516 97.70805358886719 -9.7269287109375 94.81252288818359 -7.961278438568115 92.46399688720703 C -6.195653438568115 90.115478515625 -3.621128559112549 88.59510040283203 -0.711978554725647 88.18292236328125 C -0.1966785341501236 88.10990142822266 0.3266714513301849 88.07289886474609 0.8435964584350586 88.07289886474609 C 3.468571424484253 88.07289886474609 6.014796257019043 89.0208740234375 8.013221740722656 90.74222564697266 C 10.03107166290283 92.48032379150391 11.34832191467285 94.89132690429688 11.72232151031494 97.53109741210938 C 17.01024627685547 134.8545074462891 49.37261962890625 163 87 163 C 128.9065399169922 163 163.0000152587891 128.9065551757812 163.0000152587891 87 C 163.0000152587891 45.09344863891602 128.9065399169922 11 87 11 C 84.06179809570312 11 81.29946899414062 9.855799674987793 79.22182464599609 7.778174877166748 C 77.14419555664062 5.700550079345703 76 2.938199996948242 76 0 C 76 -2.938199996948242 77.14419555664062 -5.700550079345703 79.22182464599609 -7.778174877166748 C 81.29946899414062 -9.855799674987793 84.06179809570312 -11 87 -11 C 141.0373992919922 -11 185.0000152587891 32.96262359619141 185.0000152587891 87 C 185.0000152587891 141.0373687744141 141.0373992919922 185 87 185 Z" stroke="none"/>
            <path d="M 87.00001525878906 184 C 140.4859924316406 184 184.0000152587891 140.4859771728516 184.0000152587891 87 C 184.0000152587891 33.5140266418457 140.4859924316406 -10 87.00001525878906 -10 C 81.4771728515625 -10 77.00001525878906 -5.522841930389404 77.00001525878906 0 C 77.00001525878906 5.522841930389404 81.4771728515625 10 87.00001525878906 10 C 129.4579315185547 10 164.0000152587891 44.54205322265625 164.0000152587891 87 C 164.0000152587891 129.4579162597656 129.4579315185547 164 87.00001525878906 164 C 48.87759399414062 164 16.08956909179688 135.4849243164062 10.73220062255859 97.67137145996094 C 9.957490921020508 92.20316314697266 4.896539688110352 88.39829254150391 -0.5716943144798279 89.17302703857422 C -6.039931297302246 89.94779205322266 -9.844773292541504 95.00868225097656 -9.070062637329102 100.4769439697266 C -2.323904752731323 148.0928955078125 38.97725296020508 184 87.00001525878906 184 M 87.00001525878906 186 C 37.98722839355469 186 -4.165246963500977 149.3536834716797 -11.05029964447021 100.7574996948242 C -11.49990463256836 97.58386993408203 -10.68674659729004 94.42510223388672 -8.760588645935059 91.86307525634766 C -6.834457397460938 89.30105590820312 -4.025878429412842 87.64244842529297 -0.8522732853889465 87.19281768798828 C -0.2905101180076599 87.11323547363281 0.2800161838531494 87.07289123535156 0.8435951471328735 87.07289123535156 C 3.708016157150269 87.07289123535156 6.486016273498535 88.10694885253906 8.665831565856934 89.98455047607422 C 10.86733245849609 91.88081359863281 12.3044376373291 94.51107788085938 12.71243762969971 97.39081573486328 C 17.93091011047363 134.2240753173828 49.86762237548828 162 87.00001525878906 162 C 128.3551483154297 162 162.0000152587891 128.3551330566406 162.0000152587891 87 C 162.0000152587891 45.64486694335938 128.3551483154297 12 87.00001525878906 12 C 83.79470062255859 12 80.78122711181641 10.75178909301758 78.51472473144531 8.485289573669434 C 76.24822998046875 6.218789577484131 75.00001525878906 3.205315828323364 75.00001525878906 0 C 75.00001525878906 -3.205315828323364 76.24822998046875 -6.218789577484131 78.51472473144531 -8.485289573669434 C 80.78122711181641 -10.75178909301758 83.79470062255859 -12 87.00001525878906 -12 C 141.5888061523438 -12 186.0000152587891 32.41120910644531 186.0000152587891 87 C 186.0000152587891 141.5887908935547 141.5888061523438 186 87.00001525878906 186 Z" stroke="none" fill="#433fa7"/>
          </g>
          <g id="패스_13450" data-name="패스 13450" transform="translate(266 639)" fill="#db5757" stroke-linecap="round">
            <path d="M 57 125 C 19.50467300415039 125 -11 94.49533081054688 -11 57 C -11 43.18732833862305 -6.829617977142334 29.81512641906738 1.060272693634033 18.32907295227051 C 3.113145351409912 15.34054565429688 6.50600004196167 13.55636405944824 10.13616371154785 13.55636405944824 C 12.36294555664062 13.55636405944824 14.51354503631592 14.22512722015381 16.35545539855957 15.4903450012207 C 18.7773265838623 17.15398216247559 20.40638160705566 19.66114616394043 20.94254493713379 22.55001831054688 C 21.47870826721191 25.43889045715332 20.8577823638916 28.36365509033203 19.19418144226074 30.7855281829834 C 13.83349132537842 38.58949279785156 11 47.6543083190918 11 57 C 11 82.36449432373047 31.6355094909668 103 57 103 C 82.36449432373047 103 103 82.36449432373047 103 57 C 103 31.6355094909668 82.36449432373047 11 57 11 C 54.06178283691406 11 51.29945373535156 9.855799674987793 49.22181701660156 7.778182029724121 C 47.14419937133789 5.700545310974121 46 2.938218116760254 46 0 C 46 -2.938218116760254 47.14419937133789 -5.700545310974121 49.22181701660156 -7.778182029724121 C 51.29945373535156 -9.855799674987793 54.06178283691406 -11 57 -11 C 94.49533081054688 -11 125 19.50467300415039 125 57 C 125 94.49533081054688 94.49533081054688 125 57 125 Z" stroke="none"/>
            <path d="M 57 124 C 93.94392395019531 124 124 93.94392395019531 124 57 C 124 20.05607223510742 93.94392395019531 -10 57 -10 C 51.47714614868164 -10 47 -5.522854328155518 47 0 C 47 5.522854328155518 51.47714614868164 10 57 10 C 82.91590881347656 10 104 31.08410835266113 104 57 C 104 82.91590881347656 82.91590881347656 104 57 104 C 31.08410835266113 104 10 82.91590881347656 10 57 C 10 47.45127105712891 12.89427280426025 38.19065475463867 18.36990928649902 30.21932792663574 C 21.49694633483887 25.66699981689453 20.34154510498047 19.44167327880859 15.7892541885376 16.31461906433105 C 11.23694705963135 13.18758296966553 5.011600017547607 14.34298038482666 1.8845454454422 18.89527320861816 C -5.890363693237305 30.21392822265625 -10 43.39032745361328 -10 57 C -10 93.94392395019531 20.05607223510742 124 57 124 M 57 126 C 18.95327186584473 126 -12 95.04673004150391 -12 57 C -12 42.98427200317383 -7.76885461807251 29.41629028320312 0.2360000014305115 17.76287269592285 C 2.475454568862915 14.50272750854492 6.176454544067383 12.55636405944824 10.13616371154785 12.55636405944824 C 12.5659818649292 12.55636405944824 14.91236400604248 13.28589057922363 16.92165374755859 14.66607284545898 C 19.56369018554688 16.4809455871582 21.34083557128906 19.21603584289551 21.92574501037598 22.36752700805664 C 22.51065444946289 25.5190372467041 21.83329010009766 28.70967292785645 20.01845359802246 31.35172653198242 C 14.77272701263428 38.98832702636719 12 47.85736465454102 12 57 C 12 81.81308746337891 32.18690872192383 102 57 102 C 81.81308746337891 102 102 81.81308746337891 102 57 C 102 32.18690872192383 81.81308746337891 12 57 12 C 53.79467391967773 12 50.78121948242188 10.75178146362305 48.51470947265625 8.48529052734375 C 46.24821853637695 6.2187819480896 45 3.205327272415161 45 0 C 45 -3.205327272415161 46.24821853637695 -6.2187819480896 48.51470947265625 -8.48529052734375 C 50.78121948242188 -10.75178146362305 53.79467391967773 -12 57 -12 C 95.04673004150391 -12 126 18.95327186584473 126 57 C 126 95.04673004150391 95.04673004150391 126 57 126 Z" stroke="none" fill="#be1f1f"/>
          </g>
        </g>
      </g>
      <g id="total" transform="translate(26.666 27.666)">
        <g transform="matrix(1, 0, 0, 1, 81.83, 449.83)" filter="url(#타원_116)">
          <circle id="타원_116-2" data-name="타원 116" cx="40" cy="40" r="40" transform="translate(175 179.5)" fill="#fff"/>
        </g>
      </g>
    </g>
  </g>
</svg>
