<svg xmlns="http://www.w3.org/2000/svg" width="100%" height="100%" preserveAspectRatio="none" viewBox="0 0 257 123" fill="none">
  <g filter="url(#filter0_d_620_1668)">
    <mask id="path-1-inside-1_620_1668" fill="white">
      <path fill-rule="evenodd" clip-rule="evenodd" d="M240.48 0C247.108 0 252.48 5.37258 252.48 12V103C252.48 109.627 247.108 115 240.48 115H24.4805C17.8531 115 12.4805 109.627 12.4805 103V62.3251L4.60257 58.9178C3.79852 58.5701 3.79852 57.4299 4.60257 57.0822L12.4805 53.6749V12C12.4805 5.37258 17.8531 0 24.4805 0H240.48Z"/>
    </mask>
    <path fill-rule="evenodd" clip-rule="evenodd" d="M240.48 0C247.108 0 252.48 5.37258 252.48 12V103C252.48 109.627 247.108 115 240.48 115H24.4805C17.8531 115 12.4805 109.627 12.4805 103V62.3251L4.60257 58.9178C3.79852 58.5701 3.79852 57.4299 4.60257 57.0822L12.4805 53.6749V12C12.4805 5.37258 17.8531 0 24.4805 0H240.48Z" fill="white"/>
    <path d="M12.4805 62.3251L13.6714 59.5716C14.7695 60.0466 15.4805 61.1287 15.4805 62.3251H12.4805ZM4.60257 58.9178L5.79347 56.1643L5.79349 56.1643L4.60257 58.9178ZM4.60257 57.0822L5.79349 59.8357L5.79347 59.8357L4.60257 57.0822ZM12.4805 53.6749H15.4805C15.4805 54.8713 14.7695 55.9534 13.6714 56.4284L12.4805 53.6749ZM249.48 12C249.48 7.02944 245.451 3 240.48 3V-3C248.765 -3 255.48 3.71573 255.48 12H249.48ZM249.48 103V12H255.48V103H249.48ZM240.48 112C245.451 112 249.48 107.971 249.48 103H255.48C255.48 111.284 248.765 118 240.48 118V112ZM24.4805 112H240.48V118H24.4805V112ZM15.4805 103C15.4805 107.971 19.5099 112 24.4805 112V118C16.1962 118 9.48047 111.284 9.48047 103H15.4805ZM15.4805 62.3251V103H9.48047V62.3251H15.4805ZM5.79349 56.1643L13.6714 59.5716L11.2896 65.0786L3.41165 61.6713L5.79349 56.1643ZM5.79347 59.8357C7.40155 59.1402 7.40155 56.8598 5.79347 56.1643L3.41167 61.6713C0.195496 60.2803 0.195496 55.7197 3.41167 54.3287L5.79347 59.8357ZM13.6714 56.4284L5.79349 59.8357L3.41165 54.3287L11.2896 50.9214L13.6714 56.4284ZM15.4805 12V53.6749H9.48047V12H15.4805ZM24.4805 3C19.5099 3 15.4805 7.02944 15.4805 12H9.48047C9.48047 3.71573 16.1962 -3 24.4805 -3V3ZM240.48 3H24.4805V-3H240.48V3Z" fill="current" mask="url(#path-1-inside-1_620_1668)"/>
  </g>
  <defs>
    <filter id="filter0_d_620_1668" x="0" y="0" width="256.48" height="123" filterUnits="userSpaceOnUse" color-interpolation-filters="sRGB">
      <feFlood flood-opacity="0" result="BackgroundImageFix"/>
      <feColorMatrix in="SourceAlpha" type="matrix" values="0 0 0 0 0 0 0 0 0 0 0 0 0 0 0 0 0 0 127 0" result="hardAlpha"/>
      <feOffset dy="4"/>
      <feGaussianBlur stdDeviation="2"/>
      <feComposite in2="hardAlpha" operator="out"/>
      <feColorMatrix type="matrix" values="0 0 0 0 0 0 0 0 0 0 0 0 0 0 0 0 0 0 0.2 0"/>
      <feBlend mode="normal" in2="BackgroundImageFix" result="effect1_dropShadow_620_1668"/>
      <feBlend mode="normal" in="SourceGraphic" in2="effect1_dropShadow_620_1668" result="shape"/>
    </filter>
  </defs>
</svg>